<svg xmlns="http://www.w3.org/2000/svg" viewBox="0 0 74.92 59.04"><defs><style>.cls-1{fill:#fff;}</style></defs><title>adopt</title><g id="Layer_2" data-name="Layer 2"><g id="Layer_1-2" data-name="Layer 1"><path class="cls-1" d="M44.51,37.43a25.56,25.56,0,0,0-5.6.8c-.48.16-.95.4-1.44.51s-.92,0-1.38.12a4.5,4.5,0,0,1-2.18.18c-1.58-.36-2.63-.62-3.57-2.11a2.91,2.91,0,0,1-.56-2.24c.11-.76.33-1.53.49-2.28.25-1.15.4-2.18,1.4-2.91a8.94,8.94,0,0,1,4.26-1.43c.91-.13,2.5.45,2.59-.82A29.62,29.62,0,0,1,39,21.47c.29-1.08,1.15-2.87,2.18-3.38s1.72.25,2.5.9c1.17,1,2.79,2,3.48,3.37.46.93,0,3.61,1,4a6.19,6.19,0,0,1,2-.64,11.87,11.87,0,0,0,2.38-.93L51.93,9.14l-.8-.5a4.41,4.41,0,0,0-.25-1.3c-.11-.44-.06-.89-.15-1.34-.31-1.42-1.32-2.39-2-3.61A4.79,4.79,0,0,0,46.57.31,8.88,8.88,0,0,0,43,.05a4.66,4.66,0,0,0-3.1,1.15,4,4,0,0,0-1.44,3.55c0,1,.07,2,.11,3a8.81,8.81,0,0,1-.23,2.77c-.12.44-.14,1.14-.5,1.49a2.29,2.29,0,0,1-1.78.25c-.56-.08-1.09-.32-1.65-.39-.87-.1-1.76.16-2.64,0-2.38-.38-5,0-7.43.06-2.14.08-4.26,0-6.17,1.11a10.19,10.19,0,0,0-3.29,4.05,7.82,7.82,0,0,0-.71,1.76c-.21,1-.39,2-.55,3-.11.62-.25,1.21-.37,1.8.33.47.64,1.09,1.28.94s.92-1.34,1.18-1.92A11.16,11.16,0,0,1,17,20.4a5.74,5.74,0,0,1,3.14-1.92c1.67-.57,2.9,1.34,2.87,2.85a12.82,12.82,0,0,1-.3,1.94,12.8,12.8,0,0,1-1,2.47c.15.29.82.2,1.1.19a9.28,9.28,0,0,1,1.9,0,7.72,7.72,0,0,1,3.41,1.51c.92.79.85,2.2.92,3.34a5.12,5.12,0,0,1-.32,2.57,11.86,11.86,0,0,1-1.11,1.55,2.34,2.34,0,0,1-.78.87,6.8,6.8,0,0,1-3,.52,59.42,59.42,0,0,1-9.62-.26c.14.44.27.89.4,1.33a20.89,20.89,0,0,0,2.06,4.19,6,6,0,0,0,2.14,2.62,16.61,16.61,0,0,0,3.4,1.23,22.51,22.51,0,0,0,4.76.84c.62.05,1.24-.08,1.87,0a10.81,10.81,0,0,0,2.21.12c1.19,0,2.39-.08,3.58-.12a7.8,7.8,0,0,1,1.66-.1c.94.19.38,1.18.31,1.85a37.59,37.59,0,0,0,.14,4.5,6.07,6.07,0,0,0,1.63,4.06C40.29,58.8,43,59.27,45.77,59a11.11,11.11,0,0,0,4.31-2,7.28,7.28,0,0,0,2.54-4.24c.22-.9.44-1.77.7-2.67a6.83,6.83,0,0,0,.24-2.2,9.63,9.63,0,0,0-.11-1.43,18.75,18.75,0,0,1-.32-3.19c-.08-2.49-.17-5-.26-7.46a10.34,10.34,0,0,0-1.08.22A44.25,44.25,0,0,1,44.51,37.43Z"/><path class="cls-1" d="M13.1,25.17a6.88,6.88,0,0,1,.16-1.52c-.06-.08-.12-.17-.18-.24a25.2,25.2,0,0,1-1.73-1.87c-.54-.76.1-1.54.44-2.29a14.15,14.15,0,0,0,.91-2.83c.15-.75.14-1.49.23-2.24A21.24,21.24,0,0,1,13.7,11c.16-.58.33-1.16.48-1.74a1,1,0,0,1-.25,0A3.31,3.31,0,0,1,13.07,9a8.72,8.72,0,0,0-1-.36l-.24.43c-.89.43-1.48,1.27-2.56,1.39-.89.1-1.57-.5-2.38-.5-1.28,0-2,1.35-3.16,1.58a2.42,2.42,0,0,1-1.43-.12c.23,1.12-.29,2.26-.24,3.47A25.06,25.06,0,0,1,1.77,18c-.11,1.28-.71,2.52-.94,3.79-.18,1-.28,2-.51,3-.44,1.84-.62,4.36.75,5.84a13.1,13.1,0,0,0,4.85,3.24,35.24,35.24,0,0,0,8,2.19l.33,0A24.5,24.5,0,0,1,12.7,29C12.69,27.7,13.13,26.45,13.1,25.17Z"/><path class="cls-1" d="M70.21,5.4c-1.42.67-2.21,2.05-4,1.21-.82-.37-1-1.34-1.6-1.72-1.26-.76-2.16.36-3.48.68-2.07.5-3.8-2.05-5.5-1.66.07.81.18,1.61.2,2.4a13.4,13.4,0,0,0,.87,4,28.34,28.34,0,0,0,1.73,4.13A4.08,4.08,0,0,1,58.87,16a7,7,0,0,0,.69,1.68c.23.52.26,1.05.45,1.57s.56.91.19,1.55a6.74,6.74,0,0,1-2.45,1.79,16.28,16.28,0,0,1-2.11,1,31.25,31.25,0,0,0-3.09,1.19l-.07,0,.14,3.78q.12,3.61.25,7.21c.47-.08,1-.16,1.42-.27a15.16,15.16,0,0,0,1.93-.76,8.91,8.91,0,0,1,2.86-.35,23.23,23.23,0,0,0,3.4-.58,18,18,0,0,0,5.15-1.59c1.4-.75,2.08-3.48,2.6-4.86A37.7,37.7,0,0,0,71.43,22c.28-1.32.57-2.63.84-3.95s.87-2.71,1.15-4.12c.48-2.36,1-4.71,1.5-7.06C73,6.82,72,4.57,70.21,5.4Z"/></g></g></svg>