<svg xmlns="http://www.w3.org/2000/svg" viewBox="0 0 53.98 70.72"><defs><style>.cls-1{fill:#fff;}</style></defs><title>map</title><g id="Layer_2" data-name="Layer 2"><g id="Layer_1-2" data-name="Layer 1"><path class="cls-1" d="M.14,40.57,7.8,36.83c3.36-1.64,7.71-3,10.72-5.23,1.8-1.35,1.07-3.3,1.06-5.71l0-10.61L12,19c-3.25,1.59-8.13,2.94-10.86,5.3-1.64,1.42-1,3.67-1,6Z"/><path class="cls-1" d="M19.6,32.12c-6.38,3.11-12.88,7-19.46,9.44V53.5l17-8.27c2.4-1.18,2.54-.88,2.54-3.56Z"/><path class="cls-1" d="M34.4,44.47,20.64,31.61c-.59,2.51-.08,5.9-.08,8.55,0,2-.39,3.74.74,5.29,1.82,2.52,5,4.68,7.28,6.8L34.3,57.6Z"/><path class="cls-1" d="M20.54,30.61c1.84.13,5.08,4.37,6.5,5.7l7.37,6.89.07-8.64c0-2.07.54-4.48-.53-6.14-1.69-2.63-5.29-5-7.57-7.08l-5.89-5.5Z"/><path class="cls-1" d="M35.34,45.35l-.1,12.4,16.29-9.42c2.35-1.36,2.29-1.17,2.29-3.93V35.26L44.1,40.88C42.68,41.7,36.66,46.3,35.34,45.35Z"/><path class="cls-1" d="M53.82,34.17V18.31l-14,8.1C38.9,27,36,28,35.47,29c-.9,1.59,0,6.06-.06,7.9,0,1.21-.86,6.36-.06,7.18,1,1,3.39-1.18,4.4-1.76Z"/><path class="cls-1" d="M35.48,27.84,43,23.5l5.89-3.41c1.17-.68,3.48-1.45,4.33-2.5,1.25-1.54.62-4.57.62-6.71V.7L37.25,12.49c-2.12,1.51-1.66,2.11-1.68,4.85Z"/><path class="cls-1" d="M34.29,58.88,20.58,46.07l0,10.19c2,.33,5.17,5.07,6.64,6.61l7,7.29Z"/><path class="cls-1" d="M35.23,58.85l-.1,11.87,16-9.79c2.2-1.34,2.67-1.14,2.67-3.68V48.09Z"/><path class="cls-1" d="M19.64,45.19c-1.94.22-4.48,2-6.33,2.93L2.53,53.38c-2.45,1.2-2.39,1-2.39,3.73V67l16.73-8.8c2.36-1.23,2.8-.95,2.79-3.58Z"/><path class="cls-1" d="M19.55,14.23l0-13.66L2.8,10.37C.62,11.65.14,11.44.14,13.92V23.7Z"/><path class="cls-1" d="M20.49,14.55,34.54,27.68l.07-8.94c0-2,.59-4.7-.41-6.31-1.57-2.52-5.29-4.79-7.48-6.78L20.49,0C20.19,4.77,20.48,9.74,20.49,14.55Z"/></g></g></svg>