<?xml version="1.0" encoding="utf-8"?>
<!-- Generator: Adobe Illustrator 22.1.0, SVG Export Plug-In . SVG Version: 6.00 Build 0)  -->
<svg version="1.1" id="Layer_1" xmlns="http://www.w3.org/2000/svg" xmlns:xlink="http://www.w3.org/1999/xlink" x="0px" y="0px"
	 viewBox="0 0 143.9 96.5" style="enable-background:new 0 0 143.9 96.5;" xml:space="preserve">
<style type="text/css">
	.st0{fill:#FFFFFF;}
</style>
<title>Asset 2</title>
<path class="st0" d="M82.6,4.7c-11-5.2-23.8-3.1-32.6,5.4c-4,3.9-7.1,9.2-8.1,14.7c-1.5,8,1.9,13.9,8.1,18.6c4,3,10.3,0.6,12.6-3.3
	c2.6-4.4,0.9-9-2.6-12c0.1-0.4,0.2-0.9,0.4-1.3c0.4-0.9,1-1.9,1.7-2.7c1.5-1.8,3.6-3.2,5.9-3.8c4.4-1,9.5,1.5,11.1,5.9
	c2.2,6.1-2.4,8.1-6.8,10.2c-7.9,3.8-10.1,11.8-9.4,20c0.4,5,3.9,9.2,9.2,9.2c4.7,0,9.7-4.2,9.2-9.2c0-0.5,0.2-3.8-0.3-4.1
	c1.4-0.9,4.7-1.7,5.8-2.5c5-3.4,8.6-8.4,10.3-14.2C100.7,23.5,94,10,82.6,4.7z"/>
<path class="st0" d="M71.6,73.2c-11.9,0-11.9,18.5,0,18.5C83.5,91.7,83.5,73.2,71.6,73.2z"/>
</svg>
