<svg xmlns="http://www.w3.org/2000/svg" viewBox="0 0 4800 4800"><defs><style>.cls-1{fill:#1a3ec1;}.cls-2{fill:#fff;stroke:#1a3ec1;stroke-linecap:round;stroke-linejoin:round;stroke-width:5px;}</style></defs><title>map</title><g id="Layer_3" data-name="Layer 3"><rect class="cls-1" width="4800" height="4800"/></g><g id="Layer_4" data-name="Layer 4"><path class="cls-2" d="M1362.71,3524.68l34,29.73-324.34,323.06,203,201.67,84.47-78.07-2-7.28-.9-1.36,235.71-246-219-238.28Zm18,530.86.55,1.12-58.44,66.15,117.52,115.67-112.23,109.46L948.25,3968.09,806.43,4111.47l-139.6-139.6,142.11-142.11L669.89,3690.71l109.48-110.85,129.1,128.61L1222,3400.26l23.12,21.84,168.28-168.27L1361.64,3192l-8-2.84-.91-.33,0-.05,82.15-82.15.38.38,57.93-57.61,79.37,79.37,89-87.3,93.17,91.88,37.53,37L1561.72,3393.2l-46.24-48.81L1430.06,3435,1548,3574.25l94.67,111.82,48.81,47.53-64.23,64.23-215,243-.59-.52Z"/><polygon class="cls-2" points="4544.06 1163.09 4464.33 1089.19 4558.68 996.1 4711.44 1134.97 4601.8 1244.14 4506.89 1338.63 4472.83 1372.55 4472.82 1372.55 4312.17 1532.51 4075.21 1766 4049.17 1738.22 4034.86 1752.28 3944.42 1663.19 3963.22 1644.05 3938.91 1613.67 4064.77 1479.13 4053.73 1469.09 4122.8 1400.02 4135.08 1412.3 4165.48 1384.08 4238.44 1312.08 4242.1 1311.93 4308.13 1376.25 4386.18 1305.73 4544.06 1163.09"/><path class="cls-2" d="M3390.59,1923.89l404.64,101.84,128-130.38,12.41,11.89h0l14.69-17.44,13.46-16,11.37-13.49,12.73,12.6,69.43-69.43-18.85-18,15.9-14-19.54-19.24,14.31-14.06,26,27.78,237-233.49,160.65-160h0l65.52-2.93v-.33l-31.45-30.66,94.91-94.49,109.64,99.68-399.27,397.54-237,233.48-26-27.77-149.29,146.69,83.32,83.32-146.69,146.69L3662.05,2151l68.63-71.54-251.77-66.41,384.19,388L3718.52,2545.7l-106-152.13-425.65,29.69L2862.68,2726l.27,21.6-14.43-11.6-57.76,63.54V2663.1l-.2,0V2663l0-.48,0-.49v-.49l0-.49,0-.49,0-.49-.07-.48-.09-.48-.1-.48-.12-.47-.14-.47-.15-.47-.17-.46-.18-.45-.2-.45-.22-.44-.23-.43-.24-.42-.26-.42-.28-.4-.28-.4-.31-.38-.31-.38-.33-.36-.34-.36-.35-.33-.36-.33-.38-.32-.38-.3-.4-.29-.4-.27-.42-.26-.42-.25-.44-.23-.43-.21-.45-.2-.45-.19-.46-.17-.47-.15-.47-.13-.47-.12-.48-.11-.48-.08-.49-.07-.48-.06-.49,0-.49,0h-1l-.49,0-.48,0-.49.07-.48.08-.48.1-.48.12-.47.13-.46.14-.47.17-.45.18-.45.2-.44.21-.43.22-.43.25-.41.25-.41.27-.4.29-.39.3-.38.31-.36.32-.36.34-.34.35-.33.36-.32.37-.3.38-.3.39-.27.41-.27.41-.25.42-.23.43-.22.44-.2.44-.19.46-.17.45-.16.47-.14.47-.12.47-.11.48-.09.48-.08.48-.05.49,0,.49,0,.49v1l0,.49.05.49.06.48.08.49.09.48,0,.13v165.37l-61.16,67.28-447.89-447.89,3.84-4.6c88.77,84.38,174,113.25,295.81,100.15v80.26l-.31,0v.2l0,.49.06.48.08.49.09.48.11.47.13.47.15.47.15.47.18.45.19.45.21.44.22.44.24.43.25.42.27.41.28.4.3.39.31.38.32.37.33.36.35.34.35.34.37.32.38.3.4.3.4.28.4.27.42.25.43.24.44.22.44.21.45.19.46.18.46.16.47.14.47.13.48.11.48.1.48.07.48.07.49,0,.49,0h1l.49,0,.49,0,.48-.06.49-.07.48-.09.47-.11.48-.13.47-.13.46-.16.46-.17.45-.19.44-.21.44-.22.43-.23.42-.25.41-.26.41-.28.39-.29.38-.31.38-.31.36-.33.34-.35.34-.35.33-.37.31-.37.3-.39.28-.4.27-.41.26-.42.24-.42.23-.43.21-.45.19-.45.18-.45.17-.46.15-.47.13-.47.12-.47.09-.48.09-.49.06-.48,0-.49,0-.49,0-.49v-.48h.13v-83.22c295.59-54.79,407.23-419.57,192.94-630.41l62.86-62.86-35.2-27.66,88-103.1-435-445.08,95.23-95.23v174h-.32l0,.21,0,.49.06.48.08.49.09.48.12.47.12.48.15.46.16.46.18.46.19.45.2.44.23.44.24.43.25.42.27.41.28.4.29.39.31.38.32.37.33.35.35.35.36.34.37.32.38.31.39.29.4.28.41.27.42.25.43.24.43.22.44.21.45.19.46.18.46.16.47.14.47.13.48.11.48.1.48.07.49.07.48,0,.49,0h1l.49,0,.49,0,.48-.06.49-.07.48-.09.48-.11.47-.12.47-.15.46-.15.46-.17.45-.19.45-.21.43-.21.43-.24.43-.25.41-.26.4-.28.39-.29.39-.31.37-.31.36-.33.35-.35.34-.35.32-.37.31-.38.3-.38.29-.4.27-.41.25-.42.24-.42.23-.44.21-.44.2-.45.18-.45.16-.46.15-.47.13-.47.12-.47.1-.48.08-.49.07-.48,0-.49,0-.49v-1h.14V1173.37l-.2,0v-.06l0-.49v-1l0-.49,0-.49,0-.48-.07-.49-.09-.48-.1-.48-.12-.47-.14-.47-.15-.47-.17-.46-.18-.45-.2-.45-.22-.44-.23-.43-.24-.42-.26-.42-.28-.4-.28-.4-.31-.38-.31-.38-.33-.36-.34-.35-.35-.34-.36-.33-.38-.32-.38-.3-.4-.29-.4-.27-.42-.26-.42-.24-.43-.23-.44-.22-.45-.2-.45-.18-.46-.17-.27-.08,32.5-32.5Zm38.73,280.92V2028.53l-.19,0v-.07l0-.49,0-.49V2027l0-.48,0-.49-.05-.49-.07-.48-.09-.48-.1-.48-.12-.48-.14-.47-.15-.46-.17-.46-.18-.46-.2-.44-.22-.44-.23-.43-.24-.43-.26-.41-.28-.41-.29-.39-.3-.39-.31-.37-.33-.37-.34-.35-.35-.34-.36-.33-.38-.31-.39-.3-.39-.29-.41-.27-.41-.26-.42-.25-.43-.23-.45-.22-.44-.19-.45-.19-.46-.17-.47-.15-.47-.14-.47-.12-.48-.1-.48-.09-.49-.07-.48,0-.49,0-.49,0h-.49l-.49,0-.49,0-.49,0-.48.06-.48.09-.48.1-.48.11-.47.13-.46.15-.47.17-.45.18-.45.19-.44.22-.43.22-.43.24-.42.26-.41.27-.39.28-.39.3-.38.32-.36.32-.36.34-.34.34-.33.36-.32.38-.31.38-.29.39-.27.41-.27.41-.25.42-.23.43-.22.44-.2.44-.19.45-.18.46-.15.46-.14.47-.13.48-.1.47-.09.49-.08.48-.06.49,0,.48,0,.49v.49l0,.49,0,.49,0,.49.06.48.08.49.09.48,0,.07v175.61l-.31,0v.2l0,.49.06.49.08.48.09.48.11.48.13.47.15.47.16.46.17.46.2.45.2.44.23.44.23.42.26.42.26.41.28.4.3.39.31.38.32.37.33.36.35.35.36.33.37.32.37.31.4.3.4.28.41.26.42.25.42.24.44.23.44.2.45.2.46.17.46.16.47.15.47.12.48.12.48.09.48.08.49.06.48.05.49,0h1l.49,0,.49,0,.48-.05.49-.08.48-.09.48-.11.47-.12.47-.14.46-.16.46-.17.45-.19.45-.2.43-.22.43-.24.43-.24.41-.27.4-.27.39-.29.38-.31.38-.32.36-.33.35-.34.33-.36.33-.36.31-.38.3-.39.28-.4.27-.4.26-.42.24-.43.23-.43.21-.44.2-.45.18-.46.16-.46.15-.46.13-.47.12-.48.1-.48.08-.48.06-.49,0-.48,0-.49,0-.49v-.49Zm-213.38-216.58V1811.94l-.2,0v-.06l0-.49v-1l0-.49,0-.49,0-.49-.07-.48-.09-.48-.1-.48-.12-.47-.14-.47-.15-.47-.17-.46-.18-.45-.2-.45-.22-.44-.23-.43-.24-.42-.26-.42-.28-.4-.28-.4-.31-.38-.31-.38-.33-.36-.34-.35-.35-.34-.36-.33-.38-.32-.38-.3-.4-.29-.4-.27-.42-.26-.42-.25-.43-.23-.44-.21-.45-.2-.45-.19-.46-.16-.47-.16-.47-.13-.47-.12-.48-.11-.48-.08-.49-.07-.48,0-.49,0-.49,0h-1l-.49,0-.48,0-.49.07-.48.08-.48.1-.48.12-.47.13-.46.15-.46.16-.46.18-.45.2-.44.21-.43.23-.43.24-.41.25-.41.27-.4.29-.39.3-.38.31-.36.32-.36.34-.34.35-.33.36-.32.37-.3.38-.3.4-.27.4-.27.41-.25.42-.23.43-.22.44-.2.45-.19.45-.17.45-.16.47-.14.47-.13.47-.1.48-.09.48-.08.48-.05.49,0,.49,0,.49v1l0,.48.05.49.06.49.08.48.09.48,0,.13v175.56h-.32v.21l.05.49.06.48.08.49.09.48.11.47.13.47.15.47.16.46.17.46.2.45.2.44.23.44.23.43.26.42.26.41.29.4.29.39.31.38.32.37.33.35.35.35.36.33.37.32.38.31.39.3.4.28.41.27.42.25.42.24.44.22.44.21.45.19.46.18.46.16.47.14.47.13.48.11.48.1.48.07.49.07.48,0,.49,0h1l.49,0,.49,0,.49-.06.48-.07.48-.09.48-.11.47-.12.47-.15.46-.15.46-.17.45-.19.45-.21.43-.22.43-.23.42-.25.42-.26.4-.28.39-.29.39-.31.37-.31.36-.34.35-.34.34-.35.32-.37.31-.38.3-.38.28-.4.27-.41.26-.42.24-.42.23-.44.21-.44.2-.45.18-.45.16-.46.15-.47.13-.47.12-.47.1-.48.08-.49.06-.48.05-.49,0-.49v-1Zm-212.59-215V1597l-.2,0v-.06l0-.49,0-.49v-.49l0-.49,0-.49-.05-.48-.07-.49-.09-.48-.1-.48-.12-.47-.14-.47-.15-.47-.17-.46-.18-.45-.2-.45-.22-.44-.23-.43-.24-.42-.26-.42-.27-.4-.29-.4-.31-.38-.31-.38-.33-.36-.34-.35-.35-.34-.36-.33-.38-.31-.38-.31-.4-.28-.4-.28-.42-.26-.42-.24-.43-.23-.44-.22-.45-.2-.45-.18-.46-.17-.47-.15-.47-.14-.47-.12-.48-.1-.48-.09-.49-.07-.48,0-.49,0-.49,0h-1l-.49,0-.48,0-.49.06-.48.08-.48.1-.48.12-.47.13-.46.15-.47.16-.45.18-.45.2-.44.21-.43.23-.43.24-.41.26-.41.27-.4.28-.39.3-.38.31-.36.33-.36.33-.34.35-.33.36-.32.37-.3.39-.3.39-.27.4-.27.41-.25.43-.23.43-.22.43-.2.45-.19.45-.17.46-.16.46-.14.47-.12.47-.11.48-.09.48-.08.49,0,.48,0,.49,0,.49v1l0,.49,0,.48.06.49.08.48.09.48,0,.13v175.56l-.32,0v.2l0,.49.06.48.08.49.09.48.11.47.13.48.15.46.16.47.17.45.2.45.2.45.23.43.23.43.26.42.26.41.29.4.29.39.31.38.32.37.33.36.35.34.36.34.37.32.38.31.39.29.4.28.41.27.42.25.43.24.43.22.44.21.45.19.46.18.46.16.47.14.47.13.48.11.48.1.48.08.49.06.48,0,.49,0h1l.49,0,.49,0,.49-.06.48-.07.48-.09.48-.11.47-.12.47-.14.46-.16.46-.17.45-.19.45-.2.43-.22.43-.24.43-.25.41-.26.4-.28.39-.29.39-.3.37-.32.36-.33.35-.35.34-.35.32-.37.31-.37.3-.39.28-.4.27-.41.26-.41.24-.43.23-.43.21-.44.2-.45.18-.46.16-.46.15-.47.13-.47.12-.47.1-.48.08-.48.06-.49,0-.49,0-.49,0-.48v-.49Zm-1.6,427.58V2024.53l-.19,0v-.06l0-.49v-1l0-.49,0-.49-.05-.48-.07-.49-.08-.48-.11-.48-.12-.47-.13-.47-.16-.47-.16-.46-.19-.45-.2-.45-.21-.44-.23-.43-.25-.42-.26-.42-.27-.4-.29-.4-.3-.38-.32-.38-.33-.36-.34-.36-.35-.33-.36-.33-.38-.32-.38-.3-.4-.29-.4-.27-.42-.26-.42-.25-.43-.23-.44-.21-.45-.2-.45-.19-.46-.16-.47-.16-.47-.13-.47-.12-.48-.11-.48-.08-.49-.07-.48-.06-.49,0-.49,0h-1l-.49,0-.48,0-.49.07-.48.08-.48.1-.47.12-.48.13-.46.15-.46.16-.46.18-.45.2-.44.21-.43.23-.43.24-.41.25-.41.27-.4.29-.39.3-.38.31-.36.32-.36.34-.34.35-.33.36-.32.37-.3.38-.29.4-.28.4-.26.41-.25.42-.24.43-.22.44-.2.45-.19.45-.17.45-.16.47-.14.47-.12.47-.11.48-.09.48-.08.48-.05.49,0,.49,0,.49v1l0,.49,0,.49.06.49.08.48.1.48,0,.08h0V2202h-.32l0,.21,0,.49.06.48.08.49.1.48.11.47.12.47.15.47.16.46.17.46.2.45.21.44.22.44.24.43.25.42.27.41.28.4.29.39.31.38.32.37.34.35.34.35.36.33.37.32.38.31.39.3.4.28.41.27.42.25.43.24.43.22.45.21.44.19.46.18.46.16.47.14.47.13.48.11.48.09.48.08.49.07.49,0,.48,0h1l.49,0,.49,0,.49-.06.48-.07.48-.09.48-.11.47-.12.47-.15.46-.15.46-.17.45-.19.45-.21.44-.22.43-.23.42-.25.41-.26.4-.28.4-.29.38-.31.37-.31.36-.34.35-.34.34-.35.32-.37.31-.38.3-.38.29-.4.27-.41.25-.42.24-.42.23-.44.21-.44.2-.45.18-.45.16-.46.15-.47.13-.47.12-.48.1-.48.08-.48.07-.48.05-.49,0-.49v-1Zm-209.4-637V1387.56l-.19,0v-.07l0-.48,0-.49V1386l0-.49,0-.49,0-.49-.07-.48-.09-.48-.1-.48-.12-.48-.14-.46-.15-.47-.17-.46-.18-.45-.2-.45-.22-.44-.23-.43-.24-.42-.26-.42-.28-.4-.29-.4-.3-.38-.31-.38-.33-.36-.34-.36-.35-.33-.36-.33-.38-.32-.39-.3-.39-.29-.41-.27-.41-.26-.42-.25-.44-.23-.44-.21-.44-.2-.46-.19-.45-.16-.47-.16-.47-.13-.47-.12-.48-.11-.48-.08-.49-.07-.48-.06-.49,0-.49,0h-1l-.49,0-.49,0-.48.07-.48.08-.48.1-.48.12-.47.13-.47.15-.46.16-.45.18-.45.2-.44.21-.43.23-.43.24-.42.25-.41.27-.39.29-.39.3-.38.31-.36.32-.36.34-.34.35-.33.36-.32.37-.31.38-.29.4-.27.4-.27.41-.25.42-.23.43-.22.44-.2.45-.19.45-.18.45-.15.47-.14.47-.13.47-.1.48-.09.48-.08.48-.06.49,0,.49,0,.49v.48l0,.49,0,.49.05.49.06.49.08.48.09.48,0,.07V1565h-.31v.21l.05.49.06.48.08.49.09.48.11.47.13.47.15.47.16.46.17.46.2.45.2.44.23.44.23.43.26.42.26.4.28.41.3.39.31.38.32.37.33.35.35.35.36.33.37.32.37.31.4.3.4.28.41.27.42.25.42.24.44.22.44.21.45.19.46.18.46.16.47.14.47.13.48.11.48.09.48.08.49.07.48,0,.49,0h1l.49,0,.49,0,.48-.06.49-.07.48-.09.47-.11.48-.12.47-.15.46-.15.46-.17.45-.19.45-.21.43-.22.43-.23.42-.25.42-.26.4-.28.39-.29.38-.31.38-.31.36-.34.35-.34.33-.35.33-.37.31-.38.3-.39.28-.39.27-.41.26-.42.24-.42.23-.44.21-.44.2-.45.18-.45.16-.46.15-.47.13-.47.12-.48.1-.48.08-.48.06-.48.05-.49,0-.49,0-.49v-.49Z"/><polygon class="cls-2" points="4538.34 1369.29 4538.35 1369.62 4472.83 1372.55 4506.89 1338.63 4538.34 1369.29"/><polygon class="cls-2" points="4386.18 1305.73 4308.13 1376.25 4242.1 1311.93 4386.18 1305.73"/><polygon class="cls-2" points="3966.27 1851.54 3818.02 1704.76 3813.45 1700.24 3878.46 1632.48 4038.5 1785.5 4057.35 1803.54 3987.92 1872.97 3975.19 1860.37 3966.27 1851.54"/><polygon class="cls-2" points="3108.24 3304.25 3140.56 3271.35 3150.62 3281.47 3302.39 3137.18 3442.31 3004.16 4000.31 3556.25 3390.73 4158.22 3036.12 3784.64 2853.02 3591.76 3080.45 3351.64 3070.74 3342.42 3108.24 3304.25"/><polygon class="cls-2" points="3966.27 1851.54 3975.19 1860.37 3963.82 1873.86 3807.78 1717.82 3818.02 1704.76 3966.27 1851.54"/><polygon class="cls-2" points="3963.82 1873.86 3950.36 1889.81 3794.85 1734.31 3807.78 1717.82 3963.82 1873.86"/><polygon class="cls-2" points="3950.36 1889.81 3935.67 1907.25 3935.66 1907.24 3923.25 1895.35 3924.85 1893.72 3781.92 1750.78 3794.85 1734.31 3950.36 1889.81"/><polygon class="cls-2" points="3429.32 2028.53 3429.32 2204.81 3429.19 2204.82 3429.19 2205.31 3429.17 2205.8 3429.14 2206.29 3429.09 2206.77 3429.03 2207.26 3428.95 2207.74 3428.85 2208.22 3428.73 2208.7 3428.6 2209.17 3428.45 2209.63 3428.29 2210.09 3428.11 2210.55 3427.91 2211 3427.7 2211.44 3427.47 2211.87 3427.23 2212.3 3426.97 2212.72 3426.7 2213.12 3426.42 2213.52 3426.12 2213.91 3425.81 2214.29 3425.48 2214.65 3425.15 2215.01 3424.8 2215.35 3424.44 2215.68 3424.06 2216 3423.68 2216.31 3423.29 2216.6 3422.89 2216.87 3422.48 2217.14 3422.05 2217.38 3421.62 2217.62 3421.19 2217.84 3420.74 2218.04 3420.29 2218.23 3419.83 2218.4 3419.37 2218.56 3418.9 2218.7 3418.43 2218.82 3417.95 2218.93 3417.47 2219.02 3416.98 2219.1 3416.5 2219.15 3416.01 2219.19 3415.52 2219.22 3415.03 2219.22 3414.54 2219.21 3414.05 2219.19 3413.57 2219.14 3413.08 2219.08 3412.6 2219 3412.12 2218.91 3411.64 2218.79 3411.17 2218.67 3410.7 2218.52 3410.24 2218.36 3409.78 2218.19 3409.33 2217.99 3408.89 2217.79 3408.45 2217.56 3408.03 2217.32 3407.61 2217.07 3407.2 2216.81 3406.8 2216.53 3406.4 2216.23 3406.03 2215.92 3405.66 2215.6 3405.3 2215.27 3404.95 2214.92 3404.62 2214.56 3404.3 2214.19 3403.99 2213.81 3403.69 2213.42 3403.41 2213.02 3403.15 2212.61 3402.89 2212.19 3402.66 2211.77 3402.43 2211.33 3402.23 2210.89 3402.03 2210.44 3401.86 2209.98 3401.7 2209.52 3401.55 2209.05 3401.42 2208.58 3401.31 2208.1 3401.22 2207.62 3401.14 2207.14 3401.08 2206.65 3401.03 2206.16 3401.02 2205.96 3401.33 2205.94 3401.33 2030.35 3401.42 2030.73 3401.55 2031.2 3401.7 2031.67 3401.86 2032.13 3402.03 2032.59 3402.23 2033.04 3402.43 2033.48 3402.66 2033.92 3402.89 2034.35 3403.15 2034.77 3403.41 2035.18 3403.69 2035.58 3403.99 2035.97 3404.3 2036.35 3404.62 2036.72 3404.95 2037.07 3405.3 2037.42 3405.66 2037.75 3406.03 2038.07 3406.4 2038.38 3406.8 2038.68 3407.2 2038.96 3407.61 2039.23 3408.03 2039.48 3408.45 2039.72 3408.89 2039.94 3409.33 2040.15 3409.78 2040.34 3410.24 2040.52 3410.7 2040.68 3411.17 2040.82 3411.64 2040.95 3412.12 2041.06 3412.6 2041.16 3413.08 2041.23 3413.57 2041.3 3414.05 2041.34 3414.54 2041.37 3415.03 2041.38 3415.52 2041.37 3416.01 2041.35 3416.5 2041.31 3416.98 2041.25 3417.47 2041.18 3417.95 2041.09 3418.43 2040.98 3418.9 2040.86 3419.37 2040.71 3419.83 2040.56 3420.29 2040.39 3420.74 2040.2 3421.19 2039.99 3421.62 2039.77 3422.05 2039.54 3422.48 2039.29 3422.89 2039.03 3423.29 2038.75 3423.68 2038.46 3424.06 2038.15 3424.44 2037.84 3424.8 2037.5 3425.15 2037.16 3425.48 2036.81 3425.81 2036.44 3426.12 2036.06 3426.42 2035.68 3426.7 2035.28 3426.97 2034.87 3427.23 2034.45 3427.47 2034.03 3427.7 2033.59 3427.91 2033.15 3428.11 2032.7 3428.29 2032.25 3428.45 2031.79 3428.6 2031.32 3428.73 2030.85 3428.85 2030.38 3428.95 2029.89 3429.03 2029.41 3429.09 2028.93 3429.13 2028.51 3429.32 2028.53"/><polygon class="cls-2" points="2762.77 2830.33 2790.76 2799.55 2848.52 2736.01 2862.95 2747.61 2903.03 2779.83 2927.61 2768.08 3302.39 3137.18 3150.62 3281.47 3140.56 3271.35 3108.24 3304.25 2701.61 2897.61 2762.77 2830.33"/><polygon class="cls-2" points="3215.94 1811.94 3215.94 1988.23 3215.8 1988.23 3215.8 1988.72 3215.79 1989.21 3215.75 1989.7 3215.7 1990.19 3215.64 1990.67 3215.56 1991.16 3215.46 1991.64 3215.34 1992.11 3215.21 1992.58 3215.06 1993.05 3214.9 1993.51 3214.72 1993.96 3214.52 1994.41 3214.31 1994.85 3214.08 1995.29 3213.84 1995.71 3213.58 1996.13 3213.31 1996.54 3213.03 1996.94 3212.73 1997.32 3212.42 1997.7 3212.1 1998.07 3211.76 1998.42 3211.41 1998.76 3211.05 1999.1 3210.68 1999.41 3210.29 1999.72 3209.9 2000.01 3209.5 2000.29 3209.08 2000.55 3208.66 2000.8 3208.23 2001.03 3207.8 2001.25 3207.35 2001.46 3206.9 2001.65 3206.44 2001.82 3205.98 2001.97 3205.51 2002.12 3205.04 2002.24 3204.56 2002.35 3204.08 2002.44 3203.6 2002.51 3203.11 2002.57 3202.62 2002.61 3202.13 2002.63 3201.64 2002.64 3201.15 2002.63 3200.66 2002.6 3200.18 2002.56 3199.69 2002.49 3199.21 2002.42 3198.73 2002.32 3198.25 2002.21 3197.78 2002.08 3197.31 2001.94 3196.85 2001.78 3196.39 2001.6 3195.94 2001.41 3195.5 2001.2 3195.06 2000.98 3194.64 2000.74 3194.22 2000.49 3193.81 2000.22 3193.41 1999.94 3193.02 1999.64 3192.64 1999.33 3192.27 1999.01 3191.91 1998.68 3191.56 1998.33 3191.23 1997.98 3190.91 1997.61 3190.6 1997.23 3190.31 1996.84 3190.02 1996.44 3189.76 1996.03 3189.5 1995.61 3189.27 1995.18 3189.04 1994.74 3188.84 1994.3 3188.64 1993.85 3188.47 1993.39 3188.31 1992.93 3188.16 1992.46 3188.03 1991.99 3187.92 1991.52 3187.83 1991.04 3187.75 1990.55 3187.69 1990.07 3187.64 1989.58 3187.63 1989.37 3187.95 1989.36 3187.95 1813.8 3188.03 1814.15 3188.16 1814.62 3188.31 1815.09 3188.47 1815.55 3188.64 1816.01 3188.84 1816.45 3189.04 1816.9 3189.27 1817.33 3189.5 1817.76 3189.76 1818.18 3190.02 1818.59 3190.31 1818.99 3190.6 1819.38 3190.91 1819.76 3191.23 1820.13 3191.56 1820.49 3191.91 1820.83 3192.27 1821.17 3192.64 1821.49 3193.02 1821.8 3193.41 1822.09 3193.81 1822.37 3194.22 1822.64 3194.64 1822.89 3195.06 1823.13 3195.5 1823.35 3195.94 1823.56 3196.39 1823.75 3196.85 1823.93 3197.31 1824.09 3197.78 1824.24 3198.25 1824.36 3198.73 1824.47 3199.21 1824.57 3199.69 1824.65 3200.18 1824.71 3200.66 1824.75 3201.15 1824.78 3201.64 1824.79 3202.13 1824.78 3202.62 1824.76 3203.11 1824.72 3203.6 1824.67 3204.08 1824.59 3204.56 1824.5 3205.04 1824.39 3205.51 1824.27 3205.98 1824.13 3206.44 1823.97 3206.9 1823.8 3207.35 1823.61 3207.8 1823.41 3208.23 1823.19 3208.66 1822.95 3209.08 1822.7 3209.5 1822.44 3209.9 1822.16 3210.29 1821.87 3210.68 1821.57 3211.05 1821.25 3211.41 1820.92 3211.76 1820.58 3212.1 1820.22 3212.42 1819.85 3212.73 1819.48 3213.03 1819.09 3213.31 1818.69 3213.58 1818.28 3213.84 1817.87 3214.08 1817.44 3214.31 1817.01 3214.52 1816.56 3214.72 1816.12 3214.9 1815.66 3215.06 1815.2 3215.21 1814.73 3215.34 1814.26 3215.46 1813.79 3215.56 1813.31 3215.64 1812.83 3215.7 1812.34 3215.74 1811.92 3215.94 1811.94"/><polygon class="cls-2" points="3070.74 3342.42 3080.45 3351.64 2853.02 3591.76 3036.12 3784.64 2899.82 3922.41 2346.17 3362.34 2586.66 3123.99 2561.22 3100.02 2559.8 3098.58 2605.07 3054.1 2681.57 2978.93 2681.64 2979 2691.4 2989.32 2718.12 2966.88 2677.51 2924.12 2701.61 2897.61 3108.24 3304.25 3070.74 3342.42"/><polygon class="cls-2" points="3003.35 1596.95 3003.35 1773.24 3003.21 1773.25 3003.21 1773.74 3003.19 1774.22 3003.16 1774.71 3003.11 1775.2 3003.05 1775.69 3002.97 1776.17 3002.87 1776.65 3002.75 1777.12 3002.62 1777.59 3002.47 1778.06 3002.31 1778.52 3002.13 1778.98 3001.93 1779.43 3001.72 1779.87 3001.49 1780.3 3001.25 1780.73 3000.99 1781.14 3000.72 1781.55 3000.44 1781.95 3000.14 1782.34 2999.83 1782.71 2999.51 1783.08 2999.17 1783.43 2998.82 1783.78 2998.46 1784.11 2998.09 1784.43 2997.7 1784.73 2997.31 1785.02 2996.91 1785.3 2996.5 1785.56 2996.07 1785.81 2995.64 1786.05 2995.21 1786.27 2994.76 1786.47 2994.31 1786.66 2993.85 1786.83 2993.39 1786.99 2992.92 1787.13 2992.45 1787.25 2991.97 1787.36 2991.49 1787.45 2991.01 1787.52 2990.52 1787.58 2990.03 1787.62 2989.54 1787.64 2989.05 1787.65 2988.56 1787.64 2988.07 1787.61 2987.59 1787.57 2987.1 1787.51 2986.62 1787.43 2986.14 1787.33 2985.66 1787.22 2985.19 1787.09 2984.72 1786.95 2984.26 1786.79 2983.8 1786.61 2983.35 1786.42 2982.91 1786.21 2982.48 1785.99 2982.05 1785.75 2981.63 1785.5 2981.22 1785.23 2980.82 1784.95 2980.43 1784.66 2980.05 1784.35 2979.68 1784.03 2979.32 1783.69 2978.97 1783.35 2978.64 1782.99 2978.32 1782.62 2978.01 1782.24 2977.72 1781.85 2977.43 1781.45 2977.17 1781.04 2976.91 1780.62 2976.68 1780.19 2976.45 1779.76 2976.25 1779.31 2976.05 1778.86 2975.88 1778.41 2975.72 1777.94 2975.57 1777.48 2975.44 1777 2975.33 1776.53 2975.24 1776.05 2975.16 1775.56 2975.1 1775.08 2975.05 1774.59 2975.04 1774.39 2975.36 1774.37 2975.36 1598.81 2975.44 1599.16 2975.57 1599.63 2975.72 1600.1 2975.88 1600.56 2976.05 1601.02 2976.25 1601.47 2976.45 1601.91 2976.68 1602.35 2976.91 1602.77 2977.17 1603.19 2977.43 1603.6 2977.72 1604 2978.01 1604.39 2978.32 1604.77 2978.64 1605.14 2978.97 1605.5 2979.32 1605.85 2979.68 1606.18 2980.05 1606.5 2980.43 1606.81 2980.82 1607.11 2981.22 1607.39 2981.63 1607.65 2982.05 1607.9 2982.48 1608.14 2982.91 1608.37 2983.35 1608.57 2983.8 1608.77 2984.26 1608.94 2984.72 1609.1 2985.19 1609.25 2985.66 1609.37 2986.14 1609.49 2986.62 1609.58 2987.1 1609.66 2987.59 1609.72 2988.07 1609.77 2988.56 1609.79 2989.05 1609.8 2989.54 1609.8 2990.03 1609.78 2990.52 1609.74 2991.01 1609.68 2991.49 1609.6 2991.97 1609.51 2992.45 1609.4 2992.92 1609.28 2993.39 1609.14 2993.85 1608.98 2994.31 1608.81 2994.76 1608.62 2995.21 1608.42 2995.64 1608.2 2996.07 1607.97 2996.5 1607.72 2996.91 1607.45 2997.31 1607.18 2997.7 1606.89 2998.09 1606.58 2998.46 1606.26 2998.82 1605.93 2999.17 1605.59 2999.51 1605.23 2999.83 1604.87 3000.14 1604.49 3000.44 1604.1 3000.72 1603.7 3000.99 1603.3 3001.25 1602.88 3001.49 1602.45 3001.72 1602.02 3001.93 1601.58 3002.13 1601.13 3002.31 1600.67 3002.47 1600.21 3002.62 1599.75 3002.75 1599.28 3002.87 1598.8 3002.97 1598.32 3003.05 1597.84 3003.11 1597.36 3003.15 1596.93 3003.35 1596.95"/><polygon class="cls-2" points="3001.75 2024.53 3001.75 2200.82 3001.61 2200.82 3001.61 2201.31 3001.6 2201.8 3001.57 2202.29 3001.52 2202.78 3001.45 2203.26 3001.37 2203.74 3001.27 2204.22 3001.15 2204.7 3001.02 2205.17 3000.87 2205.64 3000.71 2206.1 3000.53 2206.55 3000.33 2207 3000.12 2207.44 2999.89 2207.88 2999.65 2208.3 2999.4 2208.72 2999.13 2209.13 2998.84 2209.53 2998.54 2209.91 2998.23 2210.29 2997.91 2210.66 2997.57 2211.01 2997.22 2211.35 2996.86 2211.69 2996.49 2212 2996.11 2212.31 2995.71 2212.6 2995.31 2212.88 2994.9 2213.14 2994.48 2213.39 2994.05 2213.62 2993.61 2213.84 2993.16 2214.05 2992.71 2214.24 2992.25 2214.41 2991.79 2214.56 2991.32 2214.71 2990.85 2214.83 2990.37 2214.94 2989.89 2215.03 2989.41 2215.1 2988.92 2215.16 2988.43 2215.2 2987.94 2215.22 2987.45 2215.23 2986.96 2215.22 2986.48 2215.19 2985.99 2215.15 2985.5 2215.08 2985.02 2215 2984.54 2214.91 2984.06 2214.8 2983.59 2214.67 2983.12 2214.53 2982.66 2214.37 2982.2 2214.19 2981.76 2214 2981.31 2213.79 2980.88 2213.57 2980.45 2213.33 2980.03 2213.08 2979.62 2212.81 2979.22 2212.53 2978.83 2212.23 2978.45 2211.92 2978.08 2211.6 2977.72 2211.27 2977.38 2210.92 2977.04 2210.57 2976.72 2210.2 2976.41 2209.82 2976.12 2209.43 2975.84 2209.03 2975.57 2208.62 2975.32 2208.2 2975.08 2207.77 2974.86 2207.33 2974.65 2206.89 2974.45 2206.44 2974.28 2205.98 2974.12 2205.52 2973.97 2205.05 2973.85 2204.58 2973.74 2204.11 2973.64 2203.63 2973.56 2203.14 2973.5 2202.66 2973.46 2202.17 2973.44 2201.96 2973.76 2201.95 2973.76 2026.35 2973.85 2026.73 2973.97 2027.21 2974.12 2027.68 2974.28 2028.14 2974.45 2028.59 2974.65 2029.04 2974.86 2029.49 2975.08 2029.92 2975.32 2030.35 2975.57 2030.77 2975.84 2031.18 2976.12 2031.58 2976.41 2031.97 2976.72 2032.35 2977.04 2032.72 2977.38 2033.08 2977.72 2033.42 2978.08 2033.76 2978.45 2034.08 2978.83 2034.39 2979.22 2034.68 2979.62 2034.96 2980.03 2035.23 2980.45 2035.48 2980.88 2035.72 2981.31 2035.94 2981.76 2036.15 2982.2 2036.34 2982.66 2036.52 2983.12 2036.68 2983.59 2036.83 2984.06 2036.95 2984.54 2037.06 2985.02 2037.16 2985.5 2037.24 2985.99 2037.3 2986.48 2037.34 2986.96 2037.37 2987.45 2037.38 2987.94 2037.38 2988.43 2037.35 2988.92 2037.31 2989.41 2037.25 2989.89 2037.18 2990.37 2037.09 2990.85 2036.98 2991.32 2036.86 2991.79 2036.72 2992.25 2036.56 2992.71 2036.39 2993.16 2036.2 2993.61 2036 2994.05 2035.78 2994.48 2035.54 2994.9 2035.29 2995.31 2035.03 2995.71 2034.75 2996.11 2034.46 2996.49 2034.16 2996.86 2033.84 2997.22 2033.51 2997.57 2033.17 2997.91 2032.81 2998.23 2032.44 2998.54 2032.07 2998.84 2031.68 2999.13 2031.28 2999.4 2030.87 2999.65 2030.46 2999.89 2030.03 3000.12 2029.6 3000.33 2029.16 3000.53 2028.71 3000.71 2028.25 3000.87 2027.79 3001.02 2027.33 3001.15 2026.85 3001.27 2026.38 3001.37 2025.9 3001.45 2025.42 3001.52 2024.93 3001.56 2024.51 3001.75 2024.53"/><polygon class="cls-2" points="2792.35 1387.56 2792.35 1563.85 2792.22 1563.85 2792.22 1564.34 2792.2 1564.83 2792.17 1565.32 2792.12 1565.81 2792.06 1566.29 2791.98 1566.77 2791.88 1567.25 2791.76 1567.73 2791.63 1568.2 2791.48 1568.67 2791.32 1569.13 2791.14 1569.58 2790.94 1570.03 2790.73 1570.47 2790.5 1570.91 2790.26 1571.33 2790 1571.75 2789.73 1572.16 2789.45 1572.55 2789.15 1572.94 2788.84 1573.32 2788.51 1573.69 2788.18 1574.04 2787.83 1574.38 2787.47 1574.72 2787.09 1575.03 2786.71 1575.34 2786.32 1575.63 2785.92 1575.91 2785.5 1576.17 2785.08 1576.42 2784.65 1576.65 2784.22 1576.87 2783.77 1577.08 2783.32 1577.27 2782.86 1577.44 2782.4 1577.59 2781.93 1577.74 2781.45 1577.86 2780.98 1577.97 2780.5 1578.06 2780.01 1578.13 2779.53 1578.19 2779.04 1578.23 2778.55 1578.25 2778.06 1578.26 2777.57 1578.25 2777.08 1578.22 2776.6 1578.18 2776.11 1578.11 2775.63 1578.03 2775.15 1577.94 2774.67 1577.83 2774.2 1577.7 2773.73 1577.56 2773.27 1577.4 2772.81 1577.22 2772.36 1577.03 2771.92 1576.82 2771.48 1576.6 2771.06 1576.36 2770.64 1576.11 2770.23 1575.84 2769.83 1575.56 2769.43 1575.26 2769.06 1574.95 2768.69 1574.63 2768.33 1574.3 2767.98 1573.95 2767.65 1573.6 2767.33 1573.23 2767.02 1572.85 2766.72 1572.46 2766.44 1572.05 2766.18 1571.65 2765.92 1571.23 2765.69 1570.8 2765.46 1570.36 2765.26 1569.92 2765.06 1569.47 2764.89 1569.01 2764.73 1568.55 2764.58 1568.08 2764.45 1567.61 2764.34 1567.14 2764.25 1566.66 2764.17 1566.17 2764.11 1565.69 2764.06 1565.2 2764.05 1564.99 2764.36 1564.98 2764.36 1389.38 2764.45 1389.76 2764.58 1390.24 2764.73 1390.7 2764.89 1391.17 2765.06 1391.62 2765.26 1392.07 2765.46 1392.52 2765.69 1392.95 2765.92 1393.38 2766.18 1393.8 2766.44 1394.21 2766.72 1394.61 2767.02 1395 2767.33 1395.38 2767.65 1395.75 2767.98 1396.11 2768.33 1396.45 2768.69 1396.79 2769.06 1397.11 2769.43 1397.42 2769.83 1397.71 2770.23 1397.99 2770.64 1398.26 2771.06 1398.51 2771.48 1398.75 2771.92 1398.97 2772.36 1399.18 2772.81 1399.37 2773.27 1399.55 2773.73 1399.71 2774.2 1399.85 2774.67 1399.98 2775.15 1400.09 2775.63 1400.19 2776.11 1400.27 2776.6 1400.33 2777.08 1400.37 2777.57 1400.4 2778.06 1400.41 2778.55 1400.4 2779.04 1400.38 2779.53 1400.34 2780.01 1400.28 2780.5 1400.21 2780.98 1400.12 2781.45 1400.01 2781.93 1399.89 2782.4 1399.75 2782.86 1399.59 2783.32 1399.42 2783.77 1399.23 2784.22 1399.03 2784.65 1398.81 2785.08 1398.57 2785.5 1398.32 2785.92 1398.06 2786.32 1397.78 2786.71 1397.49 2787.09 1397.19 2787.47 1396.87 2787.83 1396.54 2788.18 1396.2 2788.51 1395.84 2788.84 1395.47 2789.15 1395.1 2789.45 1394.71 2789.73 1394.31 2790 1393.9 2790.26 1393.49 2790.5 1393.06 2790.73 1392.63 2790.94 1392.18 2791.14 1391.74 2791.32 1391.28 2791.48 1390.82 2791.63 1390.35 2791.76 1389.88 2791.88 1389.41 2791.98 1388.93 2792.06 1388.45 2792.12 1387.96 2792.16 1387.54 2792.35 1387.56"/><polygon class="cls-2" points="2790.76 2663.1 2790.76 2799.55 2762.77 2830.33 2762.77 2664.96 2762.85 2665.3 2762.98 2665.78 2763.13 2666.24 2763.29 2666.71 2763.46 2667.16 2763.66 2667.61 2763.86 2668.06 2764.09 2668.49 2764.32 2668.92 2764.58 2669.34 2764.84 2669.75 2765.13 2670.15 2765.42 2670.54 2765.73 2670.92 2766.05 2671.29 2766.38 2671.65 2766.73 2671.99 2767.09 2672.33 2767.46 2672.65 2767.84 2672.96 2768.23 2673.25 2768.63 2673.53 2769.04 2673.8 2769.46 2674.05 2769.89 2674.29 2770.32 2674.51 2770.76 2674.72 2771.21 2674.91 2771.67 2675.09 2772.13 2675.25 2772.6 2675.39 2773.07 2675.52 2773.55 2675.63 2774.03 2675.73 2774.51 2675.81 2775 2675.87 2775.48 2675.91 2775.97 2675.94 2776.46 2675.95 2776.95 2675.94 2777.44 2675.92 2777.93 2675.88 2778.41 2675.82 2778.9 2675.75 2779.38 2675.66 2779.86 2675.55 2780.33 2675.43 2780.8 2675.29 2781.26 2675.13 2781.72 2674.96 2782.17 2674.77 2782.62 2674.57 2783.05 2674.35 2783.48 2674.11 2783.91 2673.86 2784.32 2673.6 2784.72 2673.32 2785.12 2673.03 2785.5 2672.73 2785.87 2672.41 2786.23 2672.08 2786.58 2671.73 2786.92 2671.38 2787.24 2671.01 2787.55 2670.64 2787.85 2670.25 2788.13 2669.85 2788.41 2669.44 2788.66 2669.02 2788.9 2668.6 2789.13 2668.17 2789.34 2667.72 2789.54 2667.28 2789.72 2666.82 2789.88 2666.36 2790.03 2665.89 2790.16 2665.42 2790.28 2664.95 2790.38 2664.47 2790.46 2663.99 2790.53 2663.5 2790.56 2663.08 2790.76 2663.1"/><path class="cls-2" d="M2681.57,2978.93l-76.5,75.17L2519.93,2969l-176.88-17.85,64.87-68.26,28.11,2.21-15.49-15.49,69.67-73.31-352.58-339.42,18.09-15.5,64.12,49q16.93-20.34,33.88-40.66l447.89,447.89-24.1,26.51,40.61,42.76-26.72,22.44-9.76-10.32Z"/><polygon class="cls-2" points="2101 499.36 1520.13 1075.51 1381.62 937 2141.86 153 2593.25 614.1 2592.56 614.76 2117.26 503.2 2101.03 499.39 2101 499.36"/><polygon class="cls-2" points="2573.24 633.51 1687.61 1492.43 1431.12 1238.35 1558.92 1114.3 1520.13 1075.51 2101 499.36 2101.03 499.39 2117.26 503.2 2592.56 614.76 2573.24 633.51"/><polygon class="cls-2" points="2581.36 2541.18 2581.36 2624.4 2581.23 2624.4 2581.23 2624.41 2581.23 2624.89 2581.21 2625.38 2581.18 2625.87 2581.13 2626.36 2581.07 2626.84 2580.98 2627.33 2580.89 2627.81 2580.77 2628.28 2580.64 2628.75 2580.49 2629.22 2580.32 2629.68 2580.14 2630.13 2579.95 2630.58 2579.74 2631.03 2579.51 2631.46 2579.27 2631.88 2579.01 2632.3 2578.74 2632.71 2578.46 2633.11 2578.16 2633.5 2577.85 2633.87 2577.52 2634.24 2577.18 2634.59 2576.84 2634.94 2576.48 2635.27 2576.1 2635.58 2575.72 2635.89 2575.33 2636.18 2574.92 2636.46 2574.51 2636.72 2574.09 2636.97 2573.66 2637.2 2573.22 2637.42 2572.78 2637.63 2572.33 2637.82 2571.87 2637.99 2571.41 2638.15 2570.94 2638.28 2570.46 2638.41 2569.99 2638.52 2569.51 2638.61 2569.02 2638.68 2568.54 2638.74 2568.05 2638.78 2567.56 2638.8 2567.07 2638.81 2566.58 2638.8 2566.09 2638.77 2565.6 2638.73 2565.12 2638.66 2564.64 2638.59 2564.16 2638.49 2563.68 2638.38 2563.21 2638.25 2562.74 2638.11 2562.28 2637.95 2561.82 2637.77 2561.37 2637.58 2560.93 2637.37 2560.49 2637.15 2560.06 2636.91 2559.64 2636.66 2559.24 2636.39 2558.84 2636.11 2558.44 2635.81 2558.06 2635.51 2557.69 2635.19 2557.34 2634.85 2556.99 2634.51 2556.66 2634.15 2556.34 2633.78 2556.03 2633.4 2555.73 2633.01 2555.45 2632.61 2555.18 2632.2 2554.93 2631.78 2554.69 2631.35 2554.47 2630.91 2554.26 2630.47 2554.07 2630.02 2553.89 2629.57 2553.74 2629.1 2553.59 2628.63 2553.46 2628.16 2553.35 2627.69 2553.26 2627.21 2553.18 2626.72 2553.12 2626.24 2553.07 2625.75 2553.06 2625.55 2553.37 2625.53 2553.37 2545.27 2553.37 2449.93 2553.46 2450.32 2553.59 2450.79 2553.74 2451.26 2553.89 2451.72 2554.07 2452.18 2554.26 2452.63 2554.47 2453.07 2554.69 2453.5 2554.93 2453.93 2555.18 2454.35 2555.45 2454.76 2555.73 2455.16 2556.03 2455.55 2556.34 2455.93 2556.66 2456.3 2556.99 2456.66 2557.34 2457.01 2557.69 2457.34 2558.06 2457.66 2558.44 2457.97 2558.84 2458.26 2559.24 2458.54 2559.64 2458.81 2560.06 2459.06 2560.49 2459.3 2560.93 2459.53 2561.37 2459.73 2561.82 2459.92 2562.28 2460.1 2562.74 2460.26 2563.21 2460.41 2563.68 2460.53 2564.16 2460.65 2564.64 2460.74 2565.12 2460.82 2565.6 2460.88 2566.09 2460.92 2566.58 2460.95 2567.07 2460.96 2567.56 2460.96 2568.05 2460.93 2568.54 2460.89 2569.02 2460.84 2569.51 2460.76 2569.99 2460.67 2570.46 2460.56 2570.94 2460.44 2571.41 2460.3 2571.87 2460.14 2572.33 2459.97 2572.78 2459.78 2573.22 2459.58 2573.66 2459.36 2574.09 2459.13 2574.51 2458.88 2574.92 2458.61 2575.33 2458.33 2575.72 2458.04 2576.1 2457.74 2576.48 2457.42 2576.84 2457.09 2577.18 2456.75 2577.52 2456.39 2577.85 2456.03 2578.16 2455.65 2578.46 2455.26 2578.74 2454.86 2579.01 2454.45 2579.27 2454.04 2579.51 2453.61 2579.74 2453.18 2579.95 2452.74 2580.14 2452.29 2580.32 2451.83 2580.49 2451.37 2580.64 2450.91 2580.77 2450.44 2580.89 2449.96 2580.98 2449.48 2581.07 2449 2581.13 2448.51 2581.17 2448.09 2581.36 2448.11 2581.36 2541.18"/><path class="cls-2" d="M2578.17,1173.37v176.29H2578v1l0,.49,0,.49-.07.48-.08.49-.1.48-.12.47-.13.47-.15.47-.16.46-.18.45-.2.45-.21.44-.23.44-.24.42-.25.42-.27.41-.29.4-.3.38-.31.38-.32.37-.34.35-.35.35-.36.33-.37.31-.39.31-.39.29-.4.28-.41.26-.43.25-.43.24-.43.21-.45.21-.45.19-.46.17-.46.15-.47.15-.47.12-.48.11-.48.09-.49.07-.48.06-.49,0-.49,0h-1l-.49,0-.48,0-.49-.07-.48-.07-.48-.1-.48-.11-.47-.13-.47-.14-.46-.16-.46-.18-.45-.19-.44-.21-.43-.22-.43-.24-.42-.25-.41-.27-.4-.28-.39-.29-.38-.31-.37-.32-.36-.34-.35-.35-.33-.35-.32-.37-.31-.38-.29-.39-.28-.4-.27-.41-.25-.42-.24-.43-.23-.44-.2-.44-.19-.45-.18-.46-.16-.46-.15-.46-.12-.48-.12-.47-.09-.48-.08-.49-.06-.48,0-.49,0-.21h.32v-174l.35-.35v0l.16.46.18.46.19.45.2.44.23.43.24.43.25.42.27.41.28.4.29.39.31.38.32.37.33.36.35.35.36.33.37.32.38.31.39.29.4.29.41.26.42.26.43.23.43.22.44.21.45.2.46.17.46.16.47.15.47.13.48.11.48.09.48.08.49.06.48,0,.49,0h1l.49,0,.49,0,.48-.05.49-.08.48-.09.48-.11.47-.12.47-.14.46-.16.46-.17.45-.19.45-.2.43-.22.43-.23.43-.25.41-.27.4-.27.39-.3.39-.3.37-.32.36-.33.35-.34.34-.36.32-.36.31-.38.3-.39.29-.4.27-.41.25-.41.24-.43.23-.43.21-.44.2-.45.18-.46.16-.46.15-.46.13-.48.12-.47.1-.48.08-.48.07-.49,0-.42Z"/><polygon class="cls-2" points="2149.85 1124.89 2518.92 1494.92 2324.26 1688.9 2242 1770.88 2154.65 1684.02 2150.19 1688.88 2103.06 1640.99 2107.62 1636.98 1982.25 1512.12 1868.13 1398.45 2003.02 1267.47 2149.85 1124.89"/><polygon class="cls-2" points="2490.21 2796.27 2420.54 2869.58 2407.92 2882.86 2343.05 2951.12 2330.45 2964.38 2313.94 2948.18 2233.37 2869.14 2233.36 2869.14 1925.3 2566.94 1951.84 2540.26 1886.5 2474.17 1878.26 2454.73 1907.44 2424.59 2009.58 2520.87 2103.94 2424.42 2137.63 2456.85 2490.21 2796.27"/><polygon class="cls-2" points="2016.15 1901.08 1851.47 1733.57 1831.76 1713.53 1847.21 1694.38 1823.83 1667.54 1834.2 1657.37 1982.25 1512.12 2107.62 1636.98 2103.06 1640.99 2150.19 1688.88 2154.65 1684.02 2242 1770.88 2324.26 1688.9 2441.98 1804.33 2237.53 2001.62 2174.66 2062.3 2016.15 1901.08"/><polygon class="cls-2" points="1877.12 3650.02 2430.17 4204.74 1964.57 4692 1421.51 4112.29 1877.12 3650.02"/><polygon class="cls-2" points="2030.58 2297.16 2100.4 2226.1 1895.53 2019.97 2016.15 1901.08 2174.66 2062.3 2237.53 2001.62 2344.89 2108.46 2130.26 2326.26 2078.07 2379.23 1969.84 2269.15 1962.12 2261.3 1977.2 2246.44 2030.58 2297.16"/><polygon class="cls-2" points="2107.91 2859.29 2117.58 2860.04 2233.36 2869.14 2233.37 2869.14 2313.94 2948.18 2187.05 2935.38 2183.64 2932.09 2075.26 3041.99 2119.87 3100.45 1919.88 3294.28 1870.65 3251.21 1769.89 3350.43 1762.2 3336.59 1751.43 3350.43 1762.97 3361.97 1547.98 3574.25 1430.06 3434.95 1515.48 3344.39 1561.72 3393.2 1792.29 3170.33 1754.76 3133.32 1960.65 2930.45 1996.03 2967.38 2104.48 2855.97 2105.64 2857.1 2107.91 2859.28 2107.91 2859.29"/><polygon class="cls-2" points="1962.12 2261.3 1969.84 2269.15 2078.07 2379.23 2108.07 2409.75 2113.19 2414.96 2103.94 2424.42 2009.58 2520.87 1907.44 2424.59 1878.26 2454.73 1772.12 2204.34 1771.15 2202.03 1770.46 2202.69 1709.94 2142.58 1778.96 2075 1962.12 2261.3"/><path class="cls-2" d="M1425.12,2153.65l-56.13-62a60.89,60.89,0,0,1-6.39-10.61l.4-37.31-1.52-.6c11.33-26.2,47.16-39.65,76-12.36l4.44,4.2,59,55.83,26.6-28.15,46.11-48.79,41.43,33.82q32.67-36.47,65.36-73l7.35-8.21-33.47-33.22-21.42-21.24-33-32.74-106.5-105.68-.79-.92,82.93-70.88,1.94-1.93L1677,1800.05l54.31,54.63,78.7,79.2,47.53,47.82,38,38.27L2100.4,2226.1l-69.82,71.06-53.38-50.72L1785,2063.74l-8.61,8.61-4,4.05L1708,2140.68l1.92,1.9,60.52,60.11-65.57,63.13,9.31,21.68-72-23.89-1.83-1.78-58.64,60.35-45.42-45.42-49.28-49.28q-31.11-31.09-62.21-62.21l.23-10.34.54-.72Z"/><polygon class="cls-2" points="1851.47 1733.57 2016.15 1901.08 1895.53 2019.97 1857.5 1981.7 1809.97 1933.88 1731.27 1854.68 1851.47 1733.57"/><polygon class="cls-2" points="1778.96 2075 1776.35 2072.35 1784.96 2063.74 1977.2 2246.44 1962.12 2261.3 1778.96 2075"/><polygon class="cls-2" points="1886.5 2474.17 1951.84 2540.26 1925.3 2566.94 1843.97 2648.68 1794.32 2698.59 1759.94 2658.42 1759.94 2658.41 1726.58 2619.43 1732.41 2613.72 1796.5 2550.99 1802.24 2545.37 1818.36 2529.59 1880.84 2468.44 1886.5 2474.17"/><polygon class="cls-2" points="1797.97 2909.89 1724.84 2841.39 1730.34 2835.89 1793.06 2773.17 1802.49 2763.74 1865.15 2701.08 1868.26 2697.97 1870.33 2695.83 1942.07 2765.27 1798.18 2910.09 1797.97 2909.89"/><polygon class="cls-2" points="1798.04 2315.34 1714.2 2287.5 1704.89 2265.82 1770.46 2202.69 1772.12 2204.34 1878.26 2454.73 1886.5 2474.17 1880.84 2468.44 1818.36 2529.59 1818.08 2529.3 1803.81 2496.08 1747.76 2365.62 1798.04 2315.34"/><polygon class="cls-2" points="1865.15 2701.08 1802.49 2763.74 1759.94 2658.42 1794.32 2698.59 1843.97 2648.68 1843.98 2648.69 1865.15 2701.08"/><path class="cls-2" d="M1577.44,1699.91l-1.94,1.93-82.93,70.88.79.92,106.5,105.68-6.61,6.79,21.27,21.63,11,11.19,16.55,16.82,4.85,4.94,33.46,34h0q-32.69,36.46-65.36,73l-41.43-33.82-46.11,48.79-28.2-28.8.14-.13-8.29-8.46h0l-19.55-20L1441.91,2035l-4.44-4.2c-28.83-27.29-64.66-13.84-76,12.36-4.8,11.06-5.22,24.4,1.12,37.91l-.37,33.61L1240.87,2236,695.26,1676.12l117.6-117.6,144,145.61,237-230.41,9.16,9.09,81-76.8-12.63-12.71,159.65-155,256.49,254.08,147,145.59-9.73,10-147.89,152Z"/><path class="cls-2" d="M1420.2,2389.63l0-.23,67.62-64.23-.16-1.06,48.73-47.35,45.42,45.42,1.91,1.91,1.44-1.44,148.25,54.55,1.41,1.41,13-13,56,130.46-.07,0-35.9-35.9-2.41-6-.25-.26-1.82,1.75-59.87,57.18-1.73,1.46,2.4,6-61.93-20.55-56.68,56.68-63-56-.79.83-8-7.56-90.28-85.93-.72-3.9-8.55-8.53,5.49-5.33Z"/><path class="cls-2" d="M1640.82,2722.63l-58.57,58.57-.52.52L1798,2990.49l.68.69-57.28,55.91-42-42.69h0L1489,2790.31l-38.14-38.81h0l-65.52-66.67h0l-10.73-10.91q-26.76-9.48-53.55-18.94c-31-11-41.94-27.6-39.66-60.44a92.67,92.67,0,0,1,107.38-85l4.6,28.41h0c-.58,4.18-3.26,30.11-.94,30.6,32.82,7,45.17,7.28,65.27,27.15l.65-.64,65.43-65.08-5.25-5.26-4.77-30.92,8,7.56.79-.83,63,56-1.89,1.89,147.78,54.38,1,1-5.83,5.71,33.36,39h0l42.55,105.32-9.43,9.43Z"/><polygon class="cls-2" points="1767.84 2460.21 1802.24 2545.37 1796.5 2550.99 1704.16 2520.33 1701.76 2514.37 1703.49 2512.91 1763.36 2455.73 1767.84 2460.21"/><path class="cls-2" d="M1798,2315.34l-50.28,50.28-13,13-1.41-1.41-148.25-54.55-1.44,1.44-1.91-1.91,58.64-60.35,1.83,1.78,72,23.89Z"/><polygon class="cls-2" points="1585.55 2556.46 1642.23 2499.78 1704.16 2520.33 1796.5 2550.99 1732.41 2613.72 1731.44 2612.73 1583.66 2558.35 1585.55 2556.46"/><polygon class="cls-2" points="1640.82 2722.63 1793.06 2773.17 1730.34 2835.89 1730.03 2835.58 1582.25 2781.2 1640.82 2722.63"/><path class="cls-2" d="M1444.19,2834.91l44.83-44.6,210.36,214.08h0l-37.77,37-89,87.3-79.37-79.37-56.81-56.81L1378.83,2935l-1,0v.5h-.35c-18.51-6.55-37.91-18.39-56.42-24.94-31-11-41.94-27.59-39.66-60.44a92.67,92.67,0,0,1,97.21-86.12l-4.13,48.5,28,8,36.43,15.31,3.06,1.29Z"/><path class="cls-2" d="M1687.73,1966.52l-7.35,8.21h0l-33.46-34,7.35-7.39Z"/><polygon class="cls-2" points="1520.13 1075.51 1558.92 1114.3 1431.12 1238.35 1271.47 1393.3 1284.1 1406.01 1203.07 1482.81 1193.91 1473.72 956.89 1704.13 812.86 1558.52 397.24 1138.33 984.85 540.23 1286.61 841.99 1381.62 937 1520.13 1075.51"/><polygon class="cls-2" points="1520.63 3759.97 1283.25 3999.01 1161.64 3869.08 1390.69 3631.7 1520.63 3759.97"/><path class="cls-2" d="M1375.24,3047.23l58.82,58.57.8.8-82.15,82.15,0,.05-45.94-16.25c-31-11-41.94-27.59-39.66-60.44a92.66,92.66,0,0,1,107.66-85l1.13,0-.43,19.88Z"/><path class="cls-2" d="M1363,2043.73l-.4,37.31c-6.34-13.51-5.92-26.85-1.12-37.91Z"/><polygon class="cls-2" points="1197.46 3345.18 905.94 3650.02 308.74 3041.16 339.55 3012.01 309.57 2583.89 509.47 2390.66 1133.32 2912.89 940.92 3093.64 1197.46 3345.18"/></g></svg>