<svg xmlns="http://www.w3.org/2000/svg" viewBox="0 0 53.77 100.91"><defs><style>.cls-1{fill:none;stroke:#037cff;stroke-linecap:round;stroke-linejoin:round;stroke-width:0.75px;}</style></defs><title>Asset 25</title><g id="Layer_2" data-name="Layer 2"><g id="furniture2"><line class="cls-1" x1="24.68" y1="47.92" x2="25.94" y2="49.18"/><line class="cls-1" x1="24.68" y1="47.92" x2="23.32" y2="49.27"/><line class="cls-1" x1="2.58" y1="34.75" x2="2.58" y2="76.24"/><line class="cls-1" x1="5.7" y1="73.12" x2="23.32" y2="55.5"/><line class="cls-1" x1="48.08" y1="73.12" x2="29.09" y2="92.11"/><path class="cls-1" d="M29.14,54.19a8.08,8.08,0,0,0-.05.85"/><path class="cls-1" d="M30.47,49.3a25.18,25.18,0,0,0-.83,2.4,14.08,14.08,0,0,0-.5,2.49"/><path class="cls-1" d="M25.28,51.22a30.72,30.72,0,0,1,1.64-4.44c.65-1.44,1.39-2.86,2.17-4.22"/><line class="cls-1" x1="24.68" y1="92.11" x2="4.79" y2="72.22"/><path class="cls-1" d="M26.89,8.65a4.28,4.28,0,0,0-.47-2.13A2.16,2.16,0,0,0,24.6,5.44"/><line class="cls-1" x1="48.98" y1="67.8" x2="30.47" y2="49.3"/><path class="cls-1" d="M46.64,30.21a10.52,10.52,0,0,0-1.35.66,15.48,15.48,0,0,0-1.42.91c-.42.3-.83.61-1.24.94s-.83.7-1.23,1.06a41.57,41.57,0,0,0-4.35,4.65,49.26,49.26,0,0,0-3.67,5.2,38.88,38.88,0,0,0-2.91,5.67"/><line class="cls-1" x1="48.98" y1="72.22" x2="51.19" y2="74.43"/><line class="cls-1" x1="26.89" y1="57.25" x2="26.89" y2="100.54"/><line class="cls-1" x1="24.68" y1="92.11" x2="24.68" y2="98.33"/><line class="cls-1" x1="51.19" y1="32.95" x2="51.19" y2="71.82"/><line class="cls-1" x1="29.09" y1="96.52" x2="29.09" y2="92.11"/><path class="cls-1" d="M50.37,30.36a2.27,2.27,0,0,0-1.47-.62"/><path class="cls-1" d="M51.19,33A5.38,5.38,0,0,0,51,31.57a2.75,2.75,0,0,0-.65-1.21"/><line class="cls-1" x1="51.19" y1="32.95" x2="48.98" y2="30.74"/><path class="cls-1" d="M24.68,55a14.5,14.5,0,0,1,.6-3.82"/><path class="cls-1" d="M27.8,52.38q.28-.85.6-1.68c.24-.6.49-1.19.76-1.78.51-1.13,1.07-2.24,1.67-3.32a59.4,59.4,0,0,1,4-6.25,57.56,57.56,0,0,1,4.79-5.68c.86-.88,1.76-1.74,2.7-2.55.48-.42,1-.82,1.48-1.2s1-.72,1.47-1.05"/><path class="cls-1" d="M26.89,57.25A12.41,12.41,0,0,1,27.12,55a21.43,21.43,0,0,1,.57-2.23"/><line class="cls-1" x1="26.89" y1="57.25" x2="24.68" y2="55.04"/><path class="cls-1" d="M45.3,28.87a16.8,16.8,0,0,1,2.11-1.19"/><path class="cls-1" d="M27.69,52.74c0-.12.07-.24.11-.36"/><line class="cls-1" x1="22.42" y1="54.59" x2="4.79" y2="72.22"/><line class="cls-1" x1="20.21" y1="52.38" x2="4.79" y2="67.8"/><line class="cls-1" x1="26.89" y1="10.45" x2="26.89" y2="46.85"/><line class="cls-1" x1="48.98" y1="32.55" x2="48.98" y2="67.8"/><line class="cls-1" x1="24.68" y1="56.85" x2="24.68" y2="92.11"/><line class="cls-1" x1="23.32" y1="49.27" x2="4.79" y2="30.74"/><path class="cls-1" d="M52.41,27.64a3.13,3.13,0,0,1,.79,1.45,6.54,6.54,0,0,1,.2,1.65"/><line class="cls-1" x1="20.21" y1="52.38" x2="4.79" y2="36.96"/><line class="cls-1" x1="48.08" y1="73.12" x2="29.14" y2="54.19"/><line class="cls-1" x1="29.09" y1="42.56" x2="29.09" y2="12.66"/><path class="cls-1" d="M29.09,42.56a59,59,0,0,1,6.17-8.7c.58-.68,1.17-1.34,1.79-2,.15-.17.31-.33.47-.5l.23-.24.24-.23.94-.91a31.05,31.05,0,0,1,4.16-3.34"/><line class="cls-1" x1="4.79" y1="67.8" x2="4.79" y2="36.96"/><line class="cls-1" x1="0.38" y1="74.03" x2="2.58" y2="76.24"/><line class="cls-1" x1="24.68" y1="6.44" x2="24.68" y2="47.92"/><line class="cls-1" x1="0.38" y1="30.74" x2="0.38" y2="74.03"/><line class="cls-1" x1="26.89" y1="8.65" x2="29.09" y2="6.44"/><line class="cls-1" x1="2.58" y1="32.95" x2="4.79" y2="30.74"/><line class="cls-1" x1="51.19" y1="74.43" x2="29.09" y2="96.52"/><line class="cls-1" x1="48.98" y1="72.22" x2="48.08" y2="73.12"/><line class="cls-1" x1="24.68" y1="98.33" x2="26.89" y2="100.54"/><line class="cls-1" x1="53.4" y1="74.03" x2="53.4" y2="30.74"/><line class="cls-1" x1="29.09" y1="92.11" x2="29.09" y2="55.04"/><line class="cls-1" x1="51.19" y1="32.95" x2="53.4" y2="30.74"/><line class="cls-1" x1="26.89" y1="100.54" x2="53.4" y2="74.03"/><path class="cls-1" d="M47.41,27.68a9.14,9.14,0,0,1,1.75-.63A4.62,4.62,0,0,1,51,26.93"/><path class="cls-1" d="M48.9,29.74a5.45,5.45,0,0,0-2.26.47"/><line class="cls-1" x1="50.2" y1="25.43" x2="52.41" y2="27.64"/><path class="cls-1" d="M24.6,5.44a4,4,0,0,0-.85,0,6.29,6.29,0,0,0-.95.24,10.36,10.36,0,0,0-1,.43,12,12,0,0,0-1.11.61A17,17,0,0,0,19,7.91c-.58.44-1.15.91-1.69,1.4s-1,.92-1.49,1.41-1,1-1.49,1.57-.9,1-1.33,1.56-.91,1.13-1.34,1.71C10.8,16.68,10,17.85,9.26,19S7.82,21.46,7.2,22.72c-.33.66-.64,1.34-.92,2s-.49,1.24-.7,1.87c-.13.4-.25.8-.35,1.2s-.18.73-.25,1.09-.11.65-.14,1a8.27,8.27,0,0,0,0,.86"/><path class="cls-1" d="M43.09,26.66a17.55,17.55,0,0,1,2.06-1.17,8.49,8.49,0,0,1,2.25-.74"/><line class="cls-1" x1="43.09" y1="26.66" x2="29.09" y2="12.66"/><path class="cls-1" d="M47.4,24.75a4.15,4.15,0,0,1,1.49,0,2.46,2.46,0,0,1,1.31.69"/><line class="cls-1" x1="47.4" y1="24.75" x2="29.09" y2="6.44"/><path class="cls-1" d="M51,26.93a2.54,2.54,0,0,1,1.4.71"/><path class="cls-1" d="M29.09,55l-2.2,2.21"/><path class="cls-1" d="M49,30.74a6.74,6.74,0,0,0-.08-1"/><line class="cls-1" x1="48.98" y1="32.55" x2="46.64" y2="30.21"/><line class="cls-1" x1="24.68" y1="56.85" x2="23.32" y2="55.5"/><line class="cls-1" x1="2.58" y1="74.43" x2="4.79" y2="72.22"/><line class="cls-1" x1="24.68" y1="98.33" x2="2.58" y2="76.24"/><path class="cls-1" d="M3.18,29.13c.2-.72.44-1.44.7-2.15s.63-1.59,1-2.37.67-1.41,1-2.11.77-1.45,1.19-2.17a59.12,59.12,0,0,1,5.53-7.89c.53-.65,1.08-1.28,1.64-1.9s1.05-1.13,1.6-1.67a36.42,36.42,0,0,1,3.6-3.2,23.45,23.45,0,0,1,2.12-1.46c.33-.2.67-.4,1-.58s.65-.32,1-.45a6.61,6.61,0,0,1,.74-.28c.23-.07.46-.14.7-.19a4.63,4.63,0,0,1,.65-.1,4.1,4.1,0,0,1,.61,0,3.11,3.11,0,0,1,1,.21,2.38,2.38,0,0,1,.8.53"/><line class="cls-1" x1="26.89" y1="8.65" x2="24.68" y2="6.44"/><path class="cls-1" d="M28.11,3.33a3.17,3.17,0,0,1,.79,1.46,6.53,6.53,0,0,1,.19,1.65"/><line class="cls-1" x1="25.9" y1="1.12" x2="28.11" y2="3.33"/><line class="cls-1" x1="2.58" y1="32.95" x2="0.38" y2="30.74"/><path class="cls-1" d="M2.58,33a14.93,14.93,0,0,1,.6-3.82"/><path class="cls-1" d="M.38,30.74a9.47,9.47,0,0,1,0-1.07c0-.42.11-.83.19-1.23s.19-.92.32-1.38.29-1,.46-1.5c.26-.8.57-1.58.9-2.36s.76-1.69,1.18-2.52c.8-1.57,1.69-3.12,2.64-4.6s2-2.95,3.06-4.34c.56-.72,1.14-1.43,1.73-2.13S12,8.32,12.62,7.7l1-1,.23-.24.24-.23.48-.46c.63-.59,1.28-1.18,2-1.73a26.34,26.34,0,0,1,2.26-1.67c.36-.24.72-.47,1.1-.68s.7-.38,1.07-.55.53-.24.81-.34A6.86,6.86,0,0,1,22.5.58a4.61,4.61,0,0,1,.72-.15,3.71,3.71,0,0,1,.67,0,3,3,0,0,1,.6,0A2.39,2.39,0,0,1,25,.57a2.48,2.48,0,0,1,.87.55"/><path class="cls-1" d="M24.68,6.44a6.74,6.74,0,0,0-.08-1"/><line class="cls-1" x1="48.98" y1="72.22" x2="29.4" y2="52.64"/></g></g></svg>