<svg xmlns="http://www.w3.org/2000/svg" viewBox="0 0 53.77 49.58"><defs><style>.cls-1{fill:none;stroke:#037cff;stroke-linecap:round;stroke-linejoin:round;stroke-width:0.75px;}</style></defs><title>Asset 10</title><g id="Layer_2" data-name="Layer 2"><g id="furniture2"><line class="cls-1" x1="14.39" y1="15.06" x2="14.39" y2="32.72"/><line class="cls-1" x1="16.87" y1="17.55" x2="16.87" y2="35.2"/><line class="cls-1" x1="36.9" y1="17.55" x2="36.9" y2="35.2"/><line class="cls-1" x1="47.67" y1="2.78" x2="47.67" y2="2.78"/><line class="cls-1" x1="53.4" y1="22.02" x2="28.54" y2="46.87"/><line class="cls-1" x1="26.06" y1="47.7" x2="0.38" y2="22.02"/><line class="cls-1" x1="47.74" y1="2.72" x2="47.06" y2="3.39"/><line class="cls-1" x1="39.38" y1="15.06" x2="36.9" y2="17.55"/><line class="cls-1" x1="50.13" y1="4.32" x2="47.51" y2="6.93"/><line class="cls-1" x1="20.52" y1="2.94" x2="20.52" y2="17.21"/><line class="cls-1" x1="33.25" y1="21.2" x2="33.25" y2="24.36"/><line class="cls-1" x1="26.06" y1="44.39" x2="16.87" y2="35.2"/><line class="cls-1" x1="26.06" y1="26.73" x2="26.06" y2="44.39"/><line class="cls-1" x1="20.52" y1="21.2" x2="20.52" y2="22.02"/><line class="cls-1" x1="47.51" y1="6.93" x2="47.51" y2="22.02"/><line class="cls-1" x1="15.22" y1="22.02" x2="15.22" y2="36.86"/><line class="cls-1" x1="39.38" y1="15.06" x2="39.38" y2="32.72"/><line class="cls-1" x1="38.55" y1="15.89" x2="38.55" y2="36.86"/><line class="cls-1" x1="26.89" y1="45.21" x2="26.89" y2="48.53"/><line class="cls-1" x1="26.89" y1="26.89" x2="0.38" y2="0.38"/><line class="cls-1" x1="53.4" y1="0.38" x2="26.89" y2="26.89"/><line class="cls-1" x1="14.39" y1="32.72" x2="14.39" y2="36.03"/><line class="cls-1" x1="28.54" y1="43.56" x2="28.54" y2="46.87"/><line class="cls-1" x1="36.9" y1="17.55" x2="34.42" y2="20.02"/><line class="cls-1" x1="14.39" y1="15.06" x2="6.26" y2="6.93"/><line class="cls-1" x1="14.39" y1="32.72" x2="6.03" y2="24.36"/><line class="cls-1" x1="16.87" y1="22.02" x2="19.35" y2="22.02"/><line class="cls-1" x1="36.9" y1="35.2" x2="28.54" y2="43.56"/><line class="cls-1" x1="28.54" y1="25.9" x2="26.89" y2="27.56"/><line class="cls-1" x1="16.87" y1="35.2" x2="15.22" y2="36.86"/><line class="cls-1" x1="26.89" y1="48.53" x2="28.54" y2="46.87"/><line class="cls-1" x1="28.54" y1="25.9" x2="28.54" y2="43.56"/><line class="cls-1" x1="32.43" y1="22.02" x2="33.25" y2="22.02"/><line class="cls-1" x1="6.03" y1="2.72" x2="47.74" y2="2.72"/><line class="cls-1" x1="47.51" y1="6.93" x2="39.38" y2="15.06"/><line class="cls-1" x1="34.42" y1="20.02" x2="33.25" y2="21.2"/><line class="cls-1" x1="33.25" y1="21.2" x2="32.43" y2="22.02"/><line class="cls-1" x1="19.35" y1="3.39" x2="20.52" y2="3.39"/><line class="cls-1" x1="20.52" y1="3.39" x2="33.25" y2="3.39"/><line class="cls-1" x1="34.42" y1="3.39" x2="47.06" y2="3.39"/><line class="cls-1" x1="34.42" y1="24.36" x2="36.9" y2="24.36"/><line class="cls-1" x1="34.42" y1="16.03" x2="33.25" y2="17.21"/><line class="cls-1" x1="33.25" y1="17.21" x2="28.44" y2="22.02"/><line class="cls-1" x1="19.35" y1="20.02" x2="16.87" y2="17.55"/><line class="cls-1" x1="3.64" y1="4.32" x2="0.38" y2="1.05"/><line class="cls-1" x1="19.35" y1="16.03" x2="6.71" y2="3.39"/><line class="cls-1" x1="6.26" y1="22.02" x2="14.39" y2="22.02"/><line class="cls-1" x1="20.52" y1="22.02" x2="21.34" y2="22.02"/><line class="cls-1" x1="34.42" y1="3.39" x2="34.42" y2="16.03"/><line class="cls-1" x1="34.42" y1="20.02" x2="34.42" y2="22.02"/><line class="cls-1" x1="34.42" y1="22.02" x2="34.42" y2="24.36"/><line class="cls-1" x1="19.35" y1="3.39" x2="19.35" y2="16.03"/><line class="cls-1" x1="19.35" y1="20.02" x2="19.35" y2="22.02"/><line class="cls-1" x1="19.35" y1="22.02" x2="19.35" y2="24.36"/><line class="cls-1" x1="26.06" y1="44.39" x2="26.06" y2="47.7"/><line class="cls-1" x1="33.25" y1="3.39" x2="33.25" y2="17.21"/><line class="cls-1" x1="6.03" y1="24.36" x2="5.81" y2="24.9"/><line class="cls-1" x1="6.26" y1="6.93" x2="6.26" y2="22.02"/><line class="cls-1" x1="3.64" y1="4.32" x2="3.64" y2="22.02"/><line class="cls-1" x1="3.64" y1="22.02" x2="3.64" y2="24.01"/><line class="cls-1" x1="47.51" y1="22.02" x2="47.51" y2="23.82"/><line class="cls-1" x1="50.13" y1="4.32" x2="50.13" y2="22.02"/><line class="cls-1" x1="6.71" y1="3.39" x2="19.35" y2="3.39"/><line class="cls-1" x1="50.13" y1="22.02" x2="53.4" y2="22.02"/><line class="cls-1" x1="30.09" y1="24.36" x2="33.25" y2="24.36"/><line class="cls-1" x1="47.96" y1="6.48" x2="47.96" y2="24.9"/><line class="cls-1" x1="47.06" y1="3.39" x2="34.42" y2="16.03"/><line class="cls-1" x1="47.74" y1="24.36" x2="39.38" y2="32.72"/><line class="cls-1" x1="21.34" y1="22.02" x2="20.52" y2="21.2"/><line class="cls-1" x1="32.43" y1="22.02" x2="30.09" y2="24.36"/><line class="cls-1" x1="30.09" y1="24.36" x2="28.54" y2="25.9"/><line class="cls-1" x1="25.33" y1="22.02" x2="28.44" y2="22.02"/><line class="cls-1" x1="28.44" y1="22.02" x2="26.89" y2="23.57"/><line class="cls-1" x1="25.33" y1="22.02" x2="20.52" y2="17.21"/><line class="cls-1" x1="50.13" y1="22.02" x2="50.13" y2="24.01"/><line class="cls-1" x1="47.96" y1="24.9" x2="50.13" y2="24.01"/><line class="cls-1" x1="0.38" y1="22.69" x2="0.38" y2="22.02"/><line class="cls-1" x1="26.89" y1="49.2" x2="0.38" y2="22.69"/><line class="cls-1" x1="0.38" y1="22.02" x2="3.64" y2="22.02"/><line class="cls-1" x1="53.4" y1="22.69" x2="53.4" y2="22.02"/><line class="cls-1" x1="53.4" y1="22.69" x2="26.89" y2="49.2"/><line class="cls-1" x1="26.89" y1="48.53" x2="26.89" y2="49.2"/><line class="cls-1" x1="0.38" y1="0.38" x2="53.4" y2="0.38"/><line class="cls-1" x1="53.4" y1="1.05" x2="53.4" y2="0.38"/><line class="cls-1" x1="0.38" y1="1.05" x2="0.38" y2="0.38"/><line class="cls-1" x1="53.4" y1="1.05" x2="50.13" y2="4.32"/><line class="cls-1" x1="34.42" y1="2.94" x2="34.42" y2="3.39"/><line class="cls-1" x1="20.52" y1="22.02" x2="20.52" y2="24.36"/><line class="cls-1" x1="26.89" y1="27.56" x2="26.06" y2="26.73"/><line class="cls-1" x1="26.06" y1="47.7" x2="26.89" y2="48.53"/><line class="cls-1" x1="20.52" y1="2.94" x2="19.35" y2="2.94"/><line class="cls-1" x1="34.42" y1="2.94" x2="33.25" y2="2.94"/><line class="cls-1" x1="33.25" y1="2.94" x2="33.25" y2="3.39"/><line class="cls-1" x1="33.25" y1="24.36" x2="34.42" y2="24.36"/><line class="cls-1" x1="5.81" y1="24.9" x2="3.64" y2="24.01"/><line class="cls-1" x1="47.51" y1="23.82" x2="47.74" y2="24.36"/></g></g></svg>