<svg xmlns="http://www.w3.org/2000/svg" viewBox="0 0 59.26 70.76"><defs><style>.cls-1{fill:none;stroke:#037cff;stroke-linecap:round;stroke-linejoin:round;stroke-width:0.75px;}</style></defs><title>Asset 11</title><g id="Layer_2" data-name="Layer 2"><g id="furniture2"><path class="cls-1" d="M58.09,24.52a18.7,18.7,0,0,1-4.69,7.86"/><path class="cls-1" d="M7.44,36.13,4,32.71"/><line class="cls-1" x1="15.08" y1="21.66" x2="15.08" y2="31.81"/><line class="cls-1" x1="53.81" y1="39.01" x2="53.81" y2="42.78"/><line class="cls-1" x1="53.81" y1="32.62" x2="53.81" y2="39.01"/><line class="cls-1" x1="51.32" y1="35.12" x2="51.32" y2="41.95"/><line class="cls-1" x1="52.98" y1="33.44" x2="52.98" y2="43.61"/><path class="cls-1" d="M55.51,24.23l.12.3"/><line class="cls-1" x1="55.9" y1="15.19" x2="55.9" y2="23.67"/><line class="cls-1" x1="55.51" y1="19.21" x2="55.51" y2="24.23"/><line class="cls-1" x1="45.85" y1="4.43" x2="45.85" y2="14.57"/><path class="cls-1" d="M28.54,18.34l.42-.41"/><line class="cls-1" x1="28.13" y1="8.59" x2="28.13" y2="18.76"/><line class="cls-1" x1="14.04" y1="46.72" x2="14.04" y2="55.21"/><path class="cls-1" d="M56.54,29.94A16.43,16.43,0,0,1,53.81,39"/><path class="cls-1" d="M55.51,24.22l.12.31"/><line class="cls-1" x1="27.71" y1="58.73" x2="27.71" y2="65.57"/><line class="cls-1" x1="26.89" y1="59.56" x2="26.89" y2="69.71"/><path class="cls-1" d="M58.19,24.87A18.79,18.79,0,0,1,56.46,29"/><line class="cls-1" x1="27.71" y1="58.73" x2="26.89" y2="59.56"/><line class="cls-1" x1="53.4" y1="33.05" x2="53.4" y2="32.38"/><line class="cls-1" x1="26.89" y1="58.89" x2="0.38" y2="32.38"/><path class="cls-1" d="M56.54,19.12a16.38,16.38,0,0,1-1,5.75"/><path class="cls-1" d="M55.52,14.08a16.45,16.45,0,0,1,1,5.38"/><path class="cls-1" d="M28.13,8.61l.41-.41L29,7.8"/><path class="cls-1" d="M13.42,23.32l2.49-2.49"/><path class="cls-1" d="M4,32.71l9.39-9.39"/><path class="cls-1" d="M51.32,42,40.76,52.52"/><path class="cls-1" d="M58.89,29.94a18.74,18.74,0,0,1-5.08,12.83"/><path class="cls-1" d="M45.85,12.09a18.69,18.69,0,0,1,9.66,7.12"/><path class="cls-1" d="M14,53.55,3.69,43.2"/><line class="cls-1" x1="26.89" y1="69.71" x2="2.03" y2="44.85"/><line class="cls-1" x1="7.44" y1="36.13" x2="13.42" y2="30.15"/><line class="cls-1" x1="2.03" y1="34.71" x2="2.03" y2="44.85"/><line class="cls-1" x1="2.86" y1="40.71" x2="5.79" y2="37.79"/><line class="cls-1" x1="2.86" y1="34.86" x2="2.86" y2="40.71"/><line class="cls-1" x1="2.86" y1="40.71" x2="2.86" y2="44.03"/><line class="cls-1" x1="40.76" y1="45.69" x2="39.93" y2="46.51"/><line class="cls-1" x1="13.42" y1="23.32" x2="13.42" y2="30.15"/><line class="cls-1" x1="55.51" y1="14.08" x2="55.51" y2="19.21"/><line class="cls-1" x1="28.96" y1="7.8" x2="28.96" y2="14.9"/><path class="cls-1" d="M58.89,19.8a18.91,18.91,0,0,1-.7,5.07"/><line class="cls-1" x1="52.98" y1="33.47" x2="51.32" y2="35.12"/><path class="cls-1" d="M45.85,4.42A16.32,16.32,0,0,1,51.74,8.2a16.5,16.5,0,0,1,3.78,5.88"/><path class="cls-1" d="M58.19,24.87h0"/><line class="cls-1" x1="58.89" y1="29.94" x2="58.89" y2="30.62"/><line class="cls-1" x1="15.08" y1="28.49" x2="26.89" y2="16.69"/><path class="cls-1" d="M29,14.9a18.71,18.71,0,0,1,15.79-3.13"/><path class="cls-1" d="M58.19,24.87a18.91,18.91,0,0,1,.7,5.07"/><path class="cls-1" d="M3.69,32.38,27.94,8.12l.44-.43.11-.11.1-.1c.06-.06.11-.12.17-.17.24-.23.49-.46.74-.67A17.77,17.77,0,0,1,31.15,5.4a16.38,16.38,0,0,1,16.54-.84,16.61,16.61,0,0,1,3.4,2.35c.26.23.5.46.73.7s.47.49.69.74A17.18,17.18,0,0,1,53.79,10a16.94,16.94,0,0,1,1.94,4"/><line class="cls-1" x1="51.32" y1="34.45" x2="26.89" y2="58.89"/><line class="cls-1" x1="44.75" y1="4.06" x2="44.75" y2="11.77"/><path class="cls-1" d="M58,24.91a19,19,0,0,1-1.57,3.54"/><path class="cls-1" d="M58.88,19.46a18.49,18.49,0,0,1-.79,5.06"/><line class="cls-1" x1="51.32" y1="35.12" x2="40.76" y2="45.69"/><line class="cls-1" x1="53.4" y1="32.38" x2="51.32" y2="34.45"/><path class="cls-1" d="M55.73,14c.12.37.23.74.32,1.12"/><path class="cls-1" d="M56.05,15.13a16.33,16.33,0,0,1,.49,4"/><path class="cls-1" d="M55.5,24.87a15.8,15.8,0,0,1-1.14,2.43,16.37,16.37,0,0,1-1.46,2.13q-.36.45-.75.87c-.13.14-.26.27-.4.4l-.24.25-.25.25-2,2-7.45,7.45-14.9,14.9"/><line class="cls-1" x1="15.7" y1="47.7" x2="15.7" y2="55.21"/><path class="cls-1" d="M9.44,38.12,20,27.55l5.28-5.28,2.88-2.87.36-.36.14-.15.15-.14c.19-.19.39-.37.6-.55.42-.36.86-.7,1.32-1A16.87,16.87,0,0,1,34,15.43a16.66,16.66,0,0,1,3.67-1A16.37,16.37,0,0,1,51.41,18.7a16.55,16.55,0,0,1,2.33,2.75,16,16,0,0,1,1.76,3.42"/><path class="cls-1" d="M58.88,19.46c0,.11,0,.22,0,.34"/><line class="cls-1" x1="39.93" y1="46.51" x2="38.28" y2="48.17"/><line class="cls-1" x1="39.93" y1="46.51" x2="39.93" y2="56.66"/><path class="cls-1" d="M26.89,55.57,9.44,38.12"/><line class="cls-1" x1="0.38" y1="32.38" x2="26.89" y2="5.87"/><line class="cls-1" x1="0.38" y1="32.38" x2="0.38" y2="33.05"/><line class="cls-1" x1="40.76" y1="45.69" x2="40.76" y2="45.69"/><line class="cls-1" x1="45.85" y1="14.57" x2="46.67" y2="12.38"/><path class="cls-1" d="M4,43.54l3.75-3.76"/><line class="cls-1" x1="27.71" y1="65.57" x2="27.71" y2="68.88"/><path class="cls-1" d="M58.89,19.12c0,.11,0,.23,0,.34"/><path class="cls-1" d="M44.75,4.06c.37.1.74.23,1.1.36"/><line class="cls-1" x1="53.81" y1="39.01" x2="53.81" y2="39.01"/><path class="cls-1" d="M56.46,29c0,.42.07.85.08,1.27"/><line class="cls-1" x1="40.76" y1="53.19" x2="40.76" y2="53.19"/><path class="cls-1" d="M56.51,28.93c0,.34,0,.67,0,1"/><line class="cls-1" x1="38.28" y1="48.17" x2="38.28" y2="55"/><line class="cls-1" x1="44.75" y1="11.77" x2="44.75" y2="14.18"/><line class="cls-1" x1="28.96" y1="14.9" x2="28.96" y2="17.93"/><line class="cls-1" x1="53.81" y1="39.69" x2="53.81" y2="39.69"/><path class="cls-1" d="M15.91,20.83,28.13,8.61"/><path class="cls-1" d="M29,7.8A16.4,16.4,0,0,1,44.75,4.06"/><path class="cls-1" d="M28.54,18.34a16.42,16.42,0,0,1,17.31-3.77"/><line class="cls-1" x1="55.51" y1="24.22" x2="55.51" y2="24.22"/><path class="cls-1" d="M56.46,29a18,18,0,0,1-2.65,3.61"/><path class="cls-1" d="M53.81,32.62l-.41.43"/><path class="cls-1" d="M38.28,55,27.71,65.57"/><line class="cls-1" x1="38.28" y1="48.17" x2="27.71" y2="58.73"/><line class="cls-1" x1="28.96" y1="14.9" x2="28.96" y2="14.9"/><line class="cls-1" x1="40.76" y1="55.83" x2="39.93" y2="56.66"/><line class="cls-1" x1="53.81" y1="32.62" x2="53.4" y2="33.04"/><path class="cls-1" d="M53.81,42.78l-.41.42"/><line class="cls-1" x1="53.4" y1="43.2" x2="52.98" y2="43.61"/><line class="cls-1" x1="53.4" y1="33.04" x2="52.98" y2="33.44"/><line class="cls-1" x1="55.51" y1="14.08" x2="55.52" y2="14.08"/><line class="cls-1" x1="45.85" y1="4.43" x2="45.85" y2="4.42"/><line class="cls-1" x1="28.13" y1="8.59" x2="28.54" y2="8.19"/><line class="cls-1" x1="14.04" y1="55.21" x2="14.04" y2="56.87"/><line class="cls-1" x1="15.7" y1="55.21" x2="14.04" y2="56.87"/><line class="cls-1" x1="26.89" y1="70.38" x2="0.38" y2="43.87"/><line class="cls-1" x1="26.89" y1="70.38" x2="26.89" y2="69.71"/><line class="cls-1" x1="0.38" y1="43.2" x2="0.38" y2="43.87"/><line class="cls-1" x1="58.89" y1="19.12" x2="58.89" y2="19.8"/><path class="cls-1" d="M26.89,5.87a18.75,18.75,0,0,1,32,13.25"/><line class="cls-1" x1="26.89" y1="59.56" x2="26.89" y2="58.89"/><path class="cls-1" d="M58.88,30.28c0,.11,0,.23,0,.34"/><path class="cls-1" d="M26.89,66.39,15.7,55.21"/><path class="cls-1" d="M58.89,30.62A18.78,18.78,0,0,1,53.4,43.87"/><line class="cls-1" x1="53.4" y1="43.87" x2="26.89" y2="70.38"/><line class="cls-1" x1="53.4" y1="43.87" x2="53.4" y2="43.2"/><line class="cls-1" x1="2.03" y1="44.85" x2="2.86" y2="44.03"/><line class="cls-1" x1="15.91" y1="30.98" x2="15.91" y2="30.98"/></g></g></svg>