<svg xmlns="http://www.w3.org/2000/svg" viewBox="0 0 53.77 65.27"><defs><style>.cls-1{fill:none;stroke:#037cff;stroke-linecap:round;stroke-linejoin:round;stroke-width:0.75px;}</style></defs><title>Asset 12</title><g id="Layer_2" data-name="Layer 2"><g id="furniture2"><line class="cls-1" x1="40.97" y1="45.69" x2="40.97" y2="41.12"/><line class="cls-1" x1="50.08" y1="26.89" x2="26.89" y2="50.08"/><line class="cls-1" x1="46.89" y1="35.19" x2="40.97" y2="41.12"/><line class="cls-1" x1="12.8" y1="19.58" x2="16.12" y2="16.26"/><line class="cls-1" x1="8.54" y1="31.73" x2="26.89" y2="13.38"/><line class="cls-1" x1="49.18" y1="37.48" x2="40.97" y2="45.69"/><line class="cls-1" x1="53.4" y1="36.58" x2="26.89" y2="63.09"/><line class="cls-1" x1="26.89" y1="63.09" x2="0.38" y2="36.58"/><line class="cls-1" x1="9.44" y1="32.63" x2="26.89" y2="15.19"/><line class="cls-1" x1="25.23" y1="61.43" x2="25.23" y2="58.12"/><line class="cls-1" x1="28.54" y1="7.15" x2="37.66" y2="16.26"/><line class="cls-1" x1="25.23" y1="7.15" x2="26.89" y2="5.49"/><line class="cls-1" x1="4.59" y1="37.48" x2="6.88" y2="35.19"/><line class="cls-1" x1="37.66" y1="16.26" x2="39.31" y2="17.92"/><line class="cls-1" x1="25.23" y1="58.12" x2="16.12" y2="49.01"/><line class="cls-1" x1="50.08" y1="32" x2="49.45" y2="32.63"/><line class="cls-1" x1="39.31" y1="50.66" x2="39.31" y2="42.77"/><line class="cls-1" x1="14.46" y1="25.81" x2="14.46" y2="17.92"/><line class="cls-1" x1="2.03" y1="30.35" x2="2.03" y2="30.35"/><line class="cls-1" x1="2.03" y1="38.24" x2="2.03" y2="30.35"/><line class="cls-1" x1="26.89" y1="13.38" x2="26.89" y2="5.49"/><line class="cls-1" x1="51.74" y1="38.24" x2="51.74" y2="30.35"/><line class="cls-1" x1="26.89" y1="63.09" x2="26.89" y2="55.2"/><line class="cls-1" x1="53.4" y1="26.89" x2="26.89" y2="53.4"/><line class="cls-1" x1="3.69" y1="26.89" x2="26.89" y2="3.69"/><line class="cls-1" x1="25.23" y1="53.54" x2="25.23" y2="53.54"/><line class="cls-1" x1="25.23" y1="58.12" x2="25.23" y2="53.54"/><line class="cls-1" x1="39.31" y1="22.5" x2="39.31" y2="17.92"/><line class="cls-1" x1="16.12" y1="20.84" x2="16.12" y2="16.26"/><line class="cls-1" x1="3.69" y1="33.27" x2="3.69" y2="32"/><line class="cls-1" x1="50.08" y1="33.27" x2="50.08" y2="32"/><line class="cls-1" x1="25.23" y1="53.54" x2="16.12" y2="44.43"/><line class="cls-1" x1="40.97" y1="24.15" x2="46.89" y2="30.08"/><line class="cls-1" x1="16.12" y1="16.26" x2="25.23" y2="7.15"/><line class="cls-1" x1="16.12" y1="20.84" x2="25.23" y2="11.73"/><line class="cls-1" x1="40.97" y1="19.58" x2="49.18" y2="27.79"/><line class="cls-1" x1="39.31" y1="42.77" x2="37.66" y2="44.43"/><line class="cls-1" x1="37.66" y1="44.43" x2="28.54" y2="53.54"/><line class="cls-1" x1="37.66" y1="49.01" x2="28.54" y2="58.12"/><line class="cls-1" x1="28.54" y1="11.73" x2="37.66" y2="20.84"/><line class="cls-1" x1="3.69" y1="33.27" x2="4.32" y2="32.63"/><line class="cls-1" x1="51.74" y1="30.35" x2="51.74" y2="30.35"/><line class="cls-1" x1="39.31" y1="42.77" x2="39.31" y2="42.77"/><line class="cls-1" x1="39.31" y1="25.81" x2="39.31" y2="22.5"/><line class="cls-1" x1="37.66" y1="24.15" x2="39.31" y2="25.81"/><line class="cls-1" x1="37.66" y1="24.15" x2="37.66" y2="20.84"/><line class="cls-1" x1="40.97" y1="24.15" x2="40.97" y2="19.58"/><line class="cls-1" x1="39.31" y1="25.81" x2="40.97" y2="24.15"/><line class="cls-1" x1="37.66" y1="49.01" x2="37.66" y2="44.43"/><line class="cls-1" x1="39.31" y1="42.77" x2="39.31" y2="42.77"/><line class="cls-1" x1="12.8" y1="24.15" x2="12.8" y2="19.58"/><line class="cls-1" x1="0.38" y1="36.58" x2="0.38" y2="28.69"/><line class="cls-1" x1="2.03" y1="38.24" x2="3.69" y2="36.58"/><line class="cls-1" x1="25.23" y1="11.73" x2="25.23" y2="7.15"/><line class="cls-1" x1="28.54" y1="11.73" x2="28.54" y2="7.15"/><line class="cls-1" x1="26.89" y1="13.38" x2="28.54" y2="11.73"/><line class="cls-1" x1="50.08" y1="36.58" x2="50.08" y2="33.27"/><line class="cls-1" x1="51.74" y1="30.35" x2="50.08" y2="32"/><line class="cls-1" x1="14.46" y1="50.66" x2="14.46" y2="42.77"/><line class="cls-1" x1="4.59" y1="27.79" x2="12.8" y2="19.58"/><line class="cls-1" x1="12.8" y1="45.69" x2="12.8" y2="41.12"/><line class="cls-1" x1="37.66" y1="20.84" x2="37.66" y2="16.26"/><line class="cls-1" x1="6.88" y1="30.08" x2="4.59" y2="27.79"/><line class="cls-1" x1="12.8" y1="45.69" x2="4.59" y2="37.48"/><line class="cls-1" x1="6.88" y1="30.08" x2="12.8" y2="24.15"/><line class="cls-1" x1="12.8" y1="41.12" x2="6.88" y2="35.19"/><line class="cls-1" x1="14.46" y1="42.77" x2="14.46" y2="42.77"/><line class="cls-1" x1="12.8" y1="49.01" x2="12.8" y2="45.69"/><line class="cls-1" x1="14.46" y1="42.77" x2="14.46" y2="42.77"/><line class="cls-1" x1="16.12" y1="49.01" x2="16.12" y2="44.43"/><line class="cls-1" x1="14.46" y1="50.66" x2="16.12" y2="49.01"/><line class="cls-1" x1="49.45" y1="32.63" x2="46.89" y2="35.19"/><line class="cls-1" x1="4.32" y1="32.63" x2="3.69" y2="32"/><line class="cls-1" x1="28.54" y1="58.12" x2="28.54" y2="53.54"/><line class="cls-1" x1="49.45" y1="32.63" x2="50.08" y2="33.27"/><line class="cls-1" x1="46.89" y1="35.19" x2="49.18" y2="37.48"/><line class="cls-1" x1="51.74" y1="30.35" x2="53.4" y2="28.69"/><line class="cls-1" x1="53.4" y1="36.58" x2="53.4" y2="28.69"/><line class="cls-1" x1="26.89" y1="50.08" x2="9.44" y2="32.63"/><line class="cls-1" x1="26.89" y1="0.38" x2="53.4" y2="26.89"/><line class="cls-1" x1="0.38" y1="26.89" x2="26.89" y2="0.38"/><line class="cls-1" x1="26.89" y1="55.2" x2="26.89" y2="53.4"/><line class="cls-1" x1="53.4" y1="26.89" x2="53.4" y2="28.69"/><line class="cls-1" x1="0.38" y1="28.69" x2="0.38" y2="26.89"/><line class="cls-1" x1="26.89" y1="3.69" x2="26.89" y2="5.49"/><line class="cls-1" x1="3.69" y1="36.58" x2="5.98" y2="34.29"/><line class="cls-1" x1="50.08" y1="36.58" x2="49.18" y2="37.48"/><line class="cls-1" x1="53.4" y1="38.38" x2="26.89" y2="64.89"/><line class="cls-1" x1="53.4" y1="36.58" x2="53.4" y2="38.38"/><line class="cls-1" x1="0.38" y1="38.38" x2="0.38" y2="36.58"/><line class="cls-1" x1="26.89" y1="64.89" x2="0.38" y2="38.38"/><line class="cls-1" x1="26.89" y1="64.89" x2="26.89" y2="63.09"/><line class="cls-1" x1="26.89" y1="15.19" x2="44.33" y2="32.63"/><line class="cls-1" x1="26.89" y1="13.38" x2="26.89" y2="15.19"/></g></g></svg>