<svg xmlns="http://www.w3.org/2000/svg" viewBox="0 0 106.79 136.15"><defs><style>.cls-1{fill:none;stroke:#037cff;stroke-linecap:round;stroke-linejoin:round;stroke-width:0.75px;}</style></defs><title>Asset 13</title><g id="Layer_2" data-name="Layer 2"><g id="furniture2"><line class="cls-1" x1="44.56" y1="111.88" x2="42.35" y2="114.09"/><line class="cls-1" x1="76.59" y1="79.84" x2="44.56" y2="111.88"/><path class="cls-1" d="M55.23,77.87A41.53,41.53,0,0,0,54,82.68a24.84,24.84,0,0,0-.55,4.94"/><path class="cls-1" d="M58.37,63.42a83.94,83.94,0,0,0-3.94,8.37,50.86,50.86,0,0,0-2.72,8.82"/><path class="cls-1" d="M77.7,37.26l-1.11,1.12"/><line class="cls-1" x1="77.7" y1="37.26" x2="79.91" y2="39.47"/><path class="cls-1" d="M79.91,39.47a105.53,105.53,0,0,0-8.57,9.73,118.44,118.44,0,0,0-7.43,10.64A98.78,98.78,0,0,0,57.8,71.28c-.46,1-.9,2-1.31,3.1s-.74,1.94-1.07,2.93-.7,2.19-1,3.3c-.14.51-.26,1-.37,1.53s-.2,1-.28,1.44"/><path class="cls-1" d="M76.59,44.77c1.07-1.19,2.18-2.37,3.32-3.5"/><path class="cls-1" d="M63.7,62.53A108,108,0,0,1,76.59,44.77"/><line class="cls-1" x1="22.47" y1="89.78" x2="37.35" y2="104.66"/><line class="cls-1" x1="51.19" y1="84.51" x2="51.19" y2="86.31"/><line class="cls-1" x1="82.09" y1="9.42" x2="79.91" y2="11.6"/><line class="cls-1" x1="56.71" y1="55.54" x2="54.5" y2="57.75"/><line class="cls-1" x1="71.8" y1="29.15" x2="74.94" y2="32.29"/><line class="cls-1" x1="56.71" y1="14.06" x2="57.65" y2="15"/><line class="cls-1" x1="78.8" y1="36.15" x2="77.7" y2="37.26"/><line class="cls-1" x1="54.5" y1="16.27" x2="76.59" y2="38.36"/><line class="cls-1" x1="55.61" y1="15.17" x2="54.5" y2="16.27"/><line class="cls-1" x1="29.09" y1="127.34" x2="29.09" y2="119.13"/><line class="cls-1" x1="55.61" y1="90.82" x2="26.89" y2="119.54"/><line class="cls-1" x1="51.19" y1="90.82" x2="50.28" y2="91.72"/><line class="cls-1" x1="5.7" y1="93.93" x2="29.09" y2="70.53"/><line class="cls-1" x1="2.58" y1="95.24" x2="2.58" y2="109.67"/><line class="cls-1" x1="29.09" y1="68.73" x2="29.09" y2="70.53"/><line class="cls-1" x1="4.79" y1="93.03" x2="26.89" y2="115.12"/><line class="cls-1" x1="78.8" y1="82.05" x2="79.91" y2="80.95"/><line class="cls-1" x1="78.8" y1="82.05" x2="78.8" y2="42.4"/><path class="cls-1" d="M53.4,13a103.66,103.66,0,0,0-7.66,8.57c-2.39,3-4.66,6.11-6.75,9.31a105.91,105.91,0,0,0-5.79,9.94,74.58,74.58,0,0,0-4.48,10.58"/><line class="cls-1" x1="53.4" y1="12.96" x2="55.61" y2="15.17"/><path class="cls-1" d="M52.29,20.47c.72-.81,1.46-1.6,2.21-2.38"/><line class="cls-1" x1="6.69" y1="101.15" x2="4.79" y2="103.04"/><line class="cls-1" x1="36.35" y1="71.48" x2="36.31" y2="71.52"/><line class="cls-1" x1="52.29" y1="55.54" x2="39.47" y2="68.37"/><line class="cls-1" x1="42.58" y1="71.48" x2="54.5" y2="59.55"/><path class="cls-1" d="M53.4,13h0"/><path class="cls-1" d="M78.9,3.18a5.37,5.37,0,0,0-1.45-.48,8.06,8.06,0,0,0-1.7-.11,11.13,11.13,0,0,0-1.51.19,15.33,15.33,0,0,0-1.65.42A27.46,27.46,0,0,0,66.79,6a51.54,51.54,0,0,0-5.24,3.77c-1.67,1.36-3.29,2.81-4.83,4.3"/><path class="cls-1" d="M96.81,27.53a25.35,25.35,0,0,0-4.73,2.18,44.8,44.8,0,0,0-4.34,2.89,72,72,0,0,0-7.83,6.87"/><path class="cls-1" d="M101.14,30.22A9.91,9.91,0,0,1,102,34.6"/><path class="cls-1" d="M96.52,30a9.59,9.59,0,0,1,2.33-.28,5.67,5.67,0,0,1,2.29.48"/><path class="cls-1" d="M104.21,36.81l2.21-2.21"/><path class="cls-1" d="M104.21,36.81c0,.46,0,.91-.06,1.37s-.09,1-.16,1.52-.18,1.1-.29,1.65-.26,1.19-.41,1.79q-.39,1.47-.87,2.91c-.35,1.07-.74,2.12-1.16,3.17s-.79,1.92-1.22,2.86-.93,2-1.42,3c-1,1.9-2,3.78-3.09,5.62a110.38,110.38,0,0,1-7.19,10.61A100.53,100.53,0,0,1,79.91,81"/><line class="cls-1" x1="53.4" y1="12.96" x2="55.61" y2="15.16"/><line class="cls-1" x1="77.7" y1="37.26" x2="77.7" y2="37.26"/><line class="cls-1" x1="77.7" y1="37.26" x2="76.59" y2="38.36"/><line class="cls-1" x1="55.61" y1="15.16" x2="55.61" y2="15.17"/><path class="cls-1" d="M54.51,16.28a110.76,110.76,0,0,0-8.19,9.54A118.51,118.51,0,0,0,39.2,36.21a96.58,96.58,0,0,0-5.86,11.12c-.44,1-.86,2-1.26,3s-.71,1.89-1,2.85-.67,2.12-.95,3.2-.46,1.91-.62,2.88"/><line class="cls-1" x1="98.07" y1="29.77" x2="101.97" y2="33.67"/><line class="cls-1" x1="96.52" y1="30.02" x2="101.98" y2="35.48"/><line class="cls-1" x1="81.01" y1="79.82" x2="81.01" y2="75.24"/><line class="cls-1" x1="81.01" y1="75.24" x2="81.01" y2="40.19"/><path class="cls-1" d="M77.94,1.87a4.81,4.81,0,0,0-1.42-1A6.06,6.06,0,0,0,74.71.41,9.54,9.54,0,0,0,73,.42a11.9,11.9,0,0,0-1.89.36c-.56.15-1.11.33-1.65.53s-1.17.47-1.74.74-1,.52-1.56.8-1.08.62-1.61.95a53.78,53.78,0,0,0-5.84,4.26c-1.84,1.54-3.64,3.2-5.33,4.9"/><line class="cls-1" x1="56.72" y1="14.07" x2="56.72" y2="14.07"/><path class="cls-1" d="M97.43,24.71a14.39,14.39,0,0,0-3.55.86"/><line class="cls-1" x1="93.88" y1="25.57" x2="93.88" y2="25.57"/><path class="cls-1" d="M93.88,25.57c-.44.17-.86.34-1.28.53"/><path class="cls-1" d="M92.6,26.1a33,33,0,0,0-4,2.2C87.26,29.12,86,30,84.79,31a77,77,0,0,0-6.9,6.11"/><path class="cls-1" d="M77.89,37.06l-.19.2"/><line class="cls-1" x1="77.7" y1="37.26" x2="77.7" y2="37.26"/><path class="cls-1" d="M81,40.19a61.35,61.35,0,0,1,7.17-6,36.22,36.22,0,0,1,4-2.46A18.72,18.72,0,0,1,96.52,30"/><path class="cls-1" d="M102,35.48a25.54,25.54,0,0,1-.58,4.08c-.29,1.33-.66,2.68-1.08,4"/><path class="cls-1" d="M56.72,14.07c-.38.36-.75.73-1.11,1.09"/><path class="cls-1" d="M82.09,9.42a11,11,0,0,0-.49-2.85,6.27,6.27,0,0,0-1.45-2.49"/><line class="cls-1" x1="79.3" y1="8.7" x2="79.3" y2="8.7"/><line class="cls-1" x1="56.71" y1="14.06" x2="55.61" y2="15.16"/><line class="cls-1" x1="2.58" y1="97.04" x2="4.79" y2="99.25"/><line class="cls-1" x1="4.79" y1="103.04" x2="4.79" y2="99.25"/><path class="cls-1" d="M55.61,15.17c-.31.3-.6.6-.9.9"/><line class="cls-1" x1="102" y1="34.6" x2="102" y2="34.6"/><line class="cls-1" x1="20.26" y1="91.99" x2="35.14" y2="106.87"/><line class="cls-1" x1="31.3" y1="60.21" x2="29.09" y2="62.42"/><line class="cls-1" x1="29.09" y1="62.42" x2="51.19" y2="84.51"/><line class="cls-1" x1="79.91" y1="11.6" x2="93.88" y2="25.57"/><line class="cls-1" x1="2.58" y1="95.24" x2="24.68" y2="117.33"/><line class="cls-1" x1="2.58" y1="109.67" x2="24.68" y2="131.76"/><line class="cls-1" x1="54.5" y1="57.75" x2="54.5" y2="18.09"/><line class="cls-1" x1="29.09" y1="63.32" x2="29.09" y2="68.73"/><path class="cls-1" d="M72.47,34.23A107.62,107.62,0,0,1,64.78,46a101,101,0,0,1-9.17,10.65"/><path class="cls-1" d="M76.84,5.92a9.91,9.91,0,0,1,.86,4.38"/><line class="cls-1" x1="26.89" y1="66.52" x2="0.38" y2="93.03"/><line class="cls-1" x1="31.33" y1="60.23" x2="39.47" y2="68.37"/><line class="cls-1" x1="42.58" y1="71.48" x2="51.71" y2="80.61"/><line class="cls-1" x1="31.3" y1="66.43" x2="36.35" y2="71.48"/><line class="cls-1" x1="39.46" y1="74.59" x2="51.19" y2="86.31"/><line class="cls-1" x1="81.59" y1="15.09" x2="92.6" y2="26.1"/><line class="cls-1" x1="57.58" y1="56.41" x2="60.61" y2="59.44"/><line class="cls-1" x1="57.65" y1="15" x2="71.8" y2="29.15"/><line class="cls-1" x1="74.94" y1="32.29" x2="78.8" y2="36.15"/><line class="cls-1" x1="36.31" y1="77.75" x2="50.28" y2="91.72"/><line class="cls-1" x1="6.69" y1="101.15" x2="9.8" y2="104.26"/><line class="cls-1" x1="9.8" y1="104.26" x2="24.68" y2="119.13"/><line class="cls-1" x1="39.42" y1="74.64" x2="51.19" y2="86.4"/><line class="cls-1" x1="56.71" y1="50.94" x2="56.71" y2="18.48"/><line class="cls-1" x1="5.7" y1="108.36" x2="24.68" y2="127.34"/><path class="cls-1" d="M31.33,60.23c0-.42.05-.83.1-1.25s.11-.9.19-1.35.17-1,.27-1.46.24-1,.38-1.55c.23-.88.49-1.75.77-2.61s.65-1.88,1-2.8A79.32,79.32,0,0,1,39,39a107.09,107.09,0,0,1,13.3-18.48"/><line class="cls-1" x1="33.2" y1="74.64" x2="9.8" y2="98.03"/><line class="cls-1" x1="5.7" y1="108.36" x2="9.8" y2="104.26"/><line class="cls-1" x1="12.91" y1="101.15" x2="20.26" y2="93.8"/><line class="cls-1" x1="23.37" y1="90.69" x2="36.31" y2="77.75"/><line class="cls-1" x1="39.42" y1="74.64" x2="39.46" y2="74.59"/><path class="cls-1" d="M70.26,32A108.3,108.3,0,0,1,56.71,50.94"/><path class="cls-1" d="M57.58,56.41a110.19,110.19,0,0,0,8.49-10.19,116.41,116.41,0,0,0,7.29-11.09"/><path class="cls-1" d="M74.94,32.29a86.15,86.15,0,0,0,3.93-8.37,50.37,50.37,0,0,0,2.72-8.83"/><path class="cls-1" d="M57.65,15c1.34-1.26,2.75-2.48,4.2-3.61A44.39,44.39,0,0,1,66.4,8.24a22.86,22.86,0,0,1,5-2.31,11.57,11.57,0,0,1,1.41-.34,9.55,9.55,0,0,1,1.31-.15,7.07,7.07,0,0,1,1.45.09,5.49,5.49,0,0,1,1.25.39"/><line class="cls-1" x1="53.4" y1="87.62" x2="53.4" y2="93.03"/><line class="cls-1" x1="26.89" y1="119.54" x2="26.89" y2="135.77"/><line class="cls-1" x1="29.09" y1="127.34" x2="29.09" y2="127.34"/><line class="cls-1" x1="51.19" y1="86.4" x2="51.19" y2="90.82"/><line class="cls-1" x1="63.7" y1="62.53" x2="76.59" y2="75.42"/><line class="cls-1" x1="78.8" y1="82.05" x2="29.09" y2="131.76"/><path class="cls-1" d="M79.91,41.27v-1.8"/><line class="cls-1" x1="40.46" y1="107.77" x2="44.56" y2="111.88"/><line class="cls-1" x1="38.25" y1="109.98" x2="42.35" y2="114.09"/><line class="cls-1" x1="29.09" y1="68.73" x2="4.79" y2="93.03"/><line class="cls-1" x1="37.35" y1="104.66" x2="35.14" y2="106.87"/><line class="cls-1" x1="35.14" y1="106.87" x2="26.89" y2="115.12"/><line class="cls-1" x1="38.25" y1="109.98" x2="40.46" y2="107.77"/><line class="cls-1" x1="40.46" y1="107.77" x2="55.61" y2="92.62"/><line class="cls-1" x1="42.35" y1="114.09" x2="29.09" y2="127.34"/><path class="cls-1" d="M76.59,38.38A111.34,111.34,0,0,0,68,48.45a117.85,117.85,0,0,0-7.39,11"/><path class="cls-1" d="M60.61,59.44q-1.17,2-2.24,4"/><path class="cls-1" d="M51.71,80.61a26.57,26.57,0,0,0-.5,3.88"/><path class="cls-1" d="M51.21,84.49c0,.3,0,.61,0,.92"/><path class="cls-1" d="M61.5,66.56q1.05-2,2.2-4"/><line class="cls-1" x1="51.19" y1="86.31" x2="51.19" y2="86.4"/><line class="cls-1" x1="51.21" y1="84.49" x2="51.19" y2="84.51"/><line class="cls-1" x1="61.5" y1="66.56" x2="75.69" y2="80.74"/><line class="cls-1" x1="29.09" y1="131.76" x2="26.89" y2="135.77"/><line class="cls-1" x1="26.89" y1="135.77" x2="79.91" y2="82.75"/><line class="cls-1" x1="79.91" y1="82.75" x2="79.91" y2="80.95"/><path class="cls-1" d="M53.4,87.62l2.21-2.21"/><path class="cls-1" d="M79.91,41.27h0"/><path class="cls-1" d="M55.61,85.41a23.39,23.39,0,0,1,.59-4.93,42.06,42.06,0,0,1,1.35-4.79,70.26,70.26,0,0,1,4-9.13"/><line class="cls-1" x1="55.61" y1="90.82" x2="55.61" y2="85.41"/><line class="cls-1" x1="22.47" y1="89.78" x2="20.26" y2="91.99"/><line class="cls-1" x1="20.26" y1="91.99" x2="20.26" y2="93.8"/><line class="cls-1" x1="82.12" y1="9.39" x2="97.43" y2="24.71"/><line class="cls-1" x1="82.12" y1="9.39" x2="82.09" y2="9.42"/><line class="cls-1" x1="54.5" y1="59.55" x2="58.37" y2="63.42"/><line class="cls-1" x1="54.5" y1="57.75" x2="54.5" y2="59.55"/><line class="cls-1" x1="76.59" y1="38.36" x2="76.59" y2="38.38"/><line class="cls-1" x1="29.09" y1="119.13" x2="26.89" y2="119.54"/><line class="cls-1" x1="29.09" y1="70.53" x2="33.2" y2="74.64"/><line class="cls-1" x1="24.68" y1="119.13" x2="24.68" y2="127.34"/><line class="cls-1" x1="50.28" y1="91.72" x2="37.35" y2="104.66"/><line class="cls-1" x1="24.68" y1="117.33" x2="26.89" y2="119.54"/><line class="cls-1" x1="24.68" y1="133.56" x2="26.89" y2="135.77"/><line class="cls-1" x1="29.09" y1="119.13" x2="38.25" y2="109.98"/><line class="cls-1" x1="55.61" y1="92.62" x2="55.61" y2="90.82"/><line class="cls-1" x1="4.79" y1="99.25" x2="6.69" y2="101.15"/><line class="cls-1" x1="0.38" y1="93.03" x2="0.38" y2="109.26"/><line class="cls-1" x1="0.38" y1="109.26" x2="2.58" y2="111.47"/><line class="cls-1" x1="24.68" y1="117.33" x2="24.68" y2="119.13"/><line class="cls-1" x1="31.3" y1="66.52" x2="36.31" y2="71.52"/><line class="cls-1" x1="4.79" y1="107.46" x2="2.58" y2="109.67"/><line class="cls-1" x1="2.58" y1="111.47" x2="24.68" y2="133.56"/><line class="cls-1" x1="4.79" y1="93.03" x2="2.58" y2="95.24"/><line class="cls-1" x1="52.29" y1="55.54" x2="52.29" y2="20.47"/><path class="cls-1" d="M54.3,13.86h0"/><line class="cls-1" x1="26.89" y1="61.11" x2="26.89" y2="66.52"/><line class="cls-1" x1="31.3" y1="66.52" x2="31.3" y2="66.43"/><line class="cls-1" x1="77.7" y1="10.3" x2="79.91" y2="12.51"/><path class="cls-1" d="M79.3,8.7a10.75,10.75,0,0,1,.61,3.81"/><path class="cls-1" d="M77.7,10.3a24.07,24.07,0,0,1-.59,4.93A42.11,42.11,0,0,1,75.75,20a68.92,68.92,0,0,1-4,9.13"/><path class="cls-1" d="M79.91,12.51a24.07,24.07,0,0,1-.59,4.93A42.11,42.11,0,0,1,78,22.23,70.26,70.26,0,0,1,74,31.36"/><path class="cls-1" d="M55.61,15.16h0"/><path class="cls-1" d="M103.2,27.48A6.3,6.3,0,0,0,100,26.9a12.44,12.44,0,0,0-3.2.63"/><path class="cls-1" d="M102.24,26.18A4.86,4.86,0,0,0,100,24.9a7.48,7.48,0,0,0-2.58-.19"/><line class="cls-1" x1="102.24" y1="26.18" x2="104.45" y2="28.38"/><path class="cls-1" d="M79.91,39.47h0"/><path class="cls-1" d="M103.6,33a10.75,10.75,0,0,1,.61,3.81"/><line class="cls-1" x1="102" y1="34.6" x2="104.21" y2="36.81"/><line class="cls-1" x1="106.42" y1="34.6" x2="106.42" y2="34.6"/><path class="cls-1" d="M102,34.6h0"/><path class="cls-1" d="M79.91,41.27c.36-.37.73-.73,1.1-1.08"/><path class="cls-1" d="M106.42,34.6a13.2,13.2,0,0,0-.39-3.31,6.49,6.49,0,0,0-1.58-2.91"/><path class="cls-1" d="M100.32,43.54a66.85,66.85,0,0,1-3.57,8.62c-1.37,2.78-2.91,5.52-4.55,8.15A107.05,107.05,0,0,1,81,75.24"/><path class="cls-1" d="M104.58,44.35a44.29,44.29,0,0,0,1.29-4.81,25.6,25.6,0,0,0,.55-4.94"/><path class="cls-1" d="M79.91,82.75a103.87,103.87,0,0,0,7.65-8.58c2.39-3,4.66-6.11,6.75-9.3a105.91,105.91,0,0,0,5.79-9.94,73.92,73.92,0,0,0,4.48-10.58"/><path class="cls-1" d="M106.42,34.6l-2.21,2.21"/><path class="cls-1" d="M78.9,3.18a5.5,5.5,0,0,0-.72-.3"/><line class="cls-1" x1="77.94" y1="1.87" x2="80.15" y2="4.08"/><line class="cls-1" x1="77.7" y1="10.3" x2="79.91" y2="12.51"/></g></g></svg>