<svg xmlns="http://www.w3.org/2000/svg" viewBox="0 0 53.77 122.55"><defs><style>.cls-1{fill:none;stroke:#037cff;stroke-linecap:round;stroke-linejoin:round;stroke-width:0.75px;}</style></defs><title>Asset 14</title><g id="Layer_2" data-name="Layer 2"><g id="furniture2"><line class="cls-1" x1="24.68" y1="118.17" x2="2.58" y2="96.07"/><line class="cls-1" x1="26.89" y1="57.25" x2="26.89" y2="115.96"/><line class="cls-1" x1="24.68" y1="69.56" x2="4.79" y2="89.45"/><path class="cls-1" d="M25.59,50.17a34.46,34.46,0,0,1,1.56-3.9c.59-1.26,1.25-2.51,1.94-3.71"/><path class="cls-1" d="M26.89,57.25a12.79,12.79,0,0,1,.27-2.47,21.74,21.74,0,0,1,.64-2.4"/><line class="cls-1" x1="26.89" y1="57.25" x2="24.68" y2="55.04"/><path class="cls-1" d="M2.58,33a8.94,8.94,0,0,1,.06-1c0-.4.1-.79.17-1.18s.19-.89.3-1.33.27-1,.43-1.45c.25-.76.54-1.52.85-2.26s.72-1.64,1.12-2.45c.75-1.51,1.6-3,2.5-4.45s1.88-2.85,2.9-4.21c.52-.7,1.07-1.38,1.62-2.06s1.07-1.26,1.63-1.88S15.35,9.36,16,8.75s1.2-1.15,1.82-1.7,1.36-1.15,2.07-1.68c.33-.25.68-.49,1-.72s.67-.43,1-.63a13.65,13.65,0,0,1,1.37-.71,10.45,10.45,0,0,1,1.28-.48A6.62,6.62,0,0,1,25.7,2.6a4.29,4.29,0,0,1,1,0"/><line class="cls-1" x1="51.19" y1="32.95" x2="51.19" y2="96.07"/><line class="cls-1" x1="48.98" y1="89.45" x2="48.98" y2="93.87"/><line class="cls-1" x1="48.98" y1="93.87" x2="51.19" y2="96.07"/><line class="cls-1" x1="5.7" y1="94.77" x2="4.79" y2="93.87"/><line class="cls-1" x1="48.98" y1="32.55" x2="48.98" y2="89.45"/><line class="cls-1" x1="29.09" y1="69.56" x2="29.09" y2="55.04"/><line class="cls-1" x1="5.7" y1="94.77" x2="26.89" y2="73.58"/><path class="cls-1" d="M28.11,3.33a3.17,3.17,0,0,1,.79,1.46,6.53,6.53,0,0,1,.19,1.65"/><line class="cls-1" x1="29.09" y1="115.55" x2="29.09" y2="113.75"/><line class="cls-1" x1="48.98" y1="89.45" x2="29.09" y2="69.56"/><line class="cls-1" x1="24.68" y1="113.75" x2="5.7" y2="94.77"/><line class="cls-1" x1="24.68" y1="119.97" x2="24.68" y2="118.17"/><line class="cls-1" x1="29.09" y1="118.17" x2="29.09" y2="115.55"/><line class="cls-1" x1="29.09" y1="113.75" x2="29.09" y2="75.79"/><line class="cls-1" x1="26.89" y1="117.76" x2="26.89" y2="122.18"/><line class="cls-1" x1="29.09" y1="115.55" x2="29.09" y2="115.55"/><line class="cls-1" x1="53.4" y1="95.67" x2="53.4" y2="30.74"/><line class="cls-1" x1="53.4" y1="30.74" x2="51.19" y2="32.95"/><line class="cls-1" x1="26.89" y1="122.18" x2="53.4" y2="95.67"/><line class="cls-1" x1="29.09" y1="55.04" x2="26.89" y2="57.25"/><path class="cls-1" d="M4.79,30.74,2.58,33"/><line class="cls-1" x1="25.9" y1="1.12" x2="28.11" y2="3.33"/><path class="cls-1" d="M.38,30.74c0-.36,0-.72,0-1.07s.11-.83.19-1.23.19-.92.32-1.38.29-1,.46-1.5c.26-.8.57-1.58.9-2.36s.76-1.69,1.18-2.52c.8-1.57,1.69-3.12,2.64-4.6s2-2.95,3.06-4.34c.56-.72,1.14-1.43,1.73-2.13S12,8.32,12.62,7.7l1-1,.23-.24.24-.23.48-.46c.63-.59,1.28-1.18,2-1.73a26.34,26.34,0,0,1,2.26-1.67c.36-.24.72-.47,1.1-.68s.7-.38,1.07-.55.53-.24.81-.34A6.86,6.86,0,0,1,22.5.58a4.61,4.61,0,0,1,.72-.15,3.71,3.71,0,0,1,.67,0,3,3,0,0,1,.6,0A2.39,2.39,0,0,1,25,.57a2.48,2.48,0,0,1,.87.55"/><line class="cls-1" x1="2.58" y1="32.95" x2="0.38" y2="30.74"/><line class="cls-1" x1="24.68" y1="56.85" x2="24.68" y2="55.04"/><line class="cls-1" x1="24.68" y1="56.85" x2="2.58" y2="34.75"/><line class="cls-1" x1="48.08" y1="94.77" x2="29.09" y2="75.79"/><line class="cls-1" x1="24.68" y1="56.85" x2="24.68" y2="69.56"/><line class="cls-1" x1="4.79" y1="93.87" x2="4.79" y2="89.45"/><line class="cls-1" x1="51.19" y1="32.95" x2="48.98" y2="30.74"/><path class="cls-1" d="M29.09,42.56a59,59,0,0,1,6.17-8.7c.58-.67,1.17-1.34,1.79-2,.15-.17.31-.33.47-.5l.23-.24.24-.23.94-.91a31.05,31.05,0,0,1,4.16-3.34"/><line class="cls-1" x1="24.68" y1="55.04" x2="2.58" y2="32.95"/><path class="cls-1" d="M43.09,26.66c.37-.24.74-.47,1.12-.68"/><line class="cls-1" x1="24.68" y1="50.62" x2="4.79" y2="30.74"/><line class="cls-1" x1="26.89" y1="8.65" x2="26.89" y2="46.85"/><line class="cls-1" x1="2.58" y1="34.75" x2="2.58" y2="96.07"/><path class="cls-1" d="M51.19,33a4.9,4.9,0,0,0-.28-1.73A2.19,2.19,0,0,0,49.77,30"/><line class="cls-1" x1="44.21" y1="25.98" x2="26.89" y2="8.65"/><path class="cls-1" d="M29.86,51a19.67,19.67,0,0,0-.54,2A11,11,0,0,0,29.09,55"/><line class="cls-1" x1="29.09" y1="42.56" x2="29.09" y2="12.66"/><line class="cls-1" x1="24.68" y1="6.44" x2="26.89" y2="8.65"/><line class="cls-1" x1="24.68" y1="6.44" x2="24.68" y2="50.62"/><line class="cls-1" x1="0.38" y1="30.74" x2="0.38" y2="95.67"/><path class="cls-1" d="M48.9,29.74a4.25,4.25,0,0,0-.87.06"/><line class="cls-1" x1="26.89" y1="71.77" x2="4.79" y2="93.87"/><path class="cls-1" d="M49,30.74a5.62,5.62,0,0,0-.08-1"/><path class="cls-1" d="M47.41,27.68a9.14,9.14,0,0,1,1.75-.63A4.62,4.62,0,0,1,51,26.93"/><path class="cls-1" d="M27.8,52.38c.2-.59.41-1.17.63-1.75s.52-1.25.8-1.86c.53-1.18,1.13-2.33,1.76-3.46a59.31,59.31,0,0,1,4.26-6.48A54.42,54.42,0,0,1,40.34,33c.92-.91,1.89-1.79,2.89-2.6.52-.42,1.06-.82,1.61-1.2s1-.69,1.58-1"/><path class="cls-1" d="M44.21,26a10.16,10.16,0,0,1,3.19-1.23"/><path class="cls-1" d="M46.64,30.21c-.24.09-.47.2-.7.31l-.73.4c-.52.3-1,.64-1.52,1s-.89.67-1.32,1-.88.76-1.3,1.15l-.6.57c-.1.1-.19.2-.29.29l-.3.3c-.41.42-.81.84-1.2,1.28-.76.84-1.49,1.72-2.19,2.61a49.05,49.05,0,0,0-3.8,5.66c-.56,1-1.09,2-1.57,3-.25.54-.49,1.09-.71,1.64s-.38,1-.55,1.53"/><line class="cls-1" x1="43.09" y1="26.66" x2="29.09" y2="12.66"/><path class="cls-1" d="M49.77,30a2.41,2.41,0,0,0-.87-.21"/><path class="cls-1" d="M48,29.8a6.16,6.16,0,0,0-1.39.41"/><path class="cls-1" d="M52.41,27.64a3.13,3.13,0,0,1,.79,1.45,6.54,6.54,0,0,1,.2,1.65"/><line class="cls-1" x1="50.2" y1="25.43" x2="52.41" y2="27.64"/><path class="cls-1" d="M47.4,24.75a4.15,4.15,0,0,1,1.49,0,2.46,2.46,0,0,1,1.31.69"/><line class="cls-1" x1="47.4" y1="24.75" x2="29.09" y2="6.44"/><line class="cls-1" x1="26.89" y1="8.65" x2="29.09" y2="6.44"/><line class="cls-1" x1="48.98" y1="30.74" x2="48.03" y2="29.8"/><line class="cls-1" x1="48.98" y1="32.55" x2="48.98" y2="30.74"/><line class="cls-1" x1="48.98" y1="32.55" x2="46.64" y2="30.21"/><path class="cls-1" d="M26.89,8.65a4.87,4.87,0,0,0-.28-1.73,2.23,2.23,0,0,0-1.14-1.27"/><path class="cls-1" d="M5.56,26.68a19.67,19.67,0,0,0-.54,2,11,11,0,0,0-.23,2.06"/><line class="cls-1" x1="2.58" y1="34.75" x2="2.58" y2="32.95"/><path class="cls-1" d="M25.47,5.65a2.41,2.41,0,0,0-.87-.21"/><path class="cls-1" d="M24.6,5.44a3.88,3.88,0,0,0-.76,0,6,6,0,0,0-.84.19,7.83,7.83,0,0,0-.92.34c-.33.15-.66.32-1,.49-.51.29-1,.61-1.49,1s-1,.77-1.53,1.18a32.33,32.33,0,0,0-2.71,2.52c-.41.43-.82.87-1.21,1.32s-.84,1-1.24,1.45A48.15,48.15,0,0,0,8.68,20C8.06,21,7.47,22.14,6.94,23.25c-.28.59-.54,1.18-.78,1.78s-.42,1.09-.6,1.65"/><path class="cls-1" d="M24.68,6.44a6.74,6.74,0,0,0-.08-1"/><line class="cls-1" x1="48.98" y1="93.87" x2="29.09" y2="73.98"/><line class="cls-1" x1="51.19" y1="96.07" x2="29.09" y2="118.17"/></g></g></svg>