<svg xmlns="http://www.w3.org/2000/svg" viewBox="0 0 80.28 89.34"><defs><style>.cls-1{fill:none;stroke:#037cff;stroke-linecap:round;stroke-linejoin:round;stroke-width:0.75px;}</style></defs><title>Asset 15</title><g id="Layer_2" data-name="Layer 2"><g id="furniture2"><line class="cls-1" x1="25.92" y1="18.59" x2="25.92" y2="38.35"/><line class="cls-1" x1="79.08" y1="15.14" x2="79.08" y2="36.1"/><line class="cls-1" x1="26.89" y1="63.34" x2="3.69" y2="40.14"/><line class="cls-1" x1="3.69" y1="40.14" x2="26.89" y2="16.94"/><line class="cls-1" x1="26.89" y1="16.94" x2="40.14" y2="30.2"/><line class="cls-1" x1="68.31" y1="21.91" x2="39.26" y2="50.96"/><line class="cls-1" x1="26.89" y1="66.65" x2="0.38" y2="40.14"/><line class="cls-1" x1="79.91" y1="14.31" x2="27.71" y2="66.5"/><line class="cls-1" x1="79.91" y1="13.63" x2="69.09" y2="24.45"/><line class="cls-1" x1="2.86" y1="43.3" x2="0.38" y2="40.82"/><line class="cls-1" x1="15.7" y1="56.14" x2="13.22" y2="53.66"/><line class="cls-1" x1="52.98" y1="18.03" x2="55.47" y2="15.55"/><line class="cls-1" x1="4.03" y1="40.48" x2="26.89" y2="17.62"/><line class="cls-1" x1="12.85" y1="49.3" x2="13.22" y2="48.94"/><line class="cls-1" x1="26.89" y1="88.29" x2="2.03" y2="63.44"/><line class="cls-1" x1="52.57" y1="62.61" x2="40.55" y2="74.62"/><line class="cls-1" x1="79.91" y1="35.27" x2="53.4" y2="61.78"/><line class="cls-1" x1="52.57" y1="41.65" x2="52.57" y2="62.61"/><line class="cls-1" x1="26.89" y1="84.98" x2="26.89" y2="88.29"/><line class="cls-1" x1="27.71" y1="84.15" x2="27.71" y2="87.47"/><line class="cls-1" x1="2.86" y1="43.3" x2="2.86" y2="59.3"/><line class="cls-1" x1="2.86" y1="59.3" x2="2.86" y2="62.61"/><line class="cls-1" x1="15.7" y1="56.14" x2="15.7" y2="73.8"/><line class="cls-1" x1="27.58" y1="18.31" x2="27.58" y2="35.96"/><line class="cls-1" x1="65.82" y1="5.19" x2="65.82" y2="22.85"/><line class="cls-1" x1="67.48" y1="5.19" x2="67.48" y2="22.74"/><line class="cls-1" x1="68.31" y1="6.02" x2="68.31" y2="21.91"/><line class="cls-1" x1="77.42" y1="16.79" x2="77.42" y2="32.79"/><line class="cls-1" x1="77.42" y1="32.79" x2="77.42" y2="34.44"/><line class="cls-1" x1="13.22" y1="53.66" x2="12.85" y2="53.3"/><line class="cls-1" x1="65.82" y1="5.19" x2="66.65" y2="4.37"/><line class="cls-1" x1="68.31" y1="6.02" x2="76.25" y2="13.97"/><line class="cls-1" x1="27.58" y1="18.31" x2="39.55" y2="30.29"/><line class="cls-1" x1="14.04" y1="72.14" x2="4.03" y2="62.12"/><line class="cls-1" x1="27.58" y1="35.96" x2="39.55" y2="47.94"/><line class="cls-1" x1="2.86" y1="59.3" x2="10.86" y2="51.3"/><line class="cls-1" x1="14.04" y1="73.8" x2="14.04" y2="75.45"/><line class="cls-1" x1="26.89" y1="88.29" x2="27.71" y2="87.47"/><line class="cls-1" x1="2.03" y1="42.47" x2="2.03" y2="60.13"/><line class="cls-1" x1="2.86" y1="62.61" x2="2.03" y2="63.44"/><line class="cls-1" x1="15.7" y1="73.8" x2="14.04" y2="75.45"/><line class="cls-1" x1="14.04" y1="54.49" x2="14.04" y2="72.14"/><line class="cls-1" x1="76.25" y1="13.97" x2="68.31" y2="21.91"/><line class="cls-1" x1="76.59" y1="13.63" x2="76.25" y2="13.97"/><line class="cls-1" x1="76.59" y1="35.27" x2="76.25" y2="35.61"/><line class="cls-1" x1="39.73" y1="75.45" x2="27.71" y2="87.47"/><line class="cls-1" x1="54.64" y1="16.38" x2="54.64" y2="35.58"/><line class="cls-1" x1="50.91" y1="60.95" x2="40.55" y2="71.31"/><line class="cls-1" x1="66.24" y1="27.98" x2="66.24" y2="45.63"/><line class="cls-1" x1="52.98" y1="18.03" x2="52.98" y2="35.69"/><line class="cls-1" x1="27.71" y1="66.5" x2="27.71" y2="84.15"/><line class="cls-1" x1="40.55" y1="71.31" x2="40.55" y2="74.62"/><line class="cls-1" x1="40.73" y1="47.94" x2="52.98" y2="35.69"/><line class="cls-1" x1="52.98" y1="35.69" x2="52.98" y2="35.69"/><line class="cls-1" x1="39.73" y1="54.49" x2="39.73" y2="75.45"/><line class="cls-1" x1="69.09" y1="24.45" x2="26.89" y2="66.65"/><line class="cls-1" x1="40.14" y1="30.88" x2="40.73" y2="30.29"/><line class="cls-1" x1="39.26" y1="50.96" x2="26.89" y2="63.34"/><line class="cls-1" x1="14.85" y1="51.3" x2="26.89" y2="39.26"/><line class="cls-1" x1="66.65" y1="0.38" x2="79.91" y2="13.63"/><line class="cls-1" x1="40.14" y1="26.89" x2="66.65" y2="0.38"/><line class="cls-1" x1="26.89" y1="13.63" x2="40.14" y2="26.89"/><line class="cls-1" x1="0.38" y1="40.14" x2="26.89" y2="13.63"/><line class="cls-1" x1="26.89" y1="67.33" x2="25.23" y2="65.67"/><line class="cls-1" x1="14.87" y1="29.63" x2="14.87" y2="50.6"/><line class="cls-1" x1="64.58" y1="47.29" x2="52.57" y2="59.3"/><line class="cls-1" x1="38.07" y1="73.8" x2="27.71" y2="84.15"/><line class="cls-1" x1="15.7" y1="46.46" x2="25.92" y2="36.24"/><line class="cls-1" x1="25.23" y1="65.67" x2="15.7" y2="56.14"/><line class="cls-1" x1="40.73" y1="30.29" x2="52.98" y2="18.03"/><line class="cls-1" x1="55.47" y1="15.55" x2="65.82" y2="5.19"/><line class="cls-1" x1="39.55" y1="30.29" x2="40.14" y2="30.88"/><line class="cls-1" x1="40.73" y1="47.94" x2="40.73" y2="47.94"/><line class="cls-1" x1="55.47" y1="33.2" x2="65.82" y2="22.85"/><line class="cls-1" x1="64.58" y1="29.63" x2="64.58" y2="47.29"/><line class="cls-1" x1="55.47" y1="33.2" x2="55.47" y2="34.76"/><line class="cls-1" x1="39.55" y1="30.29" x2="39.55" y2="47.94"/><line class="cls-1" x1="40.73" y1="30.29" x2="40.73" y2="47.94"/><line class="cls-1" x1="38.07" y1="56.14" x2="38.07" y2="73.8"/><line class="cls-1" x1="15.7" y1="46.46" x2="15.7" y2="49.77"/><line class="cls-1" x1="13.22" y1="31.29" x2="13.22" y2="48.94"/><line class="cls-1" x1="12.85" y1="53.3" x2="10.86" y2="51.3"/><line class="cls-1" x1="4.03" y1="62.12" x2="3.69" y2="61.78"/><line class="cls-1" x1="76.25" y1="35.61" x2="66.24" y2="45.63"/><line class="cls-1" x1="67.43" y1="26.78" x2="76.25" y2="35.61"/><line class="cls-1" x1="4.03" y1="62.12" x2="12.85" y2="53.3"/><line class="cls-1" x1="50.91" y1="43.3" x2="50.91" y2="60.95"/><line class="cls-1" x1="10.86" y1="51.3" x2="2.86" y2="43.3"/><line class="cls-1" x1="67.77" y1="26.45" x2="76.59" y2="35.27"/><line class="cls-1" x1="69.42" y1="24.79" x2="77.42" y2="32.79"/><line class="cls-1" x1="79.91" y1="13.63" x2="79.91" y2="14.31"/><line class="cls-1" x1="0.38" y1="40.82" x2="0.38" y2="40.14"/><line class="cls-1" x1="26.89" y1="67.33" x2="26.89" y2="66.65"/><line class="cls-1" x1="66.65" y1="3.69" x2="66.65" y2="4.37"/><line class="cls-1" x1="26.89" y1="17.62" x2="27.58" y2="18.31"/><line class="cls-1" x1="40.14" y1="30.2" x2="40.14" y2="30.88"/><line class="cls-1" x1="26.89" y1="16.94" x2="26.89" y2="17.62"/><line class="cls-1" x1="26.89" y1="84.98" x2="15.7" y2="73.8"/><line class="cls-1" x1="26.89" y1="38.59" x2="39.26" y2="50.96"/><line class="cls-1" x1="26.89" y1="88.97" x2="26.89" y2="88.29"/><line class="cls-1" x1="79.91" y1="35.95" x2="26.89" y2="88.97"/><line class="cls-1" x1="79.91" y1="35.27" x2="79.91" y2="35.95"/><line class="cls-1" x1="55.47" y1="15.55" x2="55.47" y2="33.2"/><line class="cls-1" x1="15.7" y1="49.77" x2="14.87" y2="50.6"/><line class="cls-1" x1="15.7" y1="28.8" x2="15.7" y2="46.46"/><line class="cls-1" x1="26.89" y1="67.33" x2="26.89" y2="84.98"/><line class="cls-1" x1="40.55" y1="53.66" x2="40.55" y2="71.31"/></g></g></svg>