<svg xmlns="http://www.w3.org/2000/svg" viewBox="0 0 27.26 86.91"><defs><style>.cls-1{fill:none;stroke:#037cff;stroke-linecap:round;stroke-linejoin:round;stroke-width:0.75px;}</style></defs><title>Asset 16</title><g id="Layer_2" data-name="Layer 2"><g id="furniture2"><line class="cls-1" x1="12.87" y1="40.06" x2="12.87" y2="71.85"/><line class="cls-1" x1="14.53" y1="16.72" x2="14.53" y2="37.73"/><line class="cls-1" x1="24.54" y1="19.34" x2="24.54" y2="6.03"/><line class="cls-1" x1="24.54" y1="47.73" x2="24.54" y2="34.42"/><line class="cls-1" x1="12.04" y1="19.21" x2="4.03" y2="27.22"/><line class="cls-1" x1="14.53" y1="16.72" x2="12.04" y2="19.21"/><line class="cls-1" x1="24" y1="7.25" x2="14.53" y2="16.72"/><line class="cls-1" x1="24.54" y1="38.5" x2="14.53" y2="48.51"/><line class="cls-1" x1="1.2" y1="60.18" x2="26.89" y2="85.86"/><line class="cls-1" x1="1.2" y1="28.39" x2="1.2" y2="60.18"/><line class="cls-1" x1="26.89" y1="33.24" x2="24.54" y2="33.24"/><line class="cls-1" x1="24.54" y1="6.03" x2="3.69" y2="26.89"/><line class="cls-1" x1="12.04" y1="19.21" x2="12.04" y2="35.24"/><line class="cls-1" x1="12.04" y1="39.23" x2="12.04" y2="47.68"/><line class="cls-1" x1="14.53" y1="45.19" x2="14.53" y2="48.51"/><line class="cls-1" x1="14.53" y1="48.51" x2="14.53" y2="70.19"/><line class="cls-1" x1="2.86" y1="56.86" x2="2.86" y2="58.52"/><line class="cls-1" x1="24" y1="7.25" x2="24" y2="35.72"/><line class="cls-1" x1="24.54" y1="38.5" x2="24" y2="38.27"/><line class="cls-1" x1="24.54" y1="33.24" x2="24.54" y2="20.51"/><line class="cls-1" x1="12.87" y1="50.17" x2="3.69" y2="59.35"/><line class="cls-1" x1="24" y1="35.72" x2="18.26" y2="41.46"/><line class="cls-1" x1="12.04" y1="47.68" x2="2.86" y2="56.86"/><line class="cls-1" x1="14.53" y1="37.73" x2="18.26" y2="41.46"/><line class="cls-1" x1="25.08" y1="20.51" x2="26.89" y2="20.51"/><line class="cls-1" x1="14.53" y1="70.19" x2="24" y2="79.66"/><line class="cls-1" x1="14.53" y1="38.4" x2="14.53" y2="45.19"/><line class="cls-1" x1="12.87" y1="71.85" x2="14.53" y2="70.19"/><line class="cls-1" x1="13.7" y1="17.55" x2="13.7" y2="36.9"/><line class="cls-1" x1="2.86" y1="26.73" x2="2.86" y2="56.86"/><line class="cls-1" x1="2.86" y1="58.52" x2="1.2" y2="60.18"/><line class="cls-1" x1="24.54" y1="33.24" x2="24.54" y2="34.42"/><line class="cls-1" x1="26.89" y1="34.42" x2="26.89" y2="33.24"/><line class="cls-1" x1="24.9" y1="3.64" x2="24" y2="5.8"/><line class="cls-1" x1="25.98" y1="4.08" x2="24.9" y2="3.64"/><line class="cls-1" x1="25.08" y1="6.25" x2="25.98" y2="4.08"/><line class="cls-1" x1="24.54" y1="47.73" x2="24.54" y2="47.73"/><line class="cls-1" x1="26.89" y1="33.24" x2="26.89" y2="20.51"/><line class="cls-1" x1="4.03" y1="27.22" x2="12.04" y2="35.24"/><line class="cls-1" x1="24.9" y1="50.12" x2="24" y2="47.96"/><line class="cls-1" x1="26.89" y1="54.07" x2="26.89" y2="66.89"/><line class="cls-1" x1="24.54" y1="47.73" x2="25.08" y2="47.51"/><line class="cls-1" x1="26.89" y1="19.34" x2="26.89" y2="0.38"/><line class="cls-1" x1="25.08" y1="50.04" x2="24.9" y2="50.12"/><line class="cls-1" x1="24.9" y1="51.81" x2="24.9" y2="82.59"/><line class="cls-1" x1="24.54" y1="19.34" x2="24.54" y2="20.51"/><line class="cls-1" x1="26.89" y1="20.51" x2="26.89" y2="19.34"/><line class="cls-1" x1="24" y1="47.96" x2="24.54" y2="47.73"/><line class="cls-1" x1="25.08" y1="47.51" x2="25.98" y2="49.67"/><line class="cls-1" x1="24" y1="47.96" x2="24" y2="79.66"/><line class="cls-1" x1="24.9" y1="82.59" x2="25.98" y2="82.14"/><line class="cls-1" x1="25.98" y1="49.67" x2="25.08" y2="50.04"/><line class="cls-1" x1="26.89" y1="53.4" x2="26.89" y2="34.42"/><line class="cls-1" x1="19.92" y1="43.12" x2="24.54" y2="47.73"/><line class="cls-1" x1="26.89" y1="0.38" x2="0.38" y2="26.89"/><line class="cls-1" x1="26.89" y1="54.07" x2="26.89" y2="53.4"/><line class="cls-1" x1="0.38" y1="26.89" x2="0.38" y2="27.56"/><line class="cls-1" x1="24.54" y1="6.71" x2="24" y2="7.25"/><line class="cls-1" x1="26.89" y1="85.86" x2="26.89" y2="66.89"/><line class="cls-1" x1="3.69" y1="59.35" x2="12.87" y2="68.53"/><line class="cls-1" x1="26.89" y1="86.54" x2="26.89" y2="85.86"/></g></g></svg>