<svg xmlns="http://www.w3.org/2000/svg" viewBox="0 0 27.26 49.58"><defs><style>.cls-1{fill:none;stroke:#037cff;stroke-linecap:round;stroke-linejoin:round;stroke-width:0.75px;}</style></defs><title>Asset 17</title><g id="Layer_2" data-name="Layer 2"><g id="furniture2"><line class="cls-1" x1="12.8" y1="44.39" x2="4.03" y2="35.61"/><line class="cls-1" x1="26.06" y1="36.1" x2="13.63" y2="48.53"/><line class="cls-1" x1="16.4" y1="24.79" x2="13.63" y2="27.56"/><line class="cls-1" x1="10.86" y1="24.79" x2="2.86" y2="16.79"/><line class="cls-1" x1="12.8" y1="26.73" x2="10.86" y2="24.79"/><line class="cls-1" x1="13.63" y1="3.69" x2="23.57" y2="13.63"/><line class="cls-1" x1="13.63" y1="23.57" x2="3.69" y2="13.63"/><line class="cls-1" x1="26.06" y1="15.14" x2="26.06" y2="36.1"/><line class="cls-1" x1="15.29" y1="43.56" x2="15.29" y2="43.56"/><line class="cls-1" x1="2.86" y1="16.79" x2="2.03" y2="15.96"/><line class="cls-1" x1="14.46" y1="4.52" x2="14.46" y2="22.74"/><line class="cls-1" x1="26.06" y1="15.14" x2="16.4" y2="24.79"/><line class="cls-1" x1="11.97" y1="6.02" x2="13.63" y2="4.37"/><line class="cls-1" x1="11.97" y1="6.02" x2="11.97" y2="21.91"/><line class="cls-1" x1="15.29" y1="43.56" x2="15.29" y2="46.87"/><line class="cls-1" x1="13.63" y1="45.21" x2="13.63" y2="48.53"/><line class="cls-1" x1="26.89" y1="13.63" x2="13.63" y2="26.89"/><line class="cls-1" x1="14.46" y1="22.74" x2="13.63" y2="23.57"/><line class="cls-1" x1="13.63" y1="26.89" x2="0.38" y2="13.63"/><line class="cls-1" x1="12.8" y1="47.7" x2="2.03" y2="36.93"/><line class="cls-1" x1="2.86" y1="32.79" x2="10.86" y2="24.79"/><line class="cls-1" x1="2.86" y1="16.79" x2="2.86" y2="32.79"/><line class="cls-1" x1="2.86" y1="32.79" x2="2.86" y2="36.1"/><line class="cls-1" x1="12.8" y1="26.84" x2="12.8" y2="44.39"/><line class="cls-1" x1="12.85" y1="26.78" x2="13.63" y2="27.56"/><line class="cls-1" x1="16.4" y1="24.79" x2="26.06" y2="34.44"/><line class="cls-1" x1="26.89" y1="35.95" x2="26.89" y2="35.27"/><line class="cls-1" x1="13.63" y1="49.2" x2="13.63" y2="48.53"/><line class="cls-1" x1="26.89" y1="35.95" x2="13.63" y2="49.2"/><line class="cls-1" x1="4.03" y1="35.61" x2="3.69" y2="35.27"/><line class="cls-1" x1="4.03" y1="35.61" x2="12.8" y2="26.84"/><line class="cls-1" x1="23.57" y1="35.27" x2="15.29" y2="43.56"/><line class="cls-1" x1="3.69" y1="35.27" x2="12.52" y2="26.45"/><line class="cls-1" x1="13.63" y1="49.2" x2="0.38" y2="35.95"/><line class="cls-1" x1="26.89" y1="14.31" x2="26.06" y2="15.14"/><line class="cls-1" x1="0.38" y1="13.63" x2="0.38" y2="14.31"/><line class="cls-1" x1="0.38" y1="13.63" x2="13.63" y2="0.38"/><line class="cls-1" x1="13.63" y1="27.56" x2="13.63" y2="26.89"/><line class="cls-1" x1="26.89" y1="14.31" x2="26.89" y2="13.63"/><line class="cls-1" x1="3.69" y1="13.63" x2="13.63" y2="3.69"/><line class="cls-1" x1="4.03" y1="13.97" x2="11.97" y2="6.02"/><line class="cls-1" x1="23.57" y1="13.63" x2="14.46" y2="22.74"/><line class="cls-1" x1="13.63" y1="0.38" x2="26.89" y2="13.63"/><line class="cls-1" x1="26.89" y1="14.31" x2="26.89" y2="35.27"/><line class="cls-1" x1="26.89" y1="35.27" x2="26.06" y2="36.1"/><line class="cls-1" x1="2.03" y1="15.96" x2="2.03" y2="33.62"/><line class="cls-1" x1="0.38" y1="14.31" x2="0.38" y2="35.27"/><line class="cls-1" x1="2.03" y1="36.93" x2="2.86" y2="36.1"/><line class="cls-1" x1="15.29" y1="25.9" x2="15.29" y2="43.56"/><line class="cls-1" x1="13.63" y1="27.56" x2="13.63" y2="45.21"/></g></g></svg>