<svg xmlns="http://www.w3.org/2000/svg" viewBox="0 0 98.71 147.64"><defs><style>.cls-1{fill:none;stroke:#037cff;stroke-linecap:round;stroke-linejoin:round;stroke-width:0.75px;}</style></defs><title>Asset 2</title><g id="Layer_2" data-name="Layer 2"><g id="furniture2"><line class="cls-1" x1="26.66" y1="59.02" x2="34.26" y2="51.42"/><line class="cls-1" x1="77.59" y1="91.85" x2="74.41" y2="95.03"/><line class="cls-1" x1="78.49" y1="90.94" x2="77.59" y2="91.85"/><line class="cls-1" x1="75.31" y1="100.35" x2="77.52" y2="98.14"/><line class="cls-1" x1="60.97" y1="61.67" x2="51.01" y2="71.64"/><line class="cls-1" x1="54.12" y1="74.75" x2="63.18" y2="65.69"/><line class="cls-1" x1="51.91" y1="76.96" x2="54.12" y2="74.75"/><line class="cls-1" x1="44.25" y1="99.73" x2="37.38" y2="106.6"/><line class="cls-1" x1="32.06" y1="58.9" x2="28.53" y2="62.42"/><line class="cls-1" x1="91.69" y1="114.92" x2="96.12" y2="122.97"/><line class="cls-1" x1="32.96" y1="8.24" x2="78.49" y2="90.94"/><line class="cls-1" x1="46.72" y1="95.45" x2="47.36" y2="96.62"/><line class="cls-1" x1="51.91" y1="76.96" x2="56.36" y2="81.4"/><line class="cls-1" x1="32.06" y1="9.15" x2="32.06" y2="47.41"/><line class="cls-1" x1="9.96" y1="74.77" x2="9.96" y2="79.19"/><line class="cls-1" x1="54.12" y1="74.75" x2="74.41" y2="95.03"/><line class="cls-1" x1="75.31" y1="100.35" x2="90.79" y2="115.83"/><line class="cls-1" x1="9.96" y1="59.35" x2="9.96" y2="74.77"/><line class="cls-1" x1="9.96" y1="28.69" x2="18.64" y2="44.45"/><line class="cls-1" x1="9.96" y1="79.19" x2="10.86" y2="80.09"/><line class="cls-1" x1="45.64" y1="33.82" x2="34.26" y2="45.2"/><line class="cls-1" x1="34.26" y1="45.2" x2="32.06" y2="47.41"/><line class="cls-1" x1="32.06" y1="47.41" x2="24.45" y2="55.01"/><line class="cls-1" x1="34.26" y1="51.42" x2="47.85" y2="37.83"/><line class="cls-1" x1="47.85" y1="37.83" x2="48.75" y2="36.93"/><line class="cls-1" x1="32.06" y1="53.63" x2="32.05" y2="57.1"/><line class="cls-1" x1="37.38" y1="106.6" x2="61.08" y2="130.3"/><line class="cls-1" x1="34.26" y1="51.42" x2="34.26" y2="54.89"/><line class="cls-1" x1="46.54" y1="32.92" x2="45.64" y2="33.82"/><line class="cls-1" x1="8.66" y1="32.54" x2="71.82" y2="147.27"/><line class="cls-1" x1="7.75" y1="33.45" x2="7.75" y2="81.4"/><line class="cls-1" x1="9.96" y1="37.46" x2="9.96" y2="53.13"/><line class="cls-1" x1="9.96" y1="53.13" x2="9.96" y2="57.55"/><line class="cls-1" x1="9.96" y1="57.55" x2="9.96" y2="59.35"/><line class="cls-1" x1="10.86" y1="80.09" x2="34.26" y2="103.49"/><line class="cls-1" x1="34.26" y1="103.49" x2="35.17" y2="104.39"/><line class="cls-1" x1="36.47" y1="105.7" x2="37.38" y2="106.6"/><line class="cls-1" x1="74.41" y1="95.03" x2="72.2" y2="97.24"/><line class="cls-1" x1="72.2" y1="97.24" x2="56.4" y2="113.04"/><line class="cls-1" x1="77.52" y1="98.14" x2="79.8" y2="95.86"/><line class="cls-1" x1="79.8" y1="95.86" x2="80.7" y2="94.96"/><line class="cls-1" x1="51.01" y1="71.64" x2="48.8" y2="73.84"/><line class="cls-1" x1="48.8" y1="73.84" x2="39.79" y2="82.86"/><line class="cls-1" x1="63.18" y1="65.69" x2="64.09" y2="64.78"/><line class="cls-1" x1="17.09" y1="50.41" x2="9.96" y2="57.55"/><line class="cls-1" x1="15.53" y1="47.56" x2="9.96" y2="53.13"/><line class="cls-1" x1="43.6" y1="98.57" x2="36.47" y2="105.7"/><line class="cls-1" x1="42.04" y1="95.72" x2="34.26" y2="103.49"/><line class="cls-1" x1="32.05" y1="6.6" x2="32.96" y2="8.24"/><line class="cls-1" x1="80.7" y1="94.96" x2="88.5" y2="109.12"/><line class="cls-1" x1="42" y1="86.87" x2="45.15" y2="92.6"/><line class="cls-1" x1="47.36" y1="96.62" x2="56.4" y2="113.04"/><line class="cls-1" x1="58.61" y1="117.05" x2="71.82" y2="141.05"/><line class="cls-1" x1="71.82" y1="141.05" x2="74.03" y2="145.06"/><line class="cls-1" x1="77.59" y1="91.85" x2="63.18" y2="65.69"/><line class="cls-1" x1="60.97" y1="61.67" x2="47.85" y2="37.83"/><line class="cls-1" x1="20.21" y1="47.3" x2="24.45" y2="55.01"/><line class="cls-1" x1="54.12" y1="74.75" x2="54.12" y2="74.75"/><line class="cls-1" x1="77.52" y1="98.14" x2="85.38" y2="106"/><line class="cls-1" x1="80.7" y1="94.96" x2="78.49" y2="90.94"/><line class="cls-1" x1="58.61" y1="117.05" x2="75.31" y2="100.35"/><line class="cls-1" x1="61.88" y1="60.77" x2="60.97" y2="61.67"/><line class="cls-1" x1="42" y1="86.87" x2="51.91" y2="76.96"/><line class="cls-1" x1="29.85" y1="2.58" x2="0.38" y2="32.06"/><line class="cls-1" x1="9.96" y1="28.69" x2="32.05" y2="6.6"/><line class="cls-1" x1="93.91" y1="118.95" x2="71.82" y2="141.05"/><line class="cls-1" x1="74.03" y1="145.06" x2="96.12" y2="122.97"/><line class="cls-1" x1="32.06" y1="35.45" x2="20.21" y2="47.3"/><line class="cls-1" x1="29.85" y1="33.24" x2="18.64" y2="44.45"/><line class="cls-1" x1="32.06" y1="35.45" x2="29.85" y2="33.24"/><line class="cls-1" x1="58.57" y1="83.61" x2="46.72" y2="95.45"/><line class="cls-1" x1="36.47" y1="105.7" x2="35.17" y2="104.39"/><line class="cls-1" x1="56.36" y1="81.4" x2="45.15" y2="92.6"/><line class="cls-1" x1="58.57" y1="85.41" x2="58.57" y2="83.61"/><line class="cls-1" x1="58.57" y1="85.41" x2="47.36" y2="96.62"/><line class="cls-1" x1="32.05" y1="57.1" x2="30.32" y2="55.36"/><line class="cls-1" x1="32.05" y1="57.1" x2="34.26" y2="54.89"/><line class="cls-1" x1="90.79" y1="115.83" x2="85.38" y2="106"/><line class="cls-1" x1="88.5" y1="109.12" x2="91.69" y2="114.92"/><line class="cls-1" x1="23.21" y1="61.52" x2="9.96" y2="74.77"/><line class="cls-1" x1="25.42" y1="65.54" x2="10.86" y2="80.09"/><line class="cls-1" x1="28.53" y1="62.42" x2="39.79" y2="82.86"/><line class="cls-1" x1="58.57" y1="83.61" x2="72.2" y2="97.24"/><line class="cls-1" x1="58.57" y1="83.61" x2="56.36" y2="81.4"/><line class="cls-1" x1="32.06" y1="58.9" x2="32.05" y2="57.1"/><line class="cls-1" x1="96.12" y1="122.97" x2="98.33" y2="120.76"/><line class="cls-1" x1="32.06" y1="0.38" x2="98.33" y2="120.76"/><line class="cls-1" x1="85.38" y1="106" x2="79.8" y2="95.86"/><line class="cls-1" x1="71.82" y1="147.27" x2="74.03" y2="145.06"/><line class="cls-1" x1="34.26" y1="13.16" x2="34.26" y2="45.2"/><line class="cls-1" x1="34.26" y1="54.89" x2="51.01" y2="71.64"/><line class="cls-1" x1="32.05" y1="57.1" x2="48.8" y2="73.84"/><line class="cls-1" x1="7.75" y1="81.4" x2="66.49" y2="140.13"/><line class="cls-1" x1="7.75" y1="81.4" x2="9.96" y2="79.19"/><line class="cls-1" x1="71.82" y1="147.27" x2="3.36" y2="78.81"/><line class="cls-1" x1="6.01" y1="26.66" x2="6.01" y2="82.02"/></g></g></svg>