<svg xmlns="http://www.w3.org/2000/svg" viewBox="0 0 59.26 81.58"><defs><style>.cls-1{fill:none;stroke:#037cff;stroke-linecap:round;stroke-linejoin:round;stroke-width:0.75px;}</style></defs><title>Asset 20</title><g id="Layer_2" data-name="Layer 2"><g id="furniture2"><path class="cls-1" d="M14.85,38l-2-2"/><path class="cls-1" d="M44.75,77.52a16.36,16.36,0,0,1-15.22-3.23"/><path class="cls-1" d="M54.16,53.26l-.25.28"/><path class="cls-1" d="M57.81,47.07a18.73,18.73,0,0,1-3.65,6.19"/><line class="cls-1" x1="26.89" y1="54.07" x2="26.89" y2="53.4"/><line class="cls-1" x1="14.25" y1="41.44" x2="14.25" y2="60.75"/><line class="cls-1" x1="27.3" y1="54.44" x2="27.3" y2="75.45"/><path class="cls-1" d="M46.67,58.38a11.07,11.07,0,0,1-1.1.39"/><line class="cls-1" x1="44.75" y1="58.99" x2="44.75" y2="77.54"/><line class="cls-1" x1="46.67" y1="58.38" x2="46.67" y2="76.83"/><path class="cls-1" d="M58.1,46.24c-.12.38-.25.74-.39,1.11"/><line class="cls-1" x1="55.51" y1="51.55" x2="55.51" y2="56.73"/><line class="cls-1" x1="58.1" y1="56.4" x2="58.1" y2="67.21"/><path class="cls-1" d="M58.1,67.21c-.12.37-.25.74-.39,1.1"/><path class="cls-1" d="M35.07,77.38A16.32,16.32,0,0,1,29,73.78"/><path class="cls-1" d="M58.89,61.78a18.83,18.83,0,0,1-.79,5.38"/><path class="cls-1" d="M14.51,37.71,26.89,25.33"/><path class="cls-1" d="M25.23,6l1.66-1.65"/><path class="cls-1" d="M4,27.22,13.22,18"/><path class="cls-1" d="M12.85,36.05,4,27.22"/><path class="cls-1" d="M56.54,40.14a16.48,16.48,0,0,1-.8,5.07"/><path class="cls-1" d="M53.81,31.75a16.43,16.43,0,0,1,2.73,9.07"/><path class="cls-1" d="M51.32,28.8l.35.35.17.17.16.17c.23.23.44.47.65.72a15.9,15.9,0,0,1,1.16,1.54"/><path class="cls-1" d="M38.28,15.76l2.48,2.48"/><path class="cls-1" d="M27.71,5.19,38.28,15.76"/><path class="cls-1" d="M26.47,71.31,15.91,60.75"/><path class="cls-1" d="M55.74,45.21a16.59,16.59,0,0,1-1.83,3.85"/><path class="cls-1" d="M52.45,29.29a17.83,17.83,0,0,1,1.36,1.78"/><path class="cls-1" d="M27.71,4.52l13,13.05"/><path class="cls-1" d="M53.91,52.86A18.72,18.72,0,0,1,29,55.18"/><path class="cls-1" d="M58,45.93a18.74,18.74,0,0,1-4.06,6.93"/><line class="cls-1" x1="28.96" y1="73.79" x2="27.3" y2="75.45"/><line class="cls-1" x1="45.57" y1="79.74" x2="44.75" y2="77.54"/><line class="cls-1" x1="46.67" y1="76.83" x2="46.67" y2="79.35"/><line class="cls-1" x1="45.57" y1="58.77" x2="45.57" y2="79.74"/><path class="cls-1" d="M15.36,15.21,26.89,3.69"/><path class="cls-1" d="M55.52,67.5a16.37,16.37,0,0,1-8.85,9.33"/><path class="cls-1" d="M4,48.87l-.34-.34"/><path class="cls-1" d="M58.09,46.24c-.09.28-.18.55-.28.83"/><line class="cls-1" x1="54.16" y1="53.26" x2="54.16" y2="53.26"/><path class="cls-1" d="M27.64,54.11c-.26-.23-.51-.47-.75-.71"/><path class="cls-1" d="M46.67,58.39l-.28.1"/><path class="cls-1" d="M46.39,58.49c-.27.1-.55.19-.83.27"/><path class="cls-1" d="M45.56,58.76l-.81.23"/><path class="cls-1" d="M44.75,59A18.71,18.71,0,0,1,29,55.86"/><path class="cls-1" d="M29,55.86a18.23,18.23,0,0,1-1.66-1.39"/><path class="cls-1" d="M35.07,55.74a16.35,16.35,0,0,1-5.83-3.35c-.18-.16-.36-.32-.53-.49l-.13-.13-.15-.15-.32-.32L26.82,50l-2.39-2.4L14.85,38"/><path class="cls-1" d="M51.64,28.44l.21.21.2.21.4.43"/><path class="cls-1" d="M53.91,49.06A17.89,17.89,0,0,1,52.47,51"/><path class="cls-1" d="M13.22,17.36l2.14-2.15"/><line class="cls-1" x1="57.71" y1="47.36" x2="57.71" y2="68.31"/><path class="cls-1" d="M54.16,53.26a16.4,16.4,0,0,1,1.35,2.8"/><line class="cls-1" x1="28.96" y1="55.86" x2="28.96" y2="73.78"/><line class="cls-1" x1="55.73" y1="67.58" x2="57.71" y2="68.31"/><line class="cls-1" x1="53.81" y1="31.75" x2="53.81" y2="48.95"/><line class="cls-1" x1="55.51" y1="56.73" x2="55.51" y2="67.5"/><path class="cls-1" d="M52.16,51.3a16.37,16.37,0,0,1-17.09,4.44"/><path class="cls-1" d="M53.91,53.54a16.42,16.42,0,0,1,1.6,3.19"/><path class="cls-1" d="M58.89,40.82a18.82,18.82,0,0,1-.8,5.42"/><path class="cls-1" d="M53.4,26.89a18.78,18.78,0,0,1,5.49,13.25"/><line class="cls-1" x1="58.89" y1="40.14" x2="58.89" y2="40.82"/><path class="cls-1" d="M58.89,40.14c0,.11,0,.23,0,.34"/><path class="cls-1" d="M58.88,40.48A18.69,18.69,0,0,1,58,45.93"/><path class="cls-1" d="M58.88,40.48c0,.11,0,.22,0,.34"/><path class="cls-1" d="M53.91,53.54a18.84,18.84,0,0,1-7.24,4.85"/><path class="cls-1" d="M3.69,26.89l9.53-9.53"/><line class="cls-1" x1="0.38" y1="26.89" x2="26.89" y2="0.38"/><line class="cls-1" x1="26.89" y1="0.38" x2="53.4" y2="26.89"/><path class="cls-1" d="M26.89,26,39.53,38.65,45.85,45,49,48.13l1.64,1.64.81.82.21.2.17.18.32.33"/><line class="cls-1" x1="15.91" y1="39.78" x2="15.91" y2="60.75"/><path class="cls-1" d="M40.76,17.57,51.64,28.44"/><path class="cls-1" d="M26.89,4.37l.82.82"/><line class="cls-1" x1="27.71" y1="5.19" x2="27.71" y2="22.85"/><line class="cls-1" x1="26.06" y1="5.19" x2="26.06" y2="24.5"/><line class="cls-1" x1="52.15" y1="29.65" x2="52.15" y2="47.28"/><line class="cls-1" x1="25.23" y1="6.02" x2="25.23" y2="23.67"/><line class="cls-1" x1="40.76" y1="18.24" x2="40.76" y2="35.89"/><line class="cls-1" x1="28.96" y1="73.78" x2="28.96" y2="73.79"/><line class="cls-1" x1="53.8" y1="48.95" x2="53.81" y2="48.95"/><line class="cls-1" x1="52.15" y1="47.28" x2="52.15" y2="50.6"/><path class="cls-1" d="M53.8,49l.11.11"/><path class="cls-1" d="M13.42,58.26,4,48.87"/><path class="cls-1" d="M40.76,18.24,51.32,28.8"/><line class="cls-1" x1="27.71" y1="22.85" x2="38.28" y2="33.41"/><line class="cls-1" x1="40.76" y1="35.89" x2="51.32" y2="46.46"/><path class="cls-1" d="M53.81,31.07a16.45,16.45,0,0,1,2.73,9.07"/><line class="cls-1" x1="39.11" y1="35.89" x2="39.11" y2="37.55"/><line class="cls-1" x1="26.06" y1="24.5" x2="27.71" y2="22.85"/><line class="cls-1" x1="39.11" y1="37.55" x2="40.76" y2="35.89"/><line class="cls-1" x1="39.11" y1="16.58" x2="39.11" y2="34.24"/><line class="cls-1" x1="14.25" y1="60.75" x2="14.25" y2="62.4"/><line class="cls-1" x1="38.28" y1="15.76" x2="38.28" y2="33.41"/><line class="cls-1" x1="15.91" y1="60.75" x2="14.25" y2="62.4"/><line class="cls-1" x1="13.42" y1="40.61" x2="13.42" y2="58.26"/><line class="cls-1" x1="26.47" y1="53.61" x2="26.47" y2="71.31"/><line class="cls-1" x1="26.89" y1="54.05" x2="26.47" y2="53.61"/><line class="cls-1" x1="27.3" y1="54.44" x2="26.89" y2="54.05"/><path class="cls-1" d="M46.67,79.35l-.28.11"/><line class="cls-1" x1="45.57" y1="58.77" x2="45.56" y2="58.76"/><line class="cls-1" x1="52.15" y1="50.6" x2="53.8" y2="48.95"/><line class="cls-1" x1="1.2" y1="28.39" x2="1.2" y2="47.7"/><path class="cls-1" d="M13.22,18l2.48-2.48"/><line class="cls-1" x1="51.32" y1="28.8" x2="51.32" y2="46.46"/><line class="cls-1" x1="51.32" y1="46.46" x2="51.32" y2="49.77"/><line class="cls-1" x1="13.22" y1="18.03" x2="13.22" y2="35.69"/><path class="cls-1" d="M57.81,68A18.72,18.72,0,0,1,46.39,79.46"/><line class="cls-1" x1="15.7" y1="33.2" x2="25.23" y2="23.67"/><path class="cls-1" d="M58.1,56.4a18.88,18.88,0,0,1,.79,5.38"/><path class="cls-1" d="M15.7,15.55,25.23,6"/><line class="cls-1" x1="2.86" y1="46.04" x2="12.51" y2="36.39"/><line class="cls-1" x1="58.1" y1="46.24" x2="58.09" y2="46.24"/><line class="cls-1" x1="55.51" y1="67.5" x2="55.52" y2="67.5"/><line class="cls-1" x1="58.1" y1="46.24" x2="58.1" y2="56.4"/><line class="cls-1" x1="51.32" y1="28.76" x2="51.32" y2="28.8"/><line class="cls-1" x1="51.32" y1="28.76" x2="51.74" y2="29.2"/><line class="cls-1" x1="14.87" y1="37.34" x2="13.22" y2="35.69"/><line class="cls-1" x1="14.87" y1="35.69" x2="14.87" y2="37.34"/><line class="cls-1" x1="15.7" y1="15.55" x2="15.7" y2="33.2"/><line class="cls-1" x1="1.2" y1="47.7" x2="1.2" y2="49.36"/><line class="cls-1" x1="2.86" y1="47.7" x2="1.2" y2="49.36"/><line class="cls-1" x1="2.86" y1="26.73" x2="2.86" y2="46.04"/><line class="cls-1" x1="0.38" y1="27.56" x2="0.38" y2="48.53"/><path class="cls-1" d="M14.85,38l12-12"/><line class="cls-1" x1="12.85" y1="36.05" x2="13.22" y2="35.69"/><path class="cls-1" d="M4,27.22l-.34-.33"/><path class="cls-1" d="M58.88,62.12c0,.11,0,.23,0,.34"/><path class="cls-1" d="M4,48.87,14.51,38.38"/><line class="cls-1" x1="0.38" y1="49.2" x2="0.38" y2="48.53"/><line class="cls-1" x1="26.89" y1="75.71" x2="26.89" y2="75.04"/><path class="cls-1" d="M58.89,62.46a18.74,18.74,0,0,1-32,13.25"/><line class="cls-1" x1="58.89" y1="61.78" x2="58.89" y2="62.46"/><line class="cls-1" x1="26.89" y1="25.33" x2="26.89" y2="26.01"/><path class="cls-1" d="M3.69,48.53,14.17,38"/><line class="cls-1" x1="26.89" y1="3.69" x2="26.89" y2="4.37"/><line class="cls-1" x1="56.54" y1="40.14" x2="56.54" y2="40.82"/><path class="cls-1" d="M26.89,3.69l.82.83"/></g></g></svg>