<svg xmlns="http://www.w3.org/2000/svg" viewBox="0 0 27.26 65.27"><defs><style>.cls-1{fill:none;stroke:#037cff;stroke-linecap:round;stroke-linejoin:round;stroke-width:0.75px;}</style></defs><title>Asset 21</title><g id="Layer_2" data-name="Layer 2"><g id="furniture2"><line class="cls-1" x1="24.22" y1="6.36" x2="24.54" y2="6.03"/><line class="cls-1" x1="24.54" y1="17.53" x2="24.54" y2="47.74"/><line class="cls-1" x1="24.54" y1="47.74" x2="3.69" y2="26.89"/><line class="cls-1" x1="3.69" y1="26.89" x2="24.22" y2="6.36"/><line class="cls-1" x1="26.89" y1="20.98" x2="26.89" y2="53.4"/><line class="cls-1" x1="26.89" y1="53.4" x2="0.38" y2="26.89"/><line class="cls-1" x1="13.7" y1="17.55" x2="13.7" y2="26.04"/><line class="cls-1" x1="2.86" y1="30.05" x2="2.86" y2="35.22"/><line class="cls-1" x1="25.98" y1="52.49" x2="25.98" y2="60.5"/><line class="cls-1" x1="24.9" y1="51.41" x2="24.9" y2="58.41"/><line class="cls-1" x1="0.71" y1="38.04" x2="0.38" y2="37.71"/><line class="cls-1" x1="4.03" y1="38.04" x2="7.44" y2="34.63"/><line class="cls-1" x1="9.44" y1="32.63" x2="24.54" y2="17.53"/><line class="cls-1" x1="9.1" y1="32.3" x2="9.1" y2="32.3"/><line class="cls-1" x1="4.03" y1="27.22" x2="13.7" y2="17.55"/><line class="cls-1" x1="14.53" y1="16.72" x2="24" y2="7.25"/><line class="cls-1" x1="24" y1="7.25" x2="24.54" y2="6.71"/><line class="cls-1" x1="24.9" y1="60.95" x2="25.98" y2="60.5"/><line class="cls-1" x1="26.89" y1="64.89" x2="26.89" y2="64.22"/><line class="cls-1" x1="0.38" y1="37.71" x2="0.38" y2="38.38"/><line class="cls-1" x1="12.87" y1="40.06" x2="12.87" y2="50.2"/><line class="cls-1" x1="14.53" y1="26.87" x2="24.54" y2="16.85"/><line class="cls-1" x1="26.89" y1="19.81" x2="26.89" y2="20.98"/><line class="cls-1" x1="12.04" y1="39.23" x2="7.44" y2="34.63"/><line class="cls-1" x1="14.53" y1="23.55" x2="24.54" y2="13.54"/><line class="cls-1" x1="12.04" y1="46.06" x2="4.03" y2="38.04"/><line class="cls-1" x1="2.86" y1="35.22" x2="5.45" y2="32.63"/><line class="cls-1" x1="14.53" y1="23.55" x2="14.53" y2="26.87"/><line class="cls-1" x1="14.53" y1="41.72" x2="14.53" y2="48.55"/><line class="cls-1" x1="5.45" y1="32.63" x2="2.86" y2="30.05"/><line class="cls-1" x1="24.54" y1="51.73" x2="14.53" y2="41.72"/><line class="cls-1" x1="26.89" y1="54.07" x2="26.89" y2="64.22"/><line class="cls-1" x1="7.44" y1="30.64" x2="13.7" y2="24.38"/><line class="cls-1" x1="26.89" y1="0.38" x2="26.89" y2="1.05"/><line class="cls-1" x1="0.38" y1="26.89" x2="26.89" y2="0.38"/><line class="cls-1" x1="26.89" y1="54.07" x2="26.89" y2="53.4"/><line class="cls-1" x1="0.38" y1="26.89" x2="0.38" y2="27.56"/><line class="cls-1" x1="24.54" y1="58.56" x2="14.53" y2="48.55"/><line class="cls-1" x1="13.7" y1="26.04" x2="13.7" y2="27.69"/><line class="cls-1" x1="14.53" y1="16.72" x2="13.7" y2="17.55"/><line class="cls-1" x1="14.53" y1="16.72" x2="14.53" y2="23.55"/><line class="cls-1" x1="12.87" y1="50.2" x2="14.53" y2="48.55"/><line class="cls-1" x1="0.38" y1="27.56" x2="0.38" y2="37.71"/><line class="cls-1" x1="2.03" y1="29.22" x2="0.38" y2="27.56"/></g></g></svg>