<svg xmlns="http://www.w3.org/2000/svg" viewBox="0 0 27.26 76.09"><defs><style>.cls-1{fill:none;stroke:#037cff;stroke-linecap:round;stroke-linejoin:round;stroke-width:0.75px;}</style></defs><title>Asset 22</title><g id="Layer_2" data-name="Layer 2"><g id="furniture2"><line class="cls-1" x1="24.9" y1="51.41" x2="24.9" y2="71.77"/><line class="cls-1" x1="3.69" y1="48.53" x2="12.04" y2="56.88"/><line class="cls-1" x1="12.87" y1="40.06" x2="12.87" y2="61.03"/><line class="cls-1" x1="13.7" y1="17.55" x2="13.7" y2="36.9"/><line class="cls-1" x1="1.2" y1="28.39" x2="1.2" y2="49.36"/><line class="cls-1" x1="24.54" y1="19.57" x2="24.54" y2="6.03"/><line class="cls-1" x1="24.54" y1="6.03" x2="3.69" y2="26.89"/><line class="cls-1" x1="3.69" y1="26.89" x2="24.54" y2="47.74"/><line class="cls-1" x1="0.38" y1="26.89" x2="26.89" y2="53.4"/><line class="cls-1" x1="24" y1="6.57" x2="24" y2="24.9"/><line class="cls-1" x1="10.86" y1="38.04" x2="2.86" y2="46.04"/><line class="cls-1" x1="24" y1="51.19" x2="24" y2="68.84"/><line class="cls-1" x1="25.98" y1="53.17" x2="25.98" y2="56.06"/><line class="cls-1" x1="24.54" y1="27.67" x2="24" y2="27.45"/><line class="cls-1" x1="14.53" y1="59.37" x2="24" y2="68.84"/><line class="cls-1" x1="1.2" y1="49.36" x2="12.04" y2="60.2"/><line class="cls-1" x1="12.87" y1="61.03" x2="26.89" y2="75.04"/><line class="cls-1" x1="24.54" y1="27.67" x2="24.54" y2="19.57"/><line class="cls-1" x1="12.04" y1="56.88" x2="12.04" y2="60.2"/><line class="cls-1" x1="24" y1="24.9" x2="13.7" y2="35.2"/><line class="cls-1" x1="24" y1="68.84" x2="24" y2="69.61"/><line class="cls-1" x1="24" y1="69.61" x2="24.9" y2="71.77"/><line class="cls-1" x1="24.9" y1="71.77" x2="25.98" y2="71.32"/><line class="cls-1" x1="24" y1="24.9" x2="24" y2="27.45"/><line class="cls-1" x1="24.54" y1="27.67" x2="14.51" y2="37.71"/><line class="cls-1" x1="24.54" y1="27.67" x2="24.54" y2="27.67"/><line class="cls-1" x1="24.54" y1="28.35" x2="24.54" y2="27.67"/><line class="cls-1" x1="24.54" y1="47.74" x2="24.54" y2="28.35"/><line class="cls-1" x1="26.89" y1="22.02" x2="26.89" y2="0.38"/><line class="cls-1" x1="26.89" y1="53.4" x2="26.89" y2="22.02"/><line class="cls-1" x1="14.53" y1="41.72" x2="14.53" y2="59.37"/><line class="cls-1" x1="12.04" y1="40.85" x2="12.04" y2="56.88"/><line class="cls-1" x1="12.85" y1="40.04" x2="12.52" y2="39.7"/><line class="cls-1" x1="12.04" y1="18.53" x2="12.04" y2="35.24"/><line class="cls-1" x1="26.89" y1="54.07" x2="26.89" y2="56.06"/><line class="cls-1" x1="2.86" y1="30.05" x2="2.86" y2="46.04"/><line class="cls-1" x1="12.04" y1="40.85" x2="4.03" y2="48.87"/><line class="cls-1" x1="12.04" y1="40.17" x2="3.69" y2="48.53"/><line class="cls-1" x1="14.53" y1="41.72" x2="24" y2="51.19"/><line class="cls-1" x1="2.86" y1="30.05" x2="10.86" y2="38.04"/><line class="cls-1" x1="12.87" y1="61.03" x2="14.53" y2="59.37"/><line class="cls-1" x1="25.98" y1="56.06" x2="25.98" y2="71.32"/><line class="cls-1" x1="2.86" y1="47.7" x2="1.2" y2="49.36"/><line class="cls-1" x1="0.38" y1="27.56" x2="0.38" y2="48.53"/><line class="cls-1" x1="26.89" y1="56.06" x2="25.98" y2="56.06"/><line class="cls-1" x1="0.38" y1="49.2" x2="26.89" y2="75.71"/><line class="cls-1" x1="0.38" y1="48.53" x2="0.38" y2="49.2"/><line class="cls-1" x1="26.89" y1="75.04" x2="26.89" y2="56.06"/><line class="cls-1" x1="26.89" y1="75.71" x2="26.89" y2="75.04"/><line class="cls-1" x1="24.54" y1="28.35" x2="14.85" y2="38.04"/><line class="cls-1" x1="26.89" y1="0.38" x2="0.38" y2="26.89"/><line class="cls-1" x1="26.89" y1="54.07" x2="26.89" y2="53.4"/><line class="cls-1" x1="0.38" y1="26.89" x2="0.38" y2="27.56"/></g></g></svg>