<svg xmlns="http://www.w3.org/2000/svg" viewBox="0 0 56.52 81.27"><defs><style>.cls-1{fill:none;stroke:#037cff;stroke-linecap:round;stroke-linejoin:round;stroke-width:0.75px;}</style></defs><title>Asset 23</title><g id="Layer_2" data-name="Layer 2"><g id="furniture2"><line class="cls-1" x1="16.38" y1="37.14" x2="16.38" y2="41.04"/><line class="cls-1" x1="18.72" y1="31.28" x2="18.72" y2="41.04"/><line class="cls-1" x1="43.3" y1="56.4" x2="43.3" y2="63.23"/><line class="cls-1" x1="31.29" y1="75.25" x2="31.29" y2="75.92"/><line class="cls-1" x1="5.74" y1="46.19" x2="3.26" y2="43.7"/><line class="cls-1" x1="10.19" y1="50.63" x2="8.19" y2="48.63"/><line class="cls-1" x1="18.45" y1="58.89" x2="15.96" y2="56.4"/><path class="cls-1" d="M6.77,43.22,19.69,30.31"/><path class="cls-1" d="M15.13,16,40.81,41.69"/><path class="cls-1" d="M2.71,26.75A9.34,9.34,0,0,1,1.87,15.5"/><path class="cls-1" d="M40.81,65.72l-9.52,9.53"/><path class="cls-1" d="M52.49,54.05,43.3,63.23"/><path class="cls-1" d="M16,63.23,6.43,53.71"/><line class="cls-1" x1="54.48" y1="55.36" x2="31.29" y2="78.56"/><line class="cls-1" x1="15.96" y1="66.55" x2="3.12" y2="53.71"/><line class="cls-1" x1="29.63" y1="80.22" x2="16.79" y2="67.38"/><path class="cls-1" d="M2.73,10.09a7.12,7.12,0,0,1,.33-2.51"/><path class="cls-1" d="M2.73,10.09h0"/><path class="cls-1" d="M5.24,15.18l-.42-.42-.12-.12-.08-.09a2.09,2.09,0,0,1-.2-.22,5.91,5.91,0,0,1-.69-.95"/><path class="cls-1" d="M19.69,29.63,5.24,15.18"/><path class="cls-1" d="M49.07,46.64l-2,2"/><path class="cls-1" d="M52.83,42.89l-.34.33"/><line class="cls-1" x1="10.63" y1="35.38" x2="12.62" y2="33.38"/><line class="cls-1" x1="54.48" y1="45.22" x2="31.29" y2="68.42"/><path class="cls-1" d="M40.81,31.55,43.3,34"/><path class="cls-1" d="M14.3,5.07a5.14,5.14,0,0,1,.42.38"/><path class="cls-1" d="M2.73,10.09a7,7,0,0,1,2.46-5"/><line class="cls-1" x1="14.3" y1="5.07" x2="14.3" y2="12.38"/><line class="cls-1" x1="15.13" y1="16.01" x2="14.3" y2="15.18"/><line class="cls-1" x1="2.71" y1="16.64" x2="3.53" y2="17.47"/><line class="cls-1" x1="5.19" y1="5.07" x2="5.19" y2="15.13"/><line class="cls-1" x1="30.46" y1="28.03" x2="28.8" y2="29.68"/><path class="cls-1" d="M3.06,7.58A6.94,6.94,0,0,1,4,5.66a6.7,6.7,0,0,1,.64-.77L5,4.54c.13-.11.25-.22.39-.32a6.82,6.82,0,0,1,1.84-1,7.14,7.14,0,0,1,2.2-.46,7.31,7.31,0,0,1,2,.22,6.66,6.66,0,0,1,1.83.75,7.12,7.12,0,0,1,.78.53l.35.29.17.16.08.07.1.1,1.84,1.85L28.7,18.76,52.83,42.89"/><path class="cls-1" d="M19.35,40.79l.34-.34"/><path class="cls-1" d="M3.12,16.38a9.93,9.93,0,0,1-1-1.22"/><path class="cls-1" d="M3.12,17.05A9.33,9.33,0,0,1,1.87,15.5"/><line class="cls-1" x1="16.79" y1="67.38" x2="18.45" y2="65.72"/><line class="cls-1" x1="28.8" y1="19.54" x2="28.8" y2="29.68"/><line class="cls-1" x1="15.13" y1="5.87" x2="15.13" y2="16.01"/><line class="cls-1" x1="3.53" y1="17.47" x2="3.53" y2="27.61"/><line class="cls-1" x1="4.36" y1="5.91" x2="4.36" y2="14.27"/><path class="cls-1" d="M5.19,5.07a7,7,0,0,1,9.11,0"/><path class="cls-1" d="M16.79,7.52,28,18.71"/><path class="cls-1" d="M28.8,19.54l1.66,1.65"/><path class="cls-1" d="M30.46,21.19,40.81,31.55"/><path class="cls-1" d="M5.19,12.38a9.38,9.38,0,0,1,9.11,0"/><line class="cls-1" x1="16.79" y1="14.36" x2="27.97" y2="25.54"/><line class="cls-1" x1="30.46" y1="28.03" x2="40.81" y2="38.38"/><line class="cls-1" x1="27.97" y1="25.54" x2="27.97" y2="28.85"/><line class="cls-1" x1="30.46" y1="21.19" x2="30.46" y2="28.03"/><line class="cls-1" x1="16.79" y1="7.52" x2="16.79" y2="14.36"/><line class="cls-1" x1="41.64" y1="32.38" x2="41.64" y2="42.52"/><line class="cls-1" x1="43.3" y1="63.23" x2="43.3" y2="66.55"/><line class="cls-1" x1="28.8" y1="76.08" x2="28.8" y2="79.39"/><line class="cls-1" x1="5.74" y1="51.08" x2="5.74" y2="54.89"/><line class="cls-1" x1="4.92" y1="45.36" x2="4.92" y2="55.5"/><path class="cls-1" d="M11.84,48.3l7.51-7.51"/><line class="cls-1" x1="10.97" y1="35.04" x2="3.53" y2="27.61"/><path class="cls-1" d="M6.43,42.89,14.28,35"/><path class="cls-1" d="M52.49,43.22l-3.42,3.42"/><path class="cls-1" d="M11.84,48.3l-1.65-1.66"/><line class="cls-1" x1="29.63" y1="69.4" x2="5.25" y2="45.02"/><line class="cls-1" x1="56.14" y1="42.89" x2="29.63" y2="69.4"/><line class="cls-1" x1="14.3" y1="12.38" x2="14.3" y2="15.18"/><line class="cls-1" x1="15.96" y1="63.23" x2="15.96" y2="66.55"/><line class="cls-1" x1="16.79" y1="57.23" x2="16.79" y2="67.38"/><path class="cls-1" d="M40.81,41.69l.83.83"/><path class="cls-1" d="M41.64,42.52l5.78,5.78"/><line class="cls-1" x1="31.29" y1="78.56" x2="29.63" y2="80.22"/><line class="cls-1" x1="31.29" y1="75.92" x2="31.29" y2="78.56"/><line class="cls-1" x1="14.3" y1="12.38" x2="14.3" y2="12.38"/><line class="cls-1" x1="43.3" y1="40.87" x2="43.3" y2="40.87"/><line class="cls-1" x1="5.19" y1="25.95" x2="5.19" y2="25.95"/><line class="cls-1" x1="16.04" y1="40.79" x2="16.38" y2="40.45"/><path class="cls-1" d="M47.08,48.63,29.63,66.08"/><path class="cls-1" d="M.38,10.09V9.75"/><path class="cls-1" d="M.38,9.75a9.38,9.38,0,0,1,16-6.63"/><path class="cls-1" d="M15.13,5.87l1.66,1.65"/><path class="cls-1" d="M12.18,48.63l-.34-.33"/><line class="cls-1" x1="11.84" y1="48.3" x2="11.84" y2="48.3"/><path class="cls-1" d="M16.38,37.14l-1.76-1.76"/><path class="cls-1" d="M12.62,33.38,5.19,26"/><path class="cls-1" d="M5.62,15.56a7,7,0,0,1,6.3-1"/><path class="cls-1" d="M5.24,15.18a7,7,0,0,1,9.48.42"/><line class="cls-1" x1="5.19" y1="19.12" x2="5.19" y2="25.95"/><path class="cls-1" d="M49.07,50.63l3.42,3.42"/><path class="cls-1" d="M6.77,54.05l3.42-3.42"/><path class="cls-1" d="M12.18,48.63l7.51-7.5"/><line class="cls-1" x1="43.3" y1="40.87" x2="43.3" y2="40.87"/><line class="cls-1" x1="5.19" y1="25.95" x2="5.19" y2="25.95"/><line class="cls-1" x1="18.45" y1="58.89" x2="18.45" y2="65.72"/><line class="cls-1" x1="5.74" y1="46.19" x2="5.74" y2="51.08"/><line class="cls-1" x1="6.77" y1="43.22" x2="6.77" y2="43.22"/><line class="cls-1" x1="11.84" y1="48.3" x2="11.84" y2="48.3"/><line class="cls-1" x1="56.14" y1="53.71" x2="54.48" y2="55.36"/><line class="cls-1" x1="5.74" y1="51.08" x2="8.19" y2="48.63"/><line class="cls-1" x1="31.29" y1="68.42" x2="29.63" y2="70.07"/><path class="cls-1" d="M14.28,35,19.35,30"/><line class="cls-1" x1="16.38" y1="33.62" x2="16.38" y2="37.14"/><line class="cls-1" x1="40.81" y1="38.38" x2="40.81" y2="41.69"/><line class="cls-1" x1="43.3" y1="34.04" x2="43.3" y2="40.87"/><line class="cls-1" x1="28.8" y1="69.24" x2="18.45" y2="58.89"/><line class="cls-1" x1="15.96" y1="56.4" x2="10.19" y2="50.63"/><path class="cls-1" d="M28.8,76.08,18.45,65.72"/><path class="cls-1" d="M43.3,34l9.19,9.18"/><line class="cls-1" x1="40.82" y1="31.55" x2="40.81" y2="38.38"/><line class="cls-1" x1="29.63" y1="78.56" x2="29.63" y2="80.22"/><line class="cls-1" x1="31.29" y1="68.42" x2="31.29" y2="75.25"/><path class="cls-1" d="M52.83,53.71l-.34.34"/><line class="cls-1" x1="8.19" y1="48.63" x2="5.74" y2="46.19"/><line class="cls-1" x1="16.04" y1="29.97" x2="5.19" y2="19.12"/><line class="cls-1" x1="16.04" y1="29.97" x2="16.38" y2="29.63"/><line class="cls-1" x1="3.26" y1="43.7" x2="3.12" y2="43.56"/><line class="cls-1" x1="29.63" y1="70.07" x2="28.8" y2="69.24"/><line class="cls-1" x1="29.63" y1="69.4" x2="29.63" y2="70.07"/><line class="cls-1" x1="3.12" y1="17.05" x2="3.12" y2="16.38"/><path class="cls-1" d="M49.41,50.29l3.42,3.42"/><line class="cls-1" x1="10.19" y1="46.64" x2="16.04" y2="40.79"/><path class="cls-1" d="M2.09,15.16A9.42,9.42,0,0,1,.38,10.09"/><path class="cls-1" d="M10.19,46.64,6.77,43.22"/><path class="cls-1" d="M6.77,43.22l-.34-.33"/><line class="cls-1" x1="12.62" y1="33.38" x2="16.04" y2="29.97"/><line class="cls-1" x1="19.69" y1="29.63" x2="19.69" y2="30.31"/><line class="cls-1" x1="3.12" y1="54.38" x2="3.12" y2="53.71"/><line class="cls-1" x1="29.63" y1="80.22" x2="29.63" y2="80.89"/><line class="cls-1" x1="3.12" y1="27.87" x2="3.12" y2="27.2"/><line class="cls-1" x1="16.38" y1="40.45" x2="12.96" y2="37.04"/><path class="cls-1" d="M19.35,30l.34-.34"/><path class="cls-1" d="M29.63,66.08,12.18,48.63"/><line class="cls-1" x1="16.38" y1="3.12" x2="56.14" y2="42.89"/><line class="cls-1" x1="3.12" y1="42.89" x2="10.63" y2="35.38"/><path class="cls-1" d="M2.72,10.42c0-.11,0-.22,0-.33"/><line class="cls-1" x1="2.72" y1="10.42" x2="2.72" y2="9.75"/><path class="cls-1" d="M19.69,40.45l-1-1"/><path class="cls-1" d="M1.87,15.5A9.36,9.36,0,0,1,.38,10.42"/><line class="cls-1" x1="53.66" y1="51.22" x2="53.66" y2="54.54"/><line class="cls-1" x1="2.09" y1="15.16" x2="2.09" y2="15.16"/><path class="cls-1" d="M11.92,14.56a6.9,6.9,0,0,1,1.28.56,8,8,0,0,1,1.08.75l.24.22.12.1.12.13.65.65,1.3,1.3,4.34,4.34,8.68,8.67L47.08,48.63"/><line class="cls-1" x1="19.69" y1="40.45" x2="19.69" y2="41.13"/><path class="cls-1" d="M6.43,53.71l3.42-3.42"/><path class="cls-1" d="M3.12,27.87A9.34,9.34,0,0,1,.38,21.25"/><line class="cls-1" x1="29.63" y1="80.89" x2="3.12" y2="54.38"/><line class="cls-1" x1="0.38" y1="21.25" x2="0.38" y2="20.57"/><line class="cls-1" x1="56.14" y1="54.38" x2="29.63" y2="80.89"/><line class="cls-1" x1="56.14" y1="54.38" x2="56.14" y2="53.71"/><line class="cls-1" x1="2.72" y1="21.25" x2="2.72" y2="20.57"/><line class="cls-1" x1="0.38" y1="10.42" x2="0.38" y2="9.75"/><line class="cls-1" x1="15.13" y1="5.87" x2="14.72" y2="5.45"/><line class="cls-1" x1="3.53" y1="27.61" x2="5.19" y2="25.95"/><line class="cls-1" x1="15.96" y1="66.55" x2="16.79" y2="67.38"/><line class="cls-1" x1="15.96" y1="56.4" x2="15.96" y2="63.23"/><line class="cls-1" x1="54.48" y1="53.71" x2="54.48" y2="55.36"/><line class="cls-1" x1="54.48" y1="45.22" x2="56.14" y2="43.56"/><line class="cls-1" x1="56.14" y1="43.56" x2="56.14" y2="53.71"/><line class="cls-1" x1="53.66" y1="54.54" x2="54.48" y2="55.36"/><line class="cls-1" x1="30.46" y1="28.03" x2="30.46" y2="28.03"/><line class="cls-1" x1="27.97" y1="18.71" x2="27.97" y2="25.54"/><line class="cls-1" x1="28.8" y1="19.54" x2="27.97" y2="18.71"/><line class="cls-1" x1="16.79" y1="14.36" x2="15.13" y2="16.01"/></g></g></svg>