<svg xmlns="http://www.w3.org/2000/svg" viewBox="0 0 53.77 122.55"><defs><style>.cls-1{fill:none;stroke:#037cff;stroke-linecap:round;stroke-linejoin:round;stroke-width:0.75px;}</style></defs><title>Asset 24</title><g id="Layer_2" data-name="Layer 2"><g id="furniture2"><path class="cls-1" d="M29.17,5.44a2.26,2.26,0,0,0-1.31.48,2.46,2.46,0,0,0-.76,1.17"/><line class="cls-1" x1="24.68" y1="69.56" x2="24.68" y2="75.79"/><line class="cls-1" x1="48.08" y1="94.77" x2="48.98" y2="93.87"/><line class="cls-1" x1="5.7" y1="94.77" x2="24.68" y2="75.79"/><line class="cls-1" x1="29.09" y1="75.79" x2="29.09" y2="69.56"/><line class="cls-1" x1="29.09" y1="119.97" x2="29.09" y2="75.79"/><path class="cls-1" d="M26.29,53.43a14.93,14.93,0,0,1,.6,3.82"/><path class="cls-1" d="M1.36,27.64a2.54,2.54,0,0,1,1.4-.71"/><path class="cls-1" d="M6.37,24.75a8.49,8.49,0,0,1,2.25.74,16.78,16.78,0,0,1,2.06,1.17"/><line class="cls-1" x1="9.56" y1="25.98" x2="26.89" y2="8.65"/><line class="cls-1" x1="29.09" y1="55.04" x2="51.19" y2="32.95"/><line class="cls-1" x1="29.09" y1="56.85" x2="51.19" y2="34.75"/><path class="cls-1" d="M25.66,3.33a2.5,2.5,0,0,1,.87-.56,3.58,3.58,0,0,1,.54-.14,4.07,4.07,0,0,1,.61,0,3.68,3.68,0,0,1,.66.06,5.72,5.72,0,0,1,.72.14c.26.07.52.16.77.25s.55.22.82.34.72.35,1.06.55.75.44,1.11.68a26.34,26.34,0,0,1,2.26,1.67c.67.55,1.32,1.14,2,1.73l.48.46.24.23.23.24c.33.32.64.65,1,1,.58.62,1.15,1.26,1.71,1.91s1.17,1.41,1.73,2.13c1.08,1.39,2.11,2.85,3.06,4.34a51.11,51.11,0,0,1,2.64,4.6c.42.83.82,1.67,1.18,2.52s.64,1.56.91,2.36c.16.49.32,1,.46,1.5s.23.92.31,1.38a12.13,12.13,0,0,1,.19,1.23A9.46,9.46,0,0,1,51.19,33"/><line class="cls-1" x1="4.79" y1="89.45" x2="24.68" y2="69.56"/><line class="cls-1" x1="26.89" y1="115.96" x2="26.89" y2="57.25"/><path class="cls-1" d="M2.76,26.93a4.14,4.14,0,0,1,.93,0,5.37,5.37,0,0,1,1.05.18,9.49,9.49,0,0,1,1.17.4,13.08,13.08,0,0,1,1.25.6A18.91,18.91,0,0,1,9,29.25c.66.46,1.31,1,1.92,1.47a42,42,0,0,1,3.37,3.16c.52.54,1,1.09,1.51,1.65s1,1.21,1.54,1.83A58.34,58.34,0,0,1,22.59,45c.39.69.77,1.38,1.13,2.09s.67,1.34,1,2,.65,1.5.93,2.26.47,1.38.67,2.07"/><line class="cls-1" x1="29.09" y1="69.56" x2="29.09" y2="56.85"/><line class="cls-1" x1="6.37" y1="24.75" x2="24.68" y2="6.44"/><line class="cls-1" x1="10.68" y1="26.66" x2="24.68" y2="12.66"/><line class="cls-1" x1="29.09" y1="50.62" x2="48.98" y2="30.74"/><line class="cls-1" x1="29.09" y1="50.62" x2="29.09" y2="6.44"/><line class="cls-1" x1="24.68" y1="12.66" x2="24.68" y2="42.56"/><path class="cls-1" d="M10.68,26.66A31.79,31.79,0,0,1,14.84,30l.94.92.24.23.23.24.48.5c.61.64,1.2,1.3,1.78,2a59,59,0,0,1,6.17,8.7s3.1,4.93,3.51,7.43.9,5,.9,5v1.81"/><path class="cls-1" d="M49,30.74a8.27,8.27,0,0,0,0-.86c0-.33-.08-.65-.14-1s-.15-.73-.24-1.09-.23-.8-.36-1.2c-.21-.63-.44-1.26-.7-1.87s-.59-1.36-.92-2A40.19,40.19,0,0,0,44.51,19c-.74-1.19-1.54-2.36-2.38-3.48-.43-.58-.88-1.15-1.33-1.71s-.88-1-1.34-1.56-1-1.06-1.49-1.58-1-1-1.49-1.4-1.11-1-1.69-1.4a15.86,15.86,0,0,0-1.67-1.14A12,12,0,0,0,32,6.16a9.47,9.47,0,0,0-1-.43A6.29,6.29,0,0,0,30,5.49a4,4,0,0,0-.85,0"/><path class="cls-1" d="M29.17,5.44a6.74,6.74,0,0,0-.08,1"/><line class="cls-1" x1="24.68" y1="113.75" x2="5.7" y2="94.77"/><path class="cls-1" d="M24.93,4.57a3.14,3.14,0,0,1,.73-1.24"/><path class="cls-1" d="M27.1,7.09a5.19,5.19,0,0,0-.21,1.56"/><line class="cls-1" x1="24.68" y1="75.79" x2="24.68" y2="118.04"/><line class="cls-1" x1="24.68" y1="12.66" x2="26.89" y2="10.45"/><line class="cls-1" x1="24.68" y1="6.44" x2="26.89" y2="8.65"/><line class="cls-1" x1="4.79" y1="32.55" x2="7.13" y2="30.21"/><line class="cls-1" x1="4.79" y1="30.74" x2="4.79" y2="32.55"/><line class="cls-1" x1="48.98" y1="30.74" x2="51.19" y2="32.95"/><path class="cls-1" d="M27.87,1.12a2.48,2.48,0,0,1,.87-.55,2.72,2.72,0,0,1,.54-.15,3,3,0,0,1,.6,0,3.71,3.71,0,0,1,.67,0,4.61,4.61,0,0,1,.72.15A6.86,6.86,0,0,1,32,.82c.28.1.55.22.82.34s.71.35,1.06.55.75.44,1.11.68a28,28,0,0,1,2.26,1.67c.67.55,1.32,1.14,2,1.73l.48.46.24.23.23.24c.33.32.64.65,1,1,.58.62,1.15,1.26,1.71,1.91S44,11,44.59,11.74c1.08,1.39,2.11,2.85,3.06,4.34s1.84,3,2.64,4.6c.42.83.82,1.67,1.18,2.53s.64,1.55.91,2.35c.16.5.32,1,.45,1.51s.23.91.32,1.37.14.81.19,1.23.06.71.06,1.07"/><line class="cls-1" x1="25.66" y1="3.33" x2="27.87" y2="1.12"/><path class="cls-1" d="M24.68,6.44a6.25,6.25,0,0,1,.25-1.87"/><line class="cls-1" x1="4.79" y1="89.45" x2="4.79" y2="32.55"/><line class="cls-1" x1="4.79" y1="93.87" x2="2.58" y2="96.07"/><line class="cls-1" x1="24.68" y1="69.56" x2="24.68" y2="69.56"/><line class="cls-1" x1="29.09" y1="75.79" x2="48.08" y2="94.77"/><line class="cls-1" x1="51.19" y1="96.07" x2="51.19" y2="93.46"/><line class="cls-1" x1="2.58" y1="96.07" x2="2.58" y2="32.95"/><line class="cls-1" x1="53.4" y1="95.67" x2="53.4" y2="30.74"/><line class="cls-1" x1="53.4" y1="95.67" x2="51.19" y2="97.88"/><line class="cls-1" x1="29.09" y1="113.75" x2="48.08" y2="94.77"/><line class="cls-1" x1="29.09" y1="119.97" x2="51.19" y2="97.88"/><line class="cls-1" x1="4.79" y1="93.87" x2="24.68" y2="73.98"/><line class="cls-1" x1="0.38" y1="95.67" x2="26.89" y2="122.18"/><line class="cls-1" x1="29.09" y1="119.97" x2="26.89" y2="122.18"/><line class="cls-1" x1="26.89" y1="57.25" x2="26.89" y2="57.25"/><line class="cls-1" x1="26.89" y1="122.18" x2="26.89" y2="117.76"/><line class="cls-1" x1="0.38" y1="30.74" x2="0.38" y2="95.67"/><line class="cls-1" x1="24.68" y1="55.04" x2="24.68" y2="69.56"/><line class="cls-1" x1="26.89" y1="46.85" x2="26.89" y2="10.45"/><line class="cls-1" x1="48.98" y1="89.45" x2="29.09" y2="69.56"/><line class="cls-1" x1="48.98" y1="93.87" x2="29.09" y2="73.98"/><path class="cls-1" d="M4,30a2.21,2.21,0,0,0-.6.41"/><path class="cls-1" d="M3.57,25.43a2.46,2.46,0,0,1,1.31-.69,4.15,4.15,0,0,1,1.49,0"/><path class="cls-1" d="M.63,28.88a3,3,0,0,1,.73-1.24"/><path class="cls-1" d="M4.87,29.74a6.74,6.74,0,0,0-.08,1"/><path class="cls-1" d="M3.4,30.36a2.75,2.75,0,0,0-.65,1.21A5.38,5.38,0,0,0,2.58,33"/><line class="cls-1" x1="1.36" y1="27.64" x2="3.57" y2="25.43"/><path class="cls-1" d="M.38,30.74a6.14,6.14,0,0,1,.25-1.86"/><path class="cls-1" d="M4.87,29.74A2.41,2.41,0,0,0,4,30"/><path class="cls-1" d="M24.68,55c0-.27,0-.54,0-.81s-.08-.61-.13-.91-.13-.68-.22-1-.2-.74-.31-1.11c-.19-.59-.4-1.18-.63-1.75s-.53-1.27-.82-1.9a45.72,45.72,0,0,0-4-6.74,46.78,46.78,0,0,0-5.07-6,30.48,30.48,0,0,0-3-2.59A20,20,0,0,0,8.77,31c-.28-.17-.55-.32-.84-.47s-.53-.25-.8-.36"/><line class="cls-1" x1="2.58" y1="96.07" x2="24.55" y2="118.04"/><line class="cls-1" x1="51.19" y1="34.75" x2="51.19" y2="93.87"/><line class="cls-1" x1="7.13" y1="30.21" x2="4.87" y2="29.74"/></g></g></svg>