<svg xmlns="http://www.w3.org/2000/svg" viewBox="0 0 27.26 38.76"><defs><style>.cls-1{fill:none;stroke:#037cff;stroke-linecap:round;stroke-linejoin:round;stroke-width:0.75px;}</style></defs><title>Asset 6</title><g id="Layer_2" data-name="Layer 2"><g id="furniture2"><line class="cls-1" x1="15.29" y1="25.9" x2="15.29" y2="36.05"/><line class="cls-1" x1="9.44" y1="19.38" x2="7.44" y2="17.38"/><line class="cls-1" x1="26.06" y1="15.13" x2="15.29" y2="25.9"/><line class="cls-1" x1="26.89" y1="14.31" x2="26.06" y2="15.13"/><line class="cls-1" x1="26.55" y1="13.97" x2="13.63" y2="26.89"/><line class="cls-1" x1="4.03" y1="13.97" x2="13.63" y2="4.37"/><line class="cls-1" x1="13.63" y1="3.69" x2="23.57" y2="13.63"/><line class="cls-1" x1="12.8" y1="33.56" x2="3.69" y2="24.45"/><line class="cls-1" x1="3.69" y1="24.45" x2="13.63" y2="14.51"/><line class="cls-1" x1="26.06" y1="25.28" x2="13.63" y2="37.71"/><line class="cls-1" x1="2.86" y1="21.97" x2="13.63" y2="11.2"/><line class="cls-1" x1="13.63" y1="37.71" x2="2.03" y2="26.11"/><line class="cls-1" x1="4.03" y1="24.79" x2="13.63" y2="15.19"/><line class="cls-1" x1="26.06" y1="15.13" x2="26.06" y2="25.28"/><line class="cls-1" x1="23.57" y1="24.45" x2="23.23" y2="24.79"/><line class="cls-1" x1="13.63" y1="27.56" x2="13.63" y2="36.05"/><line class="cls-1" x1="2.03" y1="22.79" x2="2.03" y2="26.11"/><line class="cls-1" x1="15.29" y1="25.9" x2="13.63" y2="27.56"/><line class="cls-1" x1="12.8" y1="33.56" x2="12.8" y2="36.88"/><line class="cls-1" x1="2.86" y1="21.97" x2="2.86" y2="25.28"/><line class="cls-1" x1="14.46" y1="4.52" x2="14.46" y2="12.02"/><line class="cls-1" x1="24.4" y1="16.79" x2="24.4" y2="21.97"/><line class="cls-1" x1="24.4" y1="21.97" x2="24.4" y2="23.62"/><line class="cls-1" x1="14.46" y1="12.02" x2="19.82" y2="17.38"/><line class="cls-1" x1="13.63" y1="36.05" x2="13.63" y2="37.71"/><line class="cls-1" x1="12.8" y1="26.73" x2="12.8" y2="33.56"/><line class="cls-1" x1="0.38" y1="24.45" x2="2.03" y2="26.11"/><line class="cls-1" x1="0.38" y1="14.31" x2="0.38" y2="24.45"/><line class="cls-1" x1="2.86" y1="15.13" x2="2.86" y2="21.97"/><line class="cls-1" x1="2.03" y1="26.11" x2="2.86" y2="25.28"/><line class="cls-1" x1="12.8" y1="13.68" x2="14.46" y2="12.02"/><line class="cls-1" x1="26.89" y1="24.45" x2="26.06" y2="25.28"/><line class="cls-1" x1="26.06" y1="25.28" x2="24.4" y2="23.62"/><line class="cls-1" x1="21.81" y1="19.38" x2="24.4" y2="21.97"/><line class="cls-1" x1="4.03" y1="13.97" x2="3.69" y2="13.63"/><line class="cls-1" x1="19.82" y1="17.38" x2="17.82" y2="19.38"/><line class="cls-1" x1="17.82" y1="19.38" x2="13.63" y2="23.57"/><line class="cls-1" x1="7.44" y1="17.38" x2="4.03" y2="13.97"/><line class="cls-1" x1="19.82" y1="21.37" x2="23.23" y2="24.79"/><line class="cls-1" x1="23.57" y1="13.63" x2="19.82" y2="17.38"/><line class="cls-1" x1="13.63" y1="23.57" x2="9.44" y2="19.38"/><line class="cls-1" x1="26.89" y1="13.63" x2="26.55" y2="13.97"/><line class="cls-1" x1="13.63" y1="0.38" x2="26.89" y2="13.63"/><line class="cls-1" x1="0.38" y1="13.63" x2="13.63" y2="0.38"/><line class="cls-1" x1="26.89" y1="14.31" x2="26.89" y2="13.63"/><line class="cls-1" x1="23.23" y1="24.79" x2="15.29" y2="32.74"/><line class="cls-1" x1="13.63" y1="4.37" x2="13.63" y2="3.69"/><line class="cls-1" x1="0.38" y1="24.45" x2="0.38" y2="25.13"/><line class="cls-1" x1="13.63" y1="38.38" x2="13.63" y2="37.71"/><line class="cls-1" x1="26.89" y1="25.13" x2="13.63" y2="38.38"/><line class="cls-1" x1="26.89" y1="25.13" x2="26.89" y2="24.45"/><line class="cls-1" x1="13.63" y1="38.38" x2="0.38" y2="25.13"/><line class="cls-1" x1="13.63" y1="15.19" x2="17.82" y2="19.38"/><line class="cls-1" x1="13.63" y1="15.19" x2="13.63" y2="14.51"/><line class="cls-1" x1="2.03" y1="15.96" x2="2.03" y2="22.79"/></g></g></svg>