<svg xmlns="http://www.w3.org/2000/svg" viewBox="0 0 54.6 76.24"><defs><style>.cls-1{fill:none;stroke:#037cff;stroke-linecap:round;stroke-linejoin:round;stroke-width:0.75px;}</style></defs><title>Asset 7</title><g id="Layer_2" data-name="Layer 2"><g id="furniture2"><path class="cls-1" d="M29.37,51.84V71.2"/><path class="cls-1" d="M33.72,33.37A22.1,22.1,0,0,0,32,35.6"/><path class="cls-1" d="M34.31,32.75c-.2.2-.4.41-.59.62"/><path class="cls-1" d="M38.42,30.38a1.79,1.79,0,0,0-.8.07"/><path class="cls-1" d="M38.48,31a2.4,2.4,0,0,0-.06-.6"/><line class="cls-1" x1="14.04" y1="35.16" x2="14.04" y2="36.52"/><path class="cls-1" d="M51.74,46.19V39.7"/><path class="cls-1" d="M39.05,61.52l1.5-1.5"/><path class="cls-1" d="M26.06,14.9V4.21"/><path class="cls-1" d="M38.48,38.14V36.93"/><path class="cls-1" d="M38.48,43.15v-5"/><line class="cls-1" x1="48.15" y1="32.13" x2="46.16" y2="34.12"/><line class="cls-1" x1="52.51" y1="27.77" x2="48.15" y2="32.13"/><path class="cls-1" d="M34.85,29.31a22.1,22.1,0,0,0-2.39,2.35"/><path class="cls-1" d="M38.55,27.39a4.11,4.11,0,0,0-1.46.43,8.33,8.33,0,0,0-1.32.78"/><path class="cls-1" d="M39.65,27.77a1.45,1.45,0,0,0-1.1-.38"/><line class="cls-1" x1="2.86" y1="47.02" x2="26.89" y2="71.05"/><line class="cls-1" x1="2.86" y1="36.54" x2="26.89" y2="60.57"/><line class="cls-1" x1="23.95" y1="23.6" x2="24.78" y2="24.43"/><line class="cls-1" x1="14.17" y1="14.51" x2="31.93" y2="32.28"/><line class="cls-1" x1="24.17" y1="23.38" x2="25.68" y2="24.88"/><line class="cls-1" x1="11.97" y1="11.18" x2="15.53" y2="14.74"/><line class="cls-1" x1="7.42" y1="6.63" x2="11.97" y2="11.18"/><line class="cls-1" x1="33.25" y1="30.8" x2="33.93" y2="30.12"/><line class="cls-1" x1="14.46" y1="10.65" x2="15.53" y2="11.73"/><line class="cls-1" x1="7.42" y1="5.27" x2="8.25" y2="4.44"/><line class="cls-1" x1="14.46" y1="3.3" x2="38.55" y2="27.39"/><line class="cls-1" x1="25.23" y1="18.06" x2="27.71" y2="20.54"/><line class="cls-1" x1="17.21" y1="10.05" x2="18.72" y2="11.55"/><line class="cls-1" x1="12.8" y1="5.63" x2="12.8" y2="4.96"/><line class="cls-1" x1="2.86" y1="14.9" x2="1.2" y2="16.55"/><line class="cls-1" x1="2.03" y1="17.38" x2="26.89" y2="42.24"/><line class="cls-1" x1="26.89" y1="2.14" x2="52.51" y2="27.77"/><path class="cls-1" d="M12,16.64V11.18"/><path class="cls-1" d="M14,2.08a1.3,1.3,0,0,0-.43-.27,1.56,1.56,0,0,0-.57-.1l-.32,0-.36.07a5.59,5.59,0,0,0-.78.28L11,2.35a6.16,6.16,0,0,0-.55.33,12.71,12.71,0,0,0-1.11.82A18.9,18.9,0,0,0,7.42,5.28c-.29.3-.57.61-.85.93s-.58.69-.85,1a28.53,28.53,0,0,0-2.84,4.38c-.21.4-.41.81-.6,1.22S2,13.62,1.82,14q-.13.36-.24.72c-.07.22-.13.44-.18.67s-.09.4-.12.6a5,5,0,0,0-.06.54"/><line class="cls-1" x1="13.68" y1="36.88" x2="14.04" y2="36.52"/><path class="cls-1" d="M24.78,24.43l.22-.22"/><path class="cls-1" d="M13,36.2l3.58-3.58"/><path class="cls-1" d="M6.94,40.61l3.24-3.24"/><line class="cls-1" x1="1.2" y1="16.55" x2="2.03" y2="17.38"/><line class="cls-1" x1="12.18" y1="35.37" x2="13.68" y2="36.88"/><line class="cls-1" x1="10.18" y1="37.37" x2="11.69" y2="38.87"/><line class="cls-1" x1="33.1" y1="30.96" x2="33.1" y2="30.95"/><line class="cls-1" x1="1.2" y1="16.89" x2="1.2" y2="17.23"/><path class="cls-1" d="M12,8.17V4.46h0v0a2.33,2.33,0,0,0-.06-.53"/><line class="cls-1" x1="14.46" y1="10.65" x2="14.46" y2="7.29"/><line class="cls-1" x1="2.86" y1="18.89" x2="15.76" y2="31.79"/><line class="cls-1" x1="34.31" y1="32.75" x2="38.48" y2="36.93"/><path class="cls-1" d="M12.43,4.13a.86.86,0,0,0-.52-.26"/><path class="cls-1" d="M25.23,5,20.71,9.56"/><path class="cls-1" d="M2.86,18.89v7.17"/><path class="cls-1" d="M14.45,3.31A2,2,0,0,0,14,2.08"/><path class="cls-1" d="M38.48,32.94V31.31"/><path class="cls-1" d="M29.72,39.92c-.07.19-.12.38-.17.57s-.08.34-.11.51a5.06,5.06,0,0,0-.06.53.49.49,0,0,0,0,.12v7.18"/><line class="cls-1" x1="54.22" y1="27.71" x2="47.33" y2="34.61"/><line class="cls-1" x1="29.37" y1="48.83" x2="40.55" y2="60.02"/><line class="cls-1" x1="36.5" y1="30.96" x2="38.48" y2="32.94"/><line class="cls-1" x1="25.68" y1="24.88" x2="32.46" y2="31.66"/><line class="cls-1" x1="27.71" y1="20.54" x2="35.77" y2="28.6"/><line class="cls-1" x1="1.2" y1="16.55" x2="1.2" y2="16.89"/><line class="cls-1" x1="27.71" y1="1.32" x2="26.89" y2="2.14"/><line class="cls-1" x1="26.89" y1="0.38" x2="19.21" y2="8.05"/><line class="cls-1" x1="25.45" y1="25.11" x2="25.68" y2="24.88"/><line class="cls-1" x1="3.2" y1="47.36" x2="6.45" y2="44.11"/><path class="cls-1" d="M2.86,44.69l2.08-2.08"/><line class="cls-1" x1="2.86" y1="30.05" x2="10.18" y2="37.37"/><line class="cls-1" x1="14.45" y1="3.31" x2="14.46" y2="3.3"/><line class="cls-1" x1="27.71" y1="22.17" x2="27.71" y2="20.54"/><path class="cls-1" d="M1.21,16.57c0,.1,0,.21,0,.32"/><line class="cls-1" x1="40.97" y1="35.42" x2="40.97" y2="30.15"/><line class="cls-1" x1="8.44" y1="42.12" x2="11.69" y2="38.87"/><line class="cls-1" x1="27.71" y1="22.17" x2="34.85" y2="29.31"/><line class="cls-1" x1="17.6" y1="32.96" x2="25.11" y2="25.45"/><path class="cls-1" d="M37.62,30.45A4.54,4.54,0,0,0,36.5,31"/><line class="cls-1" x1="39.73" y1="60.84" x2="39.73" y2="60.84"/><line class="cls-1" x1="14.04" y1="35.16" x2="26.89" y2="48"/><line class="cls-1" x1="27.71" y1="43.4" x2="27.71" y2="73.53"/><path class="cls-1" d="M40.55,60,51.06,49.51"/><line class="cls-1" x1="27.71" y1="1.2" x2="20.04" y2="8.88"/><line class="cls-1" x1="40.97" y1="39.31" x2="40.97" y2="35.42"/><line class="cls-1" x1="26.06" y1="13.34" x2="46.5" y2="33.78"/><line class="cls-1" x1="1.54" y1="38.54" x2="26.89" y2="63.88"/><line class="cls-1" x1="8.09" y1="5.95" x2="33.1" y2="30.95"/><line class="cls-1" x1="12.8" y1="4.96" x2="14.45" y2="3.31"/><line class="cls-1" x1="13.14" y1="5.29" x2="36.18" y2="28.33"/><line class="cls-1" x1="12.8" y1="5.63" x2="14.46" y2="7.29"/><path class="cls-1" d="M2.86,46.35l2.91-2.91"/><path class="cls-1" d="M12.18,35.37l3.58-3.58"/><line class="cls-1" x1="1.54" y1="28.05" x2="26.89" y2="53.4"/><line class="cls-1" x1="1.2" y1="28.39" x2="2.86" y2="30.05"/><path class="cls-1" d="M2.86,30.05v6.49"/><line class="cls-1" x1="26.89" y1="54.07" x2="26.89" y2="60.57"/><path class="cls-1" d="M51.06,49.51l.68-.68"/><path class="cls-1" d="M2.86,44.69v1.66"/><line class="cls-1" x1="27.71" y1="1.32" x2="27.71" y2="1.32"/><line class="cls-1" x1="53.34" y1="26.94" x2="52.51" y2="27.77"/><path class="cls-1" d="M25.23,14.07V5"/><path class="cls-1" d="M24,23.6l.22-.22"/><line class="cls-1" x1="17.21" y1="10.05" x2="15.53" y2="11.73"/><line class="cls-1" x1="18.04" y1="10.87" x2="16.36" y2="12.56"/><line class="cls-1" x1="14.86" y1="14.06" x2="14.46" y2="14.46"/><line class="cls-1" x1="27.71" y1="16.55" x2="27.71" y2="15.68"/><path class="cls-1" d="M26.06,22.25V18.89"/><path class="cls-1" d="M7.76,41.44,11,38.2"/><line class="cls-1" x1="26.89" y1="42.57" x2="26.89" y2="42.91"/><path class="cls-1" d="M29.37,50.49v1.35"/><path class="cls-1" d="M38.94,30.64a.86.86,0,0,0-.52-.26"/><path class="cls-1" d="M11.91,3.87a1.9,1.9,0,0,0-.82.07,4.93,4.93,0,0,0-.75.31A8.54,8.54,0,0,0,9,5.17"/><line class="cls-1" x1="47.33" y1="34.61" x2="43.74" y2="38.2"/><line class="cls-1" x1="40.97" y1="40.97" x2="40.97" y2="39.31"/><path class="cls-1" d="M39.38,28.22a4.25,4.25,0,0,0-1.67.53,10.05,10.05,0,0,0-1.48.95,16.13,16.13,0,0,0-1.34,1.14l-.32.3-.32.31c-.2.21-.41.42-.6.64"/><path class="cls-1" d="M32.25,31.9c-.11.13-.22.25-.32.38"/><path class="cls-1" d="M39.31,42.32V31.67c0-.05,0-.1,0-.15a2.5,2.5,0,0,0,0-.29,1.17,1.17,0,0,0-.21-.47"/><path class="cls-1" d="M33.65,32.09A29.62,29.62,0,0,0,31,35.51a26.2,26.2,0,0,0-2.13,3.8"/><line class="cls-1" x1="40.97" y1="35.42" x2="40.97" y2="35.42"/><line class="cls-1" x1="15.53" y1="14.74" x2="24.17" y2="23.38"/><line class="cls-1" x1="38.48" y1="31.31" x2="38.48" y2="30.98"/><path class="cls-1" d="M39,30.76a.58.58,0,0,0-.1-.12"/><path class="cls-1" d="M29.37,71.2v1.66"/><path class="cls-1" d="M36.5,31a9.32,9.32,0,0,0-1.15.83l-.53.47-.26.24-.13.13-.12.12"/><path class="cls-1" d="M32,35.6a20.29,20.29,0,0,0-1.27,2.08,13.42,13.42,0,0,0-1,2.24"/><path class="cls-1" d="M29.37,48.83v1.66"/><path class="cls-1" d="M12.8,5.29a2.62,2.62,0,0,0-.07-.62,1.25,1.25,0,0,0-.3-.54"/><line class="cls-1" x1="44.42" y1="38.87" x2="51.74" y2="46.19"/><line class="cls-1" x1="42.42" y1="40.87" x2="51.06" y2="49.51"/><line class="cls-1" x1="47.66" y1="35.63" x2="51.74" y2="39.7"/><line class="cls-1" x1="49.66" y1="33.63" x2="51.74" y2="35.71"/><line class="cls-1" x1="40.97" y1="35.42" x2="42.91" y2="37.37"/><line class="cls-1" x1="33.72" y1="33.37" x2="38.48" y2="38.14"/><line class="cls-1" x1="38.48" y1="43.15" x2="39.31" y2="43.98"/><line class="cls-1" x1="29.37" y1="51.84" x2="39.05" y2="61.52"/><path class="cls-1" d="M39.31,44V42.32"/><line class="cls-1" x1="14.04" y1="36.52" x2="26.89" y2="49.36"/><line class="cls-1" x1="27.71" y1="43.4" x2="26.89" y2="42.57"/><path class="cls-1" d="M28.82,39.31A17.34,17.34,0,0,0,28.17,41"/><path class="cls-1" d="M52.57,47V30.72"/><line class="cls-1" x1="43.74" y1="38.2" x2="41.75" y2="40.19"/><line class="cls-1" x1="2.86" y1="36.54" x2="2.86" y2="36.54"/><path class="cls-1" d="M52.57,48.68V47"/><line class="cls-1" x1="26.89" y1="42.91" x2="26.89" y2="46.35"/><line class="cls-1" x1="26.89" y1="64.56" x2="26.89" y2="71.05"/><path class="cls-1" d="M29.37,71.2l9.68-9.68"/><line class="cls-1" x1="41.75" y1="40.19" x2="40.97" y2="40.97"/><line class="cls-1" x1="15.55" y1="35.01" x2="17.27" y2="33.29"/><line class="cls-1" x1="46.16" y1="34.12" x2="42.91" y2="37.37"/><line class="cls-1" x1="42.91" y1="37.37" x2="40.97" y2="39.31"/><path class="cls-1" d="M12.8,9V5.63"/><path class="cls-1" d="M7.42,6.63a21.25,21.25,0,0,0-2,2.51A19.7,19.7,0,0,0,3.8,11.92c-.12.26-.23.52-.34.78s-.18.48-.26.72a8.19,8.19,0,0,0-.23.85,4.45,4.45,0,0,0-.1.72s0,.1,0,.15v3.07"/><path class="cls-1" d="M2.86,40.53v4.16"/><path class="cls-1" d="M18.72,11.55,17,13.23"/><path class="cls-1" d="M15.53,14.74l-.22.22"/><path class="cls-1" d="M38.48,36.93v-4"/><path class="cls-1" d="M35.77,28.6c-.31.22-.62.46-.92.71"/><path class="cls-1" d="M32.46,31.66l-.21.24"/><path class="cls-1" d="M31.93,32.28A28.56,28.56,0,0,0,29.29,36c-.39.65-.76,1.32-1.09,2a19.58,19.58,0,0,0-.86,2.12"/><line class="cls-1" x1="27.71" y1="15.68" x2="46.16" y2="34.12"/><path class="cls-1" d="M28.17,41c-.1.3-.18.6-.26.91"/><path class="cls-1" d="M40.48,28.59a1.22,1.22,0,0,0-.5-.3"/><path class="cls-1" d="M40,28.29a1.73,1.73,0,0,0-.6-.07"/><line class="cls-1" x1="15.55" y1="35.01" x2="26.89" y2="46.35"/><line class="cls-1" x1="2.86" y1="40.53" x2="4.94" y2="42.61"/><line class="cls-1" x1="6.45" y1="44.11" x2="26.89" y2="64.56"/><line class="cls-1" x1="15.31" y1="14.96" x2="23.95" y2="23.6"/><line class="cls-1" x1="24.78" y1="24.43" x2="25.45" y2="25.11"/><line class="cls-1" x1="25.45" y1="25.11" x2="32.25" y2="31.9"/><line class="cls-1" x1="8.98" y1="5.17" x2="11.97" y2="8.17"/><line class="cls-1" x1="17.04" y1="13.23" x2="25.23" y2="21.42"/><line class="cls-1" x1="14.46" y1="7.29" x2="17.21" y2="10.05"/><line class="cls-1" x1="18.72" y1="11.55" x2="25.23" y2="18.06"/><path class="cls-1" d="M51.74,48.83V46.19"/><line class="cls-1" x1="27.71" y1="75.87" x2="26.89" y2="75.04"/><line class="cls-1" x1="27.71" y1="75.87" x2="54.22" y2="49.36"/><line class="cls-1" x1="27.71" y1="11.69" x2="27.71" y2="2.97"/><line class="cls-1" x1="53.4" y1="28.54" x2="53.4" y2="28.54"/><path class="cls-1" d="M12.8,17.47V12"/><line class="cls-1" x1="11.97" y1="16.64" x2="12.8" y2="17.47"/><path class="cls-1" d="M26.06,4.21,25.23,5"/><line class="cls-1" x1="54.22" y1="49.36" x2="54.22" y2="27.71"/><line class="cls-1" x1="54.22" y1="27.71" x2="53.4" y2="26.89"/><line class="cls-1" x1="53.4" y1="26.89" x2="53.34" y2="26.94"/><line class="cls-1" x1="39.65" y1="27.77" x2="40.48" y2="28.59"/><line class="cls-1" x1="1.54" y1="49.02" x2="26.89" y2="74.36"/><line class="cls-1" x1="1.2" y1="49.36" x2="26.89" y2="75.04"/><line class="cls-1" x1="1.2" y1="48.68" x2="1.54" y2="49.02"/><line class="cls-1" x1="27.71" y1="11.69" x2="48.15" y2="32.13"/><path class="cls-1" d="M52.57,49.66v-.3"/><line class="cls-1" x1="33.39" y1="33.74" x2="38.48" y2="38.83"/><line class="cls-1" x1="38.2" y1="30.36" x2="38.46" y2="30.62"/><line class="cls-1" x1="37.62" y1="30.45" x2="38.48" y2="31.31"/><path class="cls-1" d="M29.37,72.86l23.2-23.2"/><path class="cls-1" d="M41,30.15a3.31,3.31,0,0,0-.1-.83,1.57,1.57,0,0,0-.39-.73"/><line class="cls-1" x1="27.71" y1="22.17" x2="27.71" y2="22.17"/><line class="cls-1" x1="51.74" y1="39.03" x2="51.74" y2="39.7"/><line class="cls-1" x1="14.75" y1="14.4" x2="15.31" y2="14.96"/><line class="cls-1" x1="14.46" y1="14.46" x2="14.17" y2="14.51"/><line class="cls-1" x1="14.75" y1="14.4" x2="14.46" y2="14.46"/><line class="cls-1" x1="33.25" y1="30.8" x2="33.25" y2="30.8"/><line class="cls-1" x1="7.42" y1="6.62" x2="7.42" y2="6.63"/><line class="cls-1" x1="33.1" y1="30.95" x2="33.25" y2="30.8"/><line class="cls-1" x1="26.89" y1="42.24" x2="26.89" y2="42.57"/><path class="cls-1" d="M16.93,32.28l7.5-7.5"/><path class="cls-1" d="M16.1,31.45,23.6,24"/><line class="cls-1" x1="17.27" y1="33.29" x2="26.89" y2="42.91"/><line class="cls-1" x1="13.68" y1="36.88" x2="26.89" y2="50.08"/><line class="cls-1" x1="11.69" y1="38.87" x2="26.89" y2="54.07"/><line class="cls-1" x1="27.71" y1="1.32" x2="27.71" y2="1.2"/><path class="cls-1" d="M.83,13.63a8.29,8.29,0,0,0-.45,2.43"/><line class="cls-1" x1="27.71" y1="1.32" x2="53.34" y2="26.94"/><line class="cls-1" x1="26.89" y1="2.14" x2="26.89" y2="3.5"/><line class="cls-1" x1="27.71" y1="1.2" x2="26.89" y2="0.38"/><line class="cls-1" x1="13.14" y1="1.26" x2="13.97" y2="2.08"/><line class="cls-1" x1="1.2" y1="16.89" x2="0.38" y2="16.06"/><line class="cls-1" x1="1.2" y1="49.36" x2="0.38" y2="48.53"/><line class="cls-1" x1="0.38" y1="16.06" x2="0.38" y2="48.53"/><line class="cls-1" x1="2.86" y1="26.06" x2="12.18" y2="35.37"/></g></g></svg>