<svg xmlns="http://www.w3.org/2000/svg" viewBox="0 0 27.26 60.4"><defs><style>.cls-1{fill:none;stroke:#037cff;stroke-linecap:round;stroke-linejoin:round;stroke-width:0.75px;}</style></defs><title>Asset 8</title><g id="Layer_2" data-name="Layer 2"><g id="furniture2"><line class="cls-1" x1="13.63" y1="59.35" x2="0.38" y2="46.09"/><line class="cls-1" x1="13.63" y1="23.57" x2="3.69" y2="13.63"/><line class="cls-1" x1="15.29" y1="25.9" x2="13.63" y2="27.56"/><line class="cls-1" x1="26.89" y1="14.31" x2="24.4" y2="16.79"/><line class="cls-1" x1="11.97" y1="6.02" x2="13.63" y2="4.37"/><line class="cls-1" x1="13.63" y1="27.56" x2="13.63" y2="59.35"/><line class="cls-1" x1="23.23" y1="13.97" x2="14.46" y2="22.74"/><line class="cls-1" x1="23.57" y1="13.63" x2="23.23" y2="13.97"/><line class="cls-1" x1="14.46" y1="22.74" x2="14.46" y2="22.74"/><line class="cls-1" x1="23.57" y1="46.09" x2="23.23" y2="46.43"/><line class="cls-1" x1="4.03" y1="46.43" x2="13.63" y2="36.83"/><line class="cls-1" x1="14.46" y1="5.19" x2="23.23" y2="13.97"/><line class="cls-1" x1="15.29" y1="25.9" x2="15.29" y2="34.5"/><line class="cls-1" x1="11.97" y1="25.9" x2="11.97" y2="34.5"/><line class="cls-1" x1="11.97" y1="6.02" x2="11.97" y2="21.91"/><line class="cls-1" x1="11.97" y1="34.5" x2="11.97" y2="34.5"/><line class="cls-1" x1="15.29" y1="38.49" x2="23.23" y2="46.43"/><line class="cls-1" x1="26.06" y1="46.92" x2="13.63" y2="59.35"/><line class="cls-1" x1="13.63" y1="3.69" x2="23.57" y2="13.63"/><line class="cls-1" x1="2.86" y1="16.12" x2="0.38" y2="13.63"/><line class="cls-1" x1="26.89" y1="13.63" x2="13.63" y2="26.89"/><line class="cls-1" x1="13.63" y1="26.89" x2="2.86" y2="16.12"/><line class="cls-1" x1="11.97" y1="5.35" x2="13.63" y2="3.69"/><line class="cls-1" x1="2.03" y1="15.96" x2="2.03" y2="47.75"/><line class="cls-1" x1="26.06" y1="15.14" x2="26.06" y2="46.92"/><line class="cls-1" x1="15.29" y1="37.81" x2="23.57" y2="46.09"/><line class="cls-1" x1="2.86" y1="43.61" x2="11.97" y2="34.5"/><line class="cls-1" x1="15.29" y1="34.5" x2="24.4" y2="43.61"/><line class="cls-1" x1="14.46" y1="22.74" x2="13.63" y2="23.57"/><line class="cls-1" x1="24.4" y1="43.61" x2="24.4" y2="45.27"/><line class="cls-1" x1="4.03" y1="13.97" x2="11.97" y2="6.02"/><line class="cls-1" x1="15.29" y1="38.49" x2="15.29" y2="54.38"/><line class="cls-1" x1="23.23" y1="46.43" x2="15.29" y2="54.38"/><line class="cls-1" x1="13.63" y1="56.04" x2="4.03" y2="46.43"/><line class="cls-1" x1="26.89" y1="46.77" x2="13.63" y2="60.03"/><line class="cls-1" x1="26.89" y1="46.77" x2="26.89" y2="46.09"/><line class="cls-1" x1="0.38" y1="46.77" x2="0.38" y2="46.09"/><line class="cls-1" x1="13.63" y1="60.03" x2="13.63" y2="59.35"/><line class="cls-1" x1="3.69" y1="46.09" x2="13.63" y2="36.15"/><line class="cls-1" x1="3.69" y1="13.63" x2="11.97" y2="5.35"/><line class="cls-1" x1="0.38" y1="13.63" x2="13.63" y2="0.38"/><line class="cls-1" x1="13.63" y1="0.38" x2="26.89" y2="13.63"/><line class="cls-1" x1="2.86" y1="16.79" x2="2.86" y2="43.61"/><line class="cls-1" x1="11.97" y1="25.9" x2="2.86" y2="16.79"/><line class="cls-1" x1="24.4" y1="16.79" x2="15.29" y2="25.9"/><line class="cls-1" x1="24.4" y1="16.79" x2="24.4" y2="43.61"/><line class="cls-1" x1="12.8" y1="5.19" x2="12.8" y2="22.74"/><line class="cls-1" x1="14.46" y1="5.19" x2="14.46" y2="22.74"/><line class="cls-1" x1="26.89" y1="14.31" x2="26.89" y2="13.63"/><line class="cls-1" x1="0.38" y1="14.31" x2="0.38" y2="13.63"/><line class="cls-1" x1="13.63" y1="27.56" x2="13.63" y2="26.89"/><line class="cls-1" x1="13.63" y1="3.69" x2="13.63" y2="4.37"/><line class="cls-1" x1="0.38" y1="14.31" x2="0.38" y2="46.09"/><line class="cls-1" x1="2.03" y1="47.75" x2="2.86" y2="46.92"/><line class="cls-1" x1="13.63" y1="27.56" x2="12.8" y2="26.73"/><line class="cls-1" x1="26.89" y1="14.31" x2="26.89" y2="46.09"/><line class="cls-1" x1="26.06" y1="46.92" x2="26.89" y2="46.09"/><line class="cls-1" x1="11.97" y1="34.5" x2="12.8" y2="35.32"/></g></g></svg>