<svg xmlns="http://www.w3.org/2000/svg" viewBox="0 0 46.01 68.32"><defs><style>.cls-1{fill:none;stroke:#037cff;stroke-linecap:round;stroke-linejoin:round;stroke-width:0.75px;}</style></defs><title>Asset 9</title><g id="Layer_2" data-name="Layer 2"><g id="furniture2"><line class="cls-1" x1="39.73" y1="33.47" x2="39.73" y2="54.43"/><path class="cls-1" d="M42.26,35.05c.14.36.27.73.38,1.11"/><path class="cls-1" d="M42.26,14.08c.14.37.27.74.38,1.11"/><line class="cls-1" x1="42.64" y1="29.95" x2="42.64" y2="36.16"/><line class="cls-1" x1="32.6" y1="25.39" x2="33.42" y2="23.2"/><line class="cls-1" x1="32.6" y1="4.43" x2="32.6" y2="25.39"/><path class="cls-1" d="M31.68,25.06c.31.1.61.21.92.33"/><line class="cls-1" x1="14.87" y1="8.57" x2="14.87" y2="29.58"/><line class="cls-1" x1="13.22" y1="10.27" x2="13.22" y2="27.92"/><path class="cls-1" d="M43.29,19.12a16.48,16.48,0,0,1-.8,5.07"/><path class="cls-1" d="M44.71,24.91a18.75,18.75,0,0,1-4.57,7.47"/><path class="cls-1" d="M44.71,25.59a19,19,0,0,1-2.45,4.94"/><line class="cls-1" x1="40.14" y1="33.05" x2="40.14" y2="32.38"/><line class="cls-1" x1="40.14" y1="32.38" x2="26.89" y2="45.63"/><path class="cls-1" d="M32,3.52a16.39,16.39,0,0,1,11.34,15.6"/><line class="cls-1" x1="15.29" y1="7.52" x2="15.29" y2="8.2"/><path class="cls-1" d="M42.26,30.53a17.29,17.29,0,0,1-1.36,1.71"/><line class="cls-1" x1="25.23" y1="44.65" x2="15.7" y2="35.12"/><path class="cls-1" d="M13.22,50.29,3.69,40.76"/><line class="cls-1" x1="40.14" y1="54.02" x2="26.89" y2="67.27"/><line class="cls-1" x1="12.85" y1="28.29" x2="13.22" y2="27.92"/><line class="cls-1" x1="2.86" y1="38.28" x2="10.86" y2="30.28"/><path class="cls-1" d="M15.29,29.16A16.43,16.43,0,0,1,33.9,25.93a16.06,16.06,0,0,1,2.86,1.74,16.67,16.67,0,0,1,1.3,1.09c.2.18.4.37.59.57s.38.4.56.61"/><polyline class="cls-1" points="26.89 67.27 13.63 54.02 2.03 42.42"/><line class="cls-1" x1="2.86" y1="38.28" x2="2.86" y2="41.59"/><line class="cls-1" x1="40.55" y1="32.62" x2="40.55" y2="49.83"/><line class="cls-1" x1="38.07" y1="35.12" x2="38.07" y2="52.78"/><path class="cls-1" d="M38.07,52.78,27.71,63.13"/><line class="cls-1" x1="39.73" y1="33.47" x2="38.07" y2="35.12"/><line class="cls-1" x1="38.07" y1="35.12" x2="27.71" y2="45.48"/><line class="cls-1" x1="40.14" y1="33.03" x2="39.73" y2="33.42"/><path class="cls-1" d="M40.55,53.6l-.41.42"/><line class="cls-1" x1="40.55" y1="32.59" x2="40.14" y2="33.03"/><line class="cls-1" x1="42.26" y1="14.08" x2="42.26" y2="14.08"/><line class="cls-1" x1="33.42" y1="4.75" x2="33.42" y2="23.19"/><path class="cls-1" d="M13.22,10.27l1.65-1.66"/><line class="cls-1" x1="13.22" y1="32.64" x2="12.85" y2="32.28"/><path class="cls-1" d="M33.42,23.19A18.88,18.88,0,0,1,40.65,28"/><line class="cls-1" x1="13.22" y1="32.64" x2="13.22" y2="50.29"/><path class="cls-1" d="M42.26,24.85A16.46,16.46,0,0,1,40.65,28"/><line class="cls-1" x1="44.84" y1="25.18" x2="44.84" y2="35.34"/><polyline class="cls-1" points="26.89 45.63 13.63 32.38 0.71 19.46"/><line class="cls-1" x1="15.7" y1="35.12" x2="13.63" y2="33.05"/><path class="cls-1" d="M25.23,62.3,15.7,52.78"/><line class="cls-1" x1="27.71" y1="45.48" x2="26.89" y2="46.31"/><line class="cls-1" x1="15.7" y1="35.12" x2="15.7" y2="52.78"/><line class="cls-1" x1="13.22" y1="50.29" x2="13.22" y2="53.6"/><line class="cls-1" x1="25.23" y1="62.3" x2="25.23" y2="65.62"/><line class="cls-1" x1="27.71" y1="63.13" x2="27.71" y2="66.45"/><path class="cls-1" d="M42.35,35.29a16.47,16.47,0,0,1,.94,5.47"/><line class="cls-1" x1="43.29" y1="40.76" x2="43.29" y2="41.44"/><line class="cls-1" x1="42.64" y1="15.19" x2="42.64" y2="23.67"/><line class="cls-1" x1="44.84" y1="35.34" x2="44.83" y2="35.34"/><path class="cls-1" d="M14.85,30.28l.44-.44"/><line class="cls-1" x1="10.86" y1="30.28" x2="2.86" y2="22.28"/><path class="cls-1" d="M44.83,35.34a18.82,18.82,0,0,1,.8,5.42"/><line class="cls-1" x1="42.26" y1="35.04" x2="42.26" y2="35.05"/><line class="cls-1" x1="33.42" y1="23.19" x2="33.42" y2="23.2"/><line class="cls-1" x1="31.49" y1="22.59" x2="31.49" y2="25"/><path class="cls-1" d="M40.65,28a15.55,15.55,0,0,1-1.44,1.9"/><path class="cls-1" d="M39.21,29.94c-.21.25-.44.49-.67.72l-.09.09-.11.11-.21.22-.44.43-1.54,1.54-3.09,3.09-6.17,6.18"/><path class="cls-1" d="M40.9,32.24c-.11.13-.23.26-.35.38"/><path class="cls-1" d="M12.85,28.29,4,19.46"/><path class="cls-1" d="M32.6,4.42c.27.1.55.21.82.33"/><path class="cls-1" d="M15.7,25.72a18.73,18.73,0,0,1,15.79-3.13"/><line class="cls-1" x1="45.63" y1="40.76" x2="45.63" y2="41.44"/><path class="cls-1" d="M45.63,19.46a18.7,18.7,0,0,1-.92,5.45"/><line class="cls-1" x1="42.26" y1="30.53" x2="42.26" y2="35.04"/><line class="cls-1" x1="31.49" y1="4.06" x2="31.49" y2="22.59"/><line class="cls-1" x1="42.26" y1="14.08" x2="42.26" y2="24.85"/><line class="cls-1" x1="32.6" y1="4.43" x2="32.6" y2="4.42"/><line class="cls-1" x1="15.29" y1="8.18" x2="15.7" y2="7.74"/><path class="cls-1" d="M15.7,7.8A16.4,16.4,0,0,1,31.49,4.06"/><line class="cls-1" x1="15.7" y1="7.8" x2="15.7" y2="25.72"/><path class="cls-1" d="M42.49,24.19l-.23.66"/><path class="cls-1" d="M15.39,7.42A16.53,16.53,0,0,1,23,3.18a16.31,16.31,0,0,1,8.71.27"/><line class="cls-1" x1="14.87" y1="29.58" x2="15.29" y2="29.16"/><path class="cls-1" d="M15.29,29.16l.41-.41"/><line class="cls-1" x1="14.87" y1="8.57" x2="15.29" y2="8.18"/><path class="cls-1" d="M13.63,5.87a18.75,18.75,0,0,1,32,13.25"/><path class="cls-1" d="M26.89,42.32l-12-12"/><path class="cls-1" d="M45.63,19.12v.34"/><path class="cls-1" d="M15.29,8.2c.13-.14.27-.27.41-.4"/><line class="cls-1" x1="45.63" y1="19.12" x2="45.63" y2="19.8"/><line class="cls-1" x1="0.38" y1="19.12" x2="13.63" y2="5.87"/><line class="cls-1" x1="43.29" y1="19.12" x2="43.29" y2="19.8"/><line class="cls-1" x1="0.38" y1="40.76" x2="2.03" y2="42.42"/><line class="cls-1" x1="2.03" y1="21.45" x2="2.03" y2="42.42"/><path class="cls-1" d="M43.29,40.76a16.36,16.36,0,0,1-2.74,9.07"/><path class="cls-1" d="M4,41.1l8.82-8.82"/><path class="cls-1" d="M45.63,41.44a18.78,18.78,0,0,1-5.49,13.25"/><line class="cls-1" x1="2.86" y1="22.28" x2="2.86" y2="38.28"/><path class="cls-1" d="M14.51,29.94l.36-.36"/><path class="cls-1" d="M4,19.46l9.19-9.19"/><line class="cls-1" x1="0.71" y1="19.46" x2="0.38" y2="19.12"/><line class="cls-1" x1="26.89" y1="46.31" x2="25.23" y2="44.65"/><line class="cls-1" x1="0.38" y1="19.8" x2="0.38" y2="19.12"/><line class="cls-1" x1="26.89" y1="46.31" x2="26.89" y2="45.63"/><path class="cls-1" d="M45.63,40.76v.34"/><line class="cls-1" x1="40.14" y1="54.69" x2="40.14" y2="54.02"/><line class="cls-1" x1="40.14" y1="54.69" x2="26.89" y2="67.95"/><line class="cls-1" x1="2.86" y1="38.95" x2="2.86" y2="38.95"/><line class="cls-1" x1="15.29" y1="29.16" x2="15.29" y2="29.84"/><path class="cls-1" d="M3.69,40.76l8.83-8.82"/><polyline class="cls-1" points="26.89 67.95 13.63 54.7 0.38 41.44"/><line class="cls-1" x1="0.38" y1="41.44" x2="0.38" y2="40.76"/><line class="cls-1" x1="26.89" y1="67.95" x2="26.89" y2="67.27"/><line class="cls-1" x1="2.03" y1="42.42" x2="2.86" y2="41.59"/><line class="cls-1" x1="0.38" y1="19.8" x2="0.38" y2="40.76"/><line class="cls-1" x1="14.04" y1="52.78" x2="14.04" y2="52.78"/><line class="cls-1" x1="14.04" y1="52.78" x2="14.04" y2="54.43"/><line class="cls-1" x1="15.7" y1="52.78" x2="14.04" y2="54.43"/><line class="cls-1" x1="25.23" y1="44.65" x2="25.23" y2="62.3"/><line class="cls-1" x1="27.71" y1="45.48" x2="27.71" y2="63.13"/></g></g></svg>