<?xml version="1.0" standalone="no"?>
<!DOCTYPE svg PUBLIC "-//W3C//DTD SVG 20010904//EN"
 "http://www.w3.org/TR/2001/REC-SVG-20010904/DTD/svg10.dtd">
<svg version="1.0" xmlns="http://www.w3.org/2000/svg"
 width="500.000000pt" height="500.000000pt" viewBox="0 0 500.000000 500.000000"
 preserveAspectRatio="xMidYMid meet">
<metadata>
Created by potrace 1.11, written by Peter Selinger 2001-2013
</metadata>
<g transform="translate(0.000000,500.000000) scale(0.100000,-0.100000)"
fill="#000000" stroke="none">
<path d="M0 2500 l0 -2500 2500 0 2500 0 0 2500 0 2500 -2500 0 -2500 0 0
-2500z m4175 720 c143 -45 272 -143 355 -270 l41 -64 -133 -68 c-73 -37 -138
-67 -144 -67 -6 -1 -17 13 -24 30 -19 46 -98 121 -155 149 -60 28 -178 34
-235 11 -99 -41 -170 -122 -211 -241 -30 -87 -33 -275 -5 -365 52 -173 152
-263 301 -273 125 -8 211 34 284 138 23 33 44 60 47 60 11 0 274 -136 274
-142 0 -4 -25 -40 -55 -80 -101 -134 -227 -217 -395 -259 -69 -18 -104 -21
-190 -17 -326 16 -558 223 -626 557 -23 117 -16 327 16 426 62 197 190 354
350 434 47 23 114 48 150 56 93 21 265 14 355 -15z m-3367 -42 c83 -297 277
-946 281 -942 3 3 69 222 146 487 l140 482 188 3 c103 1 187 -1 187 -5 0 -5
-108 -322 -241 -705 l-242 -698 -184 0 c-100 0 -183 2 -183 4 0 2 -108 318
-240 702 -132 385 -240 700 -240 701 0 2 85 3 190 3 l189 0 9 -32z m1972 8
c203 -67 310 -215 310 -430 0 -177 -62 -282 -213 -357 -34 -17 -64 -33 -66
-35 -3 -2 227 -408 301 -531 l20 -33 -199 0 -198 0 -139 255 -138 255 -109 0
-109 0 0 -255 0 -255 -180 0 -180 0 0 706 0 705 423 -3 c373 -4 428 -6 477
-22z"/>
<path d="M2240 2755 l0 -185 155 0 c187 0 243 10 289 54 64 59 73 192 18 257
-44 53 -72 59 -277 59 l-185 0 0 -185z"/>
</g>
</svg>
