<svg xmlns="http://www.w3.org/2000/svg" viewBox="0 0 341.25 308.67"><defs><style>.cls-1{fill:#006993;}</style></defs><title>Asset 8</title><g id="Layer_2" data-name="Layer 2"><g id="Layer_1-2" data-name="Layer 1"><path class="cls-1" d="M172.17,2.9c33.6.78,67.2,1.45,100.79,2.38,20,.55,39.92,1.49,59.88,2.3,8.11.33,8.41.39,8.41,8.64,0,25.31-.65,50.63-.42,75.94.36,38-2.86,75.87-1.6,113.85.2,6.05-2.71,9.82-7.77,12.7-14.12,8-28.11,16.27-42.17,24.39q-47.91,27.69-95.81,55.39c-5.94,3.45-11,7.92-18.26,9.62a15.38,15.38,0,0,1-12.79-2c-20.16-12.31-40.45-24.4-60.49-36.9-30.5-19-61.23-37.68-92.42-55.55-6.71-3.84-9.67-7.8-9.51-16.21Q1.43,121.57,3.59,45.75c.35-12.31.39-24.64.63-37C4.39.25,4.62-.13,13.44,0,43.73.53,74,1.37,104.3,1.75c22.62.29,45.25.06,67.88.06C172.18,2.17,172.18,2.54,172.17,2.9Zm9.22,279.25c15.84-9.23,30.58-17.88,45.38-26.41,2.53-1.46,4.07-3.26,4.07-6.25,0-7.61.06-15.22.08-22.82,0-2.63-.73-4.4-3.94-4.4q-20.39,0-40.77-.34c-3.48,0-4.78,1.88-4.79,4.89C181.36,244.69,181.39,262.56,181.39,282.15Zm98.75-58.31c-10.46-1.71-19-.94-27.41-1.13a3.14,3.14,0,0,0-3.47,2.87c-.21,5.34-1.79,10.85,1.11,16.75C259.77,235.73,271,233.22,280.14,223.84Z"/></g></g></svg>