<svg xmlns="http://www.w3.org/2000/svg" viewBox="0 0 518.4 422.78"><defs><style>.cls-1{fill:#006993;}</style></defs><title>Asset 3</title><g id="Layer_2" data-name="Layer 2"><g id="Layer_1-2" data-name="Layer 1"><path class="cls-1" d="M331.7,389.34c-17.19-11.82-34.77-23.07-51.36-35.79a46.37,46.37,0,0,0-18.82-8.36c-2.84-5.29-6.75-4-11-2-16.06,7.83-32.18,15.54-48.25,23.34-26.82,13-53,27.26-80.15,39.71-9.25,4.24-19.46,6.72-27.52,13.44-.33,0-.77-.21-1-.07-9.64,6.64-17,1.52-25-3.95-19-12.85-38.33-25.14-57.73-37.34-8-5-11.58-10.61-10.73-21,4.53-55.06,8.08-110.2,12-165.32a21.39,21.39,0,0,0,.15-5c-2.06-12,4.28-17.62,14.37-22.62,50.32-25,100.25-50.74,150.43-76C222.2,65.7,267.5,43.25,312.74,20.65q17-8.47,33.87-17c3-1.49,5.83-3.26,9.24-3.61a3,3,0,0,0,4,1.57l3.07,1.2c.8,2.36,2.34,3.58,4.92,3.23a.9.9,0,0,0,1.25.74,17.07,17.07,0,0,0,10.64,7l.12.55.56.11c2.16,3.53,5.58,4.94,9.43,5.65a22.69,22.69,0,0,0,11.07,6.68c.93,2.18,2.41,3.48,4.93,3.18a.93.93,0,0,0,1.26.8c.77,2.26,2.24,3.49,4.74,3.18a1.11,1.11,0,0,0,1.36.81c2.33,4.2,6.24,6,10.65,7.12a1.16,1.16,0,0,0,1.4.87,3.59,3.59,0,0,0,4.49,2.82c4.81,5.25,11.1,8.21,17.37,11.2,8.36,7.75,17.67,14,28.49,17.75l.14.09a165.86,165.86,0,0,0,39.6,24.14l.13.14a26.89,26.89,0,0,1,2.9,13.31c-1.44,25.78-2.85,51.57-3.82,77.37-.29,7.6-1.56,15.27-.06,22.9a4.82,4.82,0,0,0-.37,4.09c-2.31,4-1.53,8.39-1.74,12.61-1,20.92-2.17,41.85-2.48,62.79-.13,8.52-3.45,13.69-10.86,17.15-10.23,4.78-20.41,9.69-30.47,14.84C431,343.16,393.6,362.61,356,381.7,348.42,385.55,340.8,390,331.7,389.34Zm6.9-169.89c-2.07,0-2.82-.22-3.34,0q-33.08,16.36-66.11,32.84c-3.56,1.78-5.18,4.75-5.36,8.86-.81,18-1.68,35.93-2.85,53.87-.35,5.28,1.21,8.61,5.79,11.5C285,338.07,303,350,321,361.72a21.61,21.61,0,0,0,2.63,1.44c5.57,2.57,6.64,1.91,7.39-4.54.15-1.33.21-2.66.29-4q2.21-40.39,4.41-80.78C336.72,256,337.63,238.05,338.6,219.45ZM22.54,355.25c16.66-8.19,33-16.31,49.35-24.21,4.5-2.17,5.9-5.39,6.17-10.23.84-15.59,2.22-31.16,3.29-46.75.86-12.61,1.59-25.23,2.34-37.85.21-3.68.42-7.32-3.36-9.75-14.77-9.52-29.48-19.13-44.23-28.68-2.84-1.84-4.53-.51-4.88,2.36-.69,5.6-1.13,11.23-1.53,16.86q-4.52,64.14-9,128.29C20.48,348.27,19.94,351.2,22.54,355.25ZM335.89,197.36c-4.31-5.79-11-8.22-16.73-12q-17-11.24-34.26-22.11c-4-2.56-5.68-1.81-6.61,2.69a37.94,37.94,0,0,0-.41,6c-.59,12.29-.59,24.6-1.85,36.87a77.26,77.26,0,0,0,0,18.8C287.77,223.69,329.41,202.67,335.89,197.36ZM75.44,351a7.67,7.67,0,0,0-6.15.54c-10.72,5.18-21.48,10.3-32.14,15.61-3.85,1.91-4.81,5.13-2.11,6.87,10.55,6.79,21.14,13.54,32,19.79,4.59,2.65,6.12,1.3,6.65-4.49.6-6.6,1.33-13.2,1.52-19.82C75.39,363.31,76.42,357.09,75.44,351Z"/></g></g></svg>