<svg xmlns="http://www.w3.org/2000/svg" viewBox="0 0 997.19 562.32"><defs><style>.cls-1{fill:#006993;}</style></defs><title>Asset 2</title><g id="Layer_2" data-name="Layer 2"><g id="Layer_1-2" data-name="Layer 1"><path class="cls-1" d="M745,520.33a2,2,0,0,0-2.19-1.42,4.16,4.16,0,0,0-3.85-2.3l.1.07c-3.57-4.69-8.86-6.24-14.19-7.71l-.41-.16c-6.64-4.36-13.13-9-21.05-10.91l.05.09c-1.62-3.15-4.54-3.63-7.6-3.45-6.23.37-12.57-.29-18.67,1.66a13.8,13.8,0,0,0-8,.07c-3.92-1.32-8-.61-11.91-.51-27.93.71-55.87,1.6-83.81,2.29-31.6.77-63.21,1.66-94.82,2-18.61.18-37.24.52-55.83.79-16.9.25-33.85,1.33-50.77,1.75-28.27.72-56.56.6-84.84,1.16-18.89.37-37.76,1-56.66.81-5.13,0-10.62-1.83-15.53,1.36H211c-10.84-1.47-21.71-.34-32.55-.13-7.16.14-14.44-1.68-21.5.85a11,11,0,0,0-6.05.27l-1.95,0a31.77,31.77,0,0,0-12.06-.16l-1.91.05a24,24,0,0,0-10-.06c-13.5-1.13-27-.62-40.54-.59-8.49,0-17-.83-25.46,1-4.69-.25-9.37-.57-14,.36-9.5-1.37-19-.27-28.5.05-5.24.18-10.54.6-15.11-2.84Q1.14,448.74.86,392.85C.69,367.26.63,341.66,0,316.08c-.19-7.73,2.82-12,9.34-15.71Q90.81,253.82,172,206.74c51-29.44,101.74-59.32,153-88.28C380.9,86.89,435.87,53.65,492.32,23,503.14,17.15,513.63,10.66,524,4c5.73-3.7,11.33-5.34,17.81-2.72.27,2.42,2.32,3.06,4,4,18.11,9.58,36.64,18.36,54.3,28.8C620.27,46,641.28,56.33,661.19,68.71c3.26,2,6.76,5.7,11.62,4.79a1.84,1.84,0,0,0,2.68.73c4.46,7,12,8.88,19.12,11.4a2.48,2.48,0,0,0,2.82.87c5.06,5.88,11.12,10.06,19,11.25l2,.86c.29,1.89,1.83,2.58,3.24,3.47,12,7.69,25,13.81,37.17,21.2q31.08,18.85,62.9,36.4c33.55,18.62,67.5,36.52,101.09,55.08,20.38,11.26,39.5,24.55,58.35,38.18,8.16,5.9,11.64,15.29,14.11,24.22,2.25,8.14,1.7,17.13,1.83,25.76.63,41.54-1.31,83.07-.16,124.63.43,15.59-1.85,31.26-1.28,46.83,1,27.2-10.2,47.68-32.47,62.11-24.49,15.86-52.21,22.9-80.89,25.16a191.27,191.27,0,0,1-50.72-2.42c-7.15-1.36-13.85-4.88-21.35-4.45l-1.78-.78c-1.58-2.09-3.86-2.09-6.15-2l-.34-.48-.57.12c-1.25-1.72-3-2-5-1.89a15.06,15.06,0,0,0-7.72-4.07,1.72,1.72,0,0,0-2.15-1.3,1.6,1.6,0,0,0-1.6-.87c-3.15-2.52-6.32-5-10.39-5.89-1.89-2.74-5-3.22-7.82-4.3a4.56,4.56,0,0,0-3.94-2.25l.11.1a1.91,1.91,0,0,0-2.27-1.45l-.65-.31-.2-.69-.61.22-2.88-1.66c0-.92-.43-1.36-1.39-1.15a8.85,8.85,0,0,0-5.85-3.17C748.21,521.24,746.71,520.64,745,520.33ZM527.89,139c.21-11.65.32-23.3.68-34.95.12-4.13-1.26-6.61-5.08-8.63-14.07-7.47-28.15-15-41.76-23.22-6-3.63-10.5-3.62-16.31,0-15.79,9.83-32,19-48.27,28-31.94,17.8-63,37.07-95,54.8-26.44,14.67-52.23,30.51-78.64,45.22-8.94,5-12.06,11.77-11.14,21.21a42.84,42.84,0,0,0,5.16,17c7.07,12.66,17.79,21.31,30.08,28.12,21.7,12,45.28,17,69.93,17.87a26.26,26.26,0,0,0,15.11-3.74c31.5-18.61,63.16-36.95,94.79-55.34,24.17-14.06,48.31-28.17,72.61-42,5.89-3.36,8.79-7.53,8.21-14.45A243,243,0,0,1,527.89,139ZM715.2,320.07c-1.74,3.91-1.47,7.28-1.52,10.57q-.54,36.45-1,72.89c-.21,17-.34,34-.66,50.94-.09,4.93.48,9.21,5.38,11.89,13.43,7.32,26.73,14.85,40.17,22.16,6.89,3.74,8.53,2.61,8.59-5.34q.27-31,.58-61.91c.21-22.31.29-44.63.7-66.93.09-4.94-1.32-7.51-6.05-9.89-12.17-6.12-23.83-13.25-35.72-19.93C722.57,322.76,719.56,320.66,715.2,320.07ZM414.4,283.18c9.38,2.81,18.93-.5,28.4,0,9.3.45,18.74.93,27.93-.16s18.91,1.32,28.89-3a452,452,0,0,0-40-22.45A7.7,7.7,0,0,0,452,258c-11.24,6.36-22.52,12.66-33.68,19.16C416.41,278.26,414.31,279.73,414.4,283.18Z"/></g></g></svg>
