<svg xmlns="http://www.w3.org/2000/svg" viewBox="0 0 343.26 388.62"><defs><style>.cls-1{fill:#006993;}</style></defs><title>Asset 4</title><g id="Layer_2" data-name="Layer 2"><g id="Layer_1-2" data-name="Layer 1"><path class="cls-1" d="M145.05,378.45,141,376.21c-1.9-4.27-6-5-9.84-6l0,0c-.31-4.21-3.53-3.31-6.13-3.49a10,10,0,0,0-7.3-5.82c-1.51-2.25-3.79-3.05-6.33-3.38a1.09,1.09,0,0,0-1-1.17c-1.08-3.74-4.44-3.4-7.24-4.05l-.07-.07c-1.51-5.28-6.93-5.74-10.6-8.11-9.6-6.2-18.87-13-29.32-17.86l0,0c-2.4-3.59-6-5-10.06-5.63l-.3-.23c-.7-3-2.85-3.94-5.66-3.89l-.19-.17c-2.57-4.65-7.22-6.24-11.77-7.95a21.22,21.22,0,0,0-10-6.12,6,6,0,0,0-6.07-3.84l-.42-.55-.68.13c-.95-2.09-2.42-3.49-4.83-3.62l-.14-.11a6.68,6.68,0,0,0-5.94-3.58c-1.5-2.17-3.17-4.1-6-4.44-2.25-12.62-.21-25.26.26-37.83C3.16,198,5.73,147.81,7.82,97.56c.32-7.74,3-12.45,10.37-16.18,35.59-18,71.46-35.5,106.43-54.75C142.33,16.87,161,8.82,179.19,0c6.63,2.29,12.47,6,18.28,9.84,10.22,6.68,20.38,13.47,30.66,20.07,20,12.86,40,25.76,60.15,38.34,9.24,5.75,17.64,13,28.14,16.6l.08-.59,0,.59c5.57,6.77,13.65,10.24,20.56,15.2,5,3.61,6.55,7.5,6.17,13.4-1.38,21.25-2.56,42.52-3.42,63.79-1.56,38.58-3,77.16-4.08,115.75-.2,7.42-3.06,11.5-9.5,14.61C311,315,295.92,322.75,280.86,330.5,246.94,348,213.16,365.77,179,382.87c-5.85,2.93-12,7.71-19.61,4.89l.08.06c-.76-3.6-4.06-2.79-6.38-3.67h0C151.49,380.74,149.12,378.38,145.05,378.45Zm10.56-88.71h-.09c.74-20.29,1.57-40.58,2.2-60.88.23-7.45-1.3-8.57-7.8-5.3-14.56,7.32-28.85,15.16-43.43,22.43-4.66,2.32-5.83,5.67-6,10.39C99.86,276,99.44,295.66,98,315.23c-.7,9.74,2.4,15.86,11.51,19.12,1.5.54,2.76,1.77,4.14,2.66,10.56,6.79,20.94,13.89,31.78,20.22,6,3.48,7.37,2.34,7.67-4.62C154,331.65,154.79,310.7,155.61,289.74Zm-73-31.9L72,263.25c-11.22,5.69-22.49,11.27-33.63,17.11-5.75,3-5.85,5.88-.64,9.13Q55.79,300.78,73.93,312c4.09,2.52,6.43,1.73,6.67-2.9C81.46,292.59,81.94,276.1,82.63,257.84Z"/></g></g></svg>