<svg xmlns="http://www.w3.org/2000/svg" viewBox="0 0 379.45 395.95"><defs><style>.cls-1{fill:#006993;}</style></defs><title>Asset 5</title><g id="Layer_2" data-name="Layer 2"><g id="Layer_1-2" data-name="Layer 1"><path class="cls-1" d="M215.19,2C235.43,1.35,255.68.84,275.91.05c12.14-.48,23.66,2.72,35.14,5.74,16.57,4.37,30.66,13.69,44.78,23.15,19.11,12.79,24.79,31.19,23.43,52.56a70.94,70.94,0,0,1-4.49,21.24c-2.77,7.16-1.85,15.69-3,23.56-4.4,31-5.4,62.23-7.7,93.38-.39,5.31-.79,10.61-1.29,15.91-.44,4.66-.54,9.15,1.3,13.7,2.81,7,.41,14.54,1.83,21.73-.09,1.36-.18,2.71-.28,4.07-2.25,5.14-4.39,10.33-6.78,15.4-2.86,6.05-6.11,12-11.86,15.75a253.13,253.13,0,0,1-22.22,13.24c-39.92,20.43-81.43,37.49-121.75,57.06-11.9,5.78-24.68,9.68-35.91,16.86-3-.45-5.34,1.29-7.8,2.55l-3.69-.25c-14.7-10.12-29.3-20.37-44.1-30.33-34.06-22.95-68.1-45.94-102.43-68.49C1.65,292-1,286.24.32,277.75,2,266.9,1.23,255.91,1.66,245a82.15,82.15,0,0,0,1.12-22c2.84-25.31,2.89-50.8,4.77-76.18.34-4.59.14-9.22.19-13.84.39-3.55.81-7.11,1.15-10.67,1-10.07.3-20.26,2.4-30.24L11.9,92l-.1-.58,1.84-1.76.6.11.13-.61,28.9-14.23c11.47-5.12,23-10.15,34.41-15.37q22.56-10.3,45-20.86c16.49-7.77,32.9-15.71,49.34-23.57v.3l.15-.34L179.26,12c4-.92,8.31-1,11.31-4.41,5.22.08,9.89-2.05,14.68-3.7,1.65.62,2.83-.18,3.88-1.32ZM167.72,370.89c2.36.89,4.17-.09,6-.91,15.74-7.16,31.38-14.55,47.24-21.44,7.48-3.26,10-8.74,10.32-16.4,1.17-26.26,2.62-52.51,4-78.76.69-13,1.58-25.92,2.18-38.88.33-6.89-.2-7.55-7.15-7.09-15.61,1-31,3-45.8,8.85-6.6,2.59-9.81,5.79-10.18,13.58-1.75,36.91-4.44,73.77-6.5,110.67C167.25,350.43,167.72,360.41,167.72,370.89Zm81.62-38.07c1.38,0,2.46.28,3.29-.05,18.87-7.5,36.65-17.4,55.21-25.6,3.24-1.43,3.6-4.26,3.94-7.41,2.34-21.87,2.4-43.87,4.11-65.77.33-4.19-.94-6.75-4.79-8.74a154.11,154.11,0,0,0-39.88-14.6c-14.53-3-15.5-2.43-16.37,11.75C253,253,251,283.52,249.3,314.09,249,320.28,248,326.57,249.34,332.82ZM155,230l-52.09,24.77a6.92,6.92,0,0,0-4.06,6.36c-1.25,22.59-2.48,45.17-3.82,67.76a6.73,6.73,0,0,0,3.38,6.62c13,8.6,25.81,17.48,38.94,25.86,11.33,7.23,11.37,7,12.09-6.73,1.73-32.88,3.67-65.75,5.31-98.64C155.15,247.81,156.14,239.61,155,230Zm168.28-90.19c-8.22,3.82-14.75,7-21.4,9.91-4.53,2-6.23,5.29-6.41,10.12-.27,6.94-1.09,13.86-1.69,20.79-1.66,19.12-1.67,19.12,16.68,25.27,5.67,1.91,7.17,1.34,8-4.34.81-5.9.76-11.91,1.23-17.85C320.77,169.51,322,155.35,323.28,139.77ZM80.52,264.93c-16,7-29.77,14.95-44.63,20.5-5.1,1.9-5.23,4.66-1,7.56,11.18,7.58,22.38,15.16,33.71,22.51,2.27,1.48,4.73,3.7,8.33,2.16C79.83,300.68,79,283.46,80.52,264.93Zm270.19-138.1c-6.34,1.19-8.78,4.85-8.94,10.58-.13,4.31-.54,8.61-.9,12.9-1.75,20.5-3.56,41-5.25,61.49-.27,3.25-.95,6.66,1.3,9.63.8,1,1.51,2.41,3,2.21a3.15,3.15,0,0,0,2.58-2.65,58.29,58.29,0,0,0,.72-5.9c1-10.9,2.08-21.8,3-32.71C347.76,164,349.2,145.52,350.71,126.83Zm-70.16,34.5c-1.39,0-2.46-.29-3.26,0-3.65,1.56-7.28,3.19-10.81,5-8,4.13-12,12.85-8.71,22.62,2.17,6.53,9.4,4.09,14.49,5.32a8.09,8.09,0,0,0,1,.08c3.22.24,5.27-1.43,5.5-4.43C279.5,180.51,281.12,171.07,280.55,161.33Zm49.82,131.21C350.18,280.32,348.55,255,334,246,330.94,261.07,332.28,276.29,330.37,292.54ZM217.49,190.7c5.87,0,9.75.17,13.61,0,8-.42,8.71-1.54,7-10.69C231.52,182.88,224.79,185.24,217.49,190.7Z"/></g></g></svg>