<svg xmlns="http://www.w3.org/2000/svg" viewBox="0 0 342.23 316.74"><defs><style>.cls-1{fill:#006993;}</style></defs><title>Asset 7</title><g id="Layer_2" data-name="Layer 2"><g id="Layer_1-2" data-name="Layer 1"><path class="cls-1" d="M169.66,311.75c-50.29-1.08-100.54-2.81-150.88-1.49C.7,310.73.18,315.13.23,292.38Q.44,203.45.09,114.51C0,92.8-1.79,96.47,17.3,85.67Q85.57,47,153.74,8.25c2.32-1.31,4.87-2.32,6.93-3.95,8-6.33,15.62-5.09,23.74,0,24.71,15.38,49.8,30.15,74.32,45.83,26,16.65,51.51,34.21,77.44,51,4.56,3,6.15,6.16,6.05,11.34-.26,13.88-.06,27.77-.11,41.65-.13,35.16-.14,70.33-.54,105.49-.19,16.63-1,33.27-1.82,49.89-.33,7-1.59,7.44-8.61,7.22-20.54-.65-41.1-.85-61.64-1.49C236.21,314.17,202.94,312.91,169.66,311.75ZM184.53,28c-2.54,9-1.49,17-1.82,24.82-.4,9.64-.24,19.3-.43,28.94-.08,3.84.81,6.49,5.36,6.56,13.3.21,26.6.55,39.9.8,3.23.06,5.05-1.62,5-4.85-.19-6.3.38-12.57-.05-18.9a16.15,16.15,0,0,0-8.35-13.7C211.34,44,198.54,36.34,184.53,28Zm67.4,41.46c-1.93,5.94-.88,11.25-1.1,16.48-.13,3,1.11,4.36,4,4.33,9.43-.08,18.91,1.69,29.9-.35Z"/></g></g></svg>