<svg xmlns="http://www.w3.org/2000/svg" viewBox="0 0 793.92 638.24"><defs><style>.cls-1{fill:#006993;}</style></defs><title>Asset 11</title><g id="Layer_2" data-name="Layer 2"><g id="Layer_1-2" data-name="Layer 1"><path class="cls-1" d="M631.46,53.91c3.53,3.21,7.22,6.14,12.08,7.08,14.23,9.07,28.64,17.82,43.14,26.48,15.86,9.46,31.16,19.87,46.81,29.7,17.37,10.91,34.93,21.51,52.24,32.51,5.17,3.28,8.8,7.59,8.11,14.76-1,9.89-1,19.86-1.33,29.8-1.24,33.93-2.56,67.85-3.63,101.78-.47,15-.47,30-.55,45,0,6.11-1.78,10.78-7.62,13.93-20.45,11-40.6,22.63-61.13,33.52-32.85,17.43-66.05,34.19-98.84,51.74-38.62,20.66-77.68,40.47-116.63,60.48-37.51,19.26-74.77,39-112,58.89-4.26,2.27-9.61,3.22-12.45,7.86l-2.19,1c-9.13,3-17.86,6.72-25.16,13.18l-2.84,1.25c-1.36-.57-2.54-.09-3.75.54q-25.51,13.29-51.07,26.55c-1.47.77-2.95,1.52-3.5,3.28A5.11,5.11,0,0,0,287.5,615c-3.94-.85-7,1.63-10,3.24-15.89,8.45-31.89,16.56-49.81,19.9-20,1.14-35.59-9.56-51.22-19.59-6.54-4.2-9.92-11.55-12.43-18.86a135.7,135.7,0,0,1-6.81-29.13,10.8,10.8,0,0,0-4.65-8.23,152.1,152.1,0,0,0-36.73-19.91c-5.89-2.29-11.11.84-16.67.89-2.53,0-4.78,1.53-7.68.34-8.32-3.39-17.12-2.65-25.62-1.06a32.07,32.07,0,0,1-23-4.22,245.38,245.38,0,0,1-28-19C7.52,513.46,3.63,505.86,2,496.47c-6.54-38.24,3.09-72.46,24.7-104,6-8.8,12.74-17.07,19.32-25.45,18.23-23.22,42.6-37.89,68.88-49.87q20.91-9.52,42.14-18.33c9.94-4.1,18.86-9.85,27.83-15.61,4.5-2.89,5.62-7.11,5.86-12,1.55-30.61,3.05-61.21,4.71-91.81,1.5-27.6,3.29-55.19,4.68-82.8.3-6,2.42-9.44,8.12-12.1C258,61.33,307.5,37.53,356.15,12c6.19-3.24,12.41-6.44,18.47-9.92,5.19-3,9.83-2.76,14.91.53,42.45,27.48,86.71,52,129.69,78.61q10.6,6.55,21.21,13.08c5.69,3.5,10.23,2.93,15.75.13C572.82,86,588.74,76.25,605,67.12c7.52-4.24,14.93-8.67,22.4-13A5.37,5.37,0,0,0,631.46,53.91Zm-594.55,419c-.15,10.5,1.59,20.47,7.59,29.46,3,4.46,6.67,7.46,12.1,7.67,10.07.39,19.84-.63,29.21-5C129,485,171.31,463.25,213.87,442c7.43-3.71,14.87-7.42,22.16-11.4,5.69-3.11,5.68-4.79.54-8.06-10.65-6.77-21.2-13.71-32-20.28-25.78-15.7-51.85-30.93-77.39-47-7.22-4.55-12.68-3.65-19,.73-21,14.71-38.51,32.76-51.53,55C45.47,430.06,36.83,450.1,36.91,472.91Zm621-224.8c1.05,3.07,3.86,4.32,6.34,5.89q31.61,19.9,63.24,39.76c8.15,5.11,16.28,10.28,24.6,15.11,4.3,2.49,5.92,1.53,6.68-3.14a33,33,0,0,0,.15-4c1.36-33.54,2.77-67.08,4-100.63.12-3.18,1.94-7.45-.85-9.43-3.49-2.48-6.76,1.27-9.81,2.94Q708,218.82,663.93,243.21C661.7,244.44,658.76,245,657.92,248.11ZM344.88,87.7c.21-16.23-6.5-21.83-18.92-18.79a34.69,34.69,0,0,0-19.42,13.25c-6.8,9-13,18.45-19.22,27.88-3.53,5.38-3.24,7,2.21,10.59,7.45,5,15.3,9.3,22.83,14.13,3.84,2.45,6,.93,8.15-2.29,5.73-8.55,11.94-16.8,17.3-25.57C342,100.1,344.62,92.53,344.88,87.7Zm121,225.89c8.08-4.1,15.84-7.79,23.34-11.94,4.36-2.42,4.27-4.41,0-7q-37.87-23.55-75.82-47c-1.19-.73-2.35-1.32-3.53-.22a2.72,2.72,0,0,0-.44,3.62,24.36,24.36,0,0,0,8.55,8.15c10.4,6.49,20.59,13.34,31.27,19.33C459,284,463,292.25,463.77,302.86,464,306.08,463.06,309.5,465.83,313.59ZM198.55,583.81c.53,16.3,9.91,24.12,24,20.14,1.25-.36,2.58-.68,3-2.22a2.84,2.84,0,0,0-1.38-3.38C215.06,594.54,208.13,586.89,198.55,583.81Z"/></g></g></svg>