<svg xmlns="http://www.w3.org/2000/svg" viewBox="0 0 728.47 471.53"><defs><style>.cls-1{fill:#006993;}</style></defs><title>Asset 9</title><g id="Layer_2" data-name="Layer 2"><g id="Layer_1-2" data-name="Layer 1"><path class="cls-1" d="M504.33.87a4.57,4.57,0,0,0,3.95.56c2.4,2.23,5.18,2,8,1.22a28.81,28.81,0,0,0,12.08.62c3,2.27,6.46,2,9.93,1.48a7.6,7.6,0,0,0,6,.72,76.15,76.15,0,0,0,26.06,5.44c8.1,2.44,16.07,5.57,24.79,5.08,2.23,3.94,6.62,4,10.16,5.33a267.74,267.74,0,0,1,43.94,20.06c8.5,4.92,16,11.48,25.16,15.25l1.83,1.14c2.3,3.87,5.31,6.81,10,7.56l.51.31a80.47,80.47,0,0,0,20.8,20.55l.17.15c2,6.32,5,12,10.2,16.33a1.92,1.92,0,0,0,.54,2.79c-.88,4.69,2,8.36,3.73,12.17,5.18,11.52,6.9,23.41,6.2,35.94-.52,9.26-.1,18.57-.1,27.85,0,52-.11,103.91,0,155.86.09,27.88-13.12,49.38-33.46,66.32-23.47,19.54-50,33.85-80.36,40.46-17.2,3.75-34.07,9-51.5,11.76-20.45,3.21-41.08,3.73-61.75,3.39a83.7,83.7,0,0,0-8.9.76,5.16,5.16,0,0,0-4-.34,5,5,0,0,0-4.36-1.88c-10.33-.19-20.37-2.52-30.54-3.93-11.12-1.54-21.69-6.07-33.1-5.89a4.43,4.43,0,0,0-3.83-.67c-13.78-5.42-27.53-10.95-42.16-13.78l-.55-.49-.71.23c-1.86-3.12-5.3-3.79-8.21-5.27-10.26-5.23-21.31-8.52-31.08-15.27-5.69-3.93-11.51-9.05-18.95-10.37a1.84,1.84,0,0,0-2.39-1.14c-2.45-1.72-4.46-4.29-7.91-4a3.64,3.64,0,0,0-3.95-2.37c-.93-1.62-2.43-1.75-4.05-1.52-4.76-5.27-9.78-3.87-15.22-1-15.22,8.1-30.56,16-45.86,23.94C214,427.36,192.54,438.58,171,449.66c-12.65,6.52-25.43,12.78-38.11,19.24a21.58,21.58,0,0,1-12.46,2.5l-.07-.06c-1.33-3.87-4.67-4.8-8.14-5.55l-.52-.59-.79,0c-4-4.5-8.55-8.23-14.72-9.37l-.36-.22a17,17,0,0,0-11.71-7.3,3.76,3.76,0,0,0-3.83-2.74c-.62-2.09-2.21-2.33-4-2.09a4.11,4.11,0,0,0-3.11-2.36c-5.27-5.48-11.78-9-18.8-11.66a3.29,3.29,0,0,0-3.45-2.26c-1.9-3.35-5-4.77-8.62-5.51l-.21-.21c-.83-3-3.11-3.67-5.84-3.64a7.36,7.36,0,0,0-6.13-4.34c-.83-2.48-3.29-3.06-5.11-4.38-8.23-6-17.38-10.72-25-17.59a28.9,28.9,0,0,0,.4-10c2.34-6.43,1.1-13.12,1.42-19.71Q5.39,288.19,9,214.54c.25-4.93,0-10,2.08-14.71Q69,169.59,126.83,139.33c8.52-4.46,17.58-7.88,25.58-13.32,24.55-11.82,49-23.73,73.05-36.61,38.37-20.59,76.87-40.91,116-60a244,244,0,0,1,62.19-21c2.93-.54,5.79-1.46,8.68-2.21a2.89,2.89,0,0,0,4-.8l19.91-2.81a3.4,3.4,0,0,0,4.13-1.08c4.68.66,9.14-.51,13.62-1.55,12.73,1.35,25.48,1.18,38.23.66a5.11,5.11,0,0,0,4,0A12.87,12.87,0,0,0,504.33.87ZM142.65,252.33c3.31.32,5.53-1.37,7.83-2.55q34.19-17.52,68.31-35.2c22.18-11.43,44.48-22.62,66.47-34.4,5.3-2.83,9.21-2.19,13.76.78,6.66,4.33,13.46,8.47,20.31,12.5,2.67,1.59,5.28,1.73,5.43-2.51q1.13-33.4,2.17-66.82c.09-3-1.56-4.85-4.06-6.34C311.44,111,300,104.23,288.72,97.14c-4.78-3-8.8-3-13.87-.31-15.22,8.23-30.75,15.9-46.15,23.81-24.24,12.44-48.33,25.18-72.78,37.2-7.62,3.75-10.68,8.83-10.77,17-.15,14.64-1,29.26-1.38,43.9C143.48,229.94,141.77,241.09,142.65,252.33Zm25.68,154.56c2,1.2,3.4,1,4.57.38,21.9-11.25,43.76-22.58,65.69-33.77,4.56-2.33,5.67-6,5.62-10.71q-.14-13,.11-26c.3-16,.28-32,1.43-47.92.49-6.73-1.22-8.08-6.28-5.51-21.06,10.68-42,21.61-63.05,32.31-4.72,2.4-6.67,5.93-6.79,11.13-.25,10.65-1.1,21.29-1.25,31.93C168.16,375,168.33,391.18,168.33,406.89Zm-134.78-104c-1.95,13.31-.49,31-2.55,48.56-.45,3.84,1.56,4.76,4.87,3.3,2.13-.93,4.24-1.92,6.3-3,20.65-10.72,41.22-21.6,62-32.1,4.57-2.31,6.29-5.36,6.27-10.17a141.56,141.56,0,0,1,.56-16c.6-5.42-1.76-8.62-6.07-11.42-19.5-12.62-38.86-25.44-58.3-38.13a32.59,32.59,0,0,0-6.17-3.21,2.57,2.57,0,0,0-3.69,2.14,70,70,0,0,0-.77,7.93C35.21,266.77,34.48,282.72,33.55,302.88ZM514.28,173.05c-1.36-2.67-1.56-3.85-2.24-4.29-10.78-7.1-21.64-14.1-32.45-21.16-2.74-1.78-5.41-2.28-8.34-.42-2,1.24-4.08,2.23-6.12,3.36-30.52,16.86-60.79,15.81-91.25-.56-5.28-2.84-9.51-8.48-16.89-8-2.58,16.21-2.05,32.28-1.74,49.39C407,173.71,459.24,167.31,514.28,173.05ZM108.94,352.65c-1.73-.19-2.52-.54-3-.29-18.28,9.41-36.59,18.79-54.76,28.42-4.24,2.24-4.15,4,.12,7.25,11.58,8.91,24.33,16.08,36.57,24,5.74,3.72,11.57,7.3,18.82,11.85C109,399.27,108.29,375.9,108.94,352.65ZM115.39,179c-4.88,2.61-8.63,4.63-12.4,6.63C88,193.51,73,201.31,58.15,209.41c-4.53,2.46-4.42,4.13-.13,7q23.53,15.67,47.17,31.19c5.72,3.76,7.46,3.13,7.93-3.9q1.41-20.88,1.69-41.82C114.91,194.65,117.12,187.48,115.39,179ZM321.56,335.17h1c0-6-.55-12,.12-17.94,1.06-9.16-3.13-14.34-11.08-17.66-5-2.08-6.53-1.5-6.77,4.14-.62,14.59-.48,29.24-1.59,43.79-.61,7.95,2.5,12.39,9.08,15.81,6.73,3.49,8.76,2.69,9.16-5.23C321.86,350.46,321.56,342.8,321.56,335.17Z"/></g></g></svg>