<svg xmlns="http://www.w3.org/2000/svg" viewBox="0 0 297.21 370.63"><defs><style>.cls-1{fill:#006993;}</style></defs><title>Asset 6</title><g id="Layer_2" data-name="Layer 2"><g id="Layer_1-2" data-name="Layer 1"><path class="cls-1" d="M34.64,45.21c10.28-4.37,20-9.8,29.79-15.16,6.59-2.12,12.31-5.83,17.94-9.73a20.81,20.81,0,0,0,9.23-3.83c14-6.13,28.18-12.1,43.47-14.12C155.52-.34,175.83-1,196.61,1.82a196.6,196.6,0,0,1,64.28,20.53c25.11,13,39.2,34.21,35.82,62.16-.95,7.91-2.94,15.69-3.8,23.59-2.79,25.51-3.08,51.16-4,76.77-.7,19.59-1.65,39.16-2.4,58.75-.1,2.63-.33,5.54.61,7.89,3.34,8.35,2.5,17,2.67,25.61.32,16.68-7.53,29.17-19.5,39.65a100.7,100.7,0,0,1-21.47,14.49c-23.17,11.51-45.27,25.11-69.11,35.32-1.52.65-3.09,1.22-4.55,2-6.59,3.5-12.35,2.28-18.45-1.85Q107.54,333.4,58,300.58,33.07,284,7.51,268.39C1.6,264.79-.3,260.73,0,253.82c2.3-47.58,4-95.19,6.19-142.78.68-15,2.21-29.86,3.18-44.8.36-5.48,2.44-9,7.74-11.56C23.08,51.8,29.46,49.55,34.64,45.21ZM174.83,347.32c17.8-9.11,34.2-17.77,50.85-25.9,8-3.89,12.8-8.83,11.11-18.36-.52-2.89,0-6,.07-9,.52-17.27.88-34.55,1.7-51.81.28-5.89-1.78-9.42-7.2-11.46-6.83-2.58-13.41-5.92-20.38-8a185.16,185.16,0,0,0-24.31-5.32c-8-1.24-8.56-.47-9,7.34-.33,5.64-.57,11.28-.88,16.92-1,17.92-.79,35.87-1.75,53.8C174.13,312.39,174.83,329.28,174.83,347.32Zm66.3-202.47c-6.69,2.29-12.55,6.08-18.88,8.69-5.7,2.35-7.2,6.22-7.27,11.63-.1,8-.41,16-.5,23.94,0,5-2,10.67.51,14.69s8.43,4.64,13.15,6.09c.94.29,1.76.93,2.67,1.31,7.55,3.13,8.64,2.54,9-5.36.53-11,1-21.93,1.26-32.9C241.29,163.72,241.13,154.49,241.13,144.85ZM265,230.37c1.26-34,2.48-66.84,3.71-100.12-5.8,1.44-7.81,4.38-8,8.92Q259.4,179.57,258,220C257.81,224.28,258.77,227.88,265,230.37Zm-65.78-64.52c-5.14,2.48-9.45,4.78-13.94,6.66-5,2.09-6.5,5.53-6.59,10.9-.26,15.46-.51,15.33,14.7,17.22,3.58.45,4.85-.65,5.1-4C199.2,186.77,200,176.92,199.22,165.85ZM256,249.65v51.07C272.49,285.75,274,268.7,256,249.65Z"/></g></g></svg>