<svg id="_1" data-name="1" xmlns="http://www.w3.org/2000/svg" viewBox="0 0 4800 4800"><defs><style>.cls-1{fill:#fff;}.cls-2{fill:#9acbff;}.cls-3,.cls-4{fill:none;}.cls-3,.cls-5{stroke:#037cff;}.cls-3,.cls-4,.cls-5{stroke-linecap:round;stroke-linejoin:round;stroke-width:7.79px;}.cls-4{stroke:#fff;}.cls-5{fill:#efd912;}</style></defs><title>1</title><polygon class="cls-1" points="3669.24 1966.41 3669.24 2121.72 3507.18 1959.65 3507.18 1804.34 3606.68 1903.85 3648.2 1945.38 3669.24 1966.41"/><polygon class="cls-1" points="3507.18 1804.34 3507.18 1959.65 3482.09 1984.72 3443.26 2023.56 3354.53 2112.28 3285.26 2181.55 3232.65 2234.18 3232.65 2078.87 3354.53 1956.97 3443.26 1868.26 3482.09 1829.42 3507.18 1804.34"/><polygon class="cls-1" points="3232.65 2078.87 3232.65 2234.18 3224.7 2262.37 3217.01 2289.73 3217.01 2258.29 3217.01 2134.42 3232.65 2078.87"/><polygon class="cls-1" points="3217.81 1533.85 3217.81 1689.16 3082.43 1824.54 3082.43 1669.23 3145.54 1606.12 3217.81 1533.85"/><polygon class="cls-1" points="3217.81 1533.85 3145.54 1606.12 3145.54 1598.01 3145.54 1461.58 3154.98 1471.03 3217.81 1533.85"/><polygon class="cls-1" points="3185.17 2321.56 3181.4 2325.32 3181.4 2319.58 3181.4 2239.51 3181.4 2170.01 3198.67 2152.75 3217.01 2134.42 3217.01 2258.29 3217.01 2289.73 3185.17 2321.56"/><path class="cls-1" d="M3181.4,2319.58v5.74l-12.16-12.16-43-43-14.77-14.77q17.31-17.28,34.56-34.56c-1.91-1-3.81-2-5.72-3l-5.73-3-5.72-3-5.74-3-5.72-3-5.73-3q-2.85-1.51-5.73-3l-5.73-3-5.72-3-5.73-3c-1.9-1-3.81-2-5.73-3l-5.73-3c-1.91-1-3.81-2-5.72-3l-5.73-3c-1.9-1-3.83-2-5.73-3s-3.82-2-5.73-3l-5.72-3-5.73-3-5.73-3-5.73-3-5.72-3-5.73-3c-1.92-1-3.82-2-5.73-3l-5.73-3-5.72-3c-1.08-.55-2.16-1.12-3.23-1.7h0l-400.18-400.19V1588.06l67.4,67.4h0l44.24,44.23h0l90.68,90.67h0L2851.4,1840h0l19.42,19.41h0l76,76h0l10.77,10.77h0l6.46,6.47L3181.4,2170v149.57Z"/><polygon class="cls-1" points="3154.98 1452.14 3145.54 1461.58 3145.54 1598.01 3069.76 1522.23 3069.76 1366.93 3154.98 1452.14"/><polygon class="cls-2" points="3145.54 1598.01 3145.54 1606.12 3082.43 1669.23 3002.6 1589.39 3013.66 1578.33 3013.66 1485.57 3020.14 1479.09 3023.37 1475.86 3028.23 1480.71 3052.5 1504.97 3052.5 1539.5 3069.76 1522.23 3145.54 1598.01"/><polygon class="cls-1" points="3082.43 1669.23 3082.43 1824.54 3050.34 1792.45 3050.34 1698.09 2978.88 1626.62 2925.49 1573.23 2925.49 1512.29 2931.42 1518.21 3002.6 1589.39 3082.43 1669.23"/><polygon class="cls-1" points="3069.76 1366.93 3069.76 1522.23 3052.5 1539.5 3052.5 1504.97 3052.5 1411.36 3023.37 1440.47 3013.66 1450.18 3013.66 1485.57 3013.66 1578.33 3002.6 1589.39 2931.42 1518.21 2925.49 1512.29 2925.49 1511.2 2947.87 1488.82 2947.87 1488.81 2962.16 1474.53 2962.16 1474.52 2991.56 1445.13 2991.56 1445.12 3013.66 1423.02 3023.37 1413.32 3023.37 1413.31 3052.5 1384.19 3069.76 1366.93"/><polygon class="cls-1" points="3069.76 1366.93 3052.5 1384.19 3023.37 1413.31 3023.37 1320.55 3028.23 1325.41 3067.06 1364.23 3069.76 1366.93"/><polygon class="cls-1" points="3052.5 1411.36 3052.5 1504.97 3028.23 1480.71 3023.37 1475.86 3023.37 1440.47 3052.5 1411.36"/><polygon class="cls-1" points="3050.34 1805.39 3050.34 1853.39 2957.58 1946.17 2957.56 1946.17 2946.79 1935.4 2946.79 1935.39 2946.79 1801.64 2951.1 1797.32 2978.88 1769.56 2978.88 1769.54 3050.34 1698.09 3050.34 1792.45 3050.34 1805.39"/><polygon class="cls-1" points="3050.34 1698.09 2978.88 1769.54 2978.88 1626.62 3050.34 1698.09"/><polygon class="cls-1" points="3023.37 1440.47 3023.37 1475.86 3020.14 1479.09 3013.66 1485.57 3013.66 1450.18 3023.37 1440.47"/><polygon class="cls-1" points="3023.37 1413.31 3023.37 1413.32 3013.66 1423.02 2991.56 1445.12 2991.56 1352.37 3023.37 1320.55 3023.37 1413.31"/><polygon class="cls-1" points="2991.56 1445.12 2991.56 1445.13 2962.16 1474.52 2962.16 1322.97 2991.56 1352.37 2991.56 1445.12"/><polygon class="cls-1" points="2978.88 1626.62 2978.88 1769.54 2978.88 1769.56 2951.1 1797.32 2946.79 1801.64 2916.31 1771.16 2916.31 1716.35 2888.91 1743.76 2875.32 1730.17 2901.22 1704.28 2901.23 1704.28 2916.31 1689.18 2978.88 1626.62"/><polygon class="cls-1" points="2978.88 1626.62 2916.31 1689.18 2901.23 1704.28 2901.22 1704.28 2894.47 1697.53 2894.47 1542.22 2900.94 1548.69 2925.49 1573.23 2978.88 1626.62"/><path class="cls-1" d="M2966.71,2226.62v.29a13.73,13.73,0,0,1-27.45,0v-.32a13.73,13.73,0,0,1,27.45,0Z"/><path class="cls-1" d="M2966.71,2226.91v155.61a13.73,13.73,0,0,1-27.45-.3V2226.94a13.72,13.72,0,0,0,13.73,13.7,13.72,13.72,0,0,0,13.72-13.73Z"/><polygon class="cls-1" points="2962.16 1474.52 2962.16 1474.53 2947.87 1488.81 2947.87 1385.8 2923.59 1361.54 2962.16 1322.97 2962.16 1474.52"/><polygon class="cls-1" points="2947.87 1488.81 2947.87 1488.82 2925.49 1511.2 2924.94 1511.75 2894.47 1542.21 2894.47 1542.22 2837.3 1599.39 2798.47 1638.22 2795.24 1641.46 2792.26 1638.48 2792.26 1541.41 2923.59 1410.07 2947.87 1385.8 2947.87 1488.81"/><polygon class="cls-1" points="2947.87 1385.8 2923.59 1410.07 2923.59 1361.54 2947.87 1385.8"/><polygon class="cls-1" points="2946.79 1801.64 2946.79 1935.39 2870.82 1859.43 2870.82 1859.42 2870.82 1725.67 2875.32 1730.17 2888.91 1743.76 2916.31 1771.16 2946.79 1801.64"/><polygon class="cls-1" points="2925.49 1512.29 2925.49 1573.23 2900.94 1548.69 2894.47 1542.22 2894.47 1542.21 2924.94 1511.75 2925.49 1512.29"/><polygon class="cls-2" points="2916.31 1716.35 2916.31 1771.16 2888.91 1743.76 2916.31 1716.35"/><polygon class="cls-1" points="2894.47 1542.22 2894.47 1697.53 2849.15 1742.84 2837.3 1730.99 2837.3 1651.68 2837.3 1626.56 2808.81 1655.03 2795.24 1641.46 2798.47 1638.22 2837.3 1599.39 2894.47 1542.22"/><polygon class="cls-1" points="2870.82 1725.67 2870.82 1859.42 2851.4 1840.01 2851.4 1840 2851.4 1745.09 2870.82 1725.67"/><polygon class="cls-2" points="2870.82 1725.67 2851.4 1745.09 2849.15 1742.84 2894.47 1697.53 2901.22 1704.28 2875.32 1730.17 2870.82 1725.67"/><polygon class="cls-1" points="2849.15 1742.84 2851.4 1745.09 2851.4 1840 2801.78 1790.39 2801.78 1790.38 2801.78 1695.47 2810.07 1703.76 2837.3 1730.99 2849.15 1742.84"/><polygon class="cls-2" points="2837.3 1651.68 2837.3 1730.99 2810.07 1703.76 2810.07 1703.75 2810.07 1678.92 2837.3 1651.68"/><polygon class="cls-1" points="2837.3 1626.56 2837.3 1651.68 2810.07 1678.92 2810.07 1656.29 2808.81 1655.03 2837.3 1626.56"/><polygon class="cls-1" points="2810.07 1703.75 2810.07 1703.76 2801.78 1695.47 2810.07 1656.29 2810.07 1678.92 2810.07 1703.75"/><polygon class="cls-1" points="2810.07 1656.29 2801.78 1695.47 2801.78 1790.38 2711.1 1699.71 2711.1 1699.7 2711.1 1564.87 2714.88 1561.1 2792.26 1638.48 2795.24 1641.46 2808.81 1655.03 2810.07 1656.29"/><polygon class="cls-1" points="2792.26 1541.41 2792.26 1638.48 2714.88 1561.1 2711.1 1564.87 2666.86 1520.64 2662.55 1524.95 2662.55 1489.33 2662.55 1411.7 2706.24 1455.38 2792.26 1541.41"/><path class="cls-1" d="M2761.6,2019.19V2174.8a13.73,13.73,0,0,1-27.45-.35V2019.21a13.73,13.73,0,1,0,27.45,0Z"/><path class="cls-1" d="M2761.6,2018.89v.3a13.73,13.73,0,0,1-27.45,0v-.32a13.73,13.73,0,0,1,27.45,0Z"/><polygon class="cls-1" points="2711.1 1564.87 2711.1 1699.7 2666.86 1655.47 2666.86 1655.46 2666.86 1520.64 2711.1 1564.87"/><polygon class="cls-1" points="2706.24 1368.01 2706.24 1455.38 2662.55 1411.7 2667.41 1406.84 2706.24 1368.01"/><polygon class="cls-1" points="2706.24 1368.01 2667.41 1406.84 2667.41 1329.17 2706.24 1368.01"/><polygon class="cls-1" points="2667.41 1329.17 2667.41 1406.84 2662.55 1411.7 2662.55 1489.33 2601.07 1550.82 2595.14 1556.75 2595.14 1448.91 2571.41 1425.18 2601.07 1395.51 2667.41 1329.17"/><polygon class="cls-1" points="2666.86 1520.64 2666.86 1655.46 2599.46 1588.06 2662.55 1524.96 2662.55 1524.95 2666.86 1520.64"/><polygon class="cls-1" points="2595.14 1556.75 2595.14 1604.22 2527.72 1671.63 2527.72 1516.33 2571.41 1472.64 2595.14 1448.91 2595.14 1556.75"/><polygon class="cls-1" points="2595.14 1448.91 2571.41 1472.64 2571.41 1425.18 2595.14 1448.91"/><path class="cls-1" d="M2553.89,2226.62v.29a13.34,13.34,0,1,1,0-.3Z"/><path class="cls-1" d="M2552.12,1813.22v.29a13.73,13.73,0,0,1-27.45,0v-.32a13.73,13.73,0,0,1,27.45,0Z"/><path class="cls-1" d="M2552.12,1813.51v155.63a13.73,13.73,0,0,1-27.45-.3v-155.3a13.73,13.73,0,0,0,27.45,0Z"/><polygon class="cls-1" points="2527.72 1516.33 2527.72 1671.63 2450.06 1593.97 2151.26 1295.17 2151.26 1139.87 2450.06 1438.66 2527.72 1516.33"/><path class="cls-1" d="M2526.42,2382.22V2226.94c0-.11,0-.22,0-.32a13.73,13.73,0,1,0,27.46.29v155.61a13.75,13.75,0,0,1-14,13.42,13.74,13.74,0,0,1-13.42-13.72Z"/><path class="cls-1" d="M2444.94,2249.61l.89-9.57.63-9.63.39-9.68.14-9.74V2366.3l-.14,9.73-.39,9.69-.63,9.63-.89,9.58-1.13,9.48-1.37,9.42-1.61,9.33-1.86,9.21-2.07,9.13-2.31,9-2.55,8.9-2.75,8.74-3,8.62-3.17,8.48-3.37,8.33-3.57,8.17-3.75,8-3.93,7.85-4.11,7.68-4.28,7.52-4.43,7.35-4.59,7.16-4.73,7-4.88,6.81-5,6.6-5.13,6.44-5.23,6.24-5.35,6.07-5.45,5.86-5.54,5.68-5.7,5.56-5.89,5.47-6.09,5.37-6.27,5.26-6.47,5.14-6.64,5-6.83,4.88-7,4.75-7.19,4.6-7.39,4.45-7.55,4.28-7.73,4.12-7.89,3.94-8.06,3.76-8.21,3.57-8.38,3.37-8.51,3.17-8.67,3-8.79,2.75-8.93,2.53-9,2.3-9.16,2.06-9.28,1.84-9.37,1.6-9.45,1.36-9.54,1.11-6.4.57h0v-63a13.72,13.72,0,0,0-27.44,0c0,.1,0,.21,0,.32v63.93l-4.93.06-9.81-.15-9.84-.4-9.85-.65-9.85-.92-9.86-1.16-9.84-1.42-9.81-1.66-9.79-1.9-9.73-2.15-9.68-2.38-9.62-2.63-9.55-2.84-9.48-3.08-9.38-3.29-9.29-3.51-9.19-3.72-9.07-3.92-8.95-4.12-8.83-4.29-8.7-4.49-8.56-4.66-8.42-4.83-8.26-5-8.13-5.12-8-5.29-7.78-5.42-7.64-5.54-7.46-5.66-21.53-17.07-19.53-19v-155.3l19.53,19,21.53,17.08,7.46,5.66,7.64,5.54,7.78,5.43,8,5.27,8.13,5.14,8.26,5,8.42,4.83,8.56,4.66,8.7,4.48,8.83,4.31,8.95,4.11,9.07,3.92,9.19,3.71,9.29,3.52,9.38,3.3,9.48,3.06,9.55,2.86,9.62,2.62,9.68,2.39,9.73,2.14,9.79,1.91,9.81,1.66,9.84,1.41,9.86,1.16,9.85.91,9.85.66,9.84.4,9.81.15,9.77-.11,9.73-.36,9.68-.61,9.62-.86,9.54-1.12,9.45-1.35,9.37-1.59,9.28-1.84,9.16-2.07,9-2.3,8.93-2.53,8.79-2.75,8.67-3,8.51-3.17,8.38-3.37,8.21-3.57,8.06-3.75,7.89-4,7.73-4.11,7.55-4.29,7.39-4.45,7.19-4.59,7-4.75,6.83-4.9,6.64-5,6.47-5.14,6.27-5.27,6.09-5.36,5.89-5.46,5.7-5.57,5.54-5.69,5.45-5.86,5.35-6.05,5.23-6.24,5.13-6.44,5-6.62,4.88-6.79,4.73-7,4.59-7.15,4.43-7.35,4.28-7.51,4.11-7.69,3.93-7.85,3.75-8,3.57-8.18,3.37-8.32,3.17-8.47,3-8.62,2.75-8.76,2.55-8.88,2.31-9,.57-2.53,1.44-6.29v0l.06-.28,1.86-9.23,1.61-9.32,1.37-9.41Z"/><polygon class="cls-1" points="2438.97 2287.07 2438.91 2287.35 2436.93 2278.27 2434.6 2268.62 2432.03 2259.02 2429.22 2249.5 2426.2 2240.05 2422.96 2230.68 2419.49 2221.41 2415.83 2212.25 2411.96 2203.19 2407.9 2194.25 2403.66 2185.43 2399.22 2176.74 2394.62 2168.18 2389.84 2159.77 2384.91 2151.51 2379.82 2143.39 2374.59 2135.44 2369.23 2127.64 2361.01 2116.21 2324.26 2069.38 2324.26 1914.08 2361.01 1960.91 2369.23 1972.32 2374.59 1980.12 2379.82 1988.09 2384.91 1996.2 2386.74 1999.26 2389.84 2004.47 2394.62 2012.88 2399.22 2021.43 2403.66 2030.13 2407.9 2038.94 2411.96 2047.89 2415.83 2056.95 2419.49 2066.11 2422.96 2075.38 2426.2 2084.74 2429.22 2094.18 2432.03 2103.71 2434.6 2113.32 2436.93 2122.96 2439.04 2132.67 2440.89 2142.42 2442.52 2152.19 2443.89 2161.99 2445.01 2171.81 2445.88 2181.62 2446.5 2191.43 2446.88 2201.23 2446.99 2210.99 2446.85 2220.73 2446.46 2230.41 2445.83 2240.04 2444.94 2249.61 2443.82 2259.11 2442.44 2268.52 2440.83 2277.84 2438.97 2287.07"/><polygon class="cls-1" points="2426.59 1720.46 2426.59 1875.78 2386.74 1915.63 2386.74 1851.59 2341.1 1805.95 2342.47 1804.59 2348.93 1798.12 2426.59 1720.46"/><path class="cls-1" d="M2426.59,1720.47l-77.66,77.65-353.55-353.54V1289.26l48.55,48.54,67,67h0l2.83,2.82h0l0,0a12.08,12.08,0,0,0,1.05,1.22,13.44,13.44,0,0,0,1.44,1.28l22.1,22.09.17.18,179.24,179.23,2.23,2.23,0,0a13.62,13.62,0,0,0,1.66,2.06,13.1,13.1,0,0,0,2.29,1.87l21.24,21.25h0Z"/><polygon class="cls-1" points="2384.91 1996.2 2379.82 1988.09 2374.59 1980.12 2369.23 1972.32 2361.01 1960.91 2324.26 1914.08 2341.1 1897.23 2386.74 1851.59 2386.74 1915.63 2386.74 1999.26 2384.91 1996.2"/><polygon class="cls-1" points="2386.74 1851.59 2341.1 1897.23 2341.1 1805.95 2386.74 1851.59"/><path class="cls-1" d="M2346.3,2848v.28a13.73,13.73,0,0,1-27.46,0V2848a13.73,13.73,0,0,1,27.46,0Z"/><path class="cls-1" d="M2346.3,2848.23v155.62a13.73,13.73,0,0,1-27.46-.3V2848.27a13.73,13.73,0,0,0,27.46,0Z"/><path class="cls-1" d="M2324,1617.87a13.1,13.1,0,0,1-2.29-1.87,13.62,13.62,0,0,1-1.66-2.06l0,0a13.73,13.73,0,1,1,25.22-7.8h0v.29a13.7,13.7,0,0,1-21.24,11.47Z"/><path class="cls-1" d="M2345.24,1639.12,2324,1617.87a13.7,13.7,0,0,0,21.24-11.47Z"/><path class="cls-2" d="M2524.67,1968.84a13.73,13.73,0,0,0,27.45.3V1813.22h0a13.73,13.73,0,0,0-27.45,0v155.62Zm414.59,413.38a13.73,13.73,0,0,0,27.45.3v-155.9h0a13.73,13.73,0,0,0-27.45,0v155.6Zm-620.42,621.33a13.73,13.73,0,0,0,27.46.3V2847.93a13.73,13.73,0,0,0-27.46,0v155.6Zm415.31-829.1a13.73,13.73,0,0,0,27.45.35V2018.89a13.73,13.73,0,0,0-27.45,0v155.56Zm265.49-30.89h0c1.07.58,2.15,1.15,3.23,1.7l5.72,3,5.73,3c1.91,1,3.81,2,5.73,3l5.73,3,5.72,3,5.73,3,5.73,3,5.73,3,5.72,3c1.91,1,3.82,2,5.73,3s3.83,2,5.73,3l5.73,3c1.91,1,3.81,2,5.72,3l5.73,3c1.92,1,3.83,2,5.73,3l5.73,3,5.72,3,5.73,3q2.88,1.5,5.73,3l5.73,3,5.72,3,5.74,3,5.72,3,5.73,3c1.91,1,3.81,2,5.72,3q-17.27,17.28-34.56,34.56l14.77,14.77,43,43,12.16,12.16,3.77-3.76,31.84-31.83,7.69-27.36,8-28.2,52.61-52.62,69.27-69.27,88.73-88.72,38.82-38.84,25.1-25.07,162.06,162.07L3524.7,2266.26l-12.16-12.16-2.41-2.4-38.83-38.83-2.35-2.36-14.63-14.63-110.2,110.19-77.19,21.74-35.61,35.59L3419,2551.06l-77.66,77.64-110-110-48.67,48.67-7.31-7.3-432.62,13-318.48,318.47-.06,111.16-.07,117.21v.08l-.08-.08v155.31l90.6,90.6L2406.9,3473.6l-341.41-341.43-137.12,66.47-72.8,72.79-1.09-1.08c-.36-.36-.72-.72-1.07-1.09l-1.09-1.09-1.09-1.07-1.09-1.09c-.35-.37-.72-.73-1.08-1.09l-1.09-1.09c-.37-.35-.73-.72-1.09-1.08s-.72-.73-1.08-1.09l-1.09-1.09c-.36-.37-.73-.72-1.09-1.08l-1.08-1.09-1.09-1.09c-.36-.36-.72-.73-1.09-1.08l-1.09-1.09-1.08-1.09-1.09-1.09-1.09-1.08-1.07-1.09-1.09-1.09-1.09-1.07-1.08-1.09-1.09-1.09-1.09-1.08-1.09-1.09c-.35-.37-.72-.73-1.08-1.09l-1.09-1.09-1.09-1.08c-.36-.36-.71-.73-1.08-1.09l-1.09-1.09c-.36-.36-.73-.71-1.09-1.08s-.73-.72-1.08-1.09l-1.09-1.09c-.36-.36-.72-.73-1.09-1.08l-1.09-1.09-1.07-1.09-1.09-1.09-1.1-1.07-1.07-1.09-1.09-1.09-1.09-1.08-1.08-1.09-1.09-1.09c-.36-.37-.73-.73-1.09-1.08l-1.09-1.09-1.08-1.09-1.09-1.09-1.09-1.08c-.36-.36-.71-.73-1.08-1.09l-1.09-1.09-1.09-1.08c-.36-.36-.72-.72-1.07-1.09l-1.1-1.09c-.36-.36-.72-.72-1.09-1.07l-1.09-1.09c-.35-.37-.71-.73-1.07-1.1l-1.09-1.09c-.37-.35-.73-.71-1.09-1.07l-1.08-1.09-1.09-1.09c-.36-.37-.73-.72-1.09-1.08s-.73-.73-1.08-1.09l-1.09-1.09-1.09-1.08-1.09-1.09c-.35-.36-.71-.73-1.08-1.09l-1.09-1.09,74-74,135.31-65.82V2903.5l-104.49,50.82-28.29-28.3-241.49-241.49,77.64-77.66,7.85-7.84,44.05,44,64.19-64.19,19.53,19,21.53,17.07,7.46,5.66,7.64,5.54,7.78,5.42,8,5.29,8.13,5.12,8.26,5,8.42,4.83,8.56,4.66,8.7,4.49,8.83,4.29,8.95,4.12,9.07,3.92,9.19,3.72,9.29,3.51,9.38,3.29,9.48,3.08,9.55,2.84,9.62,2.63,9.68,2.38,9.73,2.15,9.79,1.9,9.81,1.66,9.84,1.42,9.86,1.16,9.85.92,9.85.65,9.84.4,9.81.15,4.93-.06v91.35h0a13.72,13.72,0,0,0,27.44.3c0-.21,0-.4,0-.61v-92.35h0l6.4-.57,9.54-1.11,9.45-1.36,9.37-1.6,9.28-1.84,9.16-2.06,9-2.3,8.93-2.53,8.79-2.75,8.67-3,8.51-3.17,8.38-3.37,8.21-3.57,8.06-3.76,7.89-3.94,7.73-4.12,7.55-4.28,7.39-4.45,7.19-4.6,7-4.75,6.83-4.88,6.64-5,6.47-5.14,6.27-5.26,6.09-5.37,5.89-5.47,5.7-5.56,5.54-5.68,5.45-5.86,5.35-6.07,5.23-6.24,5.13-6.44,5-6.6,4.88-6.81,4.73-7,4.59-7.16,4.43-7.35,4.28-7.52,4.11-7.68,3.93-7.85,3.75-8,3.57-8.17,3.37-8.33,3.17-8.48,3-8.62,2.75-8.74,2.55-8.9,2.31-9,2.07-9.13,1.86-9.21,1.61-9.33,1.37-9.42,1.13-9.48.89-9.58.63-9.63.39-9.69.14-9.73V2211l-.11-9.76-.38-9.8-.62-9.81-.87-9.81-1.12-9.82-1.37-9.8-1.63-9.77-1.85-9.75-2.1-9.71-2.34-9.64-2.57-9.61-2.8-9.52-3-9.45-3.24-9.36-3.47-9.27-3.66-9.16-3.87-9.06-4.06-9-4.25-8.81-4.43-8.7-4.6-8.55-4.78-8.41-3.1-5.21v-83.63l39.85-39.85V1720.47l-81.35-81.34h0v-33h0a13.72,13.72,0,0,0-27.44,0c0,.11,0,.21,0,.33v5.23l-179.24-179.23-.17-.18V1399h0a13.73,13.73,0,0,0-27.45,0c0,.1,0,.22,0,.32v5.48l-67-67v-97.08l-22.67-22.66,10.8-10.8,103.56,103.56,15.64-15.64,298.8,298.8,77.66,77.65,67.42-67.41v-47.47l5.93-5.93,61.48-61.49V1525h0l-63.09,63.1v155.31Zm-473.22,238.66h0a13.73,13.73,0,0,0,27.46.3v-155.9h0a13.75,13.75,0,0,0-13.74-13.42,13.75,13.75,0,0,0-13.72,13.43c0,.1,0,.21,0,.32Z"/><polygon class="cls-1" points="2151.26 1139.87 2151.26 1295.17 2135.62 1310.82 2135.62 1155.51 2151.26 1139.87"/><path class="cls-1" d="M2139.36,2640.84v.34a13.43,13.43,0,1,1,0-.36Z"/><path class="cls-1" d="M2138.38,1399v.29a13.73,13.73,0,0,1-22.1,10.89l-1.33-1.34-1.16-1.16,0,0h0a13.72,13.72,0,1,1,24.63-8.64Z"/><polygon class="cls-1" points="2135.62 1155.51 2135.62 1310.82 2032.06 1207.26 2032.06 1051.96 2135.62 1155.51"/><path class="cls-1" d="M2138.38,1432.26l-22.1-22.09a13.73,13.73,0,0,0,22.1-10.89Z"/><path class="cls-1" d="M2111.92,2796.44h0V2641.16c0-.11,0-.22,0-.32a13.72,13.72,0,1,0,27.44.34v155.56a13.72,13.72,0,0,1-27.44-.3Z"/><polygon class="cls-1" points="2043.93 1240.72 2043.93 1337.8 1995.38 1289.26 2043.93 1240.72"/><polygon class="cls-1" points="2043.93 1240.72 1995.38 1289.26 1995.38 1347.48 1943.61 1295.71 1943.61 1140.4 2021.26 1218.06 2043.93 1240.72"/><polygon class="cls-1" points="2032.06 1051.96 2032.06 1207.26 2021.26 1218.06 1943.61 1140.4 2032.06 1051.96"/><polygon class="cls-1" points="1992.12 2903.5 1992.12 3058.81 1856.81 3124.63 1782.78 3198.64 1782.78 3043.34 1856.81 2969.31 1887.63 2954.32 1992.12 2903.5"/><polygon class="cls-1" points="1811.59 2423.58 1811.59 2578.88 1747.39 2643.07 1747.39 2487.76 1811.59 2423.58"/><polygon class="cls-1" points="1747.39 2487.76 1747.39 2643.07 1703.35 2599.03 1703.35 2443.72 1747.39 2487.76"/><polygon class="cls-1" points="1703.35 2443.72 1703.35 2599.03 1695.49 2606.87 1617.85 2684.53 1617.85 2529.22 1703.35 2443.72"/><line class="cls-3" x1="2135.62" y1="1310.82" x2="2135.62" y2="1155.51"/><line class="cls-3" x1="2151.26" y1="1295.18" x2="2135.62" y2="1310.82"/><polyline class="cls-3" points="2527.72 1516.33 2450.06 1438.66 2151.26 1139.87"/><line class="cls-3" x1="2151.26" y1="1295.18" x2="2151.26" y2="1139.87"/><line class="cls-3" x1="2595.14" y1="1448.91" x2="2571.41" y2="1472.64"/><line class="cls-3" x1="2527.72" y1="1671.63" x2="2527.72" y2="1516.33"/><line class="cls-3" x1="2595.14" y1="1604.22" x2="2527.72" y2="1671.63"/><line class="cls-3" x1="2571.41" y1="1425.18" x2="2595.14" y2="1448.91"/><polyline class="cls-3" points="2667.41 1329.17 2601.07 1395.51 2571.41 1425.18"/><line class="cls-3" x1="2706.24" y1="1368.01" x2="2667.41" y2="1329.17"/><line class="cls-3" x1="2792.26" y1="1541.41" x2="2706.24" y2="1455.37"/><line class="cls-3" x1="2947.87" y1="1385.8" x2="2923.59" y2="1410.07"/><line class="cls-3" x1="2923.59" y1="1361.54" x2="2947.87" y2="1385.8"/><line class="cls-3" x1="2962.16" y1="1322.97" x2="2923.59" y2="1361.54"/><line class="cls-3" x1="2991.56" y1="1352.37" x2="2962.16" y2="1322.97"/><line class="cls-3" x1="3023.37" y1="1320.55" x2="2991.56" y2="1352.37"/><polyline class="cls-3" points="3069.76 1366.93 3067.06 1364.23 3028.23 1325.41 3023.37 1320.55"/><line class="cls-3" x1="3145.54" y1="1461.58" x2="3154.98" y2="1452.14"/><line class="cls-3" x1="3217.81" y1="1533.85" x2="3154.98" y2="1471.03"/><line class="cls-3" x1="3217.81" y1="1689.16" x2="3217.81" y2="1533.85"/><line class="cls-3" x1="3082.43" y1="1824.54" x2="3082.43" y2="1669.23"/><line class="cls-3" x1="3050.34" y1="1853.39" x2="3050.34" y2="1805.39"/><line class="cls-3" x1="2795.24" y1="1641.46" x2="2798.47" y2="1638.22"/><line class="cls-3" x1="3181.4" y1="2170.01" x2="2964.04" y2="1952.64"/><line class="cls-3" x1="2599.46" y1="1743.37" x2="2599.46" y2="1588.06"/><line class="cls-3" x1="3181.4" y1="2325.32" x2="3181.4" y2="2319.58"/><polyline class="cls-3" points="3507.18 1804.34 3482.09 1829.42 3443.26 1868.26 3354.53 1956.97 3232.65 2078.87"/><polyline class="cls-3" points="3669.24 1966.41 3648.2 1945.38 3606.68 1903.85 3507.18 1804.34"/><line class="cls-3" x1="3507.18" y1="1959.65" x2="3507.18" y2="1804.34"/><line class="cls-3" x1="3669.24" y1="2121.72" x2="3669.24" y2="1966.41"/><line class="cls-3" x1="3512.54" y1="2254.1" x2="3524.7" y2="2266.26"/><line class="cls-3" x1="3454.32" y1="2195.88" x2="3468.95" y2="2210.51"/><line class="cls-3" x1="3231.32" y1="2518.71" x2="3341.32" y2="2628.7"/><line class="cls-3" x1="3182.65" y1="2567.38" x2="3231.32" y2="2518.71"/><line class="cls-3" x1="3175.34" y1="2560.08" x2="3182.65" y2="2567.38"/><line class="cls-3" x1="2742.72" y1="2573.1" x2="3175.34" y2="2560.08"/><line class="cls-3" x1="2424.03" y1="3275.25" x2="2424.03" y2="3119.94"/><line class="cls-3" x1="1703.34" y1="2443.72" x2="1617.85" y2="2529.22"/><line class="cls-3" x1="1617.85" y1="2684.53" x2="1617.85" y2="2529.22"/><line class="cls-3" x1="1703.34" y1="2599.03" x2="1695.49" y2="2606.87"/><line class="cls-3" x1="1747.39" y1="2487.76" x2="1703.34" y2="2443.72"/><line class="cls-3" x1="1703.34" y1="2599.03" x2="1703.34" y2="2443.72"/><line class="cls-3" x1="1811.58" y1="2423.58" x2="1747.39" y2="2487.76"/><line class="cls-3" x1="1747.39" y1="2643.07" x2="1747.39" y2="2487.76"/><line class="cls-3" x1="1811.58" y1="2578.88" x2="1747.39" y2="2643.07"/><line class="cls-3" x1="1831.11" y1="2442.57" x2="1811.58" y2="2423.58"/><line class="cls-3" x1="1811.58" y1="2578.88" x2="1811.58" y2="2423.58"/><line class="cls-3" x1="1852.64" y1="2459.65" x2="1831.11" y2="2442.57"/><line class="cls-3" x1="1860.1" y1="2465.31" x2="1852.64" y2="2459.65"/><line class="cls-3" x1="1860.1" y1="2620.62" x2="1852.64" y2="2614.96"/><line class="cls-3" x1="1867.74" y1="2470.85" x2="1860.1" y2="2465.31"/><line class="cls-3" x1="1875.52" y1="2476.28" x2="1867.74" y2="2470.85"/><line class="cls-3" x1="1883.48" y1="2481.55" x2="1875.52" y2="2476.28"/><line class="cls-3" x1="1883.48" y1="2636.87" x2="1875.52" y2="2631.58"/><line class="cls-3" x1="1891.61" y1="2486.69" x2="1883.48" y2="2481.55"/><line class="cls-3" x1="1899.87" y1="2491.67" x2="1891.61" y2="2486.69"/><line class="cls-3" x1="1908.29" y1="2496.5" x2="1899.87" y2="2491.67"/><line class="cls-3" x1="1908.29" y1="2651.81" x2="1899.87" y2="2646.98"/><line class="cls-3" x1="1916.85" y1="2501.16" x2="1908.29" y2="2496.5"/><line class="cls-3" x1="1925.55" y1="2505.64" x2="1916.85" y2="2501.16"/><line class="cls-3" x1="1925.55" y1="2660.96" x2="1916.85" y2="2656.47"/><line class="cls-3" x1="1934.38" y1="2509.95" x2="1925.55" y2="2505.64"/><line class="cls-3" x1="1943.33" y1="2514.06" x2="1934.38" y2="2509.95"/><line class="cls-3" x1="1943.33" y1="2669.37" x2="1934.38" y2="2665.25"/><line class="cls-3" x1="1952.4" y1="2517.98" x2="1943.33" y2="2514.06"/><line class="cls-3" x1="1961.59" y1="2521.69" x2="1952.4" y2="2517.98"/><line class="cls-3" x1="1970.88" y1="2525.21" x2="1961.59" y2="2521.69"/><line class="cls-3" x1="1980.26" y1="2528.51" x2="1970.88" y2="2525.21"/><line class="cls-3" x1="1980.26" y1="2683.81" x2="1970.88" y2="2680.52"/><line class="cls-3" x1="1989.74" y1="2531.57" x2="1980.26" y2="2528.51"/><line class="cls-3" x1="1989.74" y1="2686.89" x2="1980.26" y2="2683.81"/><line class="cls-3" x1="1999.29" y1="2534.43" x2="1989.74" y2="2531.57"/><line class="cls-3" x1="1999.29" y1="2689.73" x2="1989.74" y2="2686.89"/><line class="cls-3" x1="2008.91" y1="2537.05" x2="1999.29" y2="2534.43"/><line class="cls-3" x1="2008.91" y1="2692.36" x2="1999.29" y2="2689.73"/><line class="cls-3" x1="2018.59" y1="2539.44" x2="2008.91" y2="2537.05"/><line class="cls-3" x1="2028.32" y1="2541.58" x2="2018.59" y2="2539.44"/><line class="cls-3" x1="2028.32" y1="2696.89" x2="2018.59" y2="2694.74"/><line class="cls-3" x1="2038.11" y1="2543.49" x2="2028.32" y2="2541.58"/><line class="cls-3" x1="2047.92" y1="2545.15" x2="2038.11" y2="2543.49"/><line class="cls-3" x1="2057.76" y1="2546.56" x2="2047.92" y2="2545.15"/><line class="cls-3" x1="2057.76" y1="2701.87" x2="2047.92" y2="2700.45"/><line class="cls-3" x1="2067.62" y1="2547.72" x2="2057.76" y2="2546.56"/><line class="cls-3" x1="2077.47" y1="2548.63" x2="2067.62" y2="2547.72"/><line class="cls-3" x1="2087.32" y1="2549.29" x2="2077.47" y2="2548.63"/><line class="cls-3" x1="2087.32" y1="2704.6" x2="2077.47" y2="2703.95"/><line class="cls-3" x1="2097.16" y1="2549.69" x2="2087.32" y2="2549.29"/><line class="cls-3" x1="2106.97" y1="2549.84" x2="2097.16" y2="2549.69"/><line class="cls-3" x1="2106.97" y1="2705.15" x2="2097.16" y2="2705"/><line class="cls-3" x1="2116.74" y1="2549.73" x2="2106.97" y2="2549.84"/><line class="cls-3" x1="2126.47" y1="2549.37" x2="2116.74" y2="2549.73"/><line class="cls-3" x1="2136.15" y1="2548.76" x2="2126.47" y2="2549.37"/><line class="cls-3" x1="2145.77" y1="2547.9" x2="2136.15" y2="2548.76"/><line class="cls-3" x1="2155.31" y1="2546.78" x2="2145.77" y2="2547.9"/><line class="cls-3" x1="2164.76" y1="2545.43" x2="2155.31" y2="2546.78"/><line class="cls-3" x1="2164.76" y1="2700.74" x2="2155.31" y2="2702.1"/><line class="cls-3" x1="2174.13" y1="2543.84" x2="2164.76" y2="2545.43"/><line class="cls-3" x1="2183.41" y1="2542" x2="2174.13" y2="2543.84"/><line class="cls-3" x1="2183.41" y1="2697.3" x2="2174.13" y2="2699.14"/><line class="cls-3" x1="2192.57" y1="2539.93" x2="2183.41" y2="2542"/><line class="cls-3" x1="2192.57" y1="2695.24" x2="2183.41" y2="2697.3"/><line class="cls-3" x1="2436.9" y1="2296.19" x2="2434.59" y2="2305.19"/><line class="cls-3" x1="2446.88" y1="2201.23" x2="2446.99" y2="2210.99"/><line class="cls-3" x1="2446.5" y1="2191.43" x2="2446.88" y2="2201.23"/><line class="cls-3" x1="2445.88" y1="2181.62" x2="2446.5" y2="2191.43"/><line class="cls-3" x1="2445.01" y1="2171.81" x2="2445.88" y2="2181.62"/><line class="cls-3" x1="2443.89" y1="2161.99" x2="2445.01" y2="2171.81"/><line class="cls-3" x1="2442.52" y1="2152.19" x2="2443.89" y2="2161.99"/><line class="cls-3" x1="2440.89" y1="2142.42" x2="2442.52" y2="2152.19"/><line class="cls-3" x1="2439.04" y1="2132.67" x2="2440.89" y2="2142.42"/><line class="cls-3" x1="2436.94" y1="2122.96" x2="2439.04" y2="2132.67"/><line class="cls-3" x1="2436.94" y1="2278.27" x2="2438.91" y2="2287.35"/><line class="cls-3" x1="2999.64" y1="2143.56" x2="2599.46" y2="1743.37"/><polyline class="cls-3" points="2527.72 1671.63 2450.06 1593.97 2151.26 1295.17"/><line class="cls-3" x1="3082.43" y1="1824.54" x2="3217.81" y2="1689.16"/><polyline class="cls-3" points="3507.18 1959.65 3482.09 1984.72 3443.26 2023.56 3354.53 2112.28 3285.26 2181.55"/><line class="cls-3" x1="2424.24" y1="2904.51" x2="2424.24" y2="2891.57"/><line class="cls-3" x1="1747.39" y1="2643.07" x2="1703.34" y2="2599.03"/><line class="cls-3" x1="1831.11" y1="2597.89" x2="1811.58" y2="2578.88"/><line class="cls-3" x1="1852.64" y1="2614.96" x2="1831.11" y2="2597.89"/><line class="cls-3" x1="1867.74" y1="2626.16" x2="1860.1" y2="2620.62"/><line class="cls-3" x1="1875.52" y1="2631.58" x2="1867.74" y2="2626.16"/><line class="cls-3" x1="1891.61" y1="2641.99" x2="1883.48" y2="2636.87"/><line class="cls-3" x1="1899.87" y1="2646.98" x2="1891.61" y2="2641.99"/><line class="cls-3" x1="1916.85" y1="2656.47" x2="1908.29" y2="2651.81"/><line class="cls-3" x1="1934.38" y1="2665.25" x2="1925.55" y2="2660.96"/><line class="cls-3" x1="1952.4" y1="2673.29" x2="1943.33" y2="2669.37"/><line class="cls-3" x1="1961.59" y1="2677.01" x2="1952.4" y2="2673.29"/><line class="cls-3" x1="1970.88" y1="2680.52" x2="1961.59" y2="2677.01"/><line class="cls-3" x1="2018.59" y1="2694.74" x2="2008.91" y2="2692.36"/><line class="cls-3" x1="2038.11" y1="2698.79" x2="2028.32" y2="2696.89"/><line class="cls-3" x1="2047.92" y1="2700.45" x2="2038.11" y2="2698.79"/><line class="cls-3" x1="2067.62" y1="2703.03" x2="2057.76" y2="2701.87"/><line class="cls-3" x1="2077.47" y1="2703.95" x2="2067.62" y2="2703.03"/><line class="cls-3" x1="2097.16" y1="2705" x2="2087.32" y2="2704.6"/><line class="cls-3" x1="2145.77" y1="2703.21" x2="2139.37" y2="2703.78"/><line class="cls-3" x1="2155.31" y1="2702.1" x2="2145.77" y2="2703.21"/><line class="cls-3" x1="2174.13" y1="2699.14" x2="2164.76" y2="2700.74"/><line class="cls-3" x1="1928.37" y1="3198.64" x2="1855.57" y2="3271.43"/><line class="cls-3" x1="1943.6" y1="1295.71" x2="1943.6" y2="1140.4"/><line class="cls-3" x1="1943.6" y1="1295.71" x2="1995.38" y2="1347.48"/><line class="cls-3" x1="1995.38" y1="1444.58" x2="1995.38" y2="1360.43"/><line class="cls-3" x1="2043.93" y1="1240.72" x2="1995.38" y2="1289.26"/><line class="cls-3" x1="2426.59" y1="1875.78" x2="2426.59" y2="1720.47"/><line class="cls-3" x1="2341.1" y1="1805.95" x2="2386.74" y2="1851.59"/><line class="cls-3" x1="2324.26" y1="2069.38" x2="2324.26" y2="1914.07"/><line class="cls-3" x1="2386.74" y1="1851.59" x2="2341.1" y2="1897.23"/><line class="cls-3" x1="2324.26" y1="2069.38" x2="2361.02" y2="2116.21"/><line class="cls-3" x1="2361.02" y1="2116.21" x2="2369.23" y2="2127.63"/><line class="cls-3" x1="2361.02" y1="1960.91" x2="2369.23" y2="1972.32"/><line class="cls-3" x1="2369.23" y1="2127.63" x2="2374.59" y2="2135.44"/><line class="cls-3" x1="2369.23" y1="1972.32" x2="2374.59" y2="1980.12"/><line class="cls-3" x1="2374.59" y1="2135.44" x2="2379.82" y2="2143.39"/><line class="cls-3" x1="2374.59" y1="1980.12" x2="2379.82" y2="1988.09"/><line class="cls-3" x1="2379.82" y1="2143.39" x2="2384.91" y2="2151.5"/><line class="cls-3" x1="2379.82" y1="1988.09" x2="2384.91" y2="1996.2"/><line class="cls-3" x1="2384.91" y1="2151.5" x2="2389.84" y2="2159.77"/><line class="cls-3" x1="2389.84" y1="2159.77" x2="2394.62" y2="2168.18"/><line class="cls-3" x1="2389.84" y1="2004.47" x2="2394.62" y2="2012.88"/><line class="cls-3" x1="2394.62" y1="2168.18" x2="2399.22" y2="2176.74"/><line class="cls-3" x1="2394.62" y1="2012.88" x2="2399.22" y2="2021.43"/><line class="cls-3" x1="2399.22" y1="2176.74" x2="2403.65" y2="2185.43"/><line class="cls-3" x1="2399.22" y1="2021.43" x2="2403.65" y2="2030.13"/><line class="cls-3" x1="2403.65" y1="2185.43" x2="2407.9" y2="2194.25"/><line class="cls-3" x1="2403.65" y1="2030.13" x2="2407.9" y2="2038.94"/><line class="cls-3" x1="2407.9" y1="2194.25" x2="2411.96" y2="2203.19"/><line class="cls-3" x1="2407.9" y1="2038.94" x2="2411.96" y2="2047.89"/><line class="cls-3" x1="2411.96" y1="2203.19" x2="2415.83" y2="2212.25"/><line class="cls-3" x1="2411.96" y1="2047.89" x2="2415.83" y2="2056.95"/><line class="cls-3" x1="2415.83" y1="2212.25" x2="2419.49" y2="2221.42"/><line class="cls-3" x1="2415.83" y1="2056.95" x2="2419.49" y2="2066.11"/><line class="cls-3" x1="2419.49" y1="2221.42" x2="2422.96" y2="2230.68"/><line class="cls-3" x1="2419.49" y1="2066.11" x2="2422.96" y2="2075.38"/><line class="cls-3" x1="2422.96" y1="2230.68" x2="2426.2" y2="2240.05"/><line class="cls-3" x1="2422.96" y1="2075.38" x2="2426.2" y2="2084.74"/><line class="cls-3" x1="2426.2" y1="2240.05" x2="2429.23" y2="2249.5"/><line class="cls-3" x1="2426.2" y1="2084.74" x2="2429.23" y2="2094.19"/><line class="cls-3" x1="2429.23" y1="2249.5" x2="2432.03" y2="2259.02"/><line class="cls-3" x1="2429.23" y1="2094.19" x2="2432.03" y2="2103.71"/><line class="cls-3" x1="2432.03" y1="2259.02" x2="2434.6" y2="2268.62"/><line class="cls-3" x1="2432.03" y1="2103.71" x2="2434.6" y2="2113.32"/><line class="cls-3" x1="2434.6" y1="2268.62" x2="2436.94" y2="2278.27"/><line class="cls-3" x1="2434.6" y1="2113.32" x2="2436.94" y2="2122.96"/><line class="cls-3" x1="2424.11" y1="3120.02" x2="2424.03" y2="3119.94"/><polyline class="cls-3" points="2424.11 3119.94 2424.18 3002.73 2424.24 2891.57"/><line class="cls-3" x1="2801.78" y1="1790.38" x2="2801.78" y2="1695.47"/><line class="cls-3" x1="2957.58" y1="1946.17" x2="3050.34" y2="1853.39"/><line class="cls-3" x1="3050.34" y1="1792.45" x2="3082.43" y2="1824.54"/><line class="cls-3" x1="3154.98" y1="1471.03" x2="3145.54" y2="1461.58"/><line class="cls-3" x1="3154.98" y1="1471.03" x2="3154.98" y2="1452.14"/><polyline class="cls-3" points="3052.5 1504.97 3028.23 1480.71 3023.37 1475.86"/><line class="cls-3" x1="2991.56" y1="1445.12" x2="2991.56" y2="1352.37"/><line class="cls-3" x1="2962.16" y1="1474.52" x2="2962.16" y2="1322.97"/><line class="cls-3" x1="2923.59" y1="1410.07" x2="2923.59" y2="1361.54"/><line class="cls-3" x1="2947.87" y1="1488.81" x2="2947.87" y2="1385.8"/><line class="cls-3" x1="2792.26" y1="1638.48" x2="2792.26" y2="1541.41"/><line class="cls-3" x1="2923.59" y1="1410.07" x2="2792.26" y2="1541.41"/><line class="cls-3" x1="2706.24" y1="1455.37" x2="2706.24" y2="1368.01"/><line class="cls-3" x1="2667.41" y1="1406.84" x2="2667.41" y2="1329.17"/><line class="cls-3" x1="2571.41" y1="1472.64" x2="2571.41" y2="1425.18"/><line class="cls-3" x1="2571.41" y1="1472.64" x2="2527.72" y2="1516.33"/><line class="cls-3" x1="2043.93" y1="1337.8" x2="2043.93" y2="1240.72"/><line class="cls-3" x1="2341.1" y1="1897.23" x2="2341.1" y2="1805.95"/><line class="cls-3" x1="2706.24" y1="1455.37" x2="2662.55" y2="1411.7"/><polyline class="cls-3" points="2662.55 1489.33 2601.07 1550.82 2595.14 1556.75"/><polyline class="cls-3" points="2424.11 3120.02 2424.11 3119.94 2424.18 3015.67 2424.24 2904.51"/><line class="cls-3" x1="2810.07" y1="1678.92" x2="2837.3" y2="1651.68"/><line class="cls-3" x1="2437.47" y1="2293.66" x2="2436.9" y2="2296.19"/><line class="cls-3" x1="2111.9" y1="2705.09" x2="2106.97" y2="2705.15"/><line class="cls-3" x1="2446.99" y1="2210.99" x2="2446.85" y2="2220.73"/><line class="cls-3" x1="2446.85" y1="2220.73" x2="2446.46" y2="2230.41"/><line class="cls-3" x1="2446.46" y1="2230.41" x2="2445.83" y2="2240.04"/><line class="cls-3" x1="2445.83" y1="2240.04" x2="2444.94" y2="2249.61"/><line class="cls-3" x1="2444.94" y1="2249.61" x2="2443.81" y2="2259.11"/><line class="cls-3" x1="2443.81" y1="2259.11" x2="2442.44" y2="2268.52"/><line class="cls-3" x1="2442.44" y1="2268.52" x2="2440.83" y2="2277.84"/><line class="cls-3" x1="2440.83" y1="2277.84" x2="2438.97" y2="2287.07"/><polyline class="cls-3" points="2438.97 2287.07 2438.91 2287.35 2438.91 2287.37 2437.47 2293.66"/><line class="cls-3" x1="2666.86" y1="1655.46" x2="2599.46" y2="1588.06"/><line class="cls-3" x1="2711.1" y1="1699.7" x2="2666.86" y2="1655.47"/><polyline class="cls-3" points="2851.4 1840 2801.78 1790.39 2801.78 1790.38 2711.1 1699.71"/><line class="cls-3" x1="2870.82" y1="1859.42" x2="2851.4" y2="1840.01"/><line class="cls-3" x1="2946.79" y1="1935.39" x2="2870.82" y2="1859.43"/><polyline class="cls-3" points="2964.04 1952.64 2957.58 1946.17 2957.56 1946.17 2946.79 1935.4"/><polyline class="cls-3" points="2666.86 1655.47 2666.86 1655.46 2666.86 1520.64"/><line class="cls-3" x1="2662.55" y1="1524.95" x2="2666.86" y2="1520.64"/><line class="cls-3" x1="2599.46" y1="1588.06" x2="2662.55" y2="1524.96"/><polyline class="cls-3" points="2711.1 1699.71 2711.1 1699.7 2711.1 1564.87"/><line class="cls-3" x1="2666.86" y1="1520.64" x2="2711.1" y2="1564.87"/><polyline class="cls-3" points="2810.07 1703.75 2810.07 1678.92 2810.07 1656.29"/><polyline class="cls-3" points="2851.4 1840.01 2851.4 1840 2851.4 1745.09"/><polyline class="cls-3" points="2801.78 1695.47 2810.07 1703.76 2837.3 1730.99 2849.15 1742.84 2851.4 1745.09"/><polyline class="cls-3" points="2870.82 1859.43 2870.82 1859.42 2870.82 1725.67"/><polyline class="cls-3" points="2946.79 1935.4 2946.79 1935.39 2946.79 1801.64"/><polyline class="cls-3" points="3050.34 1805.39 3050.34 1792.45 3050.34 1698.09"/><line class="cls-3" x1="2978.88" y1="1769.54" x2="3050.34" y2="1698.09"/><polyline class="cls-3" points="2946.79 1801.64 2951.1 1797.32 2978.88 1769.56"/><polyline class="cls-3" points="2894.47 1542.21 2924.94 1511.75 2925.49 1511.2 2947.87 1488.82 2947.87 1488.81 2962.16 1474.53 2962.16 1474.52 2991.56 1445.13 2991.56 1445.12 3013.66 1423.02"/><line class="cls-3" x1="2837.3" y1="1599.39" x2="2894.47" y2="1542.22"/><polyline class="cls-3" points="3082.43 1669.23 3145.54 1606.12 3217.81 1533.85"/><polyline class="cls-3" points="3145.54 1606.12 3145.54 1598.01 3145.54 1461.58"/><polyline class="cls-3" points="2662.55 1524.96 2662.55 1524.95 2662.55 1489.33 2662.55 1411.7"/><polyline class="cls-3" points="2662.55 1411.7 2667.41 1406.84 2706.24 1368.01"/><polyline class="cls-3" points="2595.14 1604.22 2595.14 1556.75 2595.14 1448.91"/><polyline class="cls-3" points="1943.61 1140.4 2021.26 1218.06 2043.93 1240.72"/><polyline class="cls-3" points="1995.38 1360.43 1995.38 1347.48 1995.38 1289.26"/><line class="cls-3" x1="2110.92" y1="1404.8" x2="2113.75" y2="1407.62"/><polyline class="cls-3" points="1995.38 1289.26 2043.93 1337.8 2110.92 1404.79"/><line class="cls-3" x1="2320.05" y1="1613.94" x2="2322.06" y2="1615.94"/><polyline class="cls-3" points="2138.55 1432.44 2317.79 1611.67 2320.02 1613.9"/><line class="cls-3" x1="2345.24" y1="1639.13" x2="2426.59" y2="1720.47"/><polyline class="cls-3" points="2322.4 1616.28 2324 1617.87 2345.24 1639.12"/><line class="cls-3" x1="2426.59" y1="1875.78" x2="2386.74" y2="1915.63"/><polyline class="cls-3" points="2426.59 1720.46 2348.93 1798.12 2342.47 1804.59"/><polyline class="cls-3" points="2386.74 1999.26 2386.74 1915.63 2386.74 1851.59"/><line class="cls-3" x1="2341.1" y1="1897.23" x2="2324.26" y2="1914.07"/><line class="cls-3" x1="2324.26" y1="1914.07" x2="2361.02" y2="1960.91"/><polyline class="cls-3" points="2384.91 1996.2 2386.74 1999.26 2389.84 2004.47"/><line class="cls-3" x1="3266.93" y1="2327.81" x2="3344.12" y2="2306.07"/><polyline class="cls-3" points="1887.63 2954.32 1859.34 2926.02 1617.85 2684.53"/><polyline class="cls-3" points="1782.78 3043.34 1856.81 2969.31 1887.63 2954.32 1992.12 2903.5"/><line class="cls-3" x1="1992.12" y1="3058.81" x2="1992.12" y2="2903.5"/><polyline class="cls-3" points="1782.78 3198.64 1856.81 3124.63 1992.12 3058.81"/><polyline class="cls-3" points="2925.49 1511.2 2925.49 1512.29 2925.49 1573.23"/><line class="cls-3" x1="2837.3" y1="1626.55" x2="2808.81" y2="1655.03"/><line class="cls-3" x1="2894.47" y1="1697.53" x2="2849.15" y2="1742.84"/><line class="cls-3" x1="2901.22" y1="1704.28" x2="2894.47" y2="1697.53"/><line class="cls-3" x1="2894.47" y1="1542.22" x2="2894.47" y2="1697.53"/><polyline class="cls-3" points="2978.88 1626.62 2925.49 1573.23 2900.94 1548.69 2894.47 1542.22 2894.47 1542.21"/><line class="cls-3" x1="2916.31" y1="1716.35" x2="2888.91" y2="1743.76"/><line class="cls-3" x1="2916.31" y1="1771.16" x2="2916.31" y2="1716.35"/><polyline class="cls-3" points="2837.3 1730.99 2837.3 1651.68 2837.3 1626.56"/><line class="cls-3" x1="2810.07" y1="1656.29" x2="2801.78" y2="1695.47"/><polyline class="cls-3" points="2714.88 1561.1 2792.26 1638.48 2795.24 1641.46 2808.81 1655.03 2810.07 1656.29"/><line class="cls-3" x1="2711.1" y1="1564.87" x2="2714.88" y2="1561.1"/><polyline class="cls-3" points="2978.88 1626.62 2978.88 1769.54 2978.88 1769.56"/><line class="cls-3" x1="2916.31" y1="1689.18" x2="2978.88" y2="1626.62"/><line class="cls-3" x1="3050.34" y1="1698.09" x2="2978.88" y2="1626.62"/><polyline class="cls-3" points="2916.31 1689.18 2901.23 1704.28 2901.22 1704.28 2875.32 1730.17"/><line class="cls-3" x1="2837.3" y1="1599.39" x2="2798.47" y2="1638.22"/><line class="cls-3" x1="3069.76" y1="1522.23" x2="3069.76" y2="1366.93"/><line class="cls-3" x1="3013.66" y1="1578.33" x2="3002.6" y2="1589.39"/><polyline class="cls-3" points="3023.37 1475.86 3020.14 1479.09 3013.66 1485.57"/><line class="cls-3" x1="3023.37" y1="1413.31" x2="3023.37" y2="1320.55"/><line class="cls-3" x1="3023.37" y1="1475.86" x2="3023.37" y2="1440.47"/><polyline class="cls-3" points="2924.94 1511.75 2925.49 1512.29 2931.42 1518.21 3002.6 1589.39 3082.43 1669.23"/><polyline class="cls-3" points="3052.5 1384.19 3023.37 1413.31 3023.37 1413.32 3013.66 1423.02"/><line class="cls-3" x1="3154.98" y1="1452.14" x2="3069.76" y2="1366.93"/><line class="cls-3" x1="3052.5" y1="1384.19" x2="3069.76" y2="1366.93"/><polyline class="cls-3" points="3052.5 1539.5 3052.5 1504.97 3052.5 1411.36 3023.37 1440.47 3013.66 1450.18 3013.66 1485.57 3013.66 1578.33"/><polyline class="cls-3" points="2870.82 1725.67 2875.32 1730.17 2888.91 1743.76 2916.31 1771.16 2946.79 1801.64"/><line class="cls-3" x1="2851.4" y1="1745.09" x2="2870.82" y2="1725.67"/><line class="cls-3" x1="3145.54" y1="1598.01" x2="3069.76" y2="1522.23"/><line class="cls-3" x1="3052.5" y1="1539.5" x2="3069.76" y2="1522.23"/><polyline class="cls-3" points="3181.4 2325.32 3169.24 2313.16 3126.28 2270.19 3111.51 2255.42"/><path class="cls-3" d="M2944.75,2194.66l5.73,3,5.72,3q2.88,1.5,5.74,3l5.72,3,5.73,3c1.9,1,3.81,2,5.73,3l5.73,3,5.72,3,5.73,3,5.73,3c1.91,1,3.82,2,5.73,3l5.72,3q2.86,1.5,5.73,3c1.92,1,3.82,2,5.73,3s3.82,2,5.73,3,3.81,2,5.72,3l5.74,3c1.91,1,3.81,2,5.72,3l5.73,3,5.72,3c1.91,1,3.83,2,5.74,3l5.72,3c1.91,1,3.82,2,5.73,3l5.72,3c1.92,1,3.83,2,5.74,3l5.72,3"/><path class="cls-3" d="M3146.07,2220.86c-1.91-1-3.81-2-5.72-3l-5.73-3-5.72-3-5.74-3-5.72-3-5.73-3q-2.85-1.51-5.73-3l-5.73-3-5.72-3-5.73-3c-1.9-1-3.81-2-5.73-3l-5.73-3c-1.91-1-3.81-2-5.72-3l-5.73-3c-1.9-1-3.83-2-5.73-3s-3.82-2-5.73-3l-5.72-3-5.73-3-5.73-3-5.73-3-5.72-3-5.73-3c-1.92-1-3.82-2-5.73-3l-5.73-3-5.72-3c-1.08-.55-2.16-1.12-3.23-1.7h0l-2.49-1.31"/><line class="cls-3" x1="3344.12" y1="2306.07" x2="3454.32" y2="2195.88"/><line class="cls-3" x1="2151.26" y1="1139.87" x2="2135.62" y2="1155.51"/><line class="cls-3" x1="2424.24" y1="2891.57" x2="2742.72" y2="2573.1"/><polyline class="cls-3" points="3524.7 2266.26 3669.24 2121.72 3507.18 1959.65"/><line class="cls-3" x1="1617.85" y1="2684.53" x2="1695.49" y2="2606.87"/><line class="cls-3" x1="2446.99" y1="2366.3" x2="2446.85" y2="2376.03"/><line class="cls-3" x1="2443.81" y1="2414.41" x2="2442.44" y2="2423.83"/><line class="cls-3" x1="2442.44" y1="2423.83" x2="2440.83" y2="2433.16"/><line class="cls-3" x1="2391.13" y1="2557.31" x2="2386.4" y2="2564.29"/><line class="cls-3" x1="2446.85" y1="2376.03" x2="2446.46" y2="2385.72"/><line class="cls-3" x1="2446.46" y1="2385.72" x2="2445.83" y2="2395.35"/><line class="cls-3" x1="2445.83" y1="2395.35" x2="2444.94" y2="2404.93"/><line class="cls-3" x1="2444.94" y1="2404.93" x2="2443.81" y2="2414.41"/><line class="cls-3" x1="2440.83" y1="2433.16" x2="2438.97" y2="2442.37"/><line class="cls-3" x1="2438.97" y1="2442.37" x2="2436.9" y2="2451.5"/><line class="cls-3" x1="2436.9" y1="2451.5" x2="2434.59" y2="2460.49"/><line class="cls-3" x1="2434.59" y1="2460.49" x2="2432.04" y2="2469.39"/><line class="cls-3" x1="2434.59" y1="2305.19" x2="2432.04" y2="2314.07"/><line class="cls-3" x1="2432.04" y1="2469.39" x2="2429.29" y2="2478.13"/><line class="cls-3" x1="2432.04" y1="2314.07" x2="2429.29" y2="2322.83"/><line class="cls-3" x1="2429.29" y1="2478.13" x2="2426.33" y2="2486.75"/><line class="cls-3" x1="2429.29" y1="2322.83" x2="2426.33" y2="2331.45"/><line class="cls-3" x1="2426.33" y1="2486.75" x2="2423.16" y2="2495.23"/><line class="cls-3" x1="2426.33" y1="2331.45" x2="2423.16" y2="2339.92"/><line class="cls-3" x1="2423.16" y1="2495.23" x2="2419.79" y2="2503.56"/><line class="cls-3" x1="2423.16" y1="2339.92" x2="2419.79" y2="2348.24"/><line class="cls-3" x1="2419.79" y1="2503.56" x2="2416.22" y2="2511.73"/><line class="cls-3" x1="2419.79" y1="2348.24" x2="2416.22" y2="2356.42"/><line class="cls-3" x1="2416.22" y1="2511.73" x2="2412.47" y2="2519.75"/><line class="cls-3" x1="2416.22" y1="2356.42" x2="2412.47" y2="2364.44"/><line class="cls-3" x1="2412.47" y1="2519.75" x2="2408.54" y2="2527.6"/><line class="cls-3" x1="2412.47" y1="2364.44" x2="2408.54" y2="2372.29"/><line class="cls-3" x1="2408.54" y1="2527.6" x2="2404.43" y2="2535.28"/><line class="cls-3" x1="2408.54" y1="2372.29" x2="2404.43" y2="2379.98"/><line class="cls-3" x1="2404.43" y1="2535.28" x2="2400.15" y2="2542.8"/><line class="cls-3" x1="2404.43" y1="2379.98" x2="2400.15" y2="2387.49"/><line class="cls-3" x1="2400.15" y1="2542.8" x2="2395.72" y2="2550.15"/><line class="cls-3" x1="2400.15" y1="2387.49" x2="2395.72" y2="2394.84"/><line class="cls-3" x1="2395.72" y1="2550.15" x2="2391.13" y2="2557.31"/><line class="cls-3" x1="2395.72" y1="2394.84" x2="2391.13" y2="2401.99"/><line class="cls-3" x1="2391.13" y1="2401.99" x2="2386.4" y2="2408.99"/><line class="cls-3" x1="2386.4" y1="2564.29" x2="2381.52" y2="2571.1"/><line class="cls-3" x1="2386.4" y1="2408.99" x2="2381.52" y2="2415.78"/><line class="cls-3" x1="2381.52" y1="2571.1" x2="2376.53" y2="2577.7"/><line class="cls-3" x1="2381.52" y1="2415.78" x2="2376.53" y2="2422.4"/><line class="cls-3" x1="2376.53" y1="2577.7" x2="2371.4" y2="2584.14"/><line class="cls-3" x1="2376.53" y1="2422.4" x2="2371.4" y2="2428.84"/><line class="cls-3" x1="2371.4" y1="2584.14" x2="2366.17" y2="2590.38"/><line class="cls-3" x1="2371.4" y1="2428.84" x2="2366.17" y2="2435.08"/><line class="cls-3" x1="2366.17" y1="2590.38" x2="2360.82" y2="2596.45"/><line class="cls-3" x1="2366.17" y1="2435.08" x2="2360.82" y2="2441.13"/><line class="cls-3" x1="2360.82" y1="2596.45" x2="2355.37" y2="2602.31"/><line class="cls-3" x1="2360.82" y1="2441.13" x2="2355.37" y2="2446.99"/><line class="cls-3" x1="2355.37" y1="2602.31" x2="2349.83" y2="2607.99"/><line class="cls-3" x1="2355.37" y1="2446.99" x2="2349.83" y2="2452.68"/><line class="cls-3" x1="2349.83" y1="2607.99" x2="2344.13" y2="2613.55"/><line class="cls-3" x1="2349.83" y1="2452.68" x2="2344.13" y2="2458.25"/><line class="cls-3" x1="2344.13" y1="2613.55" x2="2338.24" y2="2619.02"/><line class="cls-3" x1="2344.13" y1="2458.25" x2="2338.24" y2="2463.71"/><line class="cls-3" x1="2338.24" y1="2619.02" x2="2332.15" y2="2624.39"/><line class="cls-3" x1="2338.24" y1="2463.71" x2="2332.15" y2="2469.07"/><line class="cls-3" x1="2332.15" y1="2624.39" x2="2325.88" y2="2629.65"/><line class="cls-3" x1="2332.15" y1="2469.07" x2="2325.88" y2="2474.34"/><line class="cls-3" x1="2325.88" y1="2629.65" x2="2319.41" y2="2634.79"/><line class="cls-3" x1="2325.88" y1="2474.34" x2="2319.41" y2="2479.48"/><line class="cls-3" x1="2319.41" y1="2634.79" x2="2312.77" y2="2639.81"/><line class="cls-3" x1="2319.41" y1="2479.48" x2="2312.77" y2="2484.49"/><line class="cls-3" x1="2312.77" y1="2639.81" x2="2305.94" y2="2644.69"/><line class="cls-3" x1="2312.77" y1="2484.49" x2="2305.94" y2="2489.39"/><line class="cls-3" x1="2305.94" y1="2644.69" x2="2298.92" y2="2649.44"/><line class="cls-3" x1="2305.94" y1="2489.39" x2="2298.92" y2="2494.14"/><line class="cls-3" x1="2298.92" y1="2649.44" x2="2291.73" y2="2654.04"/><line class="cls-3" x1="2298.92" y1="2494.14" x2="2291.73" y2="2498.73"/><line class="cls-3" x1="2291.73" y1="2654.04" x2="2284.34" y2="2658.49"/><line class="cls-3" x1="2291.73" y1="2498.73" x2="2284.34" y2="2503.18"/><line class="cls-3" x1="2284.34" y1="2658.49" x2="2276.79" y2="2662.77"/><line class="cls-3" x1="2284.34" y1="2503.18" x2="2276.79" y2="2507.47"/><line class="cls-3" x1="2276.79" y1="2662.77" x2="2269.06" y2="2666.89"/><line class="cls-3" x1="2276.79" y1="2507.47" x2="2269.06" y2="2511.58"/><line class="cls-3" x1="2269.06" y1="2666.89" x2="2261.17" y2="2670.83"/><line class="cls-3" x1="2269.06" y1="2511.58" x2="2261.17" y2="2515.53"/><line class="cls-3" x1="2261.17" y1="2670.83" x2="2253.11" y2="2674.59"/><line class="cls-3" x1="2261.17" y1="2515.53" x2="2253.11" y2="2519.28"/><line class="cls-3" x1="2253.11" y1="2674.59" x2="2244.9" y2="2678.16"/><line class="cls-3" x1="2253.11" y1="2519.28" x2="2244.9" y2="2522.85"/><line class="cls-3" x1="2244.9" y1="2678.16" x2="2236.52" y2="2681.53"/><line class="cls-3" x1="2244.9" y1="2522.85" x2="2236.52" y2="2526.22"/><line class="cls-3" x1="2236.52" y1="2681.53" x2="2228.01" y2="2684.7"/><line class="cls-3" x1="2236.52" y1="2526.22" x2="2228.01" y2="2529.39"/><line class="cls-3" x1="2228.01" y1="2684.7" x2="2219.34" y2="2687.66"/><line class="cls-3" x1="2228.01" y1="2529.39" x2="2219.34" y2="2532.35"/><line class="cls-3" x1="2219.34" y1="2687.66" x2="2210.55" y2="2690.41"/><line class="cls-3" x1="2219.34" y1="2532.35" x2="2210.55" y2="2535.1"/><line class="cls-3" x1="2210.55" y1="2690.41" x2="2201.62" y2="2692.94"/><line class="cls-3" x1="2210.55" y1="2535.1" x2="2201.62" y2="2537.63"/><line class="cls-3" x1="2201.62" y1="2692.94" x2="2192.57" y2="2695.24"/><line class="cls-3" x1="2201.62" y1="2537.63" x2="2192.57" y2="2539.93"/><line class="cls-3" x1="2446.99" y1="2366.3" x2="2446.99" y2="2210.99"/><polyline class="cls-3" points="3181.4 2170.01 3198.67 2152.75 3217.01 2134.42 3232.65 2078.87"/><polyline class="cls-3" points="3181.4 2319.58 3181.4 2239.51 3181.4 2170.01"/><polyline class="cls-3" points="3217.01 2289.73 3217.01 2258.29 3217.01 2134.42"/><polyline class="cls-3" points="3232.65 2234.18 3224.7 2262.37 3217.01 2289.73"/><polyline class="cls-3" points="3217.01 2289.73 3185.17 2321.56 3181.4 2325.32"/><line class="cls-3" x1="3231.32" y1="2363.4" x2="3266.93" y2="2327.81"/><line class="cls-3" x1="3232.65" y1="2234.17" x2="3232.65" y2="2078.87"/><line class="cls-3" x1="3285.26" y1="2181.55" x2="3232.65" y2="2234.17"/><polyline class="cls-3" points="3231.32 2363.4 3418.98 2551.05 3341.32 2628.7"/><polyline class="cls-3" points="1928.37 3198.64 2065.49 3132.17 2406.9 3473.6"/><polyline class="cls-3" points="2424.03 3275.25 2514.63 3365.85 2406.9 3473.6"/><path class="cls-3" d="M2139.36,2796.74c0-.21,0-.4,0-.61"/><path class="cls-3" d="M2111.92,2640.84a13.72,13.72,0,1,0,27.44.34"/><path class="cls-3" d="M2111.92,2796.14v.3a13.72,13.72,0,0,0,27.44.3V2640.82a13.72,13.72,0,0,0-27.44,0c0,.1,0,.21,0,.32v156.13"/><path class="cls-3" d="M2318.84,2848.27a13.73,13.73,0,0,0,27.46,0"/><path class="cls-3" d="M2318.84,3003.55v.84"/><path class="cls-3" d="M2318.84,3003.25v.3a13.73,13.73,0,0,0,27.46.3V2847.93a13.73,13.73,0,0,0-27.46,0v155.3"/><path class="cls-3" d="M2526.43,2226.62a13.73,13.73,0,1,0,27.46.29"/><path class="cls-3" d="M2526.43,2381.93v.29a13.73,13.73,0,0,0,27.46.3v-155.9h0a13.75,13.75,0,0,0-13.74-13.42,13.75,13.75,0,0,0-13.72,13.43c0,.1,0,.21,0,.32v156.13"/><path class="cls-3" d="M2939.26,2226.94a13.72,13.72,0,0,0,13.73,13.7,13.72,13.72,0,0,0,13.72-13.73"/><path class="cls-3" d="M2939.26,2382.22v.85"/><path class="cls-3" d="M2939.26,2381.93v.29a13.73,13.73,0,0,0,27.45.3v-155.9h0a13.73,13.73,0,0,0-27.45,0v155.31"/><path class="cls-3" d="M2734.15,2019.21a13.73,13.73,0,1,0,27.45,0"/><path class="cls-3" d="M2734.15,2174.45v.9"/><path class="cls-3" d="M2734.15,2174.21v.24a13.73,13.73,0,0,0,27.45.35V2018.89a13.73,13.73,0,0,0-27.45,0v155.32"/><path class="cls-3" d="M2524.67,1813.54a13.73,13.73,0,0,0,27.45,0"/><path class="cls-3" d="M2524.67,1968.84v.84"/><path class="cls-3" d="M2524.67,1968.54v.3a13.73,13.73,0,0,0,27.45.3V1813.22h0a13.73,13.73,0,0,0-27.45,0v155.32"/><line class="cls-3" x1="1995.38" y1="1444.58" x2="2348.93" y2="1798.12"/><path class="cls-3" d="M2345.24,1606.11h0a13.72,13.72,0,0,0-27.44,0c0,.11,0,.21,0,.33v5.23"/><path class="cls-3" d="M2345.24,1639.13h0V1606.4"/><path class="cls-3" d="M2317.8,1606.11a13.71,13.71,0,0,0,2.22,7.79l0,0a13.62,13.62,0,0,0,1.66,2.06,13.1,13.1,0,0,0,2.29,1.87,13.7,13.7,0,0,0,21.24-11.47v-.29"/><path class="cls-3" d="M2113.79,1407.67a12.08,12.08,0,0,0,1.05,1.22,13.44,13.44,0,0,0,1.44,1.28,13.73,13.73,0,0,0,22.1-10.89"/><path class="cls-3" d="M2110.93,1399a13.67,13.67,0,0,0,2.82,8.63h0"/><path class="cls-3" d="M2138.38,1432.26V1399h0a13.73,13.73,0,0,0-27.45,0c0,.1,0,.22,0,.32v5.48h0"/><polyline class="cls-3" points="2113.75 1407.63 2113.78 1407.67 2114.95 1408.83 2116.28 1410.16 2138.38 1432.26"/><polyline class="cls-3" points="1943.61 1140.4 2032.06 1051.96 2135.62 1155.51"/><polyline class="cls-3" points="2021.26 1218.06 2032.06 1207.26 2135.62 1310.82"/><line class="cls-3" x1="2032.06" y1="1207.26" x2="2032.06" y2="1051.96"/><line class="cls-4" x1="1782.78" y1="3198.64" x2="1782.78" y2="3043.33"/><polygon class="cls-5" points="3327.01 2339.04 3388.76 2400.8 3510.12 2279.45 3448.36 2217.69 3427.82 2238.24 3327.01 2339.04"/><line class="cls-3" x1="3388.76" y1="2400.8" x2="3418.56" y2="2309.25"/><line class="cls-3" x1="3510.12" y1="2279.45" x2="3418.56" y2="2309.25"/><line class="cls-3" x1="3448.36" y1="2217.69" x2="3418.56" y2="2309.25"/><line class="cls-3" x1="3327.01" y1="2339.04" x2="3418.56" y2="2309.25"/></svg>