<svg id="_2" data-name="2" xmlns="http://www.w3.org/2000/svg" viewBox="0 0 4800 4800"><defs><style>.cls-1{fill:#9acbff;}.cls-2{fill:#fff;}.cls-3,.cls-6{fill:#efd90f;}.cls-3,.cls-4,.cls-5,.cls-6{stroke:#037cff;stroke-linecap:round;stroke-linejoin:round;stroke-width:7.79px;}.cls-4{fill:none;}.cls-5{fill:#efd912;}.cls-6{opacity:0.68;}</style></defs><title>2</title><path class="cls-1" d="M1855.57,3271.43l-119.94,49.85-57.44,57.43,44,44.06-244.66,244.64-56.93-56.93-313.57,313.59L974.53,3791.18q37.9-37.91,75.82-75.81h0l41-41,58.29-58.28v-18l29.5-29.49,9,9,.32-.32,11.37-11.36,26.43,25.35,21.57-21.57v-5.34l308-308,49.59,49.58,33.16-33.16,24.27-24.28,120-49.84Z"/><polygon class="cls-2" points="4267.92 1522.01 4267.92 1716.16 4232.06 1680.29 4232.06 1645.88 4232.06 1557.89 4232.06 1486.15 4238.47 1492.58 4267.92 1522.01"/><polygon class="cls-1" points="4072.71 1776.55 4131.81 1717.13 3986.76 1766.17 3912.01 1691.43 4054.96 1643.09 4120.4 1577.27 4151.68 1608.55 4186.69 1600.52 4232.06 1645.88 4232.06 1680.29 4267.92 1716.16 3874.73 2109.33 3874.73 1912.5 3830.73 1868.5 3846.04 1853.2 3988.05 1805.19 4072.71 1776.55"/><polygon class="cls-2" points="4238.47 1458.16 4232.06 1486.15 4232.06 1557.89 4232.06 1645.88 4186.69 1600.52 4186.69 1406.39 4238.47 1458.16"/><polygon class="cls-2" points="4186.69 1406.39 4186.69 1600.52 4151.68 1608.55 4151.68 1414.41 4186.69 1406.39"/><polygon class="cls-2" points="4151.68 1414.41 4151.68 1608.55 4120.4 1577.27 4120.4 1383.14 4151.68 1414.41"/><polygon class="cls-2" points="4131.81 1717.13 4072.71 1776.55 3988.05 1805.19 3846.04 1853.2 3830.73 1868.5 3733.99 1771.76 4120.4 1383.14 4120.4 1577.27 4054.96 1643.09 3912.01 1691.43 3986.76 1766.17 4131.81 1717.13"/><path class="cls-1" d="M3856.4,2127.67l39.1,39.11L3837.24,2225l-40.44-40.44-138.34,138.34-25.9-25.9q-4,2.47-8,4.92-28.24,17.34-56.53,34.66l79.38,79.37L3422.9,2640.46l-168.82-168.82,74.43-74.41-234.84-124,52.4-52.41,234.84,124L3476.7,2249l1.87-1.89,4.86,4.87L3542.3,2216c1.89-1.17,3.79-2.34,5.7-3.49l-30.31-30.31L3645,2054.87l-28-28-45,42.34-6.47-6.48-32.89,32.91-10.8-10.79-4,4-14.56,14.56-38.84-38.82,8.63-8.63-8.63-8.64-.53-.54,80.36-80.36-100.6-100.59,77.13-77.13L3681.91,1950v14.57l6.22,6.72,19.4,21.06,26.43-26.43,82.26,82.24V1920l34.51,34.51v130.84l24,24Z"/><polygon class="cls-2" points="3874.73 1912.5 3874.73 2109.33 3850.73 2085.33 3850.73 1954.49 3816.22 1919.98 3816.22 2048.12 3733.96 1965.88 3733.96 1771.76 3733.99 1771.76 3830.73 1868.5 3874.73 1912.5"/><polygon class="cls-2" points="3733.96 1771.76 3733.96 1965.88 3707.53 1992.31 3707.53 1798.16 3733.96 1771.74 3733.96 1771.76"/><polygon class="cls-2" points="3707.53 1798.16 3707.53 1992.31 3688.13 1971.25 3681.91 1964.53 3681.91 1949.96 3681.91 1770.39 3689.19 1778.28 3707.53 1798.16"/><polygon class="cls-2" points="3689.19 1763.1 3681.91 1770.39 3681.91 1949.96 3520.65 1788.69 3520.65 1594.56 3689.19 1763.1"/><polygon class="cls-1" points="3510.12 2113.16 3388.76 2234.51 3418.56 2142.96 3510.12 2113.16"/><polygon class="cls-1" points="3510.12 2113.16 3418.56 2142.96 3448.36 2051.4 3510.12 2113.16"/><polygon class="cls-1" points="3448.36 2051.4 3418.56 2142.96 3327.01 2172.75 3427.82 2071.95 3448.36 2051.4"/><polygon class="cls-1" points="3418.56 2142.96 3388.76 2234.51 3327.01 2172.75 3418.56 2142.96"/><polygon class="cls-2" points="1605.4 3111.78 1605.4 3305.92 1555.81 3256.34 1555.81 3062.21 1605.4 3111.78"/><polygon class="cls-2" points="1555.81 3062.21 1555.81 3256.34 1247.81 3564.35 1247.81 3375.55 1245.15 3372.88 1555.81 3062.21"/><polygon class="cls-2" points="1247.81 3564.35 1247.81 3569.69 1226.24 3591.26 1226.24 3397.12 1245.15 3378.21 1247.81 3375.55 1247.81 3564.35"/><polygon class="cls-2" points="1226.24 3397.12 1226.24 3591.26 1199.81 3565.91 1199.81 3371.77 1226.24 3397.12"/><path class="cls-2" d="M1199.81,3371.77v194.14l-11.37,11.36v-100a26.79,26.79,0,0,0-1-7.75c-.75-2.37-2.13-4.92-4.67-6s-5.33-.23-7.53.92a26.07,26.07,0,0,0-6.21,4.77,56.15,56.15,0,0,0-7.88,10.22,84.43,84.43,0,0,0-5.85,11.54,83.21,83.21,0,0,0-4,12.29c-.35,1.48-.66,3-.92,4.55s-.44,2.93-.57,4.4q-.18,2-.18,3.87v100l-58.29,58.28V3546.23l-41,41v128.12h0q-37.92,37.89-75.82,75.81V3597l73.56-73.56,8.11-8.11h0l2.28-2.28h0l48.92-48.91v0l5.43-5.42h0l1.33-1.34Z"/><path class="cls-2" d="M1188.44,3477.23v100l-.32.32-9-9V3557.9L1165.22,3544v-10.67l-13-12.94v-10.68l-1.91-1.92c.26-1.55.57-3.07.92-4.55a83.21,83.21,0,0,1,4-12.29,84.43,84.43,0,0,1,5.85-11.54,56.15,56.15,0,0,1,7.88-10.22,26.07,26.07,0,0,1,6.21-4.77c2.2-1.15,5-2,7.53-.92s3.92,3.6,4.67,6A26.79,26.79,0,0,1,1188.44,3477.23Z"/><path class="cls-1" d="M1179.11,3557.9v10.68l-29.5,29.49v-10.68Z"/><path class="cls-1" d="M1179.11,3557.9l-29.5,29.49v-27.76l15.61-15.62Z"/><path class="cls-1" d="M1165.22,3533.34V3544l-15.61,15.62v-10.69Z"/><path class="cls-1" d="M1165.22,3533.34l-15.61,15.6v-25.89l2.66-2.65Z"/><polygon class="cls-1" points="1113.13 3454.1 1107.42 3464.15 1107.41 3464.17 1058.48 3513.08 1084.56 3433.5 1084.36 3436.58 1084.06 3440.87 1113.13 3454.1"/><path class="cls-3" d="M1091.32,3546.23v128.15l-41,41V3587.24Z"/><polygon class="cls-1" points="1084.56 3433.5 1058.48 3513.08 1058.48 3513.09 1056.21 3515.36 1056.2 3515.36 1043.69 3510.8 1044.03 3504.93 1054.06 3418.85 1053.83 3422.3 1053.54 3426.32 1084.56 3433.5"/><polygon class="cls-1" points="1054.06 3418.85 1044.03 3504.93 1029.73 3502.76 1030.15 3496.75 1023.15 3414.15 1054.06 3418.85"/><polygon class="cls-1" points="1023.15 3414.15 1030.15 3496.75 1016.11 3497.45 1016.51 3491.35 993.22 3411.86 1022.84 3410.4 1023.15 3414.15"/><polygon class="cls-1" points="993.22 3411.86 1016.51 3491.35 1003.27 3494.74 1003.64 3488.61 964.9 3415.16 992.14 3408.18 993.22 3411.86"/><polygon class="cls-1" points="964.9 3415.16 1003.64 3488.61 991.75 3494.4 992.08 3488.33 939.16 3423.69 963.2 3411.95 964.9 3415.16"/><polygon class="cls-1" points="982.06 3490.03 916.95 3436.9 937.19 3421.26 939.16 3423.69 992.08 3488.33 982.02 3496.1 982.06 3490.03"/><polygon class="cls-1" points="982.06 3490.03 974.44 3499.35 974.61 3493.82 899.12 3454.14 915.12 3435.41 916.95 3436.9 982.06 3490.03"/><polygon class="cls-1" points="974.61 3493.82 969.33 3503.48 884.71 3480.8 886.38 3474.56 891.91 3464.43 894.77 3459.23 897.9 3453.5 899.12 3454.14 974.61 3493.82"/><polyline class="cls-4" points="1638.56 3272.76 1662.83 3248.48 1782.78 3198.64"/><polyline class="cls-4" points="982.27 3490.2 982.06 3490.03 916.95 3436.9"/><polyline class="cls-4" points="1247.81 3569.69 1247.81 3564.35 1247.81 3375.55"/><line class="cls-4" x1="1245.15" y1="3378.21" x2="1226.24" y2="3397.12"/><line class="cls-4" x1="1226.24" y1="3591.26" x2="1199.81" y2="3565.91"/><line class="cls-4" x1="1056.2" y1="3515.37" x2="1048.09" y2="3523.48"/><line class="cls-4" x1="1058.49" y1="3513.09" x2="1056.21" y2="3515.37"/><line class="cls-4" x1="1107.41" y1="3464.17" x2="1058.49" y2="3513.08"/><line class="cls-4" x1="1112.85" y1="3458.73" x2="1107.42" y2="3464.15"/><line class="cls-4" x1="1114.18" y1="3457.38" x2="1112.85" y2="3458.72"/><line class="cls-4" x1="1048.09" y1="3523.48" x2="974.53" y2="3597.04"/><line class="cls-4" x1="3688.13" y1="1971.25" x2="3681.91" y2="1964.53"/><polyline class="cls-4" points="3681.91 1964.53 3681.91 1949.96 3681.91 1770.39"/><line class="cls-4" x1="1605.4" y1="3111.78" x2="1781.93" y2="2935.25"/><line class="cls-4" x1="3632.56" y1="2297.02" x2="3658.46" y2="2322.92"/><line class="cls-4" x1="4238.47" y1="1492.58" x2="4232.06" y2="1486.15"/><line class="cls-4" x1="4232.06" y1="1557.89" x2="4232.06" y2="1486.15"/><line class="cls-4" x1="1165.22" y1="3533.34" x2="1149.61" y2="3548.94"/><line class="cls-4" x1="1152.27" y1="3509.72" x2="1150.36" y2="3507.8"/><line class="cls-4" x1="1152.27" y1="3509.72" x2="1149.79" y2="3512.2"/><line class="cls-4" x1="3689.19" y1="1778.28" x2="3681.91" y2="1770.39"/><line class="cls-4" x1="4151.68" y1="1414.41" x2="4120.4" y2="1383.14"/><line class="cls-4" x1="4120.4" y1="1577.27" x2="4120.4" y2="1383.14"/><line class="cls-4" x1="4186.69" y1="1406.39" x2="4151.68" y2="1414.41"/><line class="cls-4" x1="4151.68" y1="1608.55" x2="4151.68" y2="1414.41"/><line class="cls-4" x1="4238.47" y1="1458.17" x2="4186.69" y2="1406.39"/><line class="cls-4" x1="4186.69" y1="1600.52" x2="4186.69" y2="1406.39"/><line class="cls-4" x1="4232.06" y1="1486.15" x2="4238.47" y2="1458.17"/><line class="cls-4" x1="4267.92" y1="1522.01" x2="4238.47" y2="1492.58"/><line class="cls-4" x1="4267.92" y1="1716.16" x2="4267.92" y2="1522.01"/><line class="cls-4" x1="3837.24" y1="2225.02" x2="3895.5" y2="2166.78"/><line class="cls-4" x1="3658.46" y1="2322.92" x2="3796.8" y2="2184.58"/><line class="cls-4" x1="3464.29" y1="2064.58" x2="3503.13" y2="2103.4"/><line class="cls-4" x1="3681.91" y1="1770.39" x2="3689.19" y2="1763.1"/><line class="cls-4" x1="3707.53" y1="1798.16" x2="3689.19" y2="1778.28"/><line class="cls-4" x1="3707.53" y1="1992.31" x2="3688.13" y2="1971.25"/><line class="cls-4" x1="3733.96" y1="1771.74" x2="3707.53" y2="1798.16"/><line class="cls-4" x1="3707.53" y1="1992.31" x2="3707.53" y2="1798.16"/><line class="cls-4" x1="3733.96" y1="1965.88" x2="3707.53" y2="1992.31"/><polyline class="cls-4" points="3733.96 1965.88 3733.96 1771.76 3733.96 1771.74"/><line class="cls-4" x1="1247.81" y1="3569.69" x2="1226.24" y2="3591.26"/><line class="cls-4" x1="992.08" y1="3488.33" x2="939.16" y2="3423.69"/><line class="cls-4" x1="1044.03" y1="3504.93" x2="1054.06" y2="3418.85"/><line class="cls-4" x1="1016.51" y1="3491.35" x2="993.22" y2="3411.86"/><line class="cls-4" x1="974.61" y1="3493.82" x2="899.12" y2="3454.14"/><line class="cls-4" x1="1003.64" y1="3488.61" x2="964.9" y2="3415.16"/><line class="cls-4" x1="1030.15" y1="3496.75" x2="1023.15" y2="3414.15"/><line class="cls-4" x1="939.16" y1="3423.69" x2="937.19" y2="3421.26"/><line class="cls-4" x1="993.22" y1="3411.86" x2="992.14" y2="3408.18"/><line class="cls-4" x1="1053.83" y1="3422.3" x2="1054.06" y2="3418.85"/><line class="cls-4" x1="899.12" y1="3454.14" x2="897.9" y2="3453.5"/><polyline class="cls-4" points="1107.41 3464.17 1107.42 3464.15 1113.13 3454.1"/><line class="cls-4" x1="1114.18" y1="3457.38" x2="1114.2" y2="3456.7"/><line class="cls-4" x1="1247.81" y1="3564.35" x2="1555.81" y2="3256.34"/><line class="cls-4" x1="1023.15" y1="3414.15" x2="1022.84" y2="3410.4"/><polyline class="cls-4" points="1058.48 3513.09 1058.48 3513.08 1084.56 3433.5"/><polyline class="cls-4" points="1112.85 3458.73 1112.85 3458.72 1112.88 3458.1"/><line class="cls-4" x1="964.9" y1="3415.16" x2="963.2" y2="3411.95"/><path class="cls-4" d="M1735.63,3321.28l119.94-49.85"/><line class="cls-4" x1="1245.14" y1="3378.21" x2="1245.14" y2="3372.88"/><line class="cls-4" x1="1605.4" y1="3305.92" x2="1605.4" y2="3111.78"/><line class="cls-4" x1="1638.56" y1="3272.76" x2="1605.4" y2="3305.92"/><line class="cls-4" x1="1477.57" y1="3667.41" x2="1722.23" y2="3422.77"/><line class="cls-4" x1="1420.64" y1="3610.48" x2="1477.57" y2="3667.41"/><line class="cls-4" x1="974.53" y1="3791.18" x2="1107.07" y2="3924.07"/><line class="cls-4" x1="1199.81" y1="3371.77" x2="1114.18" y2="3457.38"/><line class="cls-4" x1="1226.24" y1="3397.12" x2="1199.81" y2="3371.77"/><line class="cls-4" x1="1199.81" y1="3565.91" x2="1199.81" y2="3371.77"/><line class="cls-4" x1="1247.81" y1="3375.54" x2="1245.15" y2="3378.21"/><line class="cls-4" x1="1226.24" y1="3591.26" x2="1226.24" y2="3397.12"/><line class="cls-4" x1="1245.15" y1="3372.88" x2="1247.81" y2="3375.54"/><line class="cls-4" x1="1555.81" y1="3256.34" x2="1555.81" y2="3062.21"/><polyline class="cls-4" points="1555.81 3062.21 1245.15 3372.88 1245.14 3372.88"/><line class="cls-4" x1="916.95" y1="3436.9" x2="915.12" y2="3435.41"/><line class="cls-4" x1="915.12" y1="3435.41" x2="899.12" y2="3454.14"/><line class="cls-4" x1="937.19" y1="3421.26" x2="916.95" y2="3436.9"/><line class="cls-4" x1="1054.06" y1="3418.85" x2="1023.15" y2="3414.15"/><line class="cls-4" x1="1053.54" y1="3426.32" x2="1053.83" y2="3422.3"/><line class="cls-4" x1="992.14" y1="3408.18" x2="964.9" y2="3415.16"/><line class="cls-4" x1="897.9" y1="3453.5" x2="894.77" y2="3459.23"/><line class="cls-4" x1="1112.88" y1="3458.1" x2="1113.13" y2="3454.1"/><line class="cls-4" x1="1114.2" y1="3456.7" x2="1112.88" y2="3458.1"/><line class="cls-4" x1="1555.81" y1="3256.34" x2="1605.4" y2="3305.92"/><line class="cls-4" x1="1084.35" y1="3436.58" x2="1084.56" y2="3433.5"/><line class="cls-4" x1="1084.06" y1="3440.87" x2="1084.35" y2="3436.58"/><line class="cls-4" x1="963.2" y1="3411.95" x2="939.16" y2="3423.69"/><line class="cls-4" x1="1022.84" y1="3410.4" x2="993.22" y2="3411.86"/><line class="cls-4" x1="1605.4" y1="3111.78" x2="1555.81" y2="3062.21"/><line class="cls-4" x1="3443.52" y1="1865.82" x2="3520.65" y2="1788.69"/><line class="cls-4" x1="3520.65" y1="1788.69" x2="3520.65" y2="1594.56"/><line class="cls-4" x1="3520.65" y1="1788.69" x2="3681.91" y2="1949.96"/><polyline class="cls-4" points="3463.76 2046.77 3544.12 1966.41 3443.52 1865.82"/><line class="cls-4" x1="3689.19" y1="1763.1" x2="3520.65" y2="1594.56"/><polyline class="cls-4" points="3483.43 2252.02 3478.57 2247.16 3476.7 2249.04 3380.91 2344.82"/><polyline class="cls-4" points="3328.51 2397.23 3254.08 2471.64 3422.9 2640.46 3647.39 2415.97 3568.01 2336.6"/><line class="cls-4" x1="3093.67" y1="2273.27" x2="3328.51" y2="2397.23"/><line class="cls-4" x1="3380.91" y1="2344.82" x2="3146.07" y2="2220.86"/><line class="cls-4" x1="891.91" y1="3464.43" x2="886.38" y2="3474.56"/><polyline class="cls-4" points="969.33 3503.48 884.71 3480.8 884.63 3480.77"/><line class="cls-4" x1="886.38" y1="3474.56" x2="884.71" y2="3480.8"/><polyline class="cls-4" points="982.06 3490.03 982.02 3496.1 992.08 3488.33 991.75 3494.4 1003.64 3488.61 1003.27 3494.74 1016.51 3491.35 1016.11 3497.45 1030.15 3496.75 1029.73 3502.76 1044.03 3504.93 1043.69 3510.8 1056.2 3515.36 1056.21 3515.36"/><polyline class="cls-4" points="969.33 3503.48 974.61 3493.82 974.44 3499.35 982.06 3490.03 982.06 3490.01"/><line class="cls-4" x1="1084.06" y1="3440.87" x2="1113.13" y2="3454.1"/><line class="cls-4" x1="1053.54" y1="3426.32" x2="1084.56" y2="3433.5"/><line class="cls-4" x1="4054.96" y1="1643.09" x2="4120.4" y2="1577.27"/><line class="cls-4" x1="3836.93" y1="1862.36" x2="3836.93" y2="1862.35"/><polyline class="cls-4" points="4131.81 1717.13 4072.71 1776.55 3921.7 1928.42"/><line class="cls-4" x1="3846.04" y1="1853.2" x2="3830.73" y2="1868.5"/><polyline class="cls-4" points="3846.04 1853.2 3988.05 1805.19 4072.71 1776.55"/><polygon class="cls-5" points="3327.01 2172.75 3388.76 2234.51 3510.12 2113.16 3448.36 2051.4 3427.82 2071.95 3327.01 2172.75"/><polyline class="cls-4" points="3388.76 2234.51 3418.56 2142.96 3448.36 2051.4"/><polyline class="cls-4" points="3510.12 2113.16 3418.56 2142.96 3327.01 2172.75"/><polyline class="cls-4" points="1050.35 3715.36 1050.35 3587.24 1091.33 3546.23 1091.33 3674.38"/><line class="cls-4" x1="1152.27" y1="3520.4" x2="1149.61" y2="3523.05"/><line class="cls-4" x1="1165.22" y1="3544.01" x2="1149.61" y2="3559.63"/><line class="cls-4" x1="1179.11" y1="3557.9" x2="1149.61" y2="3587.39"/><polyline class="cls-4" points="1179.11 3568.58 1179.11 3557.9 1165.22 3544.01 1165.22 3533.34 1152.27 3520.4 1152.27 3509.72"/><line class="cls-4" x1="1179.11" y1="3568.58" x2="1149.61" y2="3598.07"/><polyline class="cls-4" points="1179.11 3568.58 1188.12 3577.59 1188.44 3577.27 1199.81 3565.91"/><path class="cls-4" d="M974.53,3597v194.14q37.9-37.91,75.82-75.81h0l41-41,58.29-58.28v-100q0-1.92.18-3.87c.13-1.47.32-2.95.57-4.4s.57-3.07.92-4.55a83.21,83.21,0,0,1,4-12.29,84.43,84.43,0,0,1,5.85-11.54,56.15,56.15,0,0,1,7.88-10.22,26.07,26.07,0,0,1,6.21-4.77c2.2-1.15,5-2,7.53-.92s3.92,3.6,4.67,6a26.79,26.79,0,0,1,1,7.75v100.69"/><polyline class="cls-4" points="1735.63 3321.28 1678.19 3378.71 1722.23 3422.77"/><line class="cls-4" x1="1107.07" y1="3924.07" x2="1420.64" y2="3610.48"/><line class="cls-4" x1="891.91" y1="3464.43" x2="894.77" y2="3459.23"/><polyline class="cls-4" points="4120.4 1577.27 4151.68 1608.55 4186.69 1600.52"/><line class="cls-4" x1="4232.06" y1="1645.88" x2="4186.69" y2="1600.52"/><polyline class="cls-4" points="4232.06 1557.89 4232.06 1645.88 4232.06 1680.29 4267.92 1716.16"/><line class="cls-4" x1="3816.22" y1="1919.98" x2="3850.73" y2="1954.49"/><polyline class="cls-4" points="3733.96 1965.88 3816.22 2048.12 3816.22 1919.98"/><polyline class="cls-4" points="3850.73 1954.49 3850.73 2085.33 3874.73 2109.33"/><polyline class="cls-4" points="4267.92 1716.16 3874.73 2109.33 3874.73 1912.5 3830.73 1868.5 3733.99 1771.76 4120.4 1383.14"/><line class="cls-4" x1="3874.73" y1="2109.33" x2="3856.4" y2="2127.67"/><line class="cls-4" x1="3895.5" y1="2166.78" x2="3856.4" y2="2127.67"/><line class="cls-4" x1="3796.8" y1="2184.58" x2="3837.24" y2="2225.02"/><path class="cls-4" d="M3483.43,2252,3542.3,2216c1.89-1.17,3.79-2.34,5.7-3.49"/><polyline class="cls-4" points="3548 2212.46 3517.69 2182.15 3644.97 2054.87"/><path class="cls-4" d="M3568,2336.6q28.27-17.32,56.53-34.66"/><polyline class="cls-4" points="3503.13 2103.4 3517.69 2088.84 3521.73 2084.8"/><line class="cls-4" x1="3521.73" y1="2084.8" x2="3532.53" y2="2095.59"/><line class="cls-4" x1="3565.42" y1="2062.68" x2="3571.89" y2="2069.16"/><line class="cls-4" x1="3616.92" y1="2026.82" x2="3644.97" y2="2054.87"/><line class="cls-4" x1="3532.53" y1="2095.59" x2="3565.42" y2="2062.68"/><line class="cls-4" x1="3571.89" y1="2069.16" x2="3616.92" y2="2026.82"/><polyline class="cls-4" points="3463.76 2046.77 3464.29 2047.31 3472.92 2055.95"/><path class="cls-4" d="M3624.54,2301.94q4-2.45,8-4.92"/><line class="cls-4" x1="3464.29" y1="2064.58" x2="3472.92" y2="2055.95"/><line class="cls-4" x1="4054.96" y1="1643.09" x2="3912.01" y2="1691.43"/><line class="cls-4" x1="4131.81" y1="1717.13" x2="3986.76" y2="1766.17"/><line class="cls-4" x1="1781.86" y1="3045.14" x2="1781.86" y2="2935.19"/><path class="cls-6" d="M1097.75,3472.18l-72.48-70.65s-40.9-20.69-73.93,19.56c-22.22,27.09-7.09,60.84-7.09,60.84l73.1,70.66Z"/><path class="cls-4" d="M939.4,3645.66a69.74,69.74,0,0,0,4.85,30.68L975,3706.05"/><line class="cls-4" x1="1017.35" y1="3552.59" x2="1025.27" y2="3401.53"/><line class="cls-4" x1="1097.75" y1="3472.18" x2="944.25" y2="3481.93"/><line class="cls-4" x1="938.41" y1="3456.74" x2="938.41" y2="3649.61"/></svg>