<svg id="_3" data-name="3" xmlns="http://www.w3.org/2000/svg" viewBox="0 0 4800 4800"><defs><style>.cls-1{fill:#fff;}.cls-2{fill:#9acbff;}.cls-3,.cls-8{fill:#efd90f;}.cls-3,.cls-4,.cls-5,.cls-8{stroke:#037cff;stroke-linecap:round;stroke-linejoin:round;stroke-width:7.79px;}.cls-4{fill:none;}.cls-5{fill:#efd912;}.cls-6{fill:#81c191;}.cls-7{opacity:0.68;}.cls-8{opacity:0.66;}</style></defs><title>3</title><polygon class="cls-1" points="4262.57 1346.17 4262.57 1527.36 4123.88 1388.66 4123.88 1207.47 4262.57 1346.17"/><path class="cls-2" d="M4192.27,1597l-149.86,208.6L3986,1862l-34.39-35,46.89-65.27,24.91-34.67-23.82-23.81,58.49-82.71L4125,1526l-80.87,80.45-70.81,70.45-18.18-18.18L3863.64,1788l67.49,67.48-356.34,352.75-21.57-21.57L3477,2262.86l-10.34-10.34a46.68,46.68,0,0,0,3.93-7.09c5.4-12.45,2-26.17-6-37.24v-85.88l-13.05-13,12.16-12.18-24.51-24.51,24.51-24.52,90.07-90.06,12-12,28.78,28.78,7.86-7.85-30-30,30-30,4.86-4.85,6.47-6.48-32-32,11.46-11.45-5.33-5.34-53.7,53.7-7.06-7.06-16.25,16.25-38.37-38.37,6.4-6.4-12-12,108.31-108.32,53.17,53.17-6.4,6.39,6.4,6.39,3.19,3.2,6.4-6.39,32,32,56.23-56.23-47.7-47.69,66.35-66.35,49.3,49.3,329.77-329.77,138.69,138.7Z"/><polygon class="cls-1" points="4124.94 1525.95 4058.09 1620.47 4044.08 1606.4 4124.94 1525.95"/><polygon class="cls-1" points="4123.88 1207.47 4123.88 1388.66 3794.11 1718.43 3794.11 1537.23 4123.88 1207.47"/><polygon class="cls-1" points="4044.08 1606.4 4058.09 1620.47 3999.6 1703.18 3973.27 1676.85 4044.08 1606.4"/><polygon class="cls-2" points="4023.42 1726.99 3998.51 1761.66 3951.62 1826.93 3931.13 1855.44 3863.64 1787.96 3955.09 1658.67 3973.27 1676.85 3999.6 1703.18 4023.42 1726.99"/><polygon class="cls-1" points="3794.11 1537.23 3794.11 1718.43 3744.81 1669.13 3744.81 1487.93 3794.11 1537.23"/><path class="cls-2" d="M3534.69,2424.72c8.25,83.7-78.4,138.61-147,80.42-41.31-35.07-50.92-107.07-81.67-150.62-58.92-83.42-394.61-78.06-323.78-224.34,36.91-76.23,141.7-56,198.64-15.55,27.38,19.44,51.58,42.47,87.09,56.76,19.81,8,39.4,14.39,60.63,17.19,19.34,2.55,55.26-9.07,71.71-2.35,12.14,4.95,60.72,52.77,65.26,65.25,1.06,2.92-14,28.2-12.37,38.38,2.41,15.39,11.32,25.71,19.4,38.22C3494.44,2361.83,3530.34,2380.52,3534.69,2424.72Z"/><polygon class="cls-2" points="3454.32 1860.44 3516.07 1922.2 3424.52 1952 3454.32 1860.44"/><polygon class="cls-2" points="3516.07 1922.2 3394.72 2043.55 3424.52 1952 3516.07 1922.2"/><path class="cls-2" d="M3464.57,2208.19c8,11.07,11.4,24.79,6,37.24a46.68,46.68,0,0,1-3.93,7.09l-2.07-2.07Z"/><path class="cls-1" d="M3464.57,2208.19v42.26l-32.35-32.36V2187a63.87,63.87,0,0,1,6.51,1.85A54.51,54.51,0,0,1,3464.57,2208.19Z"/><path class="cls-1" d="M3464.57,2122.31v85.88a54.51,54.51,0,0,0-25.84-19.37,63.87,63.87,0,0,0-6.51-1.85v-97l19.3,19.31Z"/><polygon class="cls-2" points="3454.32 1860.44 3424.52 1952 3332.96 1981.8 3433.76 1881 3454.32 1860.44"/><path class="cls-1" d="M3432.22,2187v31.12l-31.87-31.86C3410.92,2184.93,3421.39,2184.47,3432.22,2187Z"/><path class="cls-1" d="M3432.22,2090v97c-10.83-2.5-21.3-2-31.87-.74l-.49-.5V2057.58l32.36,32.36Z"/><polygon class="cls-2" points="3424.52 1952 3394.72 2043.55 3332.96 1981.8 3424.52 1952"/><polygon class="cls-1" points="3399.86 2160.91 3399.86 2185.73 3387.45 2173.32 3399.86 2160.91"/><polygon class="cls-1" points="1395.84 3392.95 1395.84 3574.14 1337.61 3515.91 1337.61 3387.77 1305.25 3355.41 1305.25 3355.4 1272.89 3323.04 1272.89 3451.18 1272.89 3451.19 1208.12 3386.42 1199.81 3378.11 1199.81 3196.91 1208.12 3205.23 1395.84 3392.95"/><path class="cls-2" d="M1026,3551.89l19.8-19.82,4.51-4.49h0l41-41,58.29-58.28v-18.67l29.5-29.49,9.33,9.34,11.37-11.38,8.31,8.31,64.77,64.77,32.36,32.36,32.36,32.36,58.23,58.23-226.26,226.25-44.94-44.93L1107.06,3773l6.47,6.47,21,21-125.13,125.12L872,3788.27l112.59-112.59,12.55-12.54,29.62,29.62,17.52-17.52v15.12l32.36,32.36,32.36,32.36V3626.94l-32.36-32.36-32.36-32.36v112.92l-70.76-70.77,13.65-13.66v-17.34l28.18-25.89Z"/><polygon class="cls-1" points="1337.61 3387.77 1337.61 3515.91 1305.25 3483.55 1305.25 3355.41 1337.61 3387.77"/><polygon class="cls-1" points="1305.25 3355.41 1305.25 3483.55 1272.89 3451.19 1272.89 3451.18 1272.89 3323.04 1305.25 3355.4 1305.25 3355.41"/><path class="cls-1" d="M1199.81,3196.91v181.2l-11.37,11.38V3288.8a26.79,26.79,0,0,0-1-7.75c-.75-2.38-2.13-4.92-4.67-6s-5.33-.22-7.53.92a26.3,26.3,0,0,0-6.21,4.76,56.63,56.63,0,0,0-7.88,10.24,83.85,83.85,0,0,0-5.85,11.54,82.83,82.83,0,0,0-4,12.29c-.35,1.48-.66,3-.92,4.55s-.44,2.93-.57,4.4c-.12,1.3-.18,2.58-.18,3.85v100.69l-58.29,58.28V3358.45l-41,41v128.13h0l-4.51,4.49-19.8,19.82V3451.21a26.42,26.42,0,0,0-1-7.75c-.75-2.38-2.13-4.94-4.67-6s-5.32-.23-7.53.92a26.76,26.76,0,0,0-6.2,4.77,56.29,56.29,0,0,0-7.88,10.24,82.69,82.69,0,0,0-5.84,11.54,81,81,0,0,0-4,12.29,56.85,56.85,0,0,0-1.66,12.8v100.68l-13.65,13.66v-181.2l88.24-88.24,5.43-5.44h0l9.45-9.46,50-50,54.53-54.51Z"/><path class="cls-1" d="M1188.44,3288.8v100.69l-9.33-9.34v-10.68l-13.89-13.89V3344.9l-13-12.94v-10.68l-1.91-1.91c.26-1.55.57-3.07.92-4.55a82.83,82.83,0,0,1,4-12.29,83.85,83.85,0,0,1,5.85-11.54,56.63,56.63,0,0,1,7.88-10.24,26.3,26.3,0,0,1,6.21-4.76c2.2-1.14,5-2,7.53-.92s3.92,3.6,4.67,6A26.79,26.79,0,0,1,1188.44,3288.8Z"/><path class="cls-2" d="M1179.11,3369.47v10.68l-29.5,29.49V3399Z"/><path class="cls-2" d="M1179.11,3369.47l-29.5,29.49v-27.78l15.61-15.6Z"/><path class="cls-2" d="M1165.22,3344.9v10.68l-15.61,15.6v-10.67Z"/><path class="cls-2" d="M1165.22,3344.9l-15.61,15.61v-25.89l2.66-2.66Z"/><path class="cls-1" d="M1152.27,3321.28V3332l-2.66,2.66v-7c0-1.27.06-2.55.18-3.85Z"/><path class="cls-1" d="M1152.27,3321.28l-2.48,2.49c.13-1.47.32-2.95.57-4.4Z"/><polygon class="cls-2" points="1112.9 3259.48 1114.2 3258.09 1126.68 3270.04 1076.7 3320.03 1113.13 3256 1112.9 3259.48"/><polygon class="cls-2" points="1084.37 3238.55 1113.13 3256 1076.7 3320.03 1067.25 3329.49 1067.23 3329.49 1057.58 3323.63 1057.58 3318.28 1084.56 3235.92 1084.37 3238.55"/><polygon class="cls-1" points="1109.04 3626.94 1109.04 3755.08 1076.68 3722.72 1076.68 3594.58 1109.04 3626.94"/><polygon class="cls-3" points="1091.33 3358.45 1091.33 3486.59 1050.35 3527.57 1050.35 3399.44 1091.33 3358.45"/><polygon class="cls-2" points="1053.84 3224.81 1084.56 3235.92 1057.58 3318.28 1043.69 3313.25 1044.08 3307.45 1044.08 3307.43 1054.06 3221.8 1053.84 3224.81"/><polygon class="cls-1" points="1076.68 3594.58 1076.68 3722.72 1044.32 3690.36 1044.32 3675.24 1044.38 3675.19 1044.32 3675.14 1044.32 3562.22 1076.68 3594.58"/><polygon class="cls-2" points="1054.06 3221.8 1044.08 3307.43 1029.73 3305.75 1030.15 3300.25 1023.12 3217.18 1054.06 3221.8"/><polygon class="cls-2" points="1023.12 3217.18 1030.15 3300.25 1016.11 3300.97 1016.51 3295.37 993.09 3215.42 1022.84 3213.88 1023.12 3217.18"/><path class="cls-1" d="M1026,3451.21v100.68l-10.65-4.41-13.43-5.57-9.52-3.95-5.23-2.16V3490a56.85,56.85,0,0,1,1.66-12.8,81,81,0,0,1,4-12.29,82.69,82.69,0,0,1,5.84-11.54,56.29,56.29,0,0,1,7.88-10.24,26.76,26.76,0,0,1,6.2-4.77c2.21-1.15,5-2,7.53-.92s3.92,3.61,4.67,6A26.42,26.42,0,0,1,1026,3451.21Z"/><polygon class="cls-2" points="993.09 3215.42 1016.51 3295.37 1003.28 3298.79 1003.64 3293.16 964.68 3219.3 992.14 3212.19 993.09 3215.42"/><path class="cls-2" d="M1015.39,3547.48l-28.18,25.89v-16.7l14.75-14.76Z"/><polygon class="cls-2" points="964.68 3219.3 1003.64 3293.16 991.77 3298.99 992.08 3293.41 938.89 3228.44 963.2 3216.5 964.68 3219.3"/><path class="cls-2" d="M1002,3541.91l-14.75,14.76v-13.46l5.23-5.23v0Z"/><path class="cls-2" d="M992.44,3538v0l-5.23,5.23v-7.41Z"/><polygon class="cls-2" points="982.07 3295.65 916.65 3242.28 937.19 3226.35 938.89 3228.44 992.08 3293.41 982.02 3301.21 982.07 3295.65"/><polygon class="cls-2" points="974.47 3299.9 898.83 3260.14 908.88 3248.34 908.89 3248.33 908.94 3248.26 915.12 3241.02 916.65 3242.28 982.07 3295.65 974.45 3305 974.47 3299.9"/><polygon class="cls-2" points="974.47 3299.9 969.34 3309.64 969.34 3305.7 969.42 3305.43 886.2 3281.18 898.83 3260.14 974.47 3299.9"/><polygon class="cls-1" points="973.56 3585.93 973.56 3604.37 963.2 3596.27 973.56 3585.93"/><polygon class="cls-2" points="973.56 3572.93 973.56 3585.93 963.2 3596.27 963.2 3602.02 952.96 3593.48 973.56 3572.93"/><polygon class="cls-2" points="973.56 3559.95 973.56 3572.93 952.96 3593.48 952.97 3600.95 942.72 3590.68 973.56 3559.95"/><polygon class="cls-2" points="973.56 3546.99 973.56 3559.95 942.72 3590.68 942.73 3598.18 932.4 3587.78 973.56 3546.99"/><polygon class="cls-2" points="973.56 3533.77 973.56 3546.99 932.4 3587.78 932.42 3595.36 920.78 3583.43 973.56 3533.77"/><polygon class="cls-2" points="973.56 3521.95 973.56 3533.77 920.78 3583.43 920.91 3591.13 900.51 3563.65 972.4 3522.59 973.56 3521.95"/><polygon class="cls-2" points="970.13 3515.95 972.4 3522.59 900.51 3563.65 900.76 3571.65 887.81 3543.05 967.91 3516.68 970.13 3515.95"/><polygon class="cls-2" points="969.42 3305.43 969.34 3305.7 959.19 3339.34 875.99 3315.11 880.98 3298.51 886.2 3281.18 969.42 3305.43"/><polygon class="cls-2" points="969.42 3498.74 969.27 3506.78 967.43 3512.85 967.13 3510.36 966.86 3510.36 966.87 3507.15 969.42 3498.74"/><polygon class="cls-2" points="969.42 3498.74 966.87 3507.15 966.89 3504.42 880.52 3497.24 886.2 3474.5 969.42 3498.74"/><polygon class="cls-2" points="966.86 3510.36 967.13 3510.36 967.43 3512.85 967.91 3516.68 887.81 3543.05 887.98 3551.1 881.06 3520.52 965.86 3510.5 966.37 3510.45 966.89 3504.42 966.87 3507.15 966.86 3510.36"/><polygon class="cls-2" points="966.89 3504.42 966.37 3510.45 965.86 3510.5 881.06 3520.52 881.13 3528.58 880.52 3497.24 966.89 3504.42"/><line class="cls-4" x1="3744.81" y1="1669.13" x2="3678.46" y2="1735.48"/><line class="cls-4" x1="3726.16" y1="1783.17" x2="3678.46" y2="1735.48"/><line class="cls-4" x1="4262.57" y1="1527.36" x2="4123.88" y2="1388.66"/><line class="cls-4" x1="4262.57" y1="1527.36" x2="4262.57" y2="1346.17"/><polyline class="cls-4" points="3464.57 2250.45 3466.64 2252.51 3476.98 2262.86"/><line class="cls-4" x1="3387.45" y1="2173.32" x2="3399.86" y2="2185.73"/><line class="cls-4" x1="3553.22" y1="2186.62" x2="3574.79" y2="2208.19"/><line class="cls-4" x1="3602.38" y1="1906.96" x2="3572.4" y2="1936.93"/><line class="cls-4" x1="3581.73" y1="1863.65" x2="3613.71" y2="1895.63"/><line class="cls-4" x1="3593.19" y1="1852.2" x2="3581.73" y2="1863.65"/><line class="cls-4" x1="3534.16" y1="1900.56" x2="3587.86" y2="1846.86"/><line class="cls-4" x1="3510.85" y1="1909.75" x2="3527.1" y2="1893.5"/><line class="cls-4" x1="3472.48" y1="1871.38" x2="3510.85" y2="1909.75"/><line class="cls-4" x1="3572.4" y1="1936.93" x2="3602.38" y2="1966.92"/><line class="cls-4" x1="3587.86" y1="1846.86" x2="3593.19" y2="1852.2"/><line class="cls-4" x1="969.27" y1="3506.79" x2="969.42" y2="3498.74"/><line class="cls-4" x1="969.42" y1="3498.74" x2="886.2" y2="3474.5"/><line class="cls-4" x1="966.89" y1="3504.42" x2="880.52" y2="3497.25"/><line class="cls-4" x1="970.13" y1="3515.95" x2="967.91" y2="3516.68"/><line class="cls-4" x1="967.91" y1="3516.68" x2="967.43" y2="3512.85"/><line class="cls-4" x1="972.4" y1="3522.6" x2="970.13" y2="3515.95"/><line class="cls-4" x1="967.43" y1="3512.85" x2="969.27" y2="3506.79"/><line class="cls-4" x1="966.87" y1="3507.15" x2="969.42" y2="3498.74"/><line class="cls-4" x1="967.43" y1="3512.85" x2="967.13" y2="3510.35"/><line class="cls-4" x1="972.4" y1="3522.6" x2="900.51" y2="3563.65"/><line class="cls-4" x1="966.37" y1="3510.45" x2="966.89" y2="3504.42"/><line class="cls-4" x1="965.86" y1="3510.5" x2="881.06" y2="3520.52"/><line class="cls-4" x1="967.91" y1="3516.68" x2="887.81" y2="3543.05"/><polyline class="cls-4" points="1199.81 3196.91 1181.21 3215.53 1126.68 3270.04"/><line class="cls-4" x1="1199.81" y1="3378.11" x2="1199.81" y2="3196.91"/><line class="cls-4" x1="1107.06" y1="3773.03" x2="1124.64" y2="3755.46"/><line class="cls-4" x1="1124.64" y1="3755.46" x2="1169.58" y2="3800.39"/><line class="cls-4" x1="1395.84" y1="3574.14" x2="1395.84" y2="3392.95"/><polyline class="cls-4" points="1395.84 3392.95 1208.12 3205.23 1199.81 3196.91"/><line class="cls-4" x1="937.19" y1="3226.35" x2="916.65" y2="3242.28"/><line class="cls-4" x1="908.88" y1="3248.31" x2="908.89" y2="3248.33"/><line class="cls-4" x1="1003.64" y1="3293.16" x2="964.68" y2="3219.3"/><line class="cls-4" x1="963.2" y1="3216.5" x2="938.89" y2="3228.44"/><line class="cls-4" x1="938.89" y1="3228.44" x2="937.19" y2="3226.35"/><line class="cls-4" x1="992.14" y1="3212.19" x2="964.68" y2="3219.3"/><line class="cls-4" x1="1030.15" y1="3300.25" x2="1023.11" y2="3217.18"/><line class="cls-4" x1="1022.84" y1="3213.88" x2="993.09" y2="3215.42"/><line class="cls-4" x1="993.09" y1="3215.42" x2="992.14" y2="3212.19"/><line class="cls-4" x1="964.68" y1="3219.3" x2="963.2" y2="3216.5"/><line class="cls-4" x1="992.08" y1="3293.41" x2="938.89" y2="3228.44"/><line class="cls-4" x1="973.56" y1="3521.95" x2="972.4" y2="3522.6"/><line class="cls-4" x1="880.98" y1="3298.51" x2="875.99" y2="3315.11"/><line class="cls-4" x1="973.56" y1="3559.95" x2="942.72" y2="3590.68"/><line class="cls-4" x1="973.56" y1="3533.77" x2="920.78" y2="3583.43"/><line class="cls-4" x1="973.56" y1="3521.95" x2="973.56" y2="3423.17"/><line class="cls-4" x1="1084.56" y1="3235.92" x2="1053.84" y2="3224.81"/><line class="cls-4" x1="1054.06" y1="3221.8" x2="1023.11" y2="3217.18"/><line class="cls-4" x1="1053.84" y1="3224.81" x2="1054.06" y2="3221.8"/><line class="cls-4" x1="1114.2" y1="3258.09" x2="1112.9" y2="3259.48"/><line class="cls-4" x1="3527.1" y1="1893.5" x2="3534.16" y2="1900.56"/><line class="cls-4" x1="1113.13" y1="3256" x2="1084.37" y2="3238.55"/><line class="cls-4" x1="1112.9" y1="3259.48" x2="1113.13" y2="3256"/><line class="cls-4" x1="1084.37" y1="3238.55" x2="1084.56" y2="3235.92"/><line class="cls-4" x1="1057.58" y1="3318.28" x2="1084.56" y2="3235.92"/><line class="cls-4" x1="1053.54" y1="3228.77" x2="1053.84" y2="3224.81"/><line class="cls-4" x1="1044.08" y1="3307.43" x2="1054.06" y2="3221.8"/><line class="cls-4" x1="1044.03" y1="3307.88" x2="1044.08" y2="3307.45"/><line class="cls-4" x1="1026.8" y1="3692.76" x2="997.18" y2="3663.14"/><line class="cls-4" x1="1134.54" y1="3800.5" x2="1113.53" y2="3779.5"/><line class="cls-4" x1="1113.53" y1="3779.5" x2="1107.06" y2="3773.03"/><line class="cls-4" x1="1169.58" y1="3800.39" x2="1395.84" y2="3574.14"/><polyline class="cls-4" points="982.27 3295.81 982.07 3295.65 916.65 3242.28"/><line class="cls-4" x1="915.12" y1="3241.02" x2="908.94" y2="3248.26"/><line class="cls-4" x1="1061.8" y1="3334.93" x2="973.56" y2="3423.17"/><line class="cls-4" x1="908.88" y1="3248.34" x2="908.88" y2="3248.31"/><line class="cls-4" x1="908.94" y1="3248.26" x2="908.88" y2="3248.31"/><line class="cls-4" x1="1023.11" y1="3217.18" x2="1022.84" y2="3213.88"/><line class="cls-4" x1="1126.68" y1="3270.04" x2="1114.2" y2="3258.09"/><line class="cls-4" x1="1076.7" y1="3320.03" x2="1113.13" y2="3256"/><line class="cls-4" x1="916.65" y1="3242.28" x2="915.12" y2="3241.02"/><line class="cls-4" x1="908.88" y1="3248.34" x2="898.83" y2="3260.14"/><line class="cls-4" x1="973.56" y1="3546.98" x2="932.4" y2="3587.78"/><line class="cls-4" x1="973.56" y1="3585.92" x2="963.2" y2="3596.27"/><line class="cls-4" x1="973.56" y1="3572.93" x2="952.96" y2="3593.48"/><line class="cls-4" x1="997.18" y1="3663.14" x2="984.63" y2="3675.68"/><polyline class="cls-4" points="966.86 3510.38 966.86 3510.36 966.87 3507.15 966.89 3504.42"/><line class="cls-4" x1="969.42" y1="3305.43" x2="886.2" y2="3281.18"/><polyline class="cls-4" points="973.56 3604.37 973.56 3585.93 973.56 3572.93 973.56 3559.95 973.56 3546.99 973.56 3533.77 973.56 3521.95"/><line class="cls-4" x1="1067.23" y1="3329.49" x2="1061.8" y2="3334.93"/><polyline class="cls-4" points="1126.68 3270.04 1076.7 3320.03 1067.25 3329.49"/><polyline class="cls-4" points="1272.89 3451.19 1208.12 3386.42 1199.81 3378.11"/><polyline class="cls-4" points="974.61 3299.97 974.47 3299.9 898.83 3260.14"/><line class="cls-4" x1="1016.51" y1="3295.37" x2="993.09" y2="3215.42"/><line class="cls-4" x1="1084.06" y1="3242.8" x2="1084.37" y2="3238.55"/><polyline class="cls-4" points="908.94 3248.26 908.89 3248.33 908.88 3248.34"/><line class="cls-4" x1="3478.88" y1="1864.98" x2="3472.48" y2="1871.38"/><line class="cls-4" x1="3478.88" y1="1864.98" x2="3466.89" y2="1852.99"/><line class="cls-4" x1="3575.2" y1="1744.67" x2="3466.89" y2="1852.99"/><polygon class="cls-5" points="3332.96 1981.8 3394.72 2043.55 3516.07 1922.2 3454.32 1860.44 3433.76 1881 3332.96 1981.8"/><polyline class="cls-4" points="3394.72 2043.55 3424.52 1952 3454.32 1860.44"/><polyline class="cls-4" points="3516.07 1922.2 3424.52 1952 3332.96 1981.8"/><polyline class="cls-4" points="3565.74 1945.99 3553.75 1957.99 3463.68 2048.05 3439.17 2072.57"/><line class="cls-4" x1="3463.68" y1="2097.08" x2="3439.17" y2="2072.57"/><line class="cls-4" x1="3628.37" y1="1797.84" x2="3575.2" y2="1744.67"/><line class="cls-4" x1="3621.97" y1="1804.23" x2="3628.37" y2="1797.84"/><line class="cls-4" x1="4192.27" y1="1596.96" x2="4262.57" y2="1527.36"/><line class="cls-4" x1="3574.79" y1="2208.19" x2="3931.13" y2="1855.44"/><polyline class="cls-4" points="3931.13 1855.44 3951.62 1826.93 3998.51 1761.66 4023.42 1726.99"/><line class="cls-4" x1="4058.09" y1="1620.47" x2="4044.08" y2="1606.4"/><polyline class="cls-4" points="4124.94 1525.95 4044.08 1606.4 3973.27 1676.85"/><polyline class="cls-4" points="4124.94 1525.95 4058.09 1620.47 3999.6 1703.18"/><polyline class="cls-4" points="4042.41 1805.56 4192.27 1596.96 4193.66 1595.01"/><polyline class="cls-4" points="3951.62 1826.93 3986.01 1861.96 4042.41 1805.56"/><line class="cls-4" x1="3955.09" y1="1658.67" x2="3863.64" y2="1787.96"/><line class="cls-4" x1="3863.64" y1="1787.96" x2="3931.13" y2="1855.44"/><polyline class="cls-4" points="969.42 3305.43 969.34 3305.7 959.19 3339.34"/><polyline class="cls-4" points="969.34 3305.7 969.34 3309.64 974.47 3299.9 974.45 3305 982.07 3295.65 982.02 3301.21 992.08 3293.41 991.77 3298.99 1003.64 3293.16 1003.28 3298.79 1016.51 3295.37 1016.11 3300.97 1030.15 3300.25 1029.73 3305.75 1044.08 3307.43 1044.08 3307.45 1043.69 3313.25 1057.58 3318.28 1057.58 3323.63 1067.23 3329.49 1067.25 3329.49"/><line class="cls-4" x1="886.2" y1="3281.18" x2="898.83" y2="3260.14"/><line class="cls-4" x1="880.98" y1="3298.51" x2="886.2" y2="3281.18"/><line class="cls-4" x1="1188.44" y1="3389.49" x2="1199.81" y2="3378.11"/><polyline class="cls-4" points="3432.22 2218.09 3432.22 2186.97 3432.22 2089.95"/><polyline class="cls-4" points="973.56 3604.37 1044.32 3675.14 1044.38 3675.19 1044.32 3675.24 1026.8 3692.76"/><polygon class="cls-4" points="3399.86 2185.73 3399.86 2160.91 3399.86 2057.58 3432.22 2089.94 3432.22 2089.95 3451.52 2109.26 3464.57 2122.31 3464.57 2208.19 3464.57 2250.45 3432.22 2218.09 3400.35 2186.23 3399.86 2185.73"/><line class="cls-4" x1="3451.52" y1="2109.26" x2="3463.68" y2="2097.08"/><line class="cls-4" x1="3387.45" y1="2173.32" x2="3399.86" y2="2160.92"/><polyline class="cls-4" points="1050.35 3527.57 1050.35 3399.44 1091.33 3358.45 1091.33 3486.59"/><line class="cls-4" x1="3726.16" y1="1783.17" x2="3669.93" y2="1839.4"/><line class="cls-4" x1="3607.24" y1="1902.11" x2="3602.38" y2="1906.96"/><line class="cls-4" x1="3594.52" y1="1974.77" x2="3565.74" y2="1945.99"/><polyline class="cls-4" points="987.21 3535.8 992.44 3537.96 1001.96 3541.91 1015.39 3547.48 1026.04 3551.89"/><line class="cls-4" x1="1001.96" y1="3541.91" x2="987.21" y2="3556.67"/><line class="cls-4" x1="992.44" y1="3537.98" x2="987.21" y2="3543.21"/><line class="cls-4" x1="973.56" y1="3604.37" x2="987.21" y2="3590.71"/><path class="cls-4" d="M987.21,3590.71V3490a56.85,56.85,0,0,1,1.66-12.8,81,81,0,0,1,4-12.29,82.69,82.69,0,0,1,5.84-11.54,56.29,56.29,0,0,1,7.88-10.24,26.76,26.76,0,0,1,6.2-4.77c2.21-1.15,5-2,7.53-.92s3.92,3.61,4.67,6a26.42,26.42,0,0,1,1,7.75v100.68"/><line class="cls-4" x1="1165.22" y1="3344.9" x2="1149.61" y2="3360.51"/><line class="cls-4" x1="1152.27" y1="3321.28" x2="1150.36" y2="3319.37"/><line class="cls-4" x1="1152.27" y1="3321.28" x2="1149.79" y2="3323.77"/><line class="cls-4" x1="1152.27" y1="3331.96" x2="1149.61" y2="3334.62"/><line class="cls-4" x1="1165.22" y1="3355.58" x2="1149.61" y2="3371.18"/><line class="cls-4" x1="1179.11" y1="3369.47" x2="1149.61" y2="3398.96"/><line class="cls-4" x1="1188.44" y1="3389.49" x2="1179.11" y2="3380.15"/><polyline class="cls-4" points="1179.11 3380.15 1179.11 3369.47 1165.22 3355.58 1165.22 3344.9 1152.27 3331.96 1152.27 3321.28"/><line class="cls-4" x1="1179.11" y1="3380.15" x2="1149.61" y2="3409.64"/><path class="cls-4" d="M1149.61,3428.31V3327.62c0-1.27.06-2.55.18-3.85.13-1.47.32-2.95.57-4.4s.57-3.07.92-4.55a82.83,82.83,0,0,1,4-12.29,83.85,83.85,0,0,1,5.85-11.54,56.63,56.63,0,0,1,7.88-10.24,26.3,26.3,0,0,1,6.21-4.76c2.2-1.14,5-2,7.53-.92s3.92,3.6,4.67,6a26.79,26.79,0,0,1,1,7.75v100.69"/><polyline class="cls-4" points="1149.61 3428.31 1091.33 3486.59 1050.35 3527.57 1050.35 3527.58 1045.84 3532.07 1026.04 3551.89 1024.57 3553.36"/><line class="cls-4" x1="1337.61" y1="3515.91" x2="1395.84" y2="3574.14"/><polyline class="cls-4" points="952.97 3600.95 942.72 3590.68 942.73 3598.18 932.4 3587.78 932.42 3595.36 920.78 3583.43 920.91 3591.13 900.51 3563.65 900.76 3571.65 887.81 3543.05 887.98 3551.1 881.06 3520.52 881.13 3528.58 880.52 3497.24"/><polyline class="cls-4" points="952.97 3600.95 952.96 3593.48 963.2 3602.02 963.2 3596.27"/><line class="cls-4" x1="963.2" y1="3596.27" x2="973.56" y2="3604.37"/><line class="cls-4" x1="987.21" y1="3573.37" x2="1015.39" y2="3547.48"/><line class="cls-4" x1="880.52" y1="3497.25" x2="886.2" y2="3474.5"/><line class="cls-4" x1="3476.98" y1="2262.86" x2="3553.22" y2="2186.62"/><line class="cls-4" x1="3628.37" y1="1810.62" x2="3621.97" y2="1804.23"/><line class="cls-4" x1="3613.71" y1="1895.63" x2="3607.24" y2="1902.11"/><line class="cls-4" x1="3631.56" y1="1813.82" x2="3628.37" y2="1810.62"/><line class="cls-4" x1="3637.96" y1="1807.43" x2="3631.56" y2="1813.82"/><line class="cls-4" x1="3669.93" y1="1839.4" x2="3637.96" y2="1807.43"/><line class="cls-4" x1="3794.11" y1="1537.23" x2="3744.81" y2="1487.93"/><line class="cls-4" x1="3744.81" y1="1669.13" x2="3744.81" y2="1487.93"/><line class="cls-4" x1="3794.11" y1="1718.43" x2="3744.81" y2="1669.13"/><line class="cls-4" x1="4123.88" y1="1207.47" x2="3794.11" y2="1537.23"/><line class="cls-4" x1="3794.11" y1="1718.43" x2="3794.11" y2="1537.23"/><line class="cls-4" x1="4123.88" y1="1388.66" x2="3794.11" y2="1718.43"/><line class="cls-4" x1="4262.57" y1="1346.17" x2="4123.88" y2="1207.47"/><line class="cls-4" x1="4123.88" y1="1388.66" x2="4123.88" y2="1207.47"/><line class="cls-4" x1="1305.25" y1="3483.55" x2="1305.25" y2="3355.41"/><line class="cls-4" x1="1076.68" y1="3594.58" x2="1076.68" y2="3722.72"/><polygon class="cls-4" points="1076.68 3722.72 1044.32 3690.36 1044.32 3675.24 1044.32 3675.14 1044.32 3562.22 1076.68 3594.58 1109.04 3626.94 1109.04 3755.08 1076.68 3722.72"/><polygon class="cls-4" points="1272.89 3451.19 1272.89 3451.18 1272.89 3323.04 1305.25 3355.4 1305.25 3355.41 1337.61 3387.77 1337.61 3515.91 1305.25 3483.55 1272.89 3451.19"/><line class="cls-4" x1="3602.38" y1="1966.92" x2="3594.52" y2="1974.77"/><line class="cls-4" x1="1112.68" y1="3262.77" x2="1112.9" y2="3259.48"/><polygon class="cls-1" points="1443.03 4158.84 1290.64 4311.21 1262.24 4282.8 1262.24 4249.33 1232.88 4219.97 1243.72 4209.15 1289.78 4255.21 1414.6 4130.41 1415.17 4130.98 1443.03 4158.84"/><path class="cls-1" d="M1320.29,3988.51v63.68a33.23,33.23,0,1,1-66.45,0V3889a35.49,35.49,0,0,1,13.3,4.26c8,4.49,14,11.82,21.7,16.74,9.24,5.91,20.73,7.41,31.44,5.18v73.36Z"/><polygon class="cls-1" points="1370.13 4061.16 1288.07 4143.22 1286.2 4141.35 1287.05 4140.51 1287.05 4119.39 1288.07 4120.42 1370.13 4038.36 1370.13 4058.37 1370.13 4061.16"/><polygon class="cls-1" points="1288.07 4143.22 1370.13 4061.16 1370.13 4066.63 1371.13 4066.63 1396.32 4091.82 1386.17 4101.97 1288.93 4199.22 1227.36 4137.65 1063.1 3973.38 1062.92 3973.56 995.42 3902.73 1019.84 3878.3 1027.98 3883.12 1097.19 3952.34 1218.85 4074 1286.2 4141.35 1288.07 4143.22"/><path class="cls-1" d="M1274.34,4082.89a33.23,33.23,0,0,0,46-30.7v-63.68l49.84,49.85-82.06,82.06-1-1-68.19-68.2,35-35v36a33.25,33.25,0,0,0,20.5,30.7Z"/><polygon class="cls-1" points="1287.05 4119.39 1287.05 4140.51 1286.2 4141.35 1218.85 4074 1218.85 4051.19 1287.05 4119.39"/><polygon class="cls-6" points="1262.24 4282.8 1262.24 4288.16 1262.21 4288.17 1009.27 4541.12 989.86 4521.71 1262.24 4249.33 1262.24 4282.8"/><path class="cls-6" d="M1262.24,4249.33,989.85,4521.71l19.42,19.41c52.1,51.18,52.68,52.3,80.76,80.66,2.68,13.44,1.25,28-6.89,38.8-4.68,6.24-11.12,10.73-18,14.58-69.89-68-73.08-74.52-153-153.45L1223.4,4210.5l9.48,9.47Z"/><polygon class="cls-1" points="1253.84 3982.3 1253.84 4016.2 1218.85 4051.19 1218.85 4074 1097.19 3952.34 1160.45 3889.09 1253.66 3982.3 1253.84 3982.3"/><polygon class="cls-1" points="1177.99 4174.09 1189.36 4185.99 1177.99 4197.69 1177.99 4174.09"/><polygon class="cls-1" points="1160.45 3889.09 1097.19 3952.34 1097.19 3929.53 1179.25 3847.47 1179.25 3867.49 1179.25 3870.28 1160.45 3889.09"/><polygon class="cls-6" points="1177.99 4174.09 1177.99 4197.69 957.5 4424.4 905.6 4476.29 866.76 4515.13 866.76 4476.29 905.6 4437.47 1094.42 4248.63 1177.99 4165.08 1177.99 4174.09"/><polygon class="cls-6" points="775.84 4201.61 794.69 4220.45 741.64 4273.5 761.06 4292.91 866.76 4398.63 1080.91 4184.49 1100.31 4165.08 975.19 4039.95 922.14 4093 883.3 4054.17 955.76 3981.71 958.99 3978.49 975.19 3962.28 998.84 3985.93 1014.02 4001.12 1139.15 4126.24 1177.99 4165.08 1094.42 4248.63 905.6 4437.47 866.76 4476.29 702.8 4312.33 663.98 4273.5 755.85 4181.62 775.84 4201.61"/><path class="cls-1" d="M1129.4,3797.63v63.69a33.22,33.22,0,1,1-66.44,0V3720.41a34.89,34.89,0,0,1,10.9,3.91c8,4.49,14,11.82,21.69,16.74,9,5.73,20,7.31,30.48,5.36h0l3.36.17v51Z"/><polygon class="cls-1" points="1063.1 3973.38 1227.36 4137.65 1288.93 4199.22 1386.17 4101.97 1387.59 4103.39 1414.6 4130.4 1414.6 4130.41 1289.78 4255.21 1243.72 4209.15 1266.98 4185.88 1227.36 4146.26 1112.3 4025.45 1112.33 4025.42 1062.92 3973.56 1063.1 3973.38"/><polygon class="cls-6" points="1100.31 4165.08 1080.91 4184.49 975.19 4078.78 975.19 4039.95 1100.31 4165.08"/><polygon class="cls-1" points="1097.19 3929.53 1097.19 3952.34 1027.98 3883.12 1027.98 3860.31 1097.19 3929.53"/><path class="cls-1" d="M1072.69,3884.82a33.22,33.22,0,0,0,56.71-23.5v-63.69l49.85,49.84-82.06,82.06L1028,3860.31l35-35v36A33.23,33.23,0,0,0,1072.69,3884.82Z"/><polygon class="cls-1" points="984.36 3652.6 984.36 3675.41 961.54 3698.24 902.65 3757.12 902.32 3757.12 902.32 3734.65 984.36 3652.6"/><path class="cls-1" d="M873.68,3684.9a33.23,33.23,0,0,0,60.85-18.46v-63.68l48.76,48.77,1.07,1.07-82,82.05-1.08-1.08-68.14-68.14,35-35v36A33.17,33.17,0,0,0,873.68,3684.9Z"/><polygon class="cls-1" points="952.3 3937.27 998.84 3985.93 975.19 3962.28 958.99 3978.49 957.92 3977.43 937.03 3956.52 936.79 3956.36 942.18 3948.38 944.22 3945.37 952.3 3937.27"/><polygon class="cls-6" points="975.19 4039.95 975.19 4078.78 922.14 4131.83 922.14 4093 975.19 4039.95"/><polygon class="cls-2" points="831.16 3851.72 836.88 3843.24 836.96 3843.29 941.75 3948.08 942.18 3948.38 936.79 3956.36 933.5 3961.23 932.99 3960.88 828.2 3856.11 831.16 3851.72"/><path class="cls-1" d="M934.53,3602.76v63.68a33.23,33.23,0,1,1-66.45,0V3522.22l.39-2a34.94,34.94,0,0,1,10.35,3.8c8,4.49,14,11.83,21.71,16.75,9,5.72,20,7.32,30.47,5.37l3.53.94Z"/><polygon class="cls-2" points="930.9 3963.97 826.13 3859.19 828.2 3856.11 932.99 3960.88 933.5 3961.23 931.41 3964.32 930.9 3963.97"/><polygon class="cls-2" points="931.41 3964.32 922.64 3977.29 817.41 3872.07 826.13 3859.19 930.9 3963.97 931.41 3964.32"/><polygon class="cls-6" points="922.14 4093 922.14 4131.83 916.57 4126.26 916.57 4122.69 883.3 4089.43 883.3 4054.17 922.14 4093"/><polygon class="cls-2" points="920.55 3980.38 911.86 3993.25 806.63 3888.04 815.33 3875.17 815.42 3875.24 920.55 3980.38"/><polygon class="cls-1" points="916.57 4129.16 916.57 4126.26 922.14 4131.83 975.19 4078.78 1080.91 4184.49 866.76 4398.63 761.06 4292.91 794.69 4259.28 794.69 4220.45 775.84 4201.61 778.87 4198.57 813.01 4232.72 820.57 4225.16 828.11 4232.72 833.33 4227.5 833.33 4212.41 884.39 4161.34 891.93 4168.9 897.15 4163.68 897.15 4148.58 916.57 4129.16"/><polygon class="cls-1" points="916.57 4122.69 916.57 4126.26 916.57 4129.16 897.15 4148.58 891.93 4153.8 884.39 4161.34 833.33 4212.41 828.11 4217.62 820.57 4225.16 813.01 4232.72 813.01 4226.26 916.57 4122.69"/><polygon class="cls-1" points="916.57 4122.69 813.01 4226.26 782.1 4195.34 774.18 4187.42 877.73 4083.86 883.3 4089.43 916.57 4122.69"/><path class="cls-6" d="M912.18,4521.71c79.87,78.93,83.06,85.43,153,153.45-3.3,1.83-6.7,3.51-10.08,5.16-5.23,2.56-10.47,5.13-15.74,7.67-57.11-56.43-55.56-57.86-127.13-127.45Z"/><polygon class="cls-2" points="909.82 3996.25 901.06 4009.22 795.84 3904 804.49 3891.22 804.96 3891.53 909.34 3995.93 909.82 3996.25"/><path class="cls-2" d="M902.32,3757.12h.34l58.89-58.88.68.69,99.61,99.61H1063v26.79l-35,35v22.81l-8.14-4.82-24.42,24.43,67.5,70.83,49.41,51.86,0,0,115.06,120.81,39.62,39.61-23.26,23.28L1232.88,4220l-9.48-9.47L912.18,4521.71v38.83c71.57,69.59,70,71,127.13,127.45-43.55,21-88.65,40.49-136.71,42.76-53.85,2.54-112.86-22.35-133.51-72.16-6.24-15.07-8.68-31.43-13.71-47-16.25-50.23-61.65-89.85-113.62-99.14-20.5-3.66-41.53-2.93-62.2-5.37-51.62-6.1-98.72-31.62-143.46-58.09-43.42-25.66-89-56.29-105.23-104.05-11.7-34.42-6.37-73.62-22.22-106.35-22.67-46.85-80.73-65.58-111.29-107.71-22-30.25-27.33-69.3-28.63-106.65-1.73-50.16,7.06-108.16,49.71-134.64a110.12,110.12,0,0,1,14.75-7.54C341.49,3990.25,382.27,4031,497,4145.73l89.35-89.36v-15.22l30.32-30.32L680.48,3947l27.9-27.89.33-.32,7.42,7.42L808,3834.34v-5.77l23.14,23.15-3,4.38-2.07,3.09-8.71,12.88-2.09,3.1-8.7,12.87-2.14,3.18L795.84,3904v5.18L901.06,4014.4v-5.18l8.76-13,2-3,8.69-12.87,2.09-3.09,8.77-13,2.09-3.09,3.29-4.87.24.16,20.89,20.91,1.07,1.06-3.23,3.22-72.46,72.46v35.26l-5.57-5.57L774.18,4187.42v6.46l4.68,4.69-3,3-20-20L664,4273.5v38.83l38.82,38.83,164,164,38.83-38.84,51.9-51.89L1178,4197.69l11.37-11.7-11.37-11.9v-9l-38.84-38.84L1014,4001.12l-15.18-15.19-46.54-48.66-8.08,8.1-.38-.38L839,3840.14l17.86-17.86,27.57-27.57L912,3767.14l-9.67-9.68-.17-.17Z"/><polygon class="cls-1" points="901.24 3733.57 902.32 3734.65 902.32 3757.12 902.15 3757.29 833.1 3688.23 833.1 3665.43 901.24 3733.57"/><polygon class="cls-1" points="902.32 3757.46 911.99 3767.14 884.42 3794.71 594.82 3505.11 679.33 3420.59 679.33 3441.7 644.35 3476.69 644.35 3499.49 713.58 3568.72 833.1 3688.23 902.15 3757.29 902.32 3757.46"/><polygon class="cls-1" points="897.15 4148.58 897.15 4163.68 891.93 4168.9 891.93 4153.8 897.15 4148.58"/><polygon class="cls-1" points="891.93 4153.8 891.93 4168.9 884.39 4161.34 891.93 4153.8"/><polygon class="cls-1" points="594.82 3505.11 884.42 3794.71 856.85 3822.28 856.77 3822.2 545.29 3510.72 670.11 3385.92 679.33 3395.15 679.33 3420.59 594.82 3505.11"/><polygon class="cls-1" points="868.08 3607.42 868.08 3630.45 833.1 3665.43 833.1 3688.23 713.58 3568.72 770.93 3511.37 866.99 3607.42 868.08 3607.42"/><polygon class="cls-6" points="866.76 4476.29 866.76 4515.13 702.8 4351.16 663.98 4312.33 663.98 4273.5 702.8 4312.33 866.76 4476.29"/><polygon class="cls-1" points="856.85 3822.28 838.99 3840.14 836.88 3843.24 831.16 3851.72 808.02 3828.57 808.02 3795.5 769.18 3756.66 752.64 3773.2 495.77 3516.33 648.14 3363.95 670.11 3385.92 545.29 3510.72 856.77 3822.2 856.85 3822.28"/><polygon class="cls-2" points="944.22 3945.37 942.18 3948.38 941.75 3948.08 836.96 3843.29 836.88 3843.24 838.99 3840.14 943.84 3944.99 944.22 3945.37"/><polygon class="cls-1" points="833.33 4212.41 833.33 4227.5 828.11 4232.72 828.11 4217.62 833.33 4212.41"/><polygon class="cls-1" points="828.11 4217.62 828.11 4232.72 820.57 4225.16 828.11 4217.62"/><polygon class="cls-2" points="815.42 3875.24 815.33 3875.17 817.41 3872.07 922.64 3977.29 920.55 3980.38 815.42 3875.24"/><polygon class="cls-1" points="813.01 4226.26 813.01 4232.72 778.87 4198.57 781.75 4195.69 782.1 4195.34 813.01 4226.26"/><polygon class="cls-6" points="808.02 3834.34 716.13 3926.21 716.13 3887.39 808.02 3795.5 808.02 3828.57 808.02 3833.97 808.02 3834.34"/><polygon class="cls-2" points="806.63 3888.04 911.86 3993.25 909.82 3996.25 909.34 3995.93 804.96 3891.53 804.49 3891.22 806.63 3888.04"/><polygon class="cls-2" points="901.06 4009.22 901.06 4014.4 795.84 3909.18 795.84 3904 901.06 4009.22"/><polygon class="cls-1" points="770.93 3511.37 713.58 3568.72 713.58 3545.91 795.62 3463.86 795.62 3483.88 795.62 3486.67 770.93 3511.37"/><polygon class="cls-6" points="794.69 4220.45 794.69 4259.28 761.06 4292.91 741.64 4273.5 794.69 4220.45"/><polygon class="cls-6" points="749.95 3775.9 752.64 3773.22 752.64 3773.2 769.18 3756.66 808.02 3795.5 716.13 3887.39 677.3 3848.55 749.95 3775.9"/><path class="cls-1" d="M679.33,3395.15v-95.6l.34-1a35,35,0,0,1,5.87,2.61c8,4.49,14,11.83,21.7,16.75,11.33,7.24,26,7.86,38.54,3.1V3477.7a33.23,33.23,0,0,1-66.45,0v-82.55Z"/><polygon class="cls-6" points="716.13 3887.39 716.13 3926.21 708.71 3918.78 699.78 3909.86 699.78 3905.9 677.3 3883.43 677.3 3848.55 716.13 3887.39"/><polygon class="cls-1" points="713.58 3545.91 713.58 3568.72 644.35 3499.49 644.35 3476.69 713.58 3545.91"/><path class="cls-1" d="M699.84,3508.4a33.22,33.22,0,0,0,45.94-30.7V3414l49.84,49.84-82,82-69.23-69.22,35-35v36a33.28,33.28,0,0,0,20.51,30.7Z"/><polygon class="cls-1" points="699.78 3912.37 699.78 3909.86 708.71 3918.78 708.38 3919.11 680.48 3947 680.36 3946.89 680.36 3931.79 699.78 3912.37"/><polygon class="cls-1" points="675.14 3937.01 667.6 3944.55 616.54 3995.61 611.32 4000.83 603.78 4008.37 596.22 4015.93 596.22 4009.45 699.78 3905.9 699.78 3909.86 699.78 3912.37 680.36 3931.79 675.14 3937.01"/><polygon class="cls-1" points="699.78 3905.9 596.22 4009.45 557.39 3970.63 660.94 3867.07 677.3 3883.43 699.78 3905.9"/><polygon class="cls-1" points="680.36 3931.79 680.36 3946.89 675.14 3952.11 675.14 3937.01 680.36 3931.79"/><polygon class="cls-1" points="675.14 3952.11 680.36 3946.89 680.48 3947 616.65 4010.83 616.54 4010.71 616.54 3995.61 667.6 3944.55 675.14 3952.11"/><polygon class="cls-1" points="675.14 3937.01 675.14 3952.11 667.6 3944.55 675.14 3937.01"/><polygon class="cls-1" points="616.54 3995.61 616.54 4010.71 611.32 4015.93 611.32 4000.83 616.54 3995.61"/><polygon class="cls-1" points="611.32 4000.83 611.32 4015.93 603.78 4008.37 611.32 4000.83"/><polygon class="cls-6" points="586.33 4041.15 586.33 4056.37 496.98 4145.73 496.98 4106.5 586.33 4017.15 586.33 4041.15"/><path class="cls-6" d="M586.33,4017.15,497,4106.5c-104.11-105-139.67-140.65-235.74-235.78,1.44-.65,2.85-1.31,4.27-2,15.39-7.65,30.07-20.48,32.24-37.54l.7-.7c82.12,82.05,106,105.93,198.53,198.39l50.52-50.54Z"/><path class="cls-6" d="M261.24,3870.72c96.07,95.13,131.63,130.75,235.74,235.78v39.23C382.27,4031,341.49,3990.25,233.19,3882.09,242.43,3878.12,252.06,3874.87,261.24,3870.72Z"/><polyline class="cls-4" points="897.15 4148.58 891.93 4153.8 884.39 4161.34"/><polyline class="cls-4" points="1232.88 4219.97 1243.72 4209.15 1266.98 4185.88"/><polyline class="cls-4" points="1112.33 4025.42 1062.92 3973.56 995.42 3902.73"/><line class="cls-4" x1="1227.36" y1="4146.26" x2="1112.3" y2="4025.45"/><polyline class="cls-4" points="901.06 4009.22 909.82 3996.25 911.86 3993.25 920.55 3980.38 922.64 3977.29 931.41 3964.32 933.5 3961.23 936.79 3956.36 942.18 3948.38 944.22 3945.37"/><line class="cls-4" x1="702.8" y1="4312.33" x2="866.77" y2="4476.29"/><line class="cls-4" x1="866.77" y1="4476.29" x2="905.6" y2="4437.47"/><line class="cls-4" x1="1443.03" y1="4158.84" x2="1290.64" y2="4311.21"/><line class="cls-4" x1="495.77" y1="3516.33" x2="648.14" y2="3363.96"/><polyline class="cls-4" points="808.02 3833.97 808.02 3828.57 808.02 3795.5"/><line class="cls-4" x1="749.95" y1="3775.9" x2="677.3" y2="3848.55"/><line class="cls-4" x1="752.65" y1="3773.21" x2="749.95" y2="3775.9"/><line class="cls-4" x1="769.18" y1="3756.67" x2="752.65" y2="3773.2"/><path class="cls-4" d="M1125.13,4657c-15.64-15.62-26.62-26.64-35.1-35.2-28.08-28.36-28.66-29.48-80.76-80.66"/><polyline class="cls-4" points="838.99 3840.14 856.85 3822.28 884.42 3794.71 911.99 3767.14"/><line class="cls-4" x1="943.84" y1="3944.99" x2="838.99" y2="3840.14"/><line class="cls-4" x1="1289.78" y1="4255.21" x2="1243.72" y2="4209.15"/><polyline class="cls-4" points="1177.99 4197.92 1177.99 4197.69 1177.99 4174.09 1177.99 4165.08"/><line class="cls-4" x1="1094.42" y1="4248.63" x2="905.6" y2="4437.47"/><line class="cls-4" x1="1177.99" y1="4165.08" x2="1094.42" y2="4248.63"/><line class="cls-4" x1="866.77" y1="4398.63" x2="1080.91" y2="4184.49"/><line class="cls-4" x1="1014.02" y1="4001.12" x2="1139.15" y2="4126.24"/><polyline class="cls-4" points="1262.24 4288.16 1262.24 4282.8 1262.24 4249.33"/><polyline class="cls-4" points="1262.24 4249.33 1232.88 4219.97 1223.4 4210.5"/><line class="cls-4" x1="1223.4" y1="4210.5" x2="912.18" y2="4521.71"/><line class="cls-4" x1="989.85" y1="4521.71" x2="1262.24" y2="4249.33"/><polyline class="cls-4" points="955.76 3981.71 958.99 3978.49 975.19 3962.28"/><line class="cls-4" x1="891.93" y1="4168.9" x2="884.39" y2="4161.34"/><line class="cls-4" x1="675.14" y1="3952.1" x2="667.6" y2="3944.55"/><line class="cls-4" x1="680.36" y1="3931.79" x2="680.36" y2="3946.89"/><line class="cls-4" x1="916.57" y1="4122.69" x2="916.57" y2="4126.26"/><polyline class="cls-4" points="833.33 4212.41 828.11 4217.62 820.57 4225.16"/><line class="cls-4" x1="884.39" y1="4161.34" x2="833.33" y2="4212.41"/><polyline class="cls-4" points="616.54 3995.61 611.32 4000.83 603.78 4008.37"/><line class="cls-4" x1="667.6" y1="3944.55" x2="616.54" y2="3995.61"/><polyline class="cls-4" points="680.36 3931.79 675.14 3937.01 667.6 3944.55"/><line class="cls-4" x1="699.78" y1="3905.9" x2="596.22" y2="4009.45"/><polyline class="cls-4" points="884.64 3794.92 884.42 3794.71 594.82 3505.11"/><line class="cls-4" x1="660.94" y1="3867.07" x2="677.3" y2="3883.43"/><line class="cls-4" x1="699.78" y1="3905.9" x2="699.78" y2="3909.85"/><line class="cls-4" x1="596.22" y1="4009.45" x2="596.22" y2="4015.93"/><line class="cls-4" x1="699.78" y1="3912.37" x2="680.36" y2="3931.79"/><line class="cls-4" x1="557.39" y1="3970.63" x2="557.39" y2="3977.09"/><line class="cls-4" x1="596.22" y1="4015.93" x2="557.39" y2="3977.09"/><line class="cls-4" x1="557.39" y1="3970.63" x2="660.94" y2="3867.07"/><line class="cls-4" x1="596.22" y1="4009.45" x2="557.39" y2="3970.63"/><line class="cls-4" x1="795.84" y1="3904" x2="795.84" y2="3909.18"/><line class="cls-4" x1="901.06" y1="4014.4" x2="795.84" y2="3909.18"/><line class="cls-4" x1="813.02" y1="4226.26" x2="813.02" y2="4232.72"/><line class="cls-4" x1="916.57" y1="4129.17" x2="897.15" y2="4148.58"/><line class="cls-4" x1="774.18" y1="4187.42" x2="774.18" y2="4193.88"/><polyline class="cls-4" points="813.01 4232.72 778.87 4198.57 774.18 4193.88"/><line class="cls-4" x1="774.18" y1="4187.42" x2="877.73" y2="4083.86"/><line class="cls-4" x1="877.73" y1="4083.86" x2="883.3" y2="4089.43"/><polyline class="cls-4" points="813.01 4226.26 782.1 4195.34 774.18 4187.42"/><line class="cls-4" x1="828.11" y1="4232.72" x2="820.57" y2="4225.17"/><line class="cls-4" x1="833.33" y1="4227.5" x2="828.11" y2="4232.72"/><line class="cls-4" x1="820.57" y1="4225.17" x2="813.02" y2="4232.72"/><line class="cls-4" x1="833.33" y1="4212.41" x2="833.33" y2="4227.5"/><line class="cls-4" x1="828.11" y1="4217.62" x2="828.11" y2="4232.72"/><line class="cls-4" x1="680.36" y1="3946.89" x2="675.14" y2="3952.1"/><line class="cls-4" x1="897.15" y1="4163.68" x2="891.93" y2="4168.9"/><line class="cls-4" x1="897.15" y1="4148.58" x2="897.15" y2="4163.68"/><line class="cls-4" x1="883.3" y1="4054.17" x2="955.76" y2="3981.71"/><line class="cls-4" x1="922.14" y1="4131.83" x2="916.57" y2="4126.26"/><line class="cls-4" x1="922.14" y1="4131.83" x2="922.14" y2="4093"/><line class="cls-4" x1="922.14" y1="4093" x2="883.3" y2="4054.17"/><line class="cls-4" x1="616.54" y1="4010.71" x2="611.32" y2="4015.93"/><line class="cls-4" x1="916.57" y1="4126.26" x2="916.57" y2="4129.17"/><line class="cls-4" x1="883.3" y1="4089.43" x2="916.57" y2="4122.69"/><line class="cls-4" x1="883.3" y1="4089.43" x2="883.3" y2="4054.17"/><line class="cls-4" x1="916.57" y1="4122.69" x2="813.02" y2="4226.26"/><line class="cls-4" x1="891.93" y1="4153.8" x2="891.93" y2="4168.9"/><polyline class="cls-4" points="675.14 3937 675.14 3937.01 675.14 3952.11"/><line class="cls-4" x1="616.54" y1="3995.61" x2="616.54" y2="4010.71"/><polyline class="cls-4" points="611.32 4000.82 611.32 4000.83 611.32 4015.93"/><line class="cls-4" x1="1009.27" y1="4541.12" x2="1262.21" y2="4288.17"/><line class="cls-4" x1="975.19" y1="4078.78" x2="975.19" y2="4039.95"/><line class="cls-4" x1="1139.15" y1="4126.24" x2="1177.99" y2="4165.08"/><line class="cls-4" x1="975.19" y1="4078.78" x2="922.14" y2="4131.83"/><line class="cls-4" x1="1100.31" y1="4165.08" x2="975.19" y2="4039.95"/><line class="cls-4" x1="586.33" y1="4017.15" x2="547.5" y2="3978.32"/><path class="cls-4" d="M547.5,3978.32,497,4028.86"/><path class="cls-4" d="M497,4028.86c-92.51-92.46-116.41-116.34-198.53-198.39-6.69-6.69-13.75-13.73-21.26-21.25"/><polyline class="cls-4" points="586.33 4017.15 586.33 4041.15 586.33 4056.37"/><path class="cls-4" d="M219.22,3868.15q7.17,7.17,14,13.94C341.49,3990.25,382.27,4031,497,4145.73"/><line class="cls-4" x1="496.98" y1="4145.73" x2="496.98" y2="4106.5"/><line class="cls-4" x1="496.98" y1="4145.73" x2="586.33" y2="4056.37"/><path class="cls-4" d="M239.14,3848.85l22.1,21.87c96.07,95.13,131.63,130.75,235.74,235.78"/><line class="cls-4" x1="496.98" y1="4106.5" x2="586.33" y2="4017.15"/><line class="cls-4" x1="1218.85" y1="4074" x2="1097.19" y2="3952.34"/><polyline class="cls-4" points="1414.6 4130.4 1414.6 4130.41 1289.78 4255.21"/><line class="cls-4" x1="755.85" y1="4181.62" x2="663.98" y2="4273.5"/><polyline class="cls-4" points="794.69 4220.45 775.84 4201.61 755.85 4181.62"/><line class="cls-4" x1="663.98" y1="4312.33" x2="702.8" y2="4351.16"/><line class="cls-4" x1="663.98" y1="4312.33" x2="663.98" y2="4273.5"/><line class="cls-4" x1="794.69" y1="4259.28" x2="794.69" y2="4220.45"/><line class="cls-4" x1="663.98" y1="4273.5" x2="702.8" y2="4312.33"/><polyline class="cls-4" points="911.91 3993.3 911.86 3993.25 806.63 3888.04"/><polyline class="cls-4" points="923.06 3977.7 922.64 3977.29 817.41 3872.07"/><polyline class="cls-4" points="826.09 3859.16 826.13 3859.19 930.9 3963.97"/><line class="cls-4" x1="932.99" y1="3960.88" x2="828.2" y2="3856.1"/><line class="cls-4" x1="804.95" y1="3891.53" x2="909.34" y2="3995.93"/><polyline class="cls-4" points="959.75 4422.14 957.5 4424.4 905.6 4476.29"/><line class="cls-4" x1="975.19" y1="4039.95" x2="922.14" y2="4093"/><polyline class="cls-4" points="920.97 3980.79 920.55 3980.38 815.42 3875.24"/><line class="cls-4" x1="603.78" y1="4008.37" x2="596.22" y2="4015.93"/><line class="cls-4" x1="901.06" y1="4009.22" x2="795.84" y2="3904"/><line class="cls-4" x1="611.32" y1="4015.93" x2="603.78" y2="4008.37"/><line class="cls-4" x1="836.96" y1="3843.29" x2="941.75" y2="3948.08"/><line class="cls-4" x1="808.02" y1="3795.5" x2="769.18" y2="3756.67"/><line class="cls-4" x1="716.13" y1="3926.21" x2="808.02" y2="3834.34"/><line class="cls-4" x1="808.02" y1="3834.34" x2="808.02" y2="3833.97"/><line class="cls-4" x1="716.13" y1="3926.21" x2="716.13" y2="3887.39"/><line class="cls-4" x1="677.3" y1="3848.55" x2="716.13" y2="3887.39"/><line class="cls-4" x1="1290.64" y1="4311.21" x2="1262.24" y2="4282.8"/><polyline class="cls-4" points="752.64 3773.22 752.64 3773.2 495.77 3516.33"/><line class="cls-4" x1="716.13" y1="3887.39" x2="808.02" y2="3795.5"/><path class="cls-4" d="M912.18,4560.54c71.57,69.59,70,71,127.13,127.45,6.13,6.06,12.93,12.75,20.56,20.23"/><line class="cls-4" x1="912.18" y1="4560.54" x2="912.18" y2="4521.71"/><path class="cls-4" d="M912.18,4521.71c79.87,78.93,83.06,85.43,153,153.45,5.14,5,10.63,10.33,16.55,16"/><line class="cls-4" x1="866.77" y1="4515.13" x2="905.6" y2="4476.29"/><line class="cls-4" x1="702.8" y1="4351.16" x2="866.77" y2="4515.13"/><line class="cls-4" x1="866.77" y1="4515.13" x2="866.77" y2="4476.29"/><line class="cls-4" x1="1227.36" y1="4137.65" x2="1063.1" y2="3973.38"/><polyline class="cls-4" points="831.43 3851.99 831.16 3851.72 808.02 3828.57"/><line class="cls-4" x1="677.3" y1="3883.43" x2="699.78" y2="3905.9"/><line class="cls-4" x1="699.78" y1="3909.85" x2="699.78" y2="3912.37"/><line class="cls-4" x1="1262.21" y1="4288.17" x2="1262.24" y2="4288.16"/><polyline class="cls-4" points="1189.36 4185.99 1177.99 4197.69 957.5 4424.4"/><line class="cls-4" x1="1080.91" y1="4184.49" x2="975.19" y2="4078.78"/><line class="cls-4" x1="761.06" y1="4292.91" x2="794.69" y2="4259.28"/><line class="cls-4" x1="741.64" y1="4273.5" x2="794.69" y2="4220.45"/><line class="cls-4" x1="856.77" y1="3822.2" x2="545.29" y2="3510.72"/><line class="cls-4" x1="833.1" y1="3688.23" x2="713.58" y2="3568.71"/><polyline class="cls-4" points="699.78 3909.86 708.71 3918.78 716.13 3926.21"/><line class="cls-4" x1="677.3" y1="3883.43" x2="677.3" y2="3848.55"/><line class="cls-4" x1="761.06" y1="4292.91" x2="741.64" y2="4273.5"/><line class="cls-4" x1="866.77" y1="4398.63" x2="761.06" y2="4292.91"/><line class="cls-4" x1="1177.99" y1="4174.09" x2="1189.36" y2="4185.99"/><polyline class="cls-4" points="1396.32 4091.82 1386.17 4101.97 1288.93 4199.22"/><polyline class="cls-4" points="952.12 3937.09 952.3 3937.27 998.84 3985.93"/><line class="cls-4" x1="944.22" y1="3945.37" x2="952.3" y2="3937.27"/><line class="cls-4" x1="545.29" y1="3510.72" x2="670.11" y2="3385.92"/><polyline class="cls-4" points="975.19 3962.28 998.84 3985.93 1014.02 4001.12"/><line class="cls-4" x1="594.82" y1="3505.11" x2="679.33" y2="3420.59"/><line class="cls-4" x1="1288.93" y1="4199.22" x2="1227.36" y2="4137.65"/><line class="cls-4" x1="902.32" y1="3757.46" x2="911.99" y2="3767.14"/><line class="cls-4" x1="995.42" y1="3902.73" x2="1019.84" y2="3878.3"/><line class="cls-4" x1="1100.31" y1="4165.08" x2="1080.91" y2="4184.49"/><line class="cls-4" x1="1009.27" y1="4541.12" x2="989.85" y2="4521.71"/><line class="cls-4" x1="1227.36" y1="4146.26" x2="1266.98" y2="4185.87"/><line class="cls-4" x1="901.06" y1="4014.4" x2="901.06" y2="4009.22"/><polyline class="cls-4" points="838.99 3840.14 836.88 3843.24 831.16 3851.72 828.2 3856.11 826.13 3859.19 817.41 3872.07 815.33 3875.17 806.63 3888.04 804.49 3891.22 795.84 3904"/><line class="cls-4" x1="1027.98" y1="3883.12" x2="1019.84" y2="3878.3"/><line class="cls-4" x1="937.03" y1="3956.52" x2="957.92" y2="3977.43"/><line class="cls-4" x1="1443.03" y1="4158.84" x2="1415.17" y2="4130.98"/><line class="cls-4" x1="1396.32" y1="4091.82" x2="1371.13" y2="4066.63"/><line class="cls-4" x1="1414.6" y1="4130.4" x2="1387.59" y2="4103.39"/><polyline class="cls-4" points="648.14 3363.95 670.11 3385.92 679.33 3395.15"/><polyline class="cls-4" points="708.38 3919.11 680.48 3947 616.65 4010.83 586.33 4041.15 586.09 4041.39"/><polyline class="cls-4" points="781.75 4195.69 778.87 4198.57 775.84 4201.61 775.13 4202.31"/><polyline class="cls-4" points="1179.25 3870.28 1179.25 3867.49 1179.25 3847.47"/><polyline class="cls-4" points="795.62 3486.67 795.62 3483.88 795.62 3463.86"/><polyline class="cls-4" points="1370.13 4061.16 1370.13 4066.63 1370.13 4067.63"/><polyline class="cls-4" points="1370.13 4061.16 1370.13 4058.37 1370.13 4038.36"/><line class="cls-4" x1="1370.13" y1="4038.36" x2="1320.29" y2="3988.51"/><line class="cls-4" x1="795.62" y1="3463.86" x2="745.78" y2="3414.02"/><line class="cls-4" x1="1179.25" y1="3847.47" x2="1129.4" y2="3797.63"/><line class="cls-4" x1="984.36" y1="3675.41" x2="984.36" y2="3652.6"/><polyline class="cls-4" points="984.36 3652.6 983.29 3651.53 934.53 3602.76"/><line class="cls-4" x1="902.32" y1="3734.65" x2="984.36" y2="3652.6"/><polyline class="cls-4" points="902.65 3757.12 961.54 3698.24 984.36 3675.41"/><line class="cls-4" x1="1097.19" y1="3929.53" x2="1179.25" y2="3847.47"/><polyline class="cls-4" points="1097.19 3952.34 1160.45 3889.09 1179.25 3870.28"/><line class="cls-4" x1="713.58" y1="3545.91" x2="795.62" y2="3463.86"/><polyline class="cls-4" points="713.58 3568.72 770.93 3511.37 795.62 3486.67"/><line class="cls-4" x1="1288.07" y1="4120.42" x2="1370.13" y2="4038.36"/><line class="cls-4" x1="1288.07" y1="4143.22" x2="1370.13" y2="4061.16"/><polyline class="cls-4" points="868.08 3666.44 868.08 3630.45 868.08 3607.42 868.08 3559.11 868.08 3556.33 868.08 3522.22"/><polyline class="cls-4" points="934.53 3547.12 934.53 3602.76 934.53 3666.44"/><polyline class="cls-4" points="1253.84 4052.19 1253.84 4016.2 1253.84 3982.3 1253.84 3942.08 1253.84 3908.97 1253.84 3889.06"/><polyline class="cls-4" points="1320.29 3914 1320.29 3915.15 1320.29 3975.42 1320.29 3988.51 1320.29 4052.19"/><polyline class="cls-4" points="679.33 3477.7 679.33 3441.7 679.33 3420.59 679.33 3395.15 679.33 3374.83 679.33 3334.47 679.33 3299.55"/><polyline class="cls-4" points="745.78 3320.93 745.78 3321.02 745.78 3399.92 745.78 3414.02 745.78 3477.7"/><polyline class="cls-4" points="1062.96 3861.32 1062.96 3825.33 1062.96 3798.54 1062.96 3753.99 1062.96 3720.41 1062.96 3719.96"/><polyline class="cls-4" points="1129.4 3746.59 1129.4 3784.55 1129.4 3797.63 1129.4 3861.32"/><line class="cls-4" x1="868.08" y1="3630.45" x2="833.1" y2="3665.43"/><path class="cls-4" d="M1129.4,3861.32a33.22,33.22,0,1,1-66.44,0"/><path class="cls-4" d="M736.06,3501.19a33.24,33.24,0,0,1-56.73-23.49"/><path class="cls-4" d="M1310.55,4075.69a33.22,33.22,0,0,1-56.71-23.5"/><path class="cls-4" d="M1320.29,4052.19a33.24,33.24,0,0,1-9.74,23.5"/><path class="cls-4" d="M924.8,3689.93a33.22,33.22,0,0,1-56.72-23.49"/><path class="cls-4" d="M934.53,3666.44a33.22,33.22,0,0,1-9.73,23.49"/><line class="cls-4" x1="1218.85" y1="4074" x2="1218.85" y2="4051.19"/><polyline class="cls-4" points="1218.85 4074 1286.2 4141.35 1288.07 4143.22"/><polyline class="cls-4" points="1218.85 4051.19 1287.05 4119.39 1288.07 4120.42"/><line class="cls-4" x1="644.35" y1="3499.49" x2="644.35" y2="3476.69"/><line class="cls-4" x1="644.35" y1="3499.49" x2="713.58" y2="3568.71"/><line class="cls-4" x1="644.35" y1="3476.69" x2="713.58" y2="3545.91"/><line class="cls-4" x1="1027.98" y1="3883.12" x2="1097.19" y2="3952.34"/><line class="cls-4" x1="1253.84" y1="4016.2" x2="1218.85" y2="4051.19"/><line class="cls-4" x1="679.33" y1="3441.71" x2="644.35" y2="3476.69"/><line class="cls-4" x1="1062.96" y1="3825.33" x2="1027.98" y2="3860.31"/><line class="cls-4" x1="1027.98" y1="3860.31" x2="1097.19" y2="3929.53"/><polyline class="cls-4" points="833.1 3688.23 902.15 3757.29 902.32 3757.46"/><line class="cls-4" x1="833.1" y1="3665.43" x2="901.24" y2="3733.57"/><path class="cls-4" d="M745.78,3477.7a33.21,33.21,0,0,1-9.72,23.49"/><line class="cls-4" x1="1027.98" y1="3883.12" x2="1027.98" y2="3860.31"/><polyline class="cls-4" points="1287.05 4117.04 1287.05 4119.39 1287.05 4140.51"/><line class="cls-4" x1="1097.19" y1="3929.53" x2="1097.19" y2="3952.34"/><line class="cls-4" x1="833.1" y1="3665.43" x2="833.1" y2="3688.23"/><line class="cls-4" x1="902.32" y1="3734.65" x2="902.32" y2="3757.12"/><line class="cls-4" x1="713.58" y1="3545.91" x2="713.58" y2="3568.71"/><path class="cls-4" d="M679.67,3298.56a35,35,0,0,1,5.87,2.61c8,4.49,14,11.83,21.7,16.75,11.33,7.24,26,7.86,38.54,3.1,0,0,0,0,0,0"/><path class="cls-4" d="M868.47,3520.26a34.94,34.94,0,0,1,10.35,3.8c8,4.49,14,11.83,21.71,16.75,9,5.72,20,7.32,30.47,5.37.39-.08.8-.15,1.2-.25"/><path class="cls-4" d="M1062.88,3720.4h.08a34.89,34.89,0,0,1,10.9,3.91c8,4.49,14,11.82,21.69,16.74,9,5.73,20,7.31,30.48,5.36h0l1.18-.23"/><path class="cls-4" d="M1253.85,3889a35.49,35.49,0,0,1,13.3,4.26c8,4.49,14,11.82,21.7,16.74,9.24,5.91,20.73,7.41,31.44,5.18l.23-.05"/><g class="cls-7"><path class="cls-3" d="M1099.7,3296.63,1027.22,3226s-40.9-20.69-73.93,19.57c-22.22,27.08-7.08,60.83-7.08,60.83L1019.3,3377Z"/><line class="cls-3" x1="1019.3" y1="3377.03" x2="1027.22" y2="3225.97"/><line class="cls-3" x1="1099.7" y1="3296.63" x2="946.21" y2="3306.37"/></g><line class="cls-8" x1="941.98" y1="3278.4" x2="939.89" y2="3492.89"/></svg>