<svg id="_3m" data-name="3m" xmlns="http://www.w3.org/2000/svg" viewBox="0 0 4800 4800"><defs><style>.cls-1{fill:#fff;}.cls-2{fill:#9acbff;}.cls-3{fill:none;stroke:#037cff;stroke-linecap:round;stroke-linejoin:round;stroke-width:7.79px;}</style></defs><title>3m</title><polygon class="cls-1" points="1592.39 3401.35 1592.39 3556.66 1584.75 3564.3 1584.75 3439.54 1569.48 3424.26 1592.39 3401.35"/><polygon class="cls-1" points="1592.39 3401.35 1569.48 3424.26 1569.48 3454.81 1569.48 3533.74 1530.01 3494.27 1433.09 3397.35 1433.09 3242.05 1592.39 3401.35"/><polygon class="cls-1" points="1584.75 3577.24 1584.75 3594.84 1569.48 3579.56 1569.48 3533.74 1569.48 3454.81 1569.48 3424.26 1584.75 3439.54 1584.75 3564.3 1584.75 3577.24"/><polygon class="cls-2" points="1569.48 3579.56 1584.75 3594.84 1380.71 3798.89 1206.13 3624.31 1297.79 3532.66 1297.79 3404.52 1343.62 3358.68 1343.62 3486.82 1433.09 3397.35 1530.01 3494.27 1569.48 3533.74 1569.48 3579.56"/><polygon class="cls-1" points="1433.09 3242.05 1433.09 3397.35 1343.62 3486.82 1343.62 3358.68 1297.79 3404.52 1297.79 3532.66 1206.13 3624.31 1206.13 3469 1297.79 3377.35 1343.62 3331.52 1358.71 3316.43 1423.26 3251.87 1433.09 3242.05"/><polygon class="cls-1" points="1426.55 3228.95 1423.26 3232.22 1423.26 3251.87 1358.71 3316.43 1358.7 3316.42 1348.89 3306.61 1223.59 3181.31 1223.59 3026.01 1426.55 3228.95"/><path class="cls-2" d="M1358.71,3316.43l-15.09,15.09-45.84,45.83L1206.13,3469v155.31L993.36,3411.54l13.66-13.66v-34l14.76-14.75,24.06,10,108.24-108.24v-18.67l29.49-29.49,9.34,9.34,30.68-30.69,125.3,125.3,9.81,9.81Z"/><path class="cls-1" d="M1154.26,3146.27c-.11,1.29-.18,2.59-.18,3.86v100.69l-108.24,108.24V3258.37a26.39,26.39,0,0,0-1-7.74c-.74-2.38-2.13-4.92-4.67-6s-5.32-.22-7.53.94a26.81,26.81,0,0,0-6.21,4.75,57.09,57.09,0,0,0-7.86,10.24,81.73,81.73,0,0,0-5.86,11.54,84.05,84.05,0,0,0-4,12.29,56.93,56.93,0,0,0-1.66,12.8v100.68l-13.66,13.66V3256.23l82.44-82.43,5.71-5.71,59.23-59.23,82.85-82.85v155.3L1192.91,3212V3111.31a26.51,26.51,0,0,0-1-7.75c-.74-2.37-2.12-4.92-4.67-6s-5.32-.22-7.53.93a26.55,26.55,0,0,0-6.2,4.75,57,57,0,0,0-7.87,10.24,81.67,81.67,0,0,0-5.85,11.54,82.65,82.65,0,0,0-4,12.3c-.35,1.48-.66,3-.92,4.54S1154.38,3144.8,1154.26,3146.27Z"/><path class="cls-1" d="M1192.91,3111.31V3212l-9.34-9.34V3192l-13.88-13.89v-10.67l-13-13V3143.8l-1.92-1.92c.26-1.55.57-3.06.92-4.54a82.65,82.65,0,0,1,4-12.3,81.67,81.67,0,0,1,5.85-11.54,57,57,0,0,1,7.87-10.24,26.55,26.55,0,0,1,6.2-4.75c2.21-1.15,5-2,7.53-.93s3.93,3.61,4.67,6A26.51,26.51,0,0,1,1192.91,3111.31Z"/><path class="cls-2" d="M1183.57,3192v10.68l-29.49,29.49v-10.68Z"/><path class="cls-2" d="M1183.57,3192l-29.49,29.49v-27.78l15.61-15.6Z"/><path class="cls-2" d="M1169.69,3167.42v10.67l-15.61,15.6V3183Z"/><path class="cls-2" d="M1156.74,3154.47l13,13L1154.08,3183v-25.9Z"/><path class="cls-1" d="M1156.74,3143.8v10.67l-2.66,2.66v-7c0-1.27.07-2.57.18-3.86Z"/><polygon class="cls-2" points="1140.89 3102.45 1140.74 3108.86 1081.51 3168.09 1081.56 3165.63 1140.89 3102.45"/><polygon class="cls-2" points="1140.89 3102.45 1081.56 3165.63 1070.75 3155.26 1112.68 3081.57 1112.9 3078.29 1114.2 3076.9 1140.89 3102.45"/><polygon class="cls-2" points="1113.13 3074.8 1112.9 3078.29 1112.68 3081.57 1070.75 3155.26 1070.27 3150.13 1113.13 3074.8"/><polygon class="cls-2" points="1084.37 3057.37 1113.13 3074.8 1070.27 3150.13 1057.58 3142.44 1057.58 3137.09 1084.56 3054.73 1084.37 3057.37"/><polygon class="cls-2" points="1053.84 3043.61 1084.56 3054.73 1057.58 3137.09 1043.69 3132.07 1044.03 3126.69 1054.06 3040.61 1053.84 3043.61"/><polygon class="cls-2" points="1054.06 3040.61 1044.03 3126.69 1029.73 3124.55 1030.15 3119.05 1023.12 3035.99 1054.06 3040.61"/><path class="cls-1" d="M1045.84,3258.37v100.69l-24.06-10-9.52-3.94L1007,3343V3297.2a56.93,56.93,0,0,1,1.66-12.8,84.05,84.05,0,0,1,4-12.29,81.73,81.73,0,0,1,5.86-11.54,57.09,57.09,0,0,1,7.86-10.24,26.81,26.81,0,0,1,6.21-4.75c2.21-1.16,5-2,7.53-.94s3.93,3.61,4.67,6A26.39,26.39,0,0,1,1045.84,3258.37Z"/><polygon class="cls-2" points="1023.12 3035.99 1030.15 3119.05 1016.11 3119.77 1016.51 3114.18 993.09 3034.24 1022.84 3032.69 1023.12 3035.99"/><path class="cls-1" d="M1021.78,3349.09,1007,3363.84v-13.46l5.24-5.23Z"/><polygon class="cls-2" points="993.09 3034.24 1016.51 3114.18 1003.28 3117.61 1003.64 3111.97 964.68 3038.12 992.14 3031 993.09 3034.24"/><path class="cls-1" d="M1012.26,3345.15l-5.24,5.23V3343Z"/><polygon class="cls-2" points="964.68 3038.12 1003.64 3111.97 991.77 3117.8 992.08 3112.22 938.89 3047.24 963.2 3035.31 964.68 3038.12"/><polygon class="cls-2" points="993.37 3389.43 993.37 3411.18 985.55 3411.18 975.17 3407.63 993.37 3389.43"/><polygon class="cls-2" points="993.37 3377.48 993.37 3389.43 975.17 3407.63 975.17 3414.6 963.2 3407.63 993.37 3377.48"/><polygon class="cls-2" points="993.37 3364.01 993.37 3377.48 963.2 3407.63 963.2 3414.59 952.96 3404.35 993.37 3364.01"/><polygon class="cls-2" points="993.37 3350.57 993.37 3364.01 952.96 3404.35 952.97 3411.32 942.72 3401.04 993.37 3350.57"/><polygon class="cls-2" points="993.37 3337.19 993.37 3350.57 942.72 3401.04 942.73 3408.02 932.4 3397.64 990.38 3340.16 993.37 3337.19"/><polygon class="cls-2" points="938.89 3047.24 992.08 3112.22 982.02 3120.02 982.27 3114.62 916.65 3061.09 937.19 3045.15 938.89 3047.24"/><polygon class="cls-2" points="983.89 3333.39 990.38 3340.16 932.4 3397.64 932.42 3404.71 920.78 3392.78 980.16 3336.9 983.89 3333.39"/><polygon class="cls-2" points="982.27 3114.62 974.45 3123.8 974.61 3118.77 898.83 3078.95 908.88 3067.15 908.89 3067.14 908.94 3067.07 915.12 3059.83 916.65 3061.09 982.27 3114.62"/><polygon class="cls-2" points="975.76 3329.49 980.16 3336.9 920.78 3392.78 920.91 3399.97 900.51 3372.47 972.54 3331.34 975.76 3329.49"/><polygon class="cls-2" points="974.61 3118.77 957.61 3149.95 880.88 3109.64 891.89 3089.47 895.48 3082.89 897.9 3078.46 898.83 3078.95 974.61 3118.77"/><polygon class="cls-2" points="970.13 3324.24 972.54 3331.34 900.51 3372.47 900.76 3379.96 887.81 3351.34 967.75 3325.01 967.96 3324.95 970.13 3324.24"/><polygon class="cls-2" points="965.54 3318.29 967.75 3325.01 887.81 3351.34 887.98 3358.88 881.06 3328.27 965.54 3318.29"/><polygon class="cls-2" points="966.87 3304.69 966.89 3311.64 882.2 3304.61 886.31 3281.21 966.87 3304.69"/><polygon class="cls-2" points="966.89 3311.64 965.54 3318.29 881.06 3328.27 880.52 3304.47 882.2 3304.61 966.89 3311.64"/><polygon class="cls-2" points="966.86 3295.9 966.87 3304.69 886.31 3281.21 886.38 3280.74 891.89 3270.67 895.48 3264.07 897.9 3259.65 898.83 3260.14 966.86 3295.9"/><polygon class="cls-2" points="966.86 3295.9 898.83 3260.14 908.88 3248.34 908.89 3248.33 908.94 3248.26 915.12 3241.02 916.65 3242.28 966.85 3283.23 966.86 3295.9"/><polygon class="cls-2" points="966.82 3262.57 966.85 3283.23 916.65 3242.28 937.19 3226.35 966.82 3262.57"/><polyline class="cls-3" points="967.96 3324.95 967.75 3325.01 887.81 3351.34"/><line class="cls-3" x1="1423.26" y1="3232.22" x2="1423.26" y2="3251.87"/><line class="cls-3" x1="1169.69" y1="3167.42" x2="1154.08" y2="3183.03"/><line class="cls-3" x1="1156.74" y1="3143.8" x2="1154.82" y2="3141.88"/><polyline class="cls-3" points="1156.74 3143.8 1154.27 3146.27 1154.25 3146.28"/><path class="cls-3" d="M1007,3397.88V3297.2a56.93,56.93,0,0,1,1.66-12.8,84.05,84.05,0,0,1,4-12.29,81.73,81.73,0,0,1,5.86-11.54,57.09,57.09,0,0,1,7.86-10.24,26.81,26.81,0,0,1,6.21-4.75c2.21-1.16,5-2,7.53-.94s3.93,3.61,4.67,6a26.39,26.39,0,0,1,1,7.74v100.69"/><line class="cls-3" x1="1156.74" y1="3154.47" x2="1154.08" y2="3157.13"/><line class="cls-3" x1="1169.69" y1="3178.09" x2="1154.08" y2="3193.69"/><line class="cls-3" x1="1183.57" y1="3191.98" x2="1154.08" y2="3221.47"/><line class="cls-3" x1="1192.91" y1="3212" x2="1183.57" y2="3202.66"/><polyline class="cls-3" points="1183.57 3202.66 1183.57 3191.98 1169.68 3178.09 1169.68 3167.42 1156.74 3154.47 1156.74 3143.8"/><line class="cls-3" x1="1183.57" y1="3202.66" x2="1154.08" y2="3232.15"/><polyline class="cls-3" points="1223.59 3181.31 1348.89 3306.61 1358.7 3316.42"/><line class="cls-3" x1="1584.75" y1="3594.84" x2="1569.48" y2="3579.56"/><polyline class="cls-3" points="1569.48 3454.81 1569.48 3533.74 1569.48 3579.56"/><line class="cls-3" x1="1530.01" y1="3494.27" x2="1569.48" y2="3533.74"/><path class="cls-3" d="M1154.08,3250.82V3150.13c0-1.27.07-2.57.18-3.86.12-1.47.32-2.94.56-4.39s.57-3.06.92-4.54a82.65,82.65,0,0,1,4-12.3,81.67,81.67,0,0,1,5.85-11.54,57,57,0,0,1,7.87-10.24,26.55,26.55,0,0,1,6.2-4.75c2.21-1.15,5-2,7.53-.93s3.93,3.61,4.67,6a26.51,26.51,0,0,1,1,7.75V3212"/><line class="cls-3" x1="1192.91" y1="3212" x2="1223.59" y2="3181.31"/><line class="cls-3" x1="993.36" y1="3411.54" x2="1007.02" y2="3397.88"/><line class="cls-3" x1="1045.84" y1="3359.06" x2="1154.08" y2="3250.82"/><line class="cls-3" x1="993.36" y1="3364.01" x2="952.96" y2="3404.35"/><line class="cls-3" x1="993.36" y1="3377.48" x2="963.2" y2="3407.63"/><line class="cls-3" x1="993.36" y1="3350.57" x2="942.72" y2="3401.04"/><line class="cls-3" x1="1012.26" y1="3345.15" x2="1007.02" y2="3350.38"/><line class="cls-3" x1="1021.78" y1="3349.09" x2="1007.02" y2="3363.84"/><polyline class="cls-3" points="1007.02 3342.98 1012.26 3345.15 1021.78 3349.09 1045.84 3359.06"/><line class="cls-3" x1="966.82" y1="3262.57" x2="937.19" y2="3226.35"/><line class="cls-3" x1="966.85" y1="3283.23" x2="916.65" y2="3242.28"/><line class="cls-3" x1="1343.62" y1="3486.82" x2="1343.62" y2="3358.68"/><polyline class="cls-3" points="993.37 3411.54 1206.13 3624.31 1380.71 3798.89 1584.75 3594.84"/><line class="cls-3" x1="1297.78" y1="3377.35" x2="1343.62" y2="3331.52"/><polyline class="cls-3" points="1297.79 3532.66 1297.79 3404.52 1343.62 3358.68"/><line class="cls-3" x1="1043.69" y1="3132.07" x2="1044.03" y2="3126.69"/><line class="cls-3" x1="1057.58" y1="3142.44" x2="1057.58" y2="3137.09"/><line class="cls-3" x1="1070.27" y1="3150.13" x2="1070.75" y2="3155.26"/><line class="cls-3" x1="1070.75" y1="3155.26" x2="1112.68" y2="3081.57"/><line class="cls-3" x1="1029.73" y1="3124.55" x2="1030.15" y2="3119.05"/><line class="cls-3" x1="1016.11" y1="3119.77" x2="1016.51" y2="3114.18"/><line class="cls-3" x1="1003.28" y1="3117.61" x2="1003.64" y2="3111.97"/><line class="cls-3" x1="991.77" y1="3117.8" x2="992.08" y2="3112.22"/><line class="cls-3" x1="982.02" y1="3120.02" x2="982.27" y2="3114.62"/><line class="cls-3" x1="974.45" y1="3123.8" x2="974.61" y2="3118.77"/><line class="cls-3" x1="891.89" y1="3089.47" x2="895.48" y2="3082.88"/><polyline class="cls-3" points="966.89 3311.64 965.54 3318.29 967.75 3325.01"/><line class="cls-3" x1="891.89" y1="3270.67" x2="895.48" y2="3264.07"/><line class="cls-3" x1="891.89" y1="3270.67" x2="886.38" y2="3280.74"/><line class="cls-3" x1="881.06" y1="3328.27" x2="880.52" y2="3304.47"/><polyline class="cls-3" points="882.2 3304.61 886.31 3281.21 886.38 3280.74"/><line class="cls-3" x1="965.54" y1="3318.29" x2="881.06" y2="3328.27"/><polyline class="cls-3" points="908.94 3067.07 908.89 3067.14 908.88 3067.15"/><line class="cls-3" x1="982.27" y1="3114.62" x2="916.65" y2="3061.09"/><line class="cls-3" x1="1016.51" y1="3114.18" x2="993.09" y2="3034.24"/><line class="cls-3" x1="1070.27" y1="3150.13" x2="1113.13" y2="3074.8"/><polyline class="cls-3" points="1075.8 3173.8 1081.51 3168.09 1140.74 3108.86"/><polyline class="cls-3" points="993.37 3337.19 993.37 3350.57 993.37 3364.01 993.37 3377.48 993.37 3389.43 993.37 3411.18 993.37 3411.54"/><line class="cls-3" x1="1206.13" y1="3469" x2="1297.78" y2="3377.35"/><line class="cls-3" x1="1206.13" y1="3469" x2="1206.13" y2="3624.31"/><polyline class="cls-3" points="1584.75 3439.54 1584.75 3564.3 1584.75 3577.24"/><line class="cls-3" x1="1053.54" y1="3047.58" x2="1053.84" y2="3043.61"/><line class="cls-3" x1="1084.56" y1="3054.73" x2="1053.84" y2="3043.61"/><polyline class="cls-3" points="908.94 3248.26 908.89 3248.33 908.88 3248.34"/><polyline class="cls-3" points="966.89 3311.64 882.2 3304.61 880.52 3304.47"/><line class="cls-3" x1="972.54" y1="3331.33" x2="900.51" y2="3372.47"/><line class="cls-3" x1="980.16" y1="3336.9" x2="920.78" y2="3392.78"/><polyline class="cls-3" points="966.89 3304.69 966.87 3304.69 886.31 3281.21 886.2 3281.18"/><polyline class="cls-3" points="966.87 3295.9 966.86 3295.9 898.83 3260.14"/><line class="cls-3" x1="963.2" y1="3414.59" x2="963.2" y2="3407.63"/><line class="cls-3" x1="932.4" y1="3397.64" x2="942.73" y2="3408.02"/><line class="cls-3" x1="920.78" y1="3392.78" x2="921.99" y2="3394.04"/><line class="cls-3" x1="952.96" y1="3404.35" x2="963.2" y2="3414.59"/><line class="cls-3" x1="942.72" y1="3401.04" x2="952.97" y2="3411.32"/><line class="cls-3" x1="975.17" y1="3407.63" x2="993.36" y2="3389.43"/><polyline class="cls-3" points="963.2 3407.63 975.17 3414.6 975.17 3407.63 985.55 3411.18"/><line class="cls-3" x1="985.55" y1="3411.17" x2="993.36" y2="3411.17"/><line class="cls-3" x1="932.42" y1="3404.71" x2="920.78" y2="3392.78"/><line class="cls-3" x1="887.98" y1="3358.88" x2="881.06" y2="3328.27"/><line class="cls-3" x1="900.77" y1="3379.96" x2="887.81" y2="3351.34"/><line class="cls-3" x1="900.51" y1="3372.47" x2="920.91" y2="3399.97"/><line class="cls-3" x1="897.9" y1="3078.46" x2="895.48" y2="3082.88"/><line class="cls-3" x1="908.88" y1="3067.13" x2="908.89" y2="3067.14"/><line class="cls-3" x1="992.08" y1="3112.22" x2="938.89" y2="3047.24"/><line class="cls-3" x1="937.19" y1="3045.15" x2="916.65" y2="3061.09"/><line class="cls-3" x1="1433.09" y1="3397.35" x2="1433.09" y2="3242.05"/><line class="cls-3" x1="1433.09" y1="3242.05" x2="1426.55" y2="3235.5"/><line class="cls-3" x1="908.88" y1="3248.31" x2="908.89" y2="3248.33"/><line class="cls-3" x1="937.19" y1="3226.35" x2="916.65" y2="3242.28"/><line class="cls-3" x1="1206.13" y1="3624.31" x2="1297.78" y2="3532.65"/><line class="cls-3" x1="1114.2" y1="3076.9" x2="1112.9" y2="3078.29"/><line class="cls-3" x1="1140.9" y1="3102.45" x2="1114.2" y2="3076.9"/><line class="cls-3" x1="1081.56" y1="3165.63" x2="1140.9" y2="3102.45"/><line class="cls-3" x1="887.98" y1="3358.88" x2="887.81" y2="3351.34"/><line class="cls-3" x1="970.13" y1="3324.23" x2="967.96" y2="3324.95"/><line class="cls-3" x1="920.91" y1="3399.97" x2="920.78" y2="3392.78"/><line class="cls-3" x1="983.89" y1="3333.39" x2="980.16" y2="3336.9"/><line class="cls-3" x1="990.38" y1="3340.16" x2="983.89" y2="3333.39"/><line class="cls-3" x1="1343.62" y1="3486.82" x2="1433.09" y2="3397.35"/><line class="cls-3" x1="900.77" y1="3379.96" x2="900.51" y2="3372.47"/><line class="cls-3" x1="975.76" y1="3329.49" x2="972.54" y2="3331.33"/><line class="cls-3" x1="897.9" y1="3259.65" x2="895.48" y2="3264.07"/><line class="cls-3" x1="915.12" y1="3241.02" x2="908.94" y2="3248.26"/><line class="cls-3" x1="898.83" y1="3260.14" x2="897.9" y2="3259.65"/><line class="cls-3" x1="1084.06" y1="3061.6" x2="1084.37" y2="3057.37"/><line class="cls-3" x1="1054.06" y1="3040.61" x2="1023.11" y2="3035.99"/><line class="cls-3" x1="1043.69" y1="3132.07" x2="1057.58" y2="3137.09"/><line class="cls-3" x1="1053.84" y1="3043.61" x2="1054.06" y2="3040.61"/><line class="cls-3" x1="1426.55" y1="3228.95" x2="1423.26" y2="3232.22"/><line class="cls-3" x1="1426.55" y1="3228.95" x2="1426.55" y2="3235.5"/><line class="cls-3" x1="1423.26" y1="3232.22" x2="1426.55" y2="3235.5"/><line class="cls-3" x1="1592.39" y1="3401.35" x2="1592.39" y2="3556.65"/><line class="cls-3" x1="1592.39" y1="3401.35" x2="1569.48" y2="3424.26"/><line class="cls-3" x1="1569.48" y1="3424.26" x2="1569.48" y2="3454.81"/><line class="cls-3" x1="1592.39" y1="3556.65" x2="1584.75" y2="3564.3"/><line class="cls-3" x1="1569.48" y1="3424.26" x2="1584.75" y2="3439.54"/><line class="cls-3" x1="993.36" y1="3256.23" x2="993.36" y2="3337.19"/><line class="cls-3" x1="993.36" y1="3256.23" x2="1075.8" y2="3173.8"/><line class="cls-3" x1="1223.59" y1="3026.01" x2="1223.59" y2="3181.31"/><line class="cls-3" x1="1223.59" y1="3026.01" x2="1426.55" y2="3228.95"/><line class="cls-3" x1="1112.68" y1="3081.57" x2="1112.9" y2="3078.29"/><line class="cls-3" x1="1113.13" y1="3074.8" x2="1084.37" y2="3057.37"/><line class="cls-3" x1="1084.37" y1="3057.37" x2="1084.56" y2="3054.73"/><line class="cls-3" x1="1057.58" y1="3142.44" x2="1070.27" y2="3150.13"/><line class="cls-3" x1="1057.58" y1="3137.09" x2="1084.56" y2="3054.73"/><line class="cls-3" x1="1044.03" y1="3126.69" x2="1054.06" y2="3040.61"/><line class="cls-3" x1="1003.64" y1="3111.97" x2="964.68" y2="3038.12"/><line class="cls-3" x1="963.2" y1="3035.31" x2="938.89" y2="3047.24"/><line class="cls-3" x1="992.14" y1="3031" x2="964.68" y2="3038.12"/><line class="cls-3" x1="1030.15" y1="3119.05" x2="1023.11" y2="3035.99"/><line class="cls-3" x1="1022.84" y1="3032.69" x2="993.09" y2="3034.24"/><line class="cls-3" x1="993.09" y1="3034.24" x2="992.14" y2="3031"/><line class="cls-3" x1="1016.11" y1="3119.77" x2="1030.15" y2="3119.05"/><line class="cls-3" x1="964.68" y1="3038.12" x2="963.2" y2="3035.31"/><line class="cls-3" x1="915.12" y1="3059.83" x2="908.94" y2="3067.08"/><line class="cls-3" x1="952.97" y1="3411.32" x2="952.96" y2="3404.35"/><line class="cls-3" x1="1029.73" y1="3124.55" x2="1044.03" y2="3126.69"/><line class="cls-3" x1="1023.11" y1="3035.99" x2="1022.84" y2="3032.69"/><line class="cls-3" x1="1003.28" y1="3117.61" x2="1016.51" y2="3114.18"/><line class="cls-3" x1="891.89" y1="3089.47" x2="880.88" y2="3109.64"/><line class="cls-3" x1="908.88" y1="3067.15" x2="908.88" y2="3067.13"/><line class="cls-3" x1="938.89" y1="3047.24" x2="937.19" y2="3045.15"/><line class="cls-3" x1="908.94" y1="3067.08" x2="908.88" y2="3067.13"/><line class="cls-3" x1="898.83" y1="3078.95" x2="897.9" y2="3078.46"/><line class="cls-3" x1="982.02" y1="3120.02" x2="992.08" y2="3112.22"/><line class="cls-3" x1="908.88" y1="3248.34" x2="908.88" y2="3248.31"/><line class="cls-3" x1="908.94" y1="3248.26" x2="908.88" y2="3248.31"/><line class="cls-3" x1="1140.74" y1="3108.86" x2="1140.9" y2="3102.45"/><line class="cls-3" x1="1081.51" y1="3168.09" x2="1081.56" y2="3165.63"/><line class="cls-3" x1="1070.75" y1="3155.26" x2="1081.56" y2="3165.63"/><line class="cls-3" x1="993.36" y1="3337.19" x2="990.38" y2="3340.16"/><line class="cls-3" x1="972.54" y1="3331.33" x2="970.13" y2="3324.23"/><line class="cls-3" x1="916.65" y1="3242.28" x2="915.12" y2="3241.02"/><line class="cls-3" x1="908.88" y1="3248.34" x2="898.83" y2="3260.14"/><line class="cls-3" x1="1433.09" y1="3397.35" x2="1530.01" y2="3494.27"/><line class="cls-3" x1="1140.74" y1="3108.86" x2="1223.59" y2="3026.01"/><line class="cls-3" x1="1433.09" y1="3242.05" x2="1592.39" y2="3401.35"/><line class="cls-3" x1="1584.75" y1="3577.24" x2="1584.75" y2="3594.84"/><line class="cls-3" x1="1112.9" y1="3078.29" x2="1113.13" y2="3074.8"/><line class="cls-3" x1="908.88" y1="3067.15" x2="898.83" y2="3078.95"/><line class="cls-3" x1="991.77" y1="3117.8" x2="1003.64" y2="3111.97"/><line class="cls-3" x1="916.65" y1="3061.09" x2="915.12" y2="3059.83"/><line class="cls-3" x1="974.45" y1="3123.8" x2="982.27" y2="3114.62"/><line class="cls-3" x1="942.73" y1="3408.02" x2="942.72" y2="3401.04"/><line class="cls-3" x1="980.16" y1="3336.9" x2="975.76" y2="3329.49"/><line class="cls-3" x1="957.6" y1="3149.95" x2="974.61" y2="3118.77"/><line class="cls-3" x1="974.61" y1="3118.77" x2="898.83" y2="3078.95"/><polyline class="cls-3" points="1343.62 3331.52 1358.71 3316.43 1423.26 3251.87 1433.09 3242.05"/><line class="cls-3" x1="932.42" y1="3404.71" x2="932.4" y2="3397.64"/><line class="cls-3" x1="990.38" y1="3340.16" x2="932.4" y2="3397.64"/><polyline class="cls-3" points="966.89 3311.64 966.87 3304.69 966.86 3295.9 966.85 3283.23 966.82 3262.57"/></svg>