<svg id="_4" data-name="4" xmlns="http://www.w3.org/2000/svg" viewBox="0 0 4800 4800"><defs><style>.cls-1{fill:#fff;}.cls-2{fill:#9acbff;}.cls-3{fill:none;}.cls-3,.cls-4,.cls-5{stroke:#037cff;stroke-linecap:round;stroke-linejoin:round;stroke-width:7.79px;}.cls-4{fill:#efd912;}.cls-5{fill:#efd90f;}</style></defs><title>4</title><polygon class="cls-1" points="2081.92 3195.25 2081.92 3389.38 1345.23 2652.69 1338.75 2646.22 1338.75 2518.07 1327.34 2506.66 1298.8 2478.11 1298.8 2535.21 1298.8 2606.26 1145.31 2452.78 1145.31 2324.63 1105.34 2284.67 1105.34 2412.82 828.38 2135.84 828.38 1941.7 1012.13 2125.45 1105.34 2218.68 1109.18 2222.51 1109.18 2222.52 1240.23 2353.57 1240.24 2353.57 1263.27 2376.59 1298.8 2412.12 1338.75 2452.08 1360.34 2473.67 1493.76 2607.09 1590.82 2704.15 1597.3 2710.63 1960.74 3074.07 2034.08 3147.39 2081.92 3195.25"/><polygon class="cls-2" points="1105.34 2412.82 1105.34 2284.67 1145.31 2324.63 1145.31 2452.78 1298.8 2606.26 1298.8 2535.21 1306 2527.99 1327.34 2506.66 1338.75 2518.07 1338.75 2646.22 1345.23 2652.69 2081.92 3389.38 1923.17 3548.14 1705.89 3330.86 1705.89 3136.71 1494.17 2925.01 1402.66 3016.52 1395.99 3023.18 1349.65 2976.82 1321.55 2948.74 1321.55 2948.72 1321.55 2935.41 1321.55 2752.38 1295.73 2726.57 1285.26 2737.05 1268.19 2719.98 1109.3 2561.09 1030.49 2639.9 1030.49 2661.97 665.67 2297.15 763.15 2200.5 828.38 2135.84 1105.34 2412.82"/><polygon class="cls-1" points="1740.56 2360.29 1740.56 2554.43 1590.82 2704.15 1493.76 2607.09 1500.97 2599.87 1672.79 2428.06 1740.56 2360.29"/><polygon class="cls-1" points="1740.56 2360.29 1672.79 2428.06 1672.79 2421.09 1672.79 2292.52 1688.28 2308.01 1740.56 2360.29"/><polygon class="cls-1" points="1705.89 3136.71 1705.89 3330.86 1607.71 3429.03 1607.71 3320.52 1607.71 3234.89 1619.27 3223.33 1705.89 3136.71"/><polygon class="cls-1" points="1705.89 3136.71 1619.27 3223.33 1619.27 3116.09 1579.31 3076.12 1579.31 3206.49 1494.17 3121.36 1494.17 2925.01 1705.89 3136.71"/><polygon class="cls-1" points="1688.28 2242.44 1672.79 2292.52 1672.79 2421.09 1617.22 2365.53 1617.22 2171.39 1688.28 2242.44"/><polygon class="cls-2" points="1672.79 2421.09 1672.79 2428.06 1500.97 2599.87 1493.76 2607.09 1360.34 2473.67 1367.55 2466.45 1470.09 2363.9 1498.39 2392.19 1538.36 2352.23 1567.15 2381.02 1617.22 2365.53 1672.79 2421.09"/><polygon class="cls-1" points="1619.27 3116.09 1619.27 3223.33 1607.71 3234.89 1579.31 3206.49 1579.31 3076.12 1619.27 3116.09"/><polygon class="cls-1" points="1617.22 2171.39 1617.22 2365.53 1567.15 2381.02 1567.15 2186.88 1617.22 2171.39"/><polygon class="cls-1" points="1607.71 3320.52 1607.71 3429.03 1553.45 3374.78 1607.71 3320.52"/><path class="cls-1" d="M1607.71,3234.89v85.63l-73.35-73.36-9.4-15.11L1508,3204.88l-62,62c.22.35.44.71.67,1.06q-9.9-9.87-19.76-19.76l-9.83-9.81-61-61-6.47-6.47V3042.83l-62.21-62.21-17.72-17.72V3091l-81-77.72a47.67,47.67,0,0,0-48,12.26,46.27,46.27,0,0,0-5,5.94,48.54,48.54,0,0,0-3.92,6.67V2885.52a47.67,47.67,0,0,1,56.89-66.32h0l33.71,32.32,47.32,45.38,51.83,51.81v0l28.1,28.09,46.34,46.35,25.86,25.85,72.32,72.33,85.14,85.13Z"/><path class="cls-2" d="M1446.67,3268c-.23-.35-.45-.71-.67-1.06l62-62,16.93,27.17,9.4,15.11,73.35,73.36-54.26,54.26,54.26,54.26-145.43,145.41-58.51-58.51L1315,3604.76q-177.06-177.08-354.14-354.13l13.35-13.35.58-.6v-26.86L998,3186.58l15.6,11.28,36.76-36.76q20.49-20.51,41-41,18.54-18.51,37-37l3.41-3.42v-41.46a48.54,48.54,0,0,1,3.92-6.67,46.27,46.27,0,0,1,5-5.94,47.67,47.67,0,0,1,48-12.26l81,77.72v-92.69l6.66-6.68,11.06-11.05,62.21,62.21V3171l6.47,6.47,61,61,9.83,9.81Q1436.78,3258.09,1446.67,3268Z"/><polygon class="cls-1" points="1567.15 2186.88 1567.15 2381.02 1538.36 2352.23 1538.36 2158.1 1567.15 2186.88"/><polygon class="cls-1" points="1538.36 2158.1 1538.36 2352.23 1498.39 2392.19 1498.39 2198.06 1538.36 2158.1"/><polygon class="cls-1" points="1498.39 2198.06 1498.39 2392.19 1470.09 2363.9 1470.09 2169.77 1487.03 2186.69 1498.39 2198.06"/><polygon class="cls-1" points="1494.17 2925.01 1494.17 3121.36 1421.85 3049.03 1395.99 3023.18 1402.66 3016.52 1494.17 2925.01"/><polygon class="cls-1" points="1487.03 2106.76 1487.03 2186.69 1470.09 2169.77 1270.49 2369.37 1263.27 2376.59 1240.24 2353.57 1247.45 2346.35 1422.76 2171.05 1436.62 2157.19 1487.03 2106.76"/><polygon class="cls-1" points="1487.03 2106.76 1436.62 2157.19 1436.61 2157.18 1436.61 2056.35 1452.09 2071.83 1487.03 2106.76"/><polygon class="cls-1" points="1470.09 2169.77 1470.09 2363.9 1367.55 2466.45 1360.34 2473.67 1338.75 2452.08 1298.8 2412.12 1263.27 2376.59 1270.49 2369.37 1470.09 2169.77"/><polygon class="cls-1" points="1381.05 1935.21 1452.09 2006.26 1436.61 2056.35 1436.61 2157.18 1436.62 2157.19 1422.76 2171.05 1422.74 2171.04 1381.05 2129.35 1381.05 1935.21"/><polygon class="cls-2" points="1422.76 2171.05 1247.45 2346.35 1240.24 2353.57 1240.23 2353.57 1109.18 2222.52 1109.18 2222.51 1116.4 2215.29 1226.71 2104.96 1246.68 2124.93 1278.87 2092.74 1330.96 2144.83 1381.05 2129.35 1422.74 2171.04 1422.76 2171.05"/><polygon class="cls-1" points="1381.05 1935.21 1381.05 2129.35 1330.96 2144.83 1330.96 1950.69 1381.05 1935.21"/><polygon class="cls-1" points="1330.96 1950.69 1330.96 2144.83 1278.87 2092.74 1278.87 1898.62 1330.96 1950.69"/><polygon class="cls-1" points="1298.8 2478.11 1327.34 2506.66 1306 2527.99 1298.8 2535.21 1298.8 2478.11"/><polygon class="cls-1" points="1321.55 2935.41 1321.55 2948.72 1269.72 2896.91 1222.4 2851.53 1230.03 2843.9 1268.19 2805.74 1285.26 2788.67 1295.73 2778.19 1321.55 2752.38 1321.55 2935.41"/><polygon class="cls-1" points="1321.55 2752.38 1295.73 2778.19 1295.73 2726.57 1321.55 2752.38"/><polygon class="cls-1" points="1295.73 2726.57 1295.73 2778.19 1285.26 2788.67 1285.26 2737.05 1295.73 2726.57"/><polygon class="cls-1" points="1287.44 2980.61 1276.38 2991.67 1269.72 2998.35 1269.72 2962.9 1287.44 2980.61"/><polygon class="cls-1" points="1285.26 2737.05 1285.26 2788.67 1268.19 2805.74 1268.19 2719.98 1285.26 2737.05"/><polygon class="cls-1" points="1278.87 1898.62 1278.87 2092.74 1246.68 2124.93 1246.68 1930.81 1278.87 1898.62"/><polygon class="cls-1" points="1268.19 2719.98 1268.19 2805.74 1230.03 2843.9 1222.4 2851.53 1188.69 2819.21 1189.38 2818.49 1189.38 2798.79 1228.37 2759.8 1268.19 2719.98"/><polygon class="cls-1" points="1268.19 2719.98 1228.37 2759.8 1228.37 2746.14 1188.4 2706.18 1188.4 2797.82 1109.3 2718.73 1109.3 2718.72 1109.3 2561.09 1268.19 2719.98"/><polygon class="cls-1" points="1246.68 1930.81 1246.68 2124.93 1226.71 2104.96 1226.71 1910.83 1246.68 1930.81"/><polygon class="cls-1" points="1228.37 2746.14 1228.37 2759.8 1189.38 2798.79 1188.4 2797.82 1188.4 2706.18 1228.37 2746.14"/><polygon class="cls-1" points="1226.71 1910.83 1226.71 2104.96 1116.4 2215.29 1109.18 2222.51 1105.34 2218.68 1012.13 2125.45 1019.35 2118.24 1226.71 1910.83"/><path class="cls-1" d="M1189.38,2798.79v19.71l-.69.71h0a47.65,47.65,0,0,0-61.62,45.59v25.47l-20.18,20.17-76.38-76.38V2639.9l78.81,78.82h0l79.1,79.09Z"/><path class="cls-1" d="M1131.78,3038.19v41.46l-3.41,3.42q-18.51,18.51-37,37V2992l-41,41V3161.1l-36.76,36.76V3097.18a26.1,26.1,0,0,0-1-7.75c-.74-2.38-2.11-4.94-4.66-6s-5.32-.23-7.53.92a26.76,26.76,0,0,0-6.2,4.77,56.29,56.29,0,0,0-7.88,10.24,83.85,83.85,0,0,0-5.85,11.54,82.08,82.08,0,0,0-4,12.29,56.31,56.31,0,0,0-1.68,12.8v100.68l-.58.6-13.35,13.35V3056.48l139.59-139.58,6.46-6.47,20.18-20.17,4.73-4.74Z"/><polygon class="cls-1" points="1109.3 2561.09 1109.3 2718.72 1030.49 2639.9 1109.3 2561.09"/><path class="cls-1" d="M1091.32,2992v128.14q-20.47,20.51-41,41V3033Z"/><path class="cls-1" d="M1013.59,3097.18v100.68L998,3186.58l-23.24-16.78V3136a56.31,56.31,0,0,1,1.68-12.8,82.08,82.08,0,0,1,4-12.29,83.85,83.85,0,0,1,5.85-11.54,56.29,56.29,0,0,1,7.88-10.24,26.76,26.76,0,0,1,6.2-4.77c2.21-1.15,5-2,7.53-.92s3.92,3.61,4.66,6A26.1,26.1,0,0,1,1013.59,3097.18Z"/><path class="cls-2" d="M998,3186.58l-23.24,23.24v-40Z"/><path class="cls-2" d="M960.82,3173.91v76.72c-13.39-13-26.24-26.42-40-39.11Z"/><path class="cls-2" d="M960.82,3156.83v17.08l-40,37.61c-7.05-6.52-14.33-12.83-20.35-20.24Z"/><path class="cls-2" d="M960.82,3146.11v10.72l-60.31,34.45a91.28,91.28,0,0,1-12.7-21.13Z"/><path class="cls-2" d="M960.82,3137.66v8.45l-73,24a94.68,94.68,0,0,1-6.75-23.07Z"/><path class="cls-2" d="M960.82,3130v7.71l-79.76,9.42a90.76,90.76,0,0,1-.54-23.8Z"/><path class="cls-2" d="M960.82,3121.72V3130l-80.3-6.67a93,93,0,0,1,5.69-23.29Z"/><path class="cls-2" d="M960.82,3111.53v10.19L886.21,3100c.06-.14.12-.3.17-.44a96.78,96.78,0,0,1,11.52-21.09Z"/><polygon class="cls-1" points="763.15 2200.5 665.67 2297.15 665.67 2103.01 828.38 1941.7 828.38 2135.84 763.15 2200.5"/><line class="cls-3" x1="1100.41" y1="2916.9" x2="960.82" y2="3056.48"/><line class="cls-3" x1="960.82" y1="3111.53" x2="897.9" y2="3078.46"/><path class="cls-3" d="M960.82,3250.63c-13.39-13-26.24-26.42-40-39.11-7.05-6.52-14.33-12.83-20.35-20.24a91.28,91.28,0,0,1-12.7-21.13,94.68,94.68,0,0,1-6.75-23.07,90.76,90.76,0,0,1-.54-23.8,93,93,0,0,1,5.69-23.29c.06-.14.12-.3.17-.44a96.78,96.78,0,0,1,11.52-21.09"/><polyline class="cls-3" points="1321.55 2948.72 1321.55 2935.41 1321.55 2752.38"/><polyline class="cls-3" points="1705.89 3330.86 1607.71 3429.03 1462.28 3574.45"/><line class="cls-3" x1="1494.17" y1="2925.01" x2="1705.89" y2="3136.71"/><line class="cls-3" x1="2081.92" y1="3389.38" x2="1923.17" y2="3548.14"/><line class="cls-3" x1="1705.89" y1="3330.85" x2="1923.17" y2="3548.14"/><line class="cls-3" x1="1705.89" y1="3136.71" x2="1705.89" y2="3330.85"/><line class="cls-3" x1="1619.27" y1="3116.09" x2="1619.27" y2="3223.33"/><polyline class="cls-3" points="1269.72 2962.9 1287.44 2980.61 1349.65 3042.83 1349.65 3170.97"/><polyline class="cls-3" points="1421.85 3049.03 1494.17 3121.36 1579.31 3206.49 1607.71 3234.89"/><polyline class="cls-3" points="1607.71 3320.52 1553.45 3374.78 1462.28 3465.95"/><line class="cls-3" x1="1607.71" y1="3320.52" x2="1534.36" y2="3247.16"/><path class="cls-3" d="M1426.91,3248.22q9.87,9.87,19.76,19.76"/><line class="cls-3" x1="1450.55" y1="3330.98" x2="1472.33" y2="3309.2"/><line class="cls-3" x1="1292.2" y1="3281.14" x2="1395.68" y2="3313.71"/><path class="cls-3" d="M1446,3266.92c.22.35.44.71.67,1.06q12.82,20.63,25.66,41.22"/><line class="cls-3" x1="1508.03" y1="3204.88" x2="1524.96" y2="3232.05"/><path class="cls-3" d="M1534.36,3247.16l-9.4-15.11"/><line class="cls-3" x1="1553.45" y1="3374.78" x2="1607.71" y2="3429.04"/><polyline class="cls-3" points="1607.71 3234.89 1619.27 3223.33 1705.89 3136.71"/><polyline class="cls-3" points="1607.71 3429.03 1607.71 3320.52 1607.71 3234.89"/><polyline class="cls-3" points="1494.17 2925.01 1402.66 3016.52 1395.99 3023.18"/><polyline class="cls-3" points="1269.72 2998.35 1276.38 2991.67 1287.44 2980.61"/><polyline class="cls-3" points="1222.4 2851.53 1230.03 2843.9 1268.19 2805.74 1285.26 2788.67 1295.73 2778.19 1321.55 2752.38"/><line class="cls-3" x1="1494.17" y1="2925.01" x2="1494.17" y2="3121.36"/><line class="cls-3" x1="1579.31" y1="3076.12" x2="1579.31" y2="3206.49"/><line class="cls-3" x1="1579.31" y1="3076.12" x2="1619.27" y2="3116.09"/><line class="cls-3" x1="1295.73" y1="2778.19" x2="1295.73" y2="2726.57"/><line class="cls-3" x1="1285.26" y1="2788.67" x2="1285.26" y2="2737.05"/><line class="cls-3" x1="1268.19" y1="2805.74" x2="1268.19" y2="2719.98"/><line class="cls-3" x1="1268.19" y1="2719.98" x2="1285.26" y2="2737.05"/><line class="cls-3" x1="1295.73" y1="2726.57" x2="1285.26" y2="2737.05"/><line class="cls-3" x1="1188.4" y1="2706.18" x2="1228.37" y2="2746.14"/><line class="cls-3" x1="1228.37" y1="2746.14" x2="1228.37" y2="2759.8"/><line class="cls-3" x1="2081.92" y1="3389.38" x2="2081.92" y2="3195.25"/><line class="cls-3" x1="1338.75" y1="2646.22" x2="1345.23" y2="2652.69"/><line class="cls-3" x1="1422.74" y1="2171.04" x2="1381.05" y2="2129.35"/><line class="cls-3" x1="1452.09" y1="2071.83" x2="1452.09" y2="2006.26"/><polyline class="cls-3" points="1189.38 2798.79 1228.37 2759.8 1268.19 2719.98"/><line class="cls-3" x1="1268.19" y1="2719.98" x2="1109.3" y2="2561.09"/><line class="cls-3" x1="1188.4" y1="2797.82" x2="1188.4" y2="2706.18"/><polyline class="cls-3" points="1672.79 2428.06 1500.97 2599.87 1493.76 2607.09"/><polyline class="cls-3" points="1360.34 2473.67 1367.55 2466.45 1470.09 2363.9"/><polyline class="cls-3" points="1298.8 2535.21 1306 2527.99 1327.34 2506.66"/><polyline class="cls-3" points="1263.27 2376.59 1270.49 2369.37 1470.09 2169.77"/><polyline class="cls-3" points="1240.24 2353.57 1247.45 2346.35 1422.76 2171.05 1436.62 2157.19 1487.03 2106.76"/><polyline class="cls-3" points="1226.71 1910.83 1019.35 2118.24 1012.13 2125.45"/><line class="cls-3" x1="1109.19" y1="2222.51" x2="1105.34" y2="2218.68"/><polyline class="cls-3" points="1597.3 2710.63 1590.82 2704.15 1493.76 2607.09 1360.34 2473.67 1338.75 2452.08 1298.8 2412.12 1263.27 2376.59 1240.24 2353.57 1240.23 2353.57 1109.18 2222.52"/><polyline class="cls-3" points="1109.18 2222.52 1109.18 2222.51 1116.4 2215.29 1226.71 2104.96"/><path class="cls-3" d="M1188.67,3013.32a47.71,47.71,0,0,0-35.59,3.12"/><line class="cls-3" x1="1131.78" y1="3079.65" x2="1128.37" y2="3083.07"/><line class="cls-3" x1="1403.77" y1="3515.94" x2="1462.28" y2="3574.45"/><polyline class="cls-4" points="1065.86 3145.59 1065.86 3017.45 1106.84 2976.46 1106.84 3104.6"/><line class="cls-3" x1="1314.96" y1="3604.76" x2="1403.77" y2="3515.94"/><path class="cls-3" d="M1127.05,2864.79a47.81,47.81,0,0,0,4.73,20.73"/><line class="cls-3" x1="1127.05" y1="2890.26" x2="1127.05" y2="2864.79"/><line class="cls-3" x1="665.67" y1="2297.15" x2="665.67" y2="2103.01"/><line class="cls-3" x1="828.38" y1="2135.84" x2="828.38" y2="1941.7"/><line class="cls-3" x1="665.67" y1="2103.01" x2="828.38" y2="1941.7"/><line class="cls-3" x1="1321.55" y1="2752.37" x2="1295.73" y2="2726.57"/><line class="cls-3" x1="960.82" y1="3146.11" x2="887.81" y2="3170.15"/><line class="cls-3" x1="1417.08" y1="3238.41" x2="1356.12" y2="3177.44"/><line class="cls-3" x1="974.17" y1="3237.28" x2="960.82" y2="3250.63"/><line class="cls-3" x1="828.38" y1="2135.84" x2="1105.34" y2="2412.82"/><line class="cls-3" x1="1498.39" y1="2392.19" x2="1538.36" y2="2352.23"/><line class="cls-3" x1="1538.36" y1="2352.23" x2="1567.15" y2="2381.02"/><line class="cls-3" x1="1567.15" y1="2381.02" x2="1617.22" y2="2365.53"/><line class="cls-3" x1="1617.22" y1="2365.53" x2="1672.79" y2="2421.09"/><path class="cls-3" d="M1349.65,3171l6.47,6.47"/><line class="cls-3" x1="2034.08" y1="3147.4" x2="2081.92" y2="3195.25"/><line class="cls-3" x1="1597.3" y1="2710.63" x2="1960.74" y2="3074.07"/><line class="cls-3" x1="763.15" y1="2200.5" x2="828.38" y2="2135.84"/><path class="cls-3" d="M1131.78,3038.19a48.54,48.54,0,0,1,3.92-6.67,46.27,46.27,0,0,1,5-5.94,47.32,47.32,0,0,1,12.43-9.14"/><polyline class="cls-3" points="960.82 3121.72 886.22 3099.99 886.2 3099.99"/><line class="cls-3" x1="960.82" y1="3137.66" x2="881.06" y2="3147.08"/><line class="cls-3" x1="960.82" y1="3156.83" x2="900.51" y2="3191.28"/><line class="cls-3" x1="960.82" y1="3129.95" x2="880.52" y2="3123.28"/><line class="cls-3" x1="1145.31" y1="2452.78" x2="1298.8" y2="2606.26"/><line class="cls-3" x1="1269.72" y1="3091.04" x2="1269.72" y2="3077.72"/><line class="cls-3" x1="1470.09" y1="2363.9" x2="1498.39" y2="2392.19"/><line class="cls-3" x1="1498.39" y1="2392.19" x2="1498.39" y2="2198.06"/><line class="cls-3" x1="1470.09" y1="2169.77" x2="1487.03" y2="2186.69"/><line class="cls-3" x1="1538.36" y1="2352.23" x2="1538.36" y2="2158.1"/><line class="cls-3" x1="1498.39" y1="2198.06" x2="1538.36" y2="2158.1"/><line class="cls-3" x1="1567.15" y1="2381.02" x2="1567.15" y2="2186.88"/><line class="cls-3" x1="1538.36" y1="2158.1" x2="1567.15" y2="2186.88"/><line class="cls-3" x1="1617.22" y1="2365.53" x2="1617.22" y2="2171.39"/><line class="cls-3" x1="1567.15" y1="2186.88" x2="1617.22" y2="2171.39"/><line class="cls-3" x1="1617.22" y1="2171.39" x2="1688.27" y2="2242.44"/><line class="cls-3" x1="1688.27" y1="2242.44" x2="1672.79" y2="2292.52"/><line class="cls-3" x1="1740.56" y1="2554.43" x2="1740.56" y2="2360.29"/><line class="cls-3" x1="1688.27" y1="2308" x2="1688.27" y2="2242.44"/><line class="cls-3" x1="1688.27" y1="2308" x2="1740.56" y2="2360.29"/><line class="cls-3" x1="1109.3" y1="2561.09" x2="1030.49" y2="2639.9"/><line class="cls-3" x1="1030.49" y1="2834.05" x2="1106.87" y2="2910.43"/><line class="cls-3" x1="1109.3" y1="2718.72" x2="1109.3" y2="2561.09"/><line class="cls-3" x1="1105.34" y1="2412.82" x2="1106.1" y2="2412.07"/><line class="cls-3" x1="1030.49" y1="2834.05" x2="1030.49" y2="2674.91"/><line class="cls-3" x1="1487.03" y1="2186.69" x2="1487.03" y2="2106.76"/><line class="cls-3" x1="1030.49" y1="2661.97" x2="665.67" y2="2297.15"/><line class="cls-3" x1="1487.03" y1="2186.69" x2="1498.39" y2="2198.06"/><polyline class="cls-3" points="960.82 3173.91 920.86 3211.52 920.78 3211.59"/><path class="cls-3" d="M763.15,2200.5h0"/><line class="cls-3" x1="1189.38" y1="2818.5" x2="1189.38" y2="2798.79"/><polyline class="cls-3" points="1131.78 3079.65 1131.78 3038.2 1131.78 2885.52"/><path class="cls-3" d="M1188.67,2819.2a47.65,47.65,0,0,0-61.62,45.59"/><polyline class="cls-3" points="1131.78 2885.52 1127.05 2890.26 1106.88 2910.43 1100.41 2916.9"/><polyline class="cls-3" points="1421.85 3049.03 1395.99 3023.18 1349.65 2976.82"/><path class="cls-3" d="M1417.08,3238.41l9.83,9.81"/><path class="cls-3" d="M1315,3604.76q-177.06-177.08-354.14-354.13"/><path class="cls-3" d="M1450.55,3331l-54.87-17.27"/><line class="cls-3" x1="1470.09" y1="2363.9" x2="1470.09" y2="2169.77"/><polyline class="cls-3" points="1672.79 2428.06 1672.79 2421.09 1672.79 2292.52"/><line class="cls-3" x1="1672.79" y1="2292.52" x2="1688.27" y2="2308"/><line class="cls-3" x1="1740.56" y1="2554.43" x2="1590.82" y2="2704.15"/><line class="cls-3" x1="1740.56" y1="2360.29" x2="1672.79" y2="2428.06"/><polyline class="cls-3" points="1030.49 2674.91 1030.49 2661.97 1030.49 2639.9"/><polyline class="cls-3" points="1030.49 2639.9 1109.3 2718.72 1109.3 2718.73 1188.4 2797.82 1189.38 2798.79"/><polyline class="cls-3" points="828.38 1941.7 1012.13 2125.45 1105.34 2218.68"/><line class="cls-3" x1="1338.75" y1="2646.22" x2="1338.75" y2="2518.07"/><polyline class="cls-3" points="1298.8 2606.26 1298.8 2535.21 1298.8 2478.11 1327.34 2506.66 1338.75 2518.07"/><line class="cls-3" x1="1105.34" y1="2284.67" x2="1145.31" y2="2324.63"/><line class="cls-3" x1="1145.31" y1="2452.78" x2="1145.31" y2="2324.63"/><line class="cls-3" x1="1105.34" y1="2412.82" x2="1105.34" y2="2284.67"/><polyline class="cls-3" points="1269.72 3077.72 1269.72 2998.35 1269.72 2962.9"/><polyline class="cls-3" points="1349.65 2976.82 1321.55 2948.74 1321.55 2948.72 1269.72 2896.91"/><line class="cls-3" x1="763.15" y1="2200.5" x2="665.67" y2="2297.15"/><polyline class="cls-3" points="1230.59 3342.76 1388.93 3392.6 1462.28 3465.95"/><line class="cls-3" x1="1345.23" y1="2652.69" x2="2081.92" y2="3389.38"/><line class="cls-3" x1="1960.74" y1="3074.07" x2="2034.08" y2="3147.4"/><polyline class="cls-3" points="1188.67 2819.2 1188.69 2819.21 1222.4 2851.53 1269.72 2896.91"/><line class="cls-3" x1="1269.72" y1="3091.04" x2="1188.67" y2="3013.32"/><line class="cls-3" x1="997.99" y1="3186.58" x2="974.75" y2="3209.82"/><polyline class="cls-3" points="1013.59 3197.86 997.99 3186.58 974.75 3169.8"/><path class="cls-3" d="M974.75,3236.68V3136a56.31,56.31,0,0,1,1.68-12.8,82.08,82.08,0,0,1,4-12.29,83.85,83.85,0,0,1,5.85-11.54,56.29,56.29,0,0,1,7.88-10.24,26.76,26.76,0,0,1,6.2-4.77c2.21-1.15,5-2,7.53-.92s3.92,3.61,4.66,6a26.1,26.1,0,0,1,1,7.75v100.68"/><path class="cls-3" d="M1013.59,3197.86l36.76-36.76q20.49-20.51,41-41,18.54-18.51,37-37"/><path class="cls-3" d="M974.17,3237.28l.58-.6"/><polyline class="cls-3" points="960.82 3250.63 960.82 3173.91 960.82 3156.83 960.82 3146.11 960.82 3137.66 960.82 3129.95 960.82 3121.72 960.82 3111.53 960.82 3056.48"/><line class="cls-3" x1="1487.03" y1="2106.76" x2="1452.09" y2="2071.83"/><line class="cls-3" x1="1436.61" y1="2056.35" x2="1452.09" y2="2006.26"/><line class="cls-3" x1="1381.05" y1="2129.35" x2="1381.05" y2="1935.21"/><line class="cls-3" x1="1452.09" y1="2006.26" x2="1381.05" y2="1935.21"/><line class="cls-3" x1="1381.05" y1="2129.35" x2="1330.96" y2="2144.83"/><line class="cls-3" x1="1330.96" y1="2144.83" x2="1330.96" y2="1950.69"/><line class="cls-3" x1="1381.05" y1="1935.21" x2="1330.96" y2="1950.69"/><line class="cls-3" x1="1330.96" y1="2144.83" x2="1278.87" y2="2092.74"/><line class="cls-3" x1="1278.87" y1="2092.74" x2="1278.87" y2="1898.62"/><line class="cls-3" x1="1330.96" y1="1950.69" x2="1278.87" y2="1898.62"/><line class="cls-3" x1="1278.87" y1="2092.74" x2="1246.68" y2="2124.93"/><line class="cls-3" x1="1246.68" y1="2124.93" x2="1246.68" y2="1930.81"/><line class="cls-3" x1="1278.87" y1="1898.62" x2="1246.68" y2="1930.81"/><line class="cls-3" x1="1246.68" y1="2124.93" x2="1226.71" y2="2104.96"/><line class="cls-3" x1="1226.71" y1="2104.96" x2="1226.71" y2="1910.83"/><line class="cls-3" x1="1246.68" y1="1930.81" x2="1226.71" y2="1910.83"/><line class="cls-3" x1="1436.61" y1="2157.18" x2="1436.61" y2="2056.35"/><line class="cls-3" x1="1452.09" y1="2071.83" x2="1436.61" y2="2056.35"/><path class="cls-5" d="M1120,2897.17l-72.48-70.66s-40.9-20.68-73.93,19.57c-22.22,27.08-7.08,60.83-7.08,60.83l73.09,70.66Z"/><line class="cls-3" x1="1039.55" y1="2977.57" x2="1047.47" y2="2826.51"/><line class="cls-3" x1="1119.95" y1="2897.17" x2="966.46" y2="2906.91"/><line class="cls-3" x1="960.93" y1="2879.59" x2="960.93" y2="3056.54"/></svg>