<svg id="_5" data-name="5" xmlns="http://www.w3.org/2000/svg" viewBox="0 0 4800 4800"><defs><style>.cls-1{fill:#fff;}.cls-2{fill:#9acbff;}.cls-3,.cls-5{fill:#efd90f;}.cls-4{fill:none;}.cls-4,.cls-5{stroke:#037cff;stroke-linecap:round;stroke-linejoin:round;stroke-width:7.79px;}</style></defs><title>5</title><polygon class="cls-1" points="2747.82 3202.51 2747.82 3370.77 2137.81 2760.76 2137.81 2592.51 2747.82 3202.51"/><path class="cls-2" d="M2747.82,3370.77l-651.53,651.52-610-610L1771.59,3127v-165l1.63,1.62,55.28,55.28,25.62,25.62,42.6-42.61V2872.4l160.19-160.17,64.73,64.72q8.07-8.1,16.17-16.19Z"/><path class="cls-1" d="M2137.81,2592.51v168.25q-8.08,8.1-16.17,16.19V2608.69Z"/><polygon class="cls-1" points="2121.64 2608.69 2121.64 2776.95 2056.91 2712.23 2056.91 2543.97 2121.64 2608.69"/><path class="cls-1" d="M2056.91,2544v168.26L1896.72,2872.4v-38.8L1832,2768.87Z"/><polygon class="cls-1" points="1943.38 2402.39 1943.38 2570.64 1752.93 2761.1 1752.93 2703.83 1703.9 2654.8 1703.9 2654.79 1703.9 2641.86 1859.25 2486.52 1943.38 2402.39"/><polygon class="cls-1" points="1943.38 2402.39 1859.25 2486.52 1719.01 2346.27 1719.01 2178.02 1722.24 2181.26 1943.38 2402.39"/><path class="cls-1" d="M1896.72,2872.4v129.45l-42.6,42.61V2876.2l42.6-42.6Z"/><polygon class="cls-1" points="1832 2768.87 1896.72 2833.6 1854.12 2876.2 1832 2854.1 1832 2854.09 1832 2768.87"/><polygon class="cls-2" points="1859.25 2486.52 1703.9 2641.86 1601.93 2539.88 1597.13 2535.08 1563.67 2501.61 1719.01 2346.27 1859.25 2486.52"/><polygon class="cls-1" points="1854.12 2876.2 1854.12 3044.46 1828.5 3018.84 1773.22 2963.56 1771.59 2961.94 1771.59 2958.73 1747.59 2934.73 1746 2936.33 1717.34 2907.67 1717.34 2836.47 1717.34 2739.42 1752.93 2775.01 1832 2854.09 1832 2854.1 1854.12 2876.2"/><path class="cls-1" d="M1771.59,2961.94v165l-285.31,285.31V3244l120.82-120.81,37.76-37.76,102.73-102.74,24-24Z"/><polygon class="cls-1" points="1771.59 2958.73 1747.59 2982.73 1747.59 2934.73 1771.59 2958.73"/><polygon class="cls-1" points="1752.93 2774.04 1752.93 2775.01 1717.34 2739.42 1752.93 2703.83 1752.93 2761.1 1752.93 2774.04"/><polygon class="cls-1" points="1703.9 2654.8 1752.93 2703.83 1717.34 2739.42 1717.34 2836.47 1680.68 2799.83 1680.68 2631.57 1703.9 2654.79 1703.9 2654.8"/><polygon class="cls-1" points="1747.59 2934.73 1747.59 2982.73 1644.86 3085.47 1640.26 3080.89 1516.21 2956.84 1516.21 2758.36 1720.09 2962.24 1746 2936.33 1747.59 2934.73"/><path class="cls-2" d="M1746,2936.33l-25.91,25.91-203.88-203.88-92.77,92.77-6.46,6.47-82-82-15.12-15.12,5.41-5.4V2586.85l-89.76-89.75-97.93-97.94h0V2321l-39.11,39.1-248.1,248.1V2776.4q-304.46-304.46-608.92-608.92L893,1516l524.8,524.8-199.57,199.56v168.26l151.92,151.92,35.6-35.59,6.47-6.48,10.69,10.7v-82h2.16v168.26l85.21,85.21,42.07-42.06,5.94,5.94V2582h1.57v168.25l85.22,85.21,35.6-35.59,36.66,36.64v71.2Z"/><polygon class="cls-1" points="1719.01 2178.02 1719.01 2346.27 1563.67 2501.61 1558.29 2496.24 1552.35 2490.3 1482.78 2420.74 1479.54 2417.49 1634.89 2262.15 1712.54 2184.5 1719.01 2178.02"/><polygon class="cls-1" points="1719.01 2178.02 1712.54 2184.5 1634.89 2262.15 1634.41 2261.67 1551.54 2178.82 1551.54 2010.56 1715.78 2174.79 1719.01 2178.02"/><polygon class="cls-1" points="1703.9 2641.86 1703.9 2654.79 1680.68 2631.57 1645.08 2667.17 1559.86 2581.96 1581.88 2559.95 1595.45 2546.36 1597.13 2544.7 1601.93 2539.88 1703.9 2641.86"/><polygon class="cls-1" points="1680.68 2631.57 1680.68 2799.83 1645.08 2835.42 1645.08 2667.17 1680.68 2631.57"/><polygon class="cls-1" points="1645.08 2667.17 1645.08 2835.42 1559.86 2750.21 1559.86 2581.96 1645.08 2667.17"/><path class="cls-1" d="M1644.86,3085.47l-37.76,37.76-7.82-7.83-53.94-53.93q-10.66-17.16-21.34-34.3l-62.19,62.2-9.47-15.22q-10.68-17.13-21.34-34.28l-96-96V2815.73l-35.18-35.18-42-42v128.14l-41.53-41.52V2657l20.76,20.77,20.77,20.77,62,62,15.12,15.12,82,82,14,14,85.21,85.22,124,124Z"/><path class="cls-2" d="M1634.89,2262.15l-155.35,155.34-3.23-3.23-9.18-9.18-5.38-5.38-38.84-38.84-10.69-10.68-42.71-42.72q57.18-57.21,114.34-114.35l26.7,26.68q20.51-20.48,41-41l82.87,82.86Z"/><path class="cls-2" d="M1599.28,3115.4l7.82,7.83L1486.28,3244v23.19l-7.81,7.81-14,14-73.35-73.36c.34-.33.68-.66,1-1s.67-.67,1-1,.67-.67,1-1,.67-.67,1-1l1-1,1-1,1-1,1-1c.34-.33.67-.67,1-1l1-1,1-1,1-1,1-1,1-1,1-1,1-1c.33-.33.67-.66,1-1l1-1c.33-.32.66-.66,1-1s.67-.67,1-1l1-1,1-1c.33-.34.66-.68,1-1s.66-.67,1-1,.66-.67,1-1l1-1c.33-.34.67-.66,1-1l1-1c.33-.32.67-.66,1-1s.68-.66,1-1,.67-.66,1-1,.67-.66,1-1,.66-.68,1-1,.66-.68,1-1l1-1c.32-.34.66-.66,1-1s.66-.66,1-1,.66-.66,1-1l1-1c.33-.32.67-.66,1-1s.68-.66,1-1,.68-.66,1-1l1-1c.34-.34.66-.68,1-1l1-1,1-1c.32-.34.66-.66,1-1s.66-.66,1-1l1-1c.32-.32.66-.66,1-1s.68-.66,1-1,.68-.66,1-1,.68-.66,1-1,.66-.68,1-1,.66-.68,1-1l1-1c.32-.34.66-.66,1-1s.66-.66,1-1,.66-.66,1-1,.66-.66,1-1,.68-.66,1-1,.68-.66,1-1,.67-.67,1-1,.66-.67,1-1,.66-.67,1-1l1-1,1-1,21.5-21.5q-10.68-17.13-21.34-34.28l3.68-3.69,62.19-62.2q10.66,17.16,21.34,34.3Z"/><polygon class="cls-1" points="1601.93 2539.88 1597.13 2544.7 1595.45 2546.36 1581.88 2559.95 1563.04 2541.1 1558.29 2536.35 1558.29 2581.96 1558.29 2664.5 1552.35 2658.56 1552.35 2490.3 1558.29 2496.24 1563.67 2501.61 1597.13 2535.08 1601.93 2539.88"/><polygon class="cls-1" points="1563.04 2541.1 1581.88 2559.95 1559.86 2581.96 1558.29 2581.96 1558.29 2536.35 1563.04 2541.1"/><polygon class="cls-1" points="1552.35 2490.3 1552.35 2658.56 1510.28 2700.62 1510.28 2532.36 1545.87 2496.77 1552.35 2490.3"/><polygon class="cls-1" points="1552.35 2490.3 1545.87 2496.77 1510.28 2532.36 1467.13 2489.22 1467.13 2405.08 1476.31 2414.26 1479.54 2417.49 1482.78 2420.74 1552.35 2490.3"/><path class="cls-1" d="M1551.54,2010.56v168.25q-20.49,20.49-41,41V2051.55Z"/><polygon class="cls-1" points="1516.21 2758.36 1516.21 2956.84 1431 2871.62 1416.98 2857.6 1423.44 2851.13 1516.21 2758.36"/><polygon class="cls-1" points="1510.55 2051.55 1510.55 2219.79 1483.85 2193.11 1483.85 2024.85 1501.92 2042.91 1510.55 2051.55"/><polygon class="cls-1" points="1510.28 2532.36 1510.28 2700.62 1425.07 2615.41 1425.07 2447.15 1467.13 2489.22 1510.28 2532.36"/><polygon class="cls-1" points="1501.92 1956.62 1501.92 2042.91 1483.85 2024.85 1285.38 2223.32 1285.38 2307.46 1225.51 2247.6 1218.23 2240.31 1417.8 2040.75 1501.92 1956.62"/><path class="cls-1" d="M1501.92,1956.62l-84.12,84.13L893,1516V1347.71Z"/><path class="cls-1" d="M1483.85,2024.85v168.26q-57.16,57.16-114.34,114.35h0l-84.12-84.14Z"/><path class="cls-2" d="M1458.13,3093.06q10.66,17.13,21.34,34.28l-21.5,21.5q-41.22-14.68-82.44-29.36-4.6-7.44-9.25-14.88l.92-.93.94-.93c.29-.31.61-.62.92-.92l.92-.93.93-.92q.45-.48.93-.93l.92-.93.93-.92.92-.92.92-.94.94-.92c.3-.31.61-.62.92-.92s.62-.62.92-.94.63-.61.94-.92.61-.62.92-.92l.92-.93.93-.92q.45-.48.93-.93l.92-.93.93-.92c.3-.31.61-.63.92-.92l.93-.94.93-.92c.3-.31.61-.62.92-.92s.62-.62.92-.94l.94-.92.92-.92.92-.93c.31-.32.62-.61.94-.93s.61-.62.92-.92l.92-.93.93-.92c.3-.31.61-.63.93-.92l.92-.94.93-.92.92-.92c.31-.31.63-.63.92-.94l.94-.92c.3-.31.61-.62.92-.92l.92-.93c.31-.32.63-.61.94-.93s.61-.62.92-.92l.92-.93.93-.92q.45-.48.93-.93l.92-.93.93-.92.92-.92c.32-.31.63-.63.93-.94l.93-.92c.31-.31.61-.62.92-.92s.62-.62.92-.94l.94-.92.92-.93.92-.92.94-.92.92-.94c.31-.3.62-.61.92-.92l.93-.92.92-.94c.32-.3.63-.61.93-.92l.93-.92.92-.93c.31-.3.63-.61.92-.93l.94-.92.92-.93.92-.92,2.69-2.69q10.66,17.15,21.34,34.28l9.47,15.22Z"/><polygon class="cls-1" points="1467.13 2405.08 1467.13 2489.22 1425.07 2447.15 1447.08 2425.14 1467.13 2405.08"/><polygon class="cls-1" points="1467.13 2405.08 1447.08 2425.14 1422.91 2400.97 1422.91 2447.15 1422.91 2529.12 1412.22 2518.42 1412.22 2350.18 1422.91 2360.86 1461.75 2399.7 1467.13 2405.08"/><path class="cls-2" d="M1458,3148.84l-1,1-1,1c-.34.33-.66.67-1,1s-.66.67-1,1-.66.67-1,1-.66.67-1,1-.66.67-1,1-.66.67-1,1-.68.66-1,1-.68.66-1,1-.68.66-1,1l-1,1c-.34.32-.66.66-1,1s-.66.66-1,1-.66.66-1,1-.66.68-1,1-.66.68-1,1-.66.68-1,1l-1,1c-.34.34-.68.66-1,1s-.68.66-1,1l-1,1-1,1c-.34.32-.66.66-1,1l-1,1c-.32.32-.66.66-1,1s-.66.68-1,1-.66.68-1,1l-1,1c-.34.34-.68.66-1,1s-.68.66-1,1-.68.66-1,1l-1,1c-.34.32-.66.66-1,1s-.66.66-1,1-.66.66-1,1-.66.68-1,1-.66.68-1,1-.66.68-1,1l-1,1c-.33.34-.67.66-1,1l-1,1c-.34.33-.67.66-1,1s-.67.66-1,1-.67.66-1,1l-1,1-1,1c-.33.33-.66.67-1,1s-.66.67-1,1l-1,1c-.33.34-.67.67-1,1l-1,1-1,1-1,1-1,1-1,1-1,1-1,1c-.33.33-.66.67-1,1l-1,1-1,1-1,1-1,1c-.33.33-.66.67-1,1s-.66.67-1,1-.66.67-1,1-.66.66-1,1l-157.48-56.1,1-1,1-1,1-1,1-1,1-1,1-1,1-1,1-1,1-1c.34-.34.68-.66,1-1l1-1,1-1,1-1c.34-.33.66-.66,1-1l1-1,1-1,1-1,1-1,1-1,1-1,1-1,1-1,1-1,1-1,1-1,1-1,1-1,1-1,1-1,1-1,1-1,1-1,1-1,1-1,1-1,1-1c.32-.33.66-.66,1-1s.66-.67,1-1l1-1c.33-.34.67-.66,1-1s.67-.66,1-1l1-1,1-1c.34-.32.67-.66,1-1l1-1,1-1,1-1,1-1,1-1,1-1,1-1,1-1,1-1,1-1,1-1,1-1,1-1,1-1,1-1,1-1c.34-.34.67-.66,1-1l1-1,1-1,1-1c.33-.32.66-.66,1-1l1-1,1-1,57.26,20.39q8.9,3.16,17.79,6.35Q1416.75,3134.14,1458,3148.84Z"/><polygon class="cls-1" points="1447.08 2425.14 1425.07 2447.15 1422.91 2447.15 1422.91 2400.97 1447.08 2425.14"/><path class="cls-2" d="M1431,3039.87l-2.69,2.69-.92.92-.92.93-.94.92c-.29.32-.61.63-.92.93l-.92.93-.93.92c-.3.31-.61.62-.93.92l-.92.94-.93.92c-.3.31-.61.62-.92.92l-.92.94-.94.92-.92.92-.92.93-.94.92c-.3.32-.61.63-.92.94s-.61.61-.92.92l-.93.92c-.3.31-.61.63-.93.94l-.92.92-.93.92-.92.93q-.48.45-.93.93l-.93.92-.92.93c-.31.3-.62.61-.92.92s-.63.61-.94.93l-.92.93c-.31.3-.62.61-.92.92l-.94.92c-.29.31-.61.63-.92.94l-.92.92-.93.92-.92.94c-.32.29-.63.61-.93.92l-.93.92-.92.93c-.31.3-.63.61-.92.92s-.63.61-.94.93l-.92.93-.92.92-.94.92c-.3.32-.61.63-.92.94s-.62.61-.92.92l-.93.92-.93.94c-.31.29-.62.61-.92.92l-.93.92-.92.93q-.48.45-.93.93l-.93.92-.92.93c-.31.3-.62.61-.92.92s-.63.63-.94.92-.61.63-.92.94-.62.61-.92.92l-.94.92-.92.94-.92.92-.93.92-.92.93q-.48.45-.93.93l-.93.92-.92.93c-.31.3-.63.61-.92.92l-.94.93-.92.93-8.54,8.53-57.26-20.39-1,1-1,1c-.34.34-.67.68-1,1l-1,1-1,1-1,1c-.33.34-.66.66-1,1l-1,1-1,1-1,1-1,1-1,1-1,1-1,1-1,1-1,1-1,1-1,1-1,1-1,1-1,1-1,1-1,1c-.33.33-.66.67-1,1l-1,1-1,1c-.32.34-.66.67-1,1s-.67.66-1,1l-1,1c-.33.33-.67.66-1,1s-.68.66-1,1l-1,1-1,1-1,1-1,1-1,1-1,1-1,1-1,1-1,1-1,1-1,1-1,1-1,1-1,1-1,1-1,1-1,1-1,1-1,1-1,1-1,1-1,1c-.34.34-.66.67-1,1l-1,1-1,1-1,1c-.32.34-.66.66-1,1l-1,1-1,1-1,1-1,1-1,1-1,1-1,1-1,1-1,1-175.83-175.83,24.85-24.84,41-41,92.73-92.73,41.53,41.52v-44.22c2.16-2.16,4.31-4.32,6.48-6.48q17.73-17.73,35.47-35.49l35.18,35.18v128.14Z"/><polygon class="cls-1" points="1369.51 2307.46 1412.22 2350.18 1405.75 2356.64 1370.15 2392.24 1285.38 2307.47 1285.38 2307.46 1285.38 2223.32 1369.5 2307.46 1369.51 2307.46"/><polygon class="cls-1" points="1412.22 2350.18 1412.22 2518.42 1405.75 2524.9 1370.15 2560.49 1370.15 2392.24 1405.75 2356.64 1412.22 2350.18"/><polygon class="cls-1" points="1370.15 2392.24 1370.15 2560.49 1218.23 2408.57 1218.23 2240.31 1225.51 2247.6 1285.38 2307.46 1285.38 2307.47 1370.15 2392.24"/><path class="cls-1" d="M1325.29,2586.85V2755.1l-5.41,5.4-62-62-20.77-20.77Z"/><polygon class="cls-1" points="1325.29 2586.85 1237.1 2677.73 1216.34 2656.96 1138.69 2734.62 1132.55 2728.47 1132.55 2560.22 1152.47 2580.16 1235.53 2497.1 1325.29 2586.85"/><path class="cls-1" d="M1299.82,2780.55q-17.73,17.76-35.47,35.49c-2.17,2.16-4.32,4.32-6.48,6.48V2738.6Z"/><polygon class="cls-1" points="1235.53 2497.1 1152.47 2580.16 1132.55 2560.22 1130.86 2561.92 1130.85 2561.91 1130.85 2392.41 1137.6 2399.16 1235.53 2497.1"/><polygon class="cls-1" points="1216.34 2656.96 1216.34 2825.22 1123.61 2917.95 1123.61 2789.8 1082.62 2830.79 1082.62 2958.94 1057.77 2983.78 1057.77 2959.54 1057.77 2874.27 1057.77 2815.54 1138.69 2734.62 1216.34 2656.96"/><polygon class="cls-1" points="1132.55 2728.47 1138.69 2734.62 1057.77 2815.54 1051.63 2809.38 1132.55 2728.47"/><polygon class="cls-1" points="1137.6 2399.15 1137.6 2399.16 1130.85 2392.41 1105.77 2367.34 1098.49 2360.05 1137.6 2320.95 1137.6 2335.51 1137.6 2399.15"/><polygon class="cls-1" points="1132.55 2560.22 1132.55 2728.47 1051.63 2809.38 1040.09 2797.86 1040.09 2652.66 1125.01 2567.76 1130.86 2561.92 1132.55 2560.22"/><path class="cls-1" d="M1130.86,2561.92l-5.85,5.84-84.92,84.9c-.5.11-1,.2-1.54.3A68.25,68.25,0,0,0,985.49,2706l-35.87,35.86-29.38-29.39v-25.88l-41.8-41.81,245.94-245.93,6.47-6.48v169.5Z"/><polygon class="cls-1" points="1130.85 2392.41 1124.38 2398.89 878.44 2644.82 878.44 2748.35 850.39 2776.4 850.39 2608.15 1098.49 2360.05 1105.77 2367.34 1130.85 2392.41"/><polygon class="cls-3" points="1123.61 2789.8 1123.61 2917.95 1082.62 2958.94 1082.62 2830.79 1123.61 2789.8"/><polygon class="cls-1" points="1057.77 2959.54 1057.77 2983.78 978.29 2904.29 978.29 2736.05 984.78 2742.54 1040.09 2797.86 1051.63 2809.38 1057.77 2815.54 1057.77 2874.27 1057.77 2959.54"/><path class="cls-1" d="M1040.09,2652.66v145.2l-55.3-55.32v-13a68.25,68.25,0,0,1,53.76-76.6C1039.07,2652.86,1039.59,2652.77,1040.09,2652.66Z"/><path class="cls-1" d="M949.62,2741.9,985.49,2706a68,68,0,0,0-1.41,13.77v10.45l-5.78,5.79L961,2753.31Z"/><polygon class="cls-1" points="978.29 2736.05 978.29 2904.29 961.03 2921.56 961.03 2753.31 978.29 2736.05"/><polygon class="cls-1" points="961.03 2753.31 961.03 2921.56 907.29 2867.82 907.29 2854.88 907.29 2841.94 907.29 2699.57 920.24 2712.51 949.62 2741.9 961.03 2753.31"/><polygon class="cls-1" points="920.24 2686.63 920.24 2712.51 907.29 2699.57 920.24 2686.63"/><polygon class="cls-1" points="878.44 2644.82 920.24 2686.63 907.29 2699.57 907.29 2841.94 878.44 2813.08 878.44 2761.3 878.44 2748.35 878.44 2644.82"/><polygon class="cls-1" points="893 1347.71 893 1515.95 241.47 2167.48 241.47 1999.24 893 1347.71"/><line class="cls-4" x1="1719.01" y1="2346.27" x2="1563.67" y2="2501.61"/><line class="cls-4" x1="1335" y1="2943.87" x2="1335" y2="2815.73"/><polyline class="cls-4" points="1257.87 2866.74 1257.87 2822.52 1257.87 2738.6 1299.82 2780.55 1335 2815.73"/><line class="cls-4" x1="2747.82" y1="3370.77" x2="2137.81" y2="2760.76"/><line class="cls-4" x1="1082.62" y1="2958.94" x2="1082.62" y2="2830.79"/><line class="cls-4" x1="1082.62" y1="2830.79" x2="1123.61" y2="2789.8"/><line class="cls-4" x1="1123.61" y1="2917.95" x2="1123.61" y2="2789.8"/><path class="cls-4" d="M1545.34,3061.47q-10.66-17.16-21.34-34.3"/><path class="cls-4" d="M1479.47,3127.34q-10.68-17.13-21.34-34.28"/><line class="cls-4" x1="1391.08" y1="3215.71" x2="1464.43" y2="3289.07"/><path class="cls-4" d="M1486.28,3412.29l610,610"/><polyline class="cls-4" points="1486.28 3244.04 1486.28 3267.23 1486.28 3412.29"/><path class="cls-4" d="M1458,3148.84q-41.22-14.68-82.44-29.36-8.9-3.2-17.79-6.35l-57.26-20.39"/><path class="cls-4" d="M1233.6,3159.61l157.48,56.1"/><line class="cls-4" x1="1479.47" y1="3127.34" x2="1457.97" y2="3148.84"/><path class="cls-4" d="M984.08,2719.81a68.27,68.27,0,0,1,54.47-66.85"/><polyline class="cls-4" points="961.03 2753.31 978.29 2736.05 984.08 2730.26 984.78 2729.56"/><polyline class="cls-4" points="907.29 2699.57 920.24 2712.51 949.62 2741.9 961.03 2753.31"/><polyline class="cls-4" points="907.29 2854.88 907.29 2841.94 907.29 2699.57"/><line class="cls-4" x1="920.24" y1="2712.51" x2="920.24" y2="2686.63"/><polyline class="cls-4" points="878.44 2761.3 878.44 2748.35 878.44 2644.82"/><line class="cls-4" x1="1285.38" y1="2307.46" x2="1225.51" y2="2247.6"/><line class="cls-4" x1="1370.15" y1="2392.24" x2="1285.38" y2="2307.47"/><line class="cls-4" x1="1370.15" y1="2560.49" x2="1370.15" y2="2392.24"/><polyline class="cls-4" points="1369.51 2307.46 1412.22 2350.18 1422.91 2360.86"/><line class="cls-4" x1="1285.38" y1="2223.32" x2="1369.5" y2="2307.46"/><line class="cls-4" x1="1483.85" y1="2193.11" x2="1483.85" y2="2024.85"/><polyline class="cls-4" points="1510.28 2532.36 1467.13 2489.22 1425.07 2447.15"/><line class="cls-4" x1="1510.28" y1="2700.62" x2="1510.28" y2="2532.36"/><polyline class="cls-4" points="1703.9 2641.86 1859.25 2486.52 1943.38 2402.39"/><line class="cls-4" x1="1645.08" y1="2667.17" x2="1559.86" y2="2581.96"/><line class="cls-4" x1="1645.08" y1="2835.42" x2="1645.08" y2="2667.17"/><line class="cls-4" x1="1703.9" y1="2654.79" x2="1680.68" y2="2631.57"/><line class="cls-4" x1="1752.93" y1="2703.83" x2="1703.9" y2="2654.8"/><polyline class="cls-4" points="1558.29 2664.5 1558.29 2581.96 1558.29 2536.35"/><polyline class="cls-4" points="1597.13 2535.08 1563.67 2501.61 1558.29 2496.24"/><polyline class="cls-4" points="1581.88 2559.95 1563.04 2541.1 1558.29 2536.35"/><polyline class="cls-4" points="1559.86 2581.96 1581.88 2559.95 1595.45 2546.36 1597.13 2544.7 1601.93 2539.88"/><line class="cls-4" x1="1552.35" y1="2658.56" x2="1558.29" y2="2664.5"/><line class="cls-4" x1="1552.35" y1="2490.3" x2="1552.35" y2="2658.56"/><line class="cls-4" x1="1552.35" y1="2658.56" x2="1510.28" y2="2700.62"/><polyline class="cls-4" points="1552.35 2490.3 1545.87 2496.77 1510.28 2532.36"/><line class="cls-4" x1="1719.01" y1="2178.02" x2="1719.01" y2="2346.27"/><line class="cls-4" x1="1859.25" y1="2486.52" x2="1719.01" y2="2346.27"/><line class="cls-4" x1="1680.68" y1="2799.83" x2="1680.68" y2="2631.57"/><polyline class="cls-4" points="1752.93 2774.04 1752.93 2761.1 1752.93 2703.83"/><line class="cls-4" x1="1752.93" y1="2775.01" x2="1717.34" y2="2739.42"/><polyline class="cls-4" points="1717.34 2907.67 1717.34 2836.47 1717.34 2739.42"/><polyline class="cls-4" points="1896.72 3001.85 1896.72 2872.4 1896.72 2833.6"/><polyline class="cls-4" points="1720.09 2962.24 1746 2936.33 1747.59 2934.73"/><line class="cls-4" x1="1747.59" y1="2982.73" x2="1747.59" y2="2934.73"/><polyline class="cls-4" points="1431 2871.62 1416.98 2857.6 1335 2775.62"/><polyline class="cls-4" points="1216.34 2656.96 1138.69 2734.62 1057.77 2815.54"/><line class="cls-4" x1="1057.77" y1="2874.27" x2="1057.77" y2="2815.54"/><polyline class="cls-4" points="1257.87 2698.49 1237.1 2677.73 1216.34 2656.96"/><line class="cls-4" x1="1216.34" y1="2825.22" x2="1216.34" y2="2656.96"/><polyline class="cls-4" points="1125.01 2567.76 1130.86 2561.92 1132.55 2560.22"/><path class="cls-4" d="M1366.28,3104.6l-8.54,8.53"/><path class="cls-4" d="M1057.77,2983.78l175.83,175.83"/><line class="cls-4" x1="1431" y1="3039.87" x2="1335" y2="2943.87"/><polyline class="cls-4" points="1216.34 2825.22 1123.61 2917.95 1082.62 2958.94 1057.77 2983.78"/><line class="cls-4" x1="1040.09" y1="2652.66" x2="1125.01" y2="2567.76"/><line class="cls-4" x1="1057.77" y1="2959.54" x2="1057.77" y2="2874.27"/><polyline class="cls-4" points="850.39 2608.15 1098.49 2360.05 1137.6 2320.95"/><line class="cls-4" x1="1483.85" y1="2024.85" x2="1285.38" y2="2223.32"/><polyline class="cls-4" points="1597.13 2535.08 1601.93 2539.88 1703.9 2641.86"/><line class="cls-4" x1="1559.86" y1="2750.21" x2="1559.86" y2="2581.96"/><path class="cls-4" d="M1369.5,2307.46h0q57.18-57.21,114.34-114.35"/><line class="cls-4" x1="1132.55" y1="2728.47" x2="1132.55" y2="2560.22"/><path class="cls-4" d="M1896.72,2872.4l160.19-160.17"/><path class="cls-4" d="M949.62,2741.9,985.49,2706"/><path class="cls-4" d="M1038.55,2653c.52-.1,1-.19,1.54-.3"/><line class="cls-4" x1="984.08" y1="2730.26" x2="984.08" y2="2719.81"/><line class="cls-4" x1="1501.92" y1="2042.91" x2="1501.92" y2="1956.62"/><polyline class="cls-4" points="1285.38 2307.47 1285.38 2307.46 1285.38 2223.32"/><line class="cls-4" x1="1501.92" y1="2042.91" x2="1483.85" y2="2024.85"/><line class="cls-4" x1="1634.41" y1="2261.67" x2="1551.54" y2="2178.81"/><line class="cls-4" x1="1752.93" y1="2761.1" x2="1943.38" y2="2570.64"/><polyline class="cls-4" points="1703.9 2654.8 1703.9 2654.79 1703.9 2641.86"/><line class="cls-4" x1="1717.34" y1="2836.47" x2="1680.68" y2="2799.83"/><line class="cls-4" x1="1752.93" y1="2775.01" x2="1752.93" y2="2774.04"/><line class="cls-4" x1="1746" y1="2936.33" x2="1717.34" y2="2907.67"/><line class="cls-4" x1="961.03" y1="2921.56" x2="961.03" y2="2753.31"/><line class="cls-4" x1="907.29" y1="2867.82" x2="961.03" y2="2921.56"/><line class="cls-4" x1="920.24" y1="2686.63" x2="907.29" y2="2699.57"/><line class="cls-4" x1="907.29" y1="2867.82" x2="907.29" y2="2854.88"/><line class="cls-4" x1="878.44" y1="2644.82" x2="920.24" y2="2686.63"/><line class="cls-4" x1="878.44" y1="2813.08" x2="907.29" y2="2841.94"/><line class="cls-4" x1="878.44" y1="2813.08" x2="878.44" y2="2761.31"/><line class="cls-4" x1="850.39" y1="2776.4" x2="878.44" y2="2748.35"/><line class="cls-4" x1="850.39" y1="2776.4" x2="850.39" y2="2608.15"/><line class="cls-4" x1="893" y1="1347.71" x2="241.47" y2="1999.24"/><line class="cls-4" x1="241.47" y1="2167.48" x2="241.47" y2="1999.24"/><line class="cls-4" x1="893" y1="1515.95" x2="241.47" y2="2167.48"/><line class="cls-4" x1="1501.92" y1="1956.62" x2="893" y2="1347.71"/><line class="cls-4" x1="893" y1="1515.95" x2="893" y2="1347.71"/><line class="cls-4" x1="1510.55" y1="2051.55" x2="1501.92" y2="2042.91"/><line class="cls-4" x1="1510.55" y1="2219.79" x2="1483.85" y2="2193.11"/><line class="cls-4" x1="1551.54" y1="2010.56" x2="1510.55" y2="2051.55"/><line class="cls-4" x1="1510.55" y1="2219.79" x2="1510.55" y2="2051.55"/><line class="cls-4" x1="1715.78" y1="2174.79" x2="1551.54" y2="2010.56"/><line class="cls-4" x1="1551.54" y1="2178.81" x2="1551.54" y2="2010.56"/><line class="cls-4" x1="1425.07" y1="2615.41" x2="1425.07" y2="2447.15"/><line class="cls-4" x1="1510.28" y1="2700.62" x2="1425.07" y2="2615.41"/><polyline class="cls-4" points="1482.78 2420.74 1552.35 2490.3 1558.29 2496.24"/><line class="cls-4" x1="1943.38" y1="2402.4" x2="1722.24" y2="2181.26"/><line class="cls-4" x1="1943.38" y1="2570.64" x2="1943.38" y2="2402.4"/><line class="cls-4" x1="1645.08" y1="2835.42" x2="1559.86" y2="2750.21"/><line class="cls-4" x1="1680.68" y1="2631.57" x2="1645.08" y2="2667.17"/><line class="cls-4" x1="1680.68" y1="2799.83" x2="1645.08" y2="2835.42"/><line class="cls-4" x1="1717.34" y1="2739.42" x2="1752.93" y2="2703.83"/><line class="cls-4" x1="1832" y1="2768.87" x2="1896.72" y2="2833.6"/><line class="cls-4" x1="2056.91" y1="2543.97" x2="1832" y2="2768.87"/><line class="cls-4" x1="2121.64" y1="2608.69" x2="2056.91" y2="2543.97"/><line class="cls-4" x1="2056.91" y1="2712.23" x2="2056.91" y2="2543.97"/><line class="cls-4" x1="2121.64" y1="2776.95" x2="2056.91" y2="2712.23"/><line class="cls-4" x1="2137.81" y1="2592.51" x2="2121.64" y2="2608.69"/><line class="cls-4" x1="2121.64" y1="2776.95" x2="2121.64" y2="2608.69"/><line class="cls-4" x1="2747.82" y1="3202.51" x2="2137.81" y2="2592.51"/><line class="cls-4" x1="2137.81" y1="2760.76" x2="2137.81" y2="2592.51"/><line class="cls-4" x1="2747.82" y1="3370.77" x2="2747.82" y2="3202.51"/><line class="cls-4" x1="2096.29" y1="4022.29" x2="2747.82" y2="3370.77"/><line class="cls-4" x1="1057.77" y1="2983.78" x2="1057.77" y2="2959.54"/><line class="cls-4" x1="1257.87" y1="2866.74" x2="1216.34" y2="2825.22"/><line class="cls-4" x1="1132.55" y1="2728.47" x2="1138.69" y2="2734.62"/><path class="cls-4" d="M984.79,2729.56a67.84,67.84,0,0,1-.71-9.75"/><path class="cls-4" d="M850.39,2776.4q-304.46-304.46-608.92-608.92"/><path class="cls-4" d="M2121.64,2777q8.07-8.1,16.17-16.19"/><path class="cls-4" d="M1510.55,2219.79q20.51-20.48,41-41"/><path class="cls-4" d="M893,1516l524.8,524.8"/><polyline class="cls-4" points="1719.01 2178.02 1712.54 2184.5 1634.89 2262.15 1479.54 2417.49"/><polyline class="cls-4" points="1722.24 2181.26 1719.01 2178.02 1715.78 2174.79"/><polyline class="cls-4" points="1476.31 2414.26 1479.54 2417.49 1482.78 2420.74"/><line class="cls-4" x1="1447.08" y1="2425.14" x2="1422.91" y2="2400.97"/><line class="cls-4" x1="1422.91" y1="2360.86" x2="1461.75" y2="2399.7"/><polyline class="cls-4" points="1422.91 2529.12 1422.91 2447.15 1422.91 2400.97"/><line class="cls-4" x1="1467.13" y1="2405.08" x2="1467.13" y2="2489.22"/><line class="cls-4" x1="1467.13" y1="2405.08" x2="1461.75" y2="2399.7"/><polyline class="cls-4" points="1425.07 2447.15 1447.08 2425.14 1467.13 2405.08"/><line class="cls-4" x1="1467.13" y1="2405.08" x2="1476.31" y2="2414.26"/><polyline class="cls-4" points="1828.5 3018.84 1773.22 2963.56 1771.59 2961.94"/><polyline class="cls-4" points="1771.59 3126.98 1771.59 2961.94 1771.59 2958.73"/><path class="cls-4" d="M1486.28,3412.29,1771.59,3127"/><line class="cls-4" x1="1854.12" y1="2876.2" x2="1854.12" y2="3044.46"/><line class="cls-4" x1="1854.12" y1="3044.46" x2="1828.5" y2="3018.84"/><path class="cls-4" d="M1854.12,3044.46l42.6-42.61"/><line class="cls-4" x1="1832" y1="2854.09" x2="1832" y2="2768.87"/><polyline class="cls-4" points="1771.59 2958.73 1747.59 2982.73 1644.86 3085.47 1607.1 3123.23 1486.28 3244.04"/><line class="cls-4" x1="1747.59" y1="2934.73" x2="1771.59" y2="2958.73"/><line class="cls-4" x1="1896.72" y1="2833.6" x2="1854.12" y2="2876.2"/><polyline class="cls-4" points="1854.12 2876.2 1832 2854.1 1832 2854.09 1752.93 2775.01"/><path class="cls-4" d="M1319.88,2760.5l5.41-5.4"/><path class="cls-4" d="M1257.87,2822.52c2.16-2.16,4.31-4.32,6.48-6.48q17.73-17.73,35.47-35.49"/><polyline class="cls-4" points="1335 2775.62 1319.88 2760.5 1257.87 2698.49"/><line class="cls-4" x1="984.79" y1="2742.54" x2="984.79" y2="2729.56"/><line class="cls-4" x1="961.03" y1="2921.56" x2="978.3" y2="2904.29"/><line class="cls-4" x1="1040.09" y1="2797.86" x2="1040.09" y2="2652.66"/><line class="cls-4" x1="1051.63" y1="2809.38" x2="1132.55" y2="2728.47"/><polyline class="cls-4" points="1057.77 2815.54 1051.63 2809.38 1040.09 2797.86 984.78 2742.54 978.29 2736.05"/><line class="cls-4" x1="978.3" y1="2904.29" x2="978.3" y2="2736.05"/><line class="cls-4" x1="1057.77" y1="2983.78" x2="978.3" y2="2904.29"/><line class="cls-4" x1="1218.23" y1="2408.57" x2="1370.15" y2="2560.49"/><line class="cls-4" x1="1218.23" y1="2408.57" x2="1218.23" y2="2240.31"/><polyline class="cls-4" points="1218.23 2240.31 1417.8 2040.75 1501.92 1956.62"/><line class="cls-4" x1="1225.51" y1="2247.6" x2="1218.23" y2="2240.31"/><polyline class="cls-4" points="1137.6 2399.15 1137.6 2335.51 1137.6 2320.95"/><line class="cls-4" x1="1720.09" y1="2962.24" x2="1516.21" y2="2758.36"/><polyline class="cls-4" points="1098.49 2360.05 1105.77 2367.34 1130.85 2392.41 1137.6 2399.16 1235.53 2497.1 1325.29 2586.85"/><line class="cls-4" x1="1325.29" y1="2755.1" x2="1325.29" y2="2586.85"/><polyline class="cls-4" points="1130.85 2392.41 1124.38 2398.89 878.44 2644.82"/><line class="cls-4" x1="1130.85" y1="2392.41" x2="1130.85" y2="2561.91"/><polyline class="cls-4" points="1132.55 2560.22 1152.47 2580.16 1235.53 2497.1"/><line class="cls-4" x1="1325.29" y1="2586.85" x2="1237.1" y2="2677.73"/><polyline class="cls-4" points="1464.43 3289.07 1478.47 3275.04 1486.28 3267.23"/><polyline class="cls-4" points="1607.1 3123.23 1599.28 3115.4 1545.34 3061.47"/><polyline class="cls-4" points="1416.98 2857.6 1423.44 2851.13 1516.21 2758.36"/><polyline class="cls-4" points="1431 2871.62 1516.21 2956.84 1640.26 3080.89 1644.86 3085.47"/><path class="cls-4" d="M1461.81,3089.37l-9.47-15.22q-10.68-17.13-21.34-34.28"/><line class="cls-4" x1="1516.21" y1="2758.36" x2="1516.21" y2="2956.84"/><polyline class="cls-4" points="1412.22 2350.18 1405.75 2356.64 1370.15 2392.24"/><polyline class="cls-4" points="1412.22 2518.42 1405.75 2524.9 1370.15 2560.49"/><line class="cls-4" x1="1412.22" y1="2518.42" x2="1422.91" y2="2529.12"/><line class="cls-4" x1="1412.22" y1="2518.42" x2="1412.22" y2="2350.18"/><path class="cls-4" d="M1366.28,3104.6q4.63,7.44,9.25,14.88"/><path class="cls-5" d="M1137.83,2733.27l-72.48-70.66s-40.9-20.69-73.93,19.57c-22.22,27.08-7.09,60.83-7.09,60.83l73.1,70.66Z"/><line class="cls-4" x1="1057.43" y1="2813.67" x2="1065.35" y2="2662.61"/><line class="cls-4" x1="1137.83" y1="2733.27" x2="984.33" y2="2743.01"/></svg>