<svg id="_6" data-name="6" xmlns="http://www.w3.org/2000/svg" viewBox="0 0 4800 4800"><defs><style>.cls-1{fill:#fff;}.cls-2{fill:#9acbff;}.cls-3,.cls-5{fill:#efd90f;}.cls-4{fill:none;}.cls-4,.cls-5{stroke:#037cff;stroke-linecap:round;stroke-linejoin:round;stroke-width:7.79px;}</style></defs><title>6</title><path class="cls-1" d="M2747.82,3008.38v181.19l-90.6-90.59L2443.5,2885.25q-102.33-102.32-204.65-204.65l-103.47-103.46v-181.2l121.56,121.56,277.15,277.16Z"/><path class="cls-2" d="M2747.82,3189.57,2096.29,3841.1l-577.65-577.64,83.06-83.06v-69.57l171.24-171.24V2849l34.49,34.49,6.5,6.5v8.63l321.45-321.45,103.47,103.46q102.32,102.33,204.65,204.65L2657.22,3099Z"/><path class="cls-1" d="M2135.38,2395.94v181.2l-321.45,321.45V2770.46l-41,41v128.16L1601.7,3110.83V2999.2l-34.79-34.78,78.76-78.77,94.91-94.91,3.24-3.23,29.12-29.13q10.26-10.23,20.5-20.49t20.49-20.5l4.31-4.31,52.88-52.86q45.3-45.28,90.59-90.6l35.75-35.74Q2066.42,2464.92,2135.38,2395.94Z"/><path class="cls-1" d="M1961.71,2569.62q-45.29,45.3-90.59,90.6l-5.4-5.4-30.21-30.22V2443.41l24.8,24.81,96,96Z"/><path class="cls-1" d="M1943.38,2203.94l-90.6,90.6-297.73-297.73v-181.2Z"/><path class="cls-2" d="M1871.12,2660.22l-52.88,52.86q-3.23-3.23-6.46-6.47l-29.14-29.13c2.15-2.17,4.31-4.32,6.48-6.48l46.39-46.4,30.21,30.22Z"/><path class="cls-1" d="M1860.31,2468.22l-24.8-24.81-137,137c-2.16,2.16-4.31,4.33-6.48,6.48l-65.8-65.8c2.16-2.16,4.31-4.32,6.48-6.47q36.27-36.27,72.55-72.53,9.7-9.73,19.41-19.42t19.42-19.42l108.68-108.7,90.6-90.6v181.19l-83.07,83.07Z"/><path class="cls-1" d="M1835.51,2443.41V2624.6l-46.39,46.4c-2.17,2.16-4.33,4.31-6.48,6.48l-38.82-38.82L1705,2599.82l-13-12.94c2.17-2.15,4.32-4.32,6.48-6.48Z"/><path class="cls-1" d="M1813.93,2770.46V2890l-6.5-6.5L1772.94,2849v-37.54Z"/><path class="cls-1" d="M1744.09,2403.23h0q-9.72,9.69-19.42,19.42V2393l19.42-19.41Z"/><rect class="cls-1" x="1710.94" y="2359.84" width="27.46" height="27.46" transform="translate(-1173.22 1914.73) rotate(-45)"/><path class="cls-2" d="M1743.82,2776.48v11l-3.24,3.23-5.4-5.38q-15.11-15.12-30.19-30.21v0c2.16-2.16,4.31-4.33,6.47-6.48l32.36-32.36Z"/><path class="cls-2" d="M1743.82,2691.71v24.58l-32.36,32.36c-2.16,2.15-4.31,4.32-6.47,6.48V2652.87Z"/><path class="cls-1" d="M1724.67,2422.64v0q-9.71,9.69-19.41,19.42l0,0v-68.49l19.42,19.41Z"/><path class="cls-2" d="M1705.27,2442.08q-36.29,36.24-72.55,72.53c-2.17,2.15-4.32,4.31-6.48,6.47q-48.39-48.42-96.81-96.81L1514,2408.81l-36.33-36.32-185-185,183.4-183.4Q1482,2010,1487.9,2016l24,24,43.15-43.14,297.73,297.73-108.68,108.7h0v-29.66l-19.42-19.42-19.42,19.42v68.49Zm-158-84.18V2176.71l-19.41-19.42-19.42,19.42V2357.9l19.42,19.42Z"/><path class="cls-1" d="M1705,2755.15,1529.43,2579.6h0V2477.32L1514,2461.86l-36.33-36.32v102.27l-17.52-17.52-12.93,12.92q-48-48-96-96v-25.86q-65.81-65.81-131.6-131.6l-12.93,12.93-4.61-4.6V2096.89l6.48,6.46q42.06,42.08,84.12,84.14l185,185,36.33,36.32,15.45,15.46q48.42,48.39,96.81,96.81l65.8,65.8,13,12.94,38.83,38.84,38.82,38.82,29.14,29.13q3.23,3.26,6.46,6.47l-4.31,4.31q-10.23,10.26-20.49,20.5t-20.5,20.49l-29.12,29.13v-95.8L1705,2652.87v102.28Z"/><path class="cls-1" d="M1601.7,3110.83v69.57l-83.06,83.06v-181.2l30.22-30.22h0l52.83-52.84Z"/><path class="cls-1" d="M1555.05,1815.61v181.2L1511.9,2040V1858.77l7.28-7.28Z"/><polygon class="cls-1" points="1547.23 2176.71 1547.23 2357.9 1527.82 2377.32 1527.82 2196.12 1547.23 2176.71"/><polygon class="cls-1" points="1547.23 2176.71 1527.82 2196.12 1508.4 2176.71 1527.82 2157.29 1547.23 2176.71"/><path class="cls-1" d="M1477.65,2527.82q25.89,25.88,51.78,51.77h0L1705,2755.15q15.09,15.12,30.19,30.21l5.4,5.38-94.91,94.91-185.54-187.4h0V2510.29l17.52,17.52Z"/><path class="cls-2" d="M1529.43,2477.32v102.27q-25.87-25.89-51.78-51.77h0V2425.54l36.33,36.32Z"/><polygon class="cls-1" points="1527.82 2196.12 1527.82 2377.32 1508.4 2357.9 1508.4 2176.71 1527.82 2196.12"/><path class="cls-1" d="M1519.18,1779.74v71.75l-7.28,7.28q-4.45-4.47-8.9-8.91-7.53-7.54-15.1-15.09-5.94-5.94-11.86-11.88Z"/><path class="cls-1" d="M1519.18,1779.74,1476,1822.89l-47.46,47.46q-8.07-8.1-16.17-16.19L893,1334.76v-181.2Z"/><path class="cls-1" d="M1511.9,1858.77V2040l-24-24Q1482,2010,1476,2004.09v-181.2q5.91,5.94,11.86,11.88,7.56,7.53,15.1,15.09Q1507.46,1854.3,1511.9,1858.77Z"/><path class="cls-1" d="M1476,1822.89v181.2l-183.4,183.4q-42-42.07-84.12-84.14l-6.48-6.46,226.54-226.54Z"/><path class="cls-1" d="M1460.13,2521.08v177.16l-24.81-25.07q-34.54-34.52-69-69h0c1.45-1.44,2.88-2.87,4.31-4.31l76.61-76.59v0l12.93-12.92Z"/><path class="cls-2" d="M1447.2,2523.21v0l-76.61,76.59c-1.43,1.44-2.86,2.87-4.31,4.31l-12.94-12.94-2.16-2.16V2427.2Q1399.18,2475.22,1447.2,2523.21Z"/><path class="cls-2" d="M1412.41,1854.16q8.08,8.1,16.17,16.19L1202,2096.89l-172,172-162.4,162.4v181.2q-313.1-313.09-626.18-626.18l90.6-90.6L893,1334.76Z"/><path class="cls-1" d="M1339.31,2950.37v.14l-53.4-19q8.64-8.62,17.26-17.26Z"/><path class="cls-1" d="M1321.4,2612.31l-50,50.05-4.32,4.31V2558Z"/><path class="cls-1" d="M1257.34,2495.19c1.44-1.45,2.87-2.88,4.31-4.31q44.76-44.77,89.53-89.54V2589c-1.09-1.07-2.16-2.15-3.25-3.24L1267,2504.9l-5.39-5.4Z"/><path class="cls-1" d="M1524.51,3027.68l-.51-.51-50.7-81.46q-10.66-17.13-21.34-34.28-14.16-22.69-28.28-45.42h0l11.64-11.63-82-82-9.18-9.18V2635.07l-22.76-22.76L1267,2558v128.14l-3.24-3.24-43.14-43.14v-181.2l36.67,36.68h0l4.31,4.31,5.39,5.4,80.89,80.89c1.09,1.09,2.16,2.17,3.25,3.24l2.16,2.16,12.94,12.94h0q34.52,34.53,69,69l24.81,25.07h0l185.54,187.4-78.76,78.77,34.79,34.78L1548.87,3052h0Z"/><path class="cls-1" d="M1082.62,2777.74q-12,12-24.85,24.85v-181.2c2.91-2.9,5.8-5.8,8.71-8.69v0l72.73-72.72,80.37-80.36h0l.58-.59.5-.49v181.2q-31,31-97.05,97V2608.61l-41,41Z"/><path class="cls-1" d="M1220.66,2458.51l-.5.49-.58-.58V2269.74q65.79,65.81,131.6,131.6-44.78,44.76-89.53,89.54c-1.44,1.43-2.87,2.86-4.31,4.31h0Z"/><path class="cls-2" d="M1220.66,2639.71l43.14,43.14,3.24,3.24v-19.42l4.32-4.31,50-50.05,22.76,22.76v128.14l9.18,9.18,82,82L1423.68,2866h0q14.13,22.72,28.28,45.42,10.66,17.16,21.34,34.28l50.7,81.46-5,5-57.58,57.59-3.27,3.27q-25.38-40.72-50.72-81.46-10.67-17.13-21.34-34.28l-2-3.27-55.91,58.56-3.29,3.46L1219,2998.37,1084.2,2863.54l17.26-17.27-43.69-43.68q12.86-12.84,24.85-24.85,22-21.94,41-41Q1189.69,2670.66,1220.66,2639.71ZM1378,2964.27l-20.17-32.38-18.48,18.48-36.14-36.13q-8.62,8.63-17.26,17.26l53.4,19Z"/><path class="cls-1" d="M1219.58,2459.6,1139.21,2540l-22.46-22.47V2408.64l-36.33-36.32v108.84l-13.94-13.94-9.66,9.64-5.2-5.2v-181.2l69,69,4.59,4.6,69,69,25.31,25.3v1.17Z"/><path class="cls-1" d="M1219.58,2448.8v9.62l-25.31-25.3-69-69,4.8-4.8,72.29-72.29,4.32-4.32,12.93-12.93V2448.8Z"/><path class="cls-2" d="M1206.65,2282.67l-4.32,4.32L1130,2359.28l-4.8,4.8-4.59-4.6,36.09-36.09V2195.23l41-41V2282.4l4.31-4.33Z"/><polygon class="cls-1" points="1202.04 2096.89 1202.04 2278.07 1197.73 2282.39 1197.73 2154.24 1156.74 2195.24 1156.74 2323.39 1120.65 2359.48 1051.62 2290.46 1030.05 2268.88 1202.04 2096.89"/><path class="cls-3" d="M1123.61,2608.61v128.14q-19,19-41,41V2649.6Z"/><polygon class="cls-2" points="1116.75 2408.64 1116.75 2517.49 1080.42 2481.17 1080.42 2481.16 1080.42 2372.32 1116.75 2408.64"/><path class="cls-1" d="M1080.42,2481.16h0l36.33,36.32,22.46,22.47-72.73,72.72V2467.22Z"/><path class="cls-1" d="M1066.48,2612.68v0c-2.91,2.89-5.8,5.79-8.71,8.69l-6.48-6.46L985,2548.65l71.79-71.79,9.66-9.64Z"/><polygon class="cls-1" points="1057.77 2621.39 1057.77 2802.59 1051.3 2796.12 1051.3 2614.93 1057.77 2621.39"/><path class="cls-1" d="M1056.82,2476.86,985,2548.65l66.26,66.28L1034,2632.18l-49-49h0q-11.24-11.22-22.45-22.46l89-89.05Z"/><path class="cls-1" d="M1051.62,2290.46v181.2l-89,89.05h0l-42.32-42.33h0v-34.51l-31-31Z"/><polygon class="cls-1" points="1051.62 2290.46 889.23 2452.85 889.23 2634.05 867.65 2612.48 867.65 2431.28 1030.05 2268.88 1051.62 2290.46"/><path class="cls-1" d="M1051.29,2614.93v181.19L1034,2813.38v-181.2Z"/><path class="cls-1" d="M985,2583.17h0l49,49v181.2L903,2682.32v-181.2l17.25,17.25h0l42.32,42.33h0Q973.78,2571.94,985,2583.17Z"/><path class="cls-1" d="M920.24,2483.86v34.51L903,2501.12Z"/><path class="cls-1" d="M920.24,2483.86,903,2501.12V2647.8l-13.76-13.75v-181.2Z"/><path class="cls-1" d="M893,1153.56v181.2L332.07,1895.7l-90.6,90.6V1805.09Q567.24,1479.35,893,1153.56Z"/><line class="cls-4" x1="985.03" y1="2548.65" x2="1056.82" y2="2476.86"/><line class="cls-4" x1="985.03" y1="2583.17" x2="985.03" y2="2583.18"/><line class="cls-4" x1="1116.75" y1="2517.49" x2="1080.42" y2="2481.17"/><line class="cls-4" x1="1051.62" y1="2471.66" x2="962.58" y2="2560.71"/><polyline class="cls-4" points="1080.42 2481.16 1066.48 2467.22 1056.82 2476.86"/><line class="cls-4" x1="1139.21" y1="2539.96" x2="1116.75" y2="2517.49"/><path class="cls-4" d="M1357.79,2931.89l-18.48,18.48"/><line class="cls-4" x1="1461.4" y1="3089.79" x2="1458.13" y2="3093.06"/><line class="cls-4" x1="1524" y1="3027.17" x2="1518.98" y2="3032.2"/><polyline class="cls-4" points="1601.7 2999.2 1601.7 3110.83 1601.7 3180.4 1518.64 3263.46"/><line class="cls-4" x1="1529.43" y1="2579.59" x2="1529.43" y2="2477.32"/><line class="cls-4" x1="1477.65" y1="2527.81" x2="1477.65" y2="2425.54"/><polyline class="cls-4" points="1477.65 2372.49 1513.98 2408.81 1529.43 2424.27"/><polyline class="cls-4" points="1477.65 2425.54 1513.98 2461.86 1529.43 2477.32"/><line class="cls-4" x1="1339.31" y1="2950.37" x2="1339.31" y2="2950.51"/><line class="cls-4" x1="1123.61" y1="2736.75" x2="1123.61" y2="2608.61"/><line class="cls-4" x1="1082.62" y1="2649.6" x2="1123.61" y2="2608.61"/><line class="cls-4" x1="1082.62" y1="2777.74" x2="1082.62" y2="2649.6"/><line class="cls-4" x1="1080.42" y1="2372.32" x2="1116.75" y2="2408.64"/><path class="cls-4" d="M1057.77,2802.59q12.86-12.84,24.85-24.85,22-21.94,41-41,66.08-66.09,97.05-97"/><polyline class="cls-4" points="1057.77 2802.59 1101.46 2846.27 1084.2 2863.54"/><line class="cls-4" x1="1051.62" y1="2471.66" x2="1051.62" y2="2290.46"/><polyline class="cls-4" points="1813.93 2898.59 1813.93 2889.96 1813.93 2770.46"/><line class="cls-4" x1="1772.94" y1="2811.43" x2="1813.93" y2="2770.46"/><polyline class="cls-4" points="1772.94 2939.59 1772.94 2848.97 1772.94 2811.43"/><line class="cls-4" x1="2657.22" y1="3098.98" x2="2747.82" y2="3189.57"/><line class="cls-4" x1="332.07" y1="1895.7" x2="241.47" y2="1986.3"/><line class="cls-4" x1="1508.4" y1="2357.9" x2="1508.4" y2="2176.71"/><line class="cls-4" x1="1527.82" y1="2157.29" x2="1508.4" y2="2176.71"/><line class="cls-4" x1="1508.4" y1="2176.71" x2="1527.82" y2="2196.12"/><line class="cls-4" x1="1547.23" y1="2357.9" x2="1547.23" y2="2176.71"/><line class="cls-4" x1="1527.82" y1="2196.12" x2="1547.23" y2="2176.71"/><line class="cls-4" x1="1547.23" y1="2176.71" x2="1527.82" y2="2157.29"/><line class="cls-4" x1="1724.67" y1="2354.15" x2="1705.25" y2="2373.57"/><line class="cls-4" x1="1705.25" y1="2373.57" x2="1724.67" y2="2392.98"/><line class="cls-4" x1="1724.67" y1="2392.98" x2="1744.09" y2="2373.57"/><line class="cls-4" x1="1744.09" y1="2373.57" x2="1724.67" y2="2354.15"/><path class="cls-4" d="M1555.05,1996.81l297.73,297.73"/><path class="cls-4" d="M2135.38,2577.14l103.47,103.46"/><path class="cls-4" d="M1220.66,2639.71l43.14,43.14"/><path class="cls-4" d="M2443.5,2885.25,2657.22,3099"/><path class="cls-4" d="M1267,2686.09l-3.24-3.24"/><path class="cls-4" d="M1303.17,2914.24l36.14,36.13"/><path class="cls-4" d="M1566.91,2964.42l34.79,34.78"/><line class="cls-4" x1="2747.82" y1="3189.57" x2="2747.82" y2="3008.38"/><line class="cls-4" x1="2135.38" y1="2577.14" x2="2135.38" y2="2395.94"/><path class="cls-4" d="M2747.82,3008.38l-213.73-213.72"/><path class="cls-4" d="M2135.38,2395.94q-69,69-137.92,137.94"/><line class="cls-4" x1="1943.38" y1="2385.13" x2="1943.38" y2="2203.94"/><line class="cls-4" x1="1555.05" y1="1996.81" x2="1555.05" y2="1815.61"/><path class="cls-4" d="M1943.38,2203.94l-388.33-388.33"/><path class="cls-4" d="M1555.05,1996.81,1511.9,2040"/><line class="cls-4" x1="1511.9" y1="2039.95" x2="1511.9" y2="1858.77"/><path class="cls-4" d="M1555.05,1815.61l-35.87,35.88-7.28,7.28"/><path class="cls-4" d="M1511.9,1858.77q-4.45-4.47-8.9-8.91"/><line class="cls-4" x1="893" y1="1334.76" x2="893" y2="1153.56"/><line class="cls-4" x1="241.47" y1="1986.3" x2="241.47" y2="1805.09"/><path class="cls-4" d="M893,1153.56q-325.77,325.79-651.53,651.53"/><path class="cls-4" d="M889.23,2634.05,903,2647.8"/><path class="cls-4" d="M889.23,2452.85l31,31"/><path class="cls-4" d="M920.24,2483.86,903,2501.12"/><line class="cls-4" x1="920.24" y1="2518.37" x2="920.24" y2="2483.86"/><path class="cls-4" d="M332.07,1895.7,893,1334.76"/><path class="cls-4" d="M2096.29,3841.1l651.53-651.53"/><path class="cls-4" d="M2135.38,2577.14l-321.45,321.45"/><line class="cls-4" x1="1744.09" y1="2403.23" x2="1744.09" y2="2373.57"/><line class="cls-4" x1="1705.25" y1="2442.06" x2="1705.25" y2="2373.57"/><line class="cls-4" x1="1724.67" y1="2422.64" x2="1724.67" y2="2392.98"/><path class="cls-4" d="M1440.45,2063.41h0"/><path class="cls-4" d="M2256.94,2517.5l-121.56-121.56"/><line class="cls-4" x1="1219.58" y1="2280.53" x2="1219.58" y2="2269.74"/><line class="cls-4" x1="1508.4" y1="2357.9" x2="1527.82" y2="2377.32"/><line class="cls-4" x1="1527.82" y1="2377.32" x2="1527.82" y2="2196.12"/><path class="cls-4" d="M1601.7,3110.83l171.24-171.24"/><line class="cls-4" x1="1527.82" y1="2377.32" x2="1547.23" y2="2357.9"/><path class="cls-4" d="M1202.33,2287l4.32-4.32,12.93-12.93"/><path class="cls-4" d="M1219.58,2269.74q65.79,65.81,131.6,131.6"/><line class="cls-4" x1="1220.66" y1="2639.71" x2="1220.66" y2="2458.51"/><line class="cls-4" x1="1057.77" y1="2802.59" x2="1057.77" y2="2621.39"/><path class="cls-4" d="M1066.48,2612.7c-2.91,2.89-5.8,5.79-8.71,8.69"/><path class="cls-4" d="M1219.58,2459.6,1139.21,2540l-72.73,72.72"/><path class="cls-4" d="M1220.66,2458.51l-.5.49-.58.59"/><path class="cls-4" d="M1084.2,2863.54,1219,2998.37"/><path class="cls-4" d="M1285.91,2931.5q8.64-8.62,17.26-17.26"/><path class="cls-4" d="M1423.68,2866l11.64-11.63"/><line class="cls-4" x1="1518.64" y1="3263.46" x2="1518.64" y2="3082.26"/><path class="cls-4" d="M1601.7,2999.2,1548.87,3052h0l-30.22,30.22"/><path class="cls-4" d="M1518.64,3263.46l577.65,577.64"/><path class="cls-4" d="M2443.5,2885.25q-102.33-102.32-204.65-204.65"/><path class="cls-4" d="M2534.09,2794.66,2256.94,2517.5"/><line class="cls-4" x1="1835.51" y1="2624.6" x2="1835.51" y2="2443.41"/><path class="cls-4" d="M1705,2599.82l-13-12.94-65.8-65.8q-48.39-48.42-96.81-96.81"/><path class="cls-4" d="M1860.31,2468.2l83.07-83.07"/><path class="cls-4" d="M1447.2,2523.21q-48-48-96-96"/><path class="cls-4" d="M1477.65,2372.49l-185-185q-42-42.07-84.12-84.14"/><path class="cls-4" d="M241.47,1986.3q313.09,313.07,626.18,626.18"/><line class="cls-4" x1="867.65" y1="2612.48" x2="867.65" y2="2431.28"/><line class="cls-4" x1="889.23" y1="2634.05" x2="889.23" y2="2452.85"/><polyline class="cls-4" points="902.99 2682.32 902.99 2647.8 902.99 2501.12"/><path class="cls-4" d="M903,2682.32l131,131.06"/><line class="cls-4" x1="1034.04" y1="2813.38" x2="1034.04" y2="2632.18"/><path class="cls-4" d="M985,2583.18l49,49"/><path class="cls-4" d="M903,2501.12l17.25,17.25h0l42.32,42.33h0q11.2,11.23,22.45,22.46"/><line class="cls-4" x1="1704.99" y1="2599.82" x2="1743.82" y2="2638.66"/><line class="cls-4" x1="1057.77" y1="2802.59" x2="1051.29" y2="2796.12"/><line class="cls-4" x1="1051.29" y1="2796.12" x2="1051.29" y2="2614.93"/><line class="cls-4" x1="1051.29" y1="2614.93" x2="1057.77" y2="2621.39"/><path class="cls-4" d="M1034,2632.18l17.25-17.25"/><line class="cls-4" x1="1034.04" y1="2813.38" x2="1051.29" y2="2796.12"/><line class="cls-4" x1="889.23" y1="2452.85" x2="1051.62" y2="2290.46"/><line class="cls-4" x1="1051.62" y1="2290.46" x2="1030.05" y2="2268.88"/><polyline class="cls-4" points="1704.99 2755.15 1704.99 2755.13 1704.99 2652.87"/><line class="cls-4" x1="1704.99" y1="2652.87" x2="1743.82" y2="2691.71"/><path class="cls-4" d="M1793.44,2737.89q-10.25,10.26-20.5,20.49l-29.12,29.13-3.24,3.23-94.91,94.91-78.76,78.77"/><path class="cls-4" d="M1997.46,2533.88l-35.75,35.74q-45.29,45.3-90.59,90.6l-52.88,52.86-4.31,4.31q-10.23,10.26-20.49,20.5"/><path class="cls-4" d="M1626.24,2521.08c2.16-2.16,4.31-4.32,6.48-6.47q36.27-36.27,72.55-72.53,9.7-9.73,19.41-19.42t19.42-19.42l108.68-108.7,90.6-90.6"/><path class="cls-4" d="M1835.51,2443.41l-137,137c-2.16,2.16-4.31,4.33-6.48,6.48"/><path class="cls-4" d="M1782.64,2677.48c2.15-2.17,4.31-4.32,6.48-6.48l46.39-46.4"/><path class="cls-4" d="M1835.51,2624.6l30.21,30.22,5.4,5.4"/><path class="cls-4" d="M1961.71,2569.62l-5.39-5.39-96-96-24.8-24.81"/><path class="cls-4" d="M1705,2755.13c2.16-2.16,4.31-4.33,6.47-6.48l32.36-32.36"/><path class="cls-4" d="M1818.24,2713.08q-3.23-3.23-6.46-6.47l-29.14-29.13-38.82-38.82"/><polyline class="cls-4" points="1460.13 2698.24 1460.13 2521.08 1460.13 2510.28"/><path class="cls-4" d="M1366.28,2604.13c1.45-1.44,2.88-2.87,4.31-4.31l76.61-76.59v0l12.93-12.92"/><path class="cls-4" d="M1460.13,2510.29l17.52,17.52h0q25.89,25.88,51.78,51.77h0L1705,2755.15q15.09,15.12,30.19,30.21l5.4,5.38"/><polyline class="cls-4" points="1743.82 2776.48 1743.82 2716.29 1743.82 2691.71"/><line class="cls-4" x1="1743.82" y1="2776.48" x2="1743.82" y2="2787.51"/><path class="cls-4" d="M1772.94,2849l34.49,34.49,6.5,6.5"/><line class="cls-4" x1="1344.16" y1="2763.21" x2="1344.16" y2="2635.07"/><polyline class="cls-4" points="1267.04 2557.95 1321.39 2612.31 1344.16 2635.07"/><path class="cls-4" d="M1435.32,2673.17q-34.54-34.52-69-69h0l-12.94-12.94-2.16-2.16c-1.09-1.07-2.16-2.15-3.25-3.24L1267,2504.9"/><path class="cls-4" d="M1257.33,2495.19l-36.67-36.68"/><path class="cls-4" d="M1267,2504.9l-5.39-5.4-4.31-4.31"/><polyline class="cls-4" points="1267.04 2686.09 1267.04 2666.67 1267.04 2557.95"/><line class="cls-4" x1="1353.34" y1="2772.39" x2="1344.16" y2="2763.21"/><line class="cls-4" x1="1353.34" y1="2772.39" x2="1435.32" y2="2854.37"/><path class="cls-4" d="M1267,2666.67l4.32-4.31,50-50.05"/><polyline class="cls-4" points="1351.18 2589.03 1351.18 2582.53 1351.18 2427.2 1351.18 2401.34"/><polyline class="cls-4" points="1435.32 2673.17 1460.13 2698.24 1460.13 2698.25 1645.67 2885.65"/><path class="cls-4" d="M1351.18,2401.34q-44.78,44.76-89.53,89.54c-1.44,1.43-2.87,2.86-4.31,4.31h0"/><path class="cls-4" d="M1125.24,2364.08l4.8-4.8,72.29-72.29"/><polyline class="cls-4" points="1051.62 2290.46 1120.65 2359.48 1125.24 2364.08 1194.27 2433.12 1219.58 2458.42 1220.16 2459"/><polyline class="cls-4" points="1219.58 2459.6 1219.58 2459.59 1219.58 2458.42 1219.58 2448.8 1219.58 2280.53"/><polyline class="cls-4" points="867.65 2431.28 1030.05 2268.88 1202.04 2096.89 1428.58 1870.35 1476.04 1822.89 1519.18 1779.74"/><line class="cls-4" x1="1519.18" y1="1779.74" x2="893" y2="1153.56"/><line class="cls-4" x1="1208.52" y1="2103.35" x2="1202.04" y2="2096.89"/><line class="cls-4" x1="1519.18" y1="1851.49" x2="1519.18" y2="1779.74"/><path class="cls-4" d="M1503,1849.86q-7.53-7.54-15.1-15.09-5.94-5.94-11.86-11.88"/><path class="cls-4" d="M1511.9,2040l-24-24Q1482,2010,1476,2004.09"/><line class="cls-4" x1="1476.04" y1="1822.89" x2="1476.04" y2="2004.09"/><line class="cls-4" x1="1476.04" y1="2004.09" x2="1292.64" y2="2187.49"/><path class="cls-4" d="M1428.58,1870.35q-8.07-8.1-16.17-16.19L893,1334.76"/><line class="cls-4" x1="1156.74" y1="2323.39" x2="1156.74" y2="2195.23"/><line class="cls-4" x1="1197.73" y1="2282.4" x2="1197.73" y2="2154.24"/><line class="cls-4" x1="1156.74" y1="2195.23" x2="1197.73" y2="2154.24"/><line class="cls-4" x1="1202.04" y1="2096.89" x2="1202.04" y2="2278.07"/><line class="cls-4" x1="1202.04" y1="2278.07" x2="1197.73" y2="2282.4"/><line class="cls-4" x1="1156.74" y1="2323.39" x2="1120.65" y2="2359.48"/><line class="cls-4" x1="1202.04" y1="2278.07" x2="1206.65" y2="2282.67"/><line class="cls-4" x1="1051.29" y1="2614.93" x2="985.03" y2="2548.65"/><line class="cls-4" x1="1051.62" y1="2471.66" x2="1056.82" y2="2476.86"/><polyline class="cls-4" points="1080.42 2372.32 1080.42 2481.16 1080.42 2481.17"/><line class="cls-4" x1="1116.75" y1="2517.49" x2="1116.75" y2="2408.64"/><path class="cls-4" d="M1386.24,2967.23l3.22,1.15"/><path class="cls-4" d="M1378,2964.29l8.28,2.94"/><path class="cls-4" d="M1284.47,2931l1.44.52,53.4,19,38.65,13.76"/><path class="cls-4" d="M1219,2998.37l105.81,37.7"/><path class="cls-4" d="M1524,3027.17l-50.7-81.46q-10.66-17.13-21.34-34.28-14.16-22.69-28.28-45.42h0"/><path class="cls-4" d="M1458.13,3093.06q-25.38-40.72-50.72-81.46-10.67-17.13-21.34-34.28l-2-3.27"/><polyline class="cls-4" points="1377.96 2964.29 1377.96 2964.27 1357.79 2931.89"/><polyline class="cls-4" points="1066.48 2612.7 1066.48 2612.68 1066.48 2467.22"/><line class="cls-4" x1="1524.51" y1="3027.68" x2="1548.86" y2="3052.03"/><line class="cls-4" x1="1524" y1="3027.17" x2="1524.51" y2="3027.68"/><line class="cls-4" x1="867.65" y1="2612.48" x2="889.23" y2="2634.05"/><line class="cls-4" x1="977.69" y1="2521.94" x2="977.69" y2="2578.19"/><path class="cls-5" d="M1136.53,2537.07l-72.48-70.65s-40.9-20.69-73.93,19.56c-22.22,27.09-7.08,60.84-7.08,60.84l73.09,70.65Z"/><line class="cls-4" x1="1056.13" y1="2617.47" x2="1064.05" y2="2466.42"/><line class="cls-4" x1="1136.53" y1="2537.07" x2="983.04" y2="2546.82"/></svg>