<svg xmlns="http://www.w3.org/2000/svg" viewBox="0 0 4800 4800"><defs><style>.cls-1{opacity:0.75;}.cls-2{fill:#fff;}.cls-3{fill:none;stroke:#037cff;stroke-linecap:round;stroke-linejoin:round;stroke-width:7.79px;}</style></defs><title>ext_f</title><g id="fayerweather_ext" class="cls-1"><polygon class="cls-2" points="4740.39 1123.59 4740.39 2027.48 3996.95 2770.94 3996.95 1867.05 4740.39 1123.59"/><polygon class="cls-2" points="4740.39 1123.59 3996.95 1867.05 3970.04 873.43 4740.39 1123.59"/><polygon class="cls-2" points="4740.39 1123.59 3970.04 873.43 2793.9 -302.71 2766.98 -849.82 4740.39 1123.59"/><polygon class="cls-2" points="3996.95 1867.05 3996.95 2770.94 3467.57 2241.56 3467.57 2113.42 3435.21 2081.06 3402.86 2048.7 3402.86 2176.84 2023.54 797.52 2023.54 -106.37 3996.95 1867.05"/><polygon class="cls-2" points="3970.04 873.43 3996.95 1867.05 2023.54 -106.37 2793.9 -302.71 3970.04 873.43"/><polygon class="cls-2" points="3467.57 2113.42 3467.57 2241.56 3435.21 2209.2 3435.21 2081.06 3467.57 2113.42"/><polygon class="cls-2" points="3435.21 2081.06 3435.21 2209.2 3402.86 2176.84 3402.86 2048.7 3435.21 2081.06"/><line class="cls-3" x1="2023.54" y1="-106.37" x2="3996.95" y2="1867.05"/><line class="cls-3" x1="4740.39" y1="1123.59" x2="2766.98" y2="-849.82"/><line class="cls-3" x1="3996.95" y1="1867.05" x2="4740.39" y2="1123.59"/><line class="cls-3" x1="3970.04" y1="873.43" x2="3996.95" y2="1867.05"/><line class="cls-3" x1="2793.9" y1="-302.71" x2="3970.04" y2="873.43"/><line class="cls-3" x1="4740.39" y1="1123.59" x2="3970.04" y2="873.43"/><line class="cls-3" x1="3996.95" y1="2770.94" x2="4740.39" y2="2027.48"/><line class="cls-3" x1="4740.39" y1="2027.48" x2="4740.39" y2="1123.59"/><line class="cls-3" x1="3996.95" y1="2770.94" x2="3996.95" y2="1867.05"/><line class="cls-3" x1="2023.54" y1="797.52" x2="2023.54" y2="-106.37"/><line class="cls-3" x1="3467.57" y1="2241.56" x2="3996.95" y2="2770.94"/><line class="cls-3" x1="2023.54" y1="797.52" x2="3402.85" y2="2176.84"/><polygon class="cls-3" points="3402.86 2176.84 3435.21 2209.2 3467.57 2241.56 3467.57 2113.42 3435.21 2081.06 3402.86 2048.7 3402.86 2176.84"/></g></svg>