<svg xmlns="http://www.w3.org/2000/svg" viewBox="0 0 4800 4800"><defs><style>.cls-1{opacity:0.75;}.cls-2{fill:#fff;}.cls-3{fill:none;stroke:#037cff;stroke-linecap:round;stroke-linejoin:round;stroke-width:7.79px;}</style></defs><title>ext_a</title><g id="avery_ext" class="cls-1"><polygon class="cls-2" points="2034.26 4691.08 2034.26 4724.19 1369.29 4059.22 1369.29 4039.2 1319.44 3989.36 1319.44 3976.26 1435.81 4092.63 1531.22 4188.04 1631.52 4288.34 1631.52 4288.35 1726.94 4383.76 1726.94 4383.77 1827.25 4484.06 1922.65 4579.47 2034.26 4691.08"/><path class="cls-2" d="M2034.26,4691.08l-111.61-111.61V4410.93c0-.59,0-1.19,0-1.79,0-1.24-.12-2.49-.24-3.73a74.08,74.08,0,0,0-1.3-8.51c-.67-3.28-1.53-6.51-2.51-9.72a148.54,148.54,0,0,0-5.14-14.06q-3.2-7.54-7.08-14.78a197.68,197.68,0,0,0-17.81-27.63,160.61,160.61,0,0,0-13.34-15.33c-2.12-2.13-4.3-4.18-6.57-6.16s-4.41-3.67-6.75-5.34a61.89,61.89,0,0,0-6.72-4.26,41.34,41.34,0,0,0-6.45-2.88,24.64,24.64,0,0,0-5.92-1.33,15.54,15.54,0,0,0-5.13.34c-4.26,1.08-7,4.08-8.55,8a25.57,25.57,0,0,0-1.66,6.94,37.69,37.69,0,0,0-.22,4v169.45l-100.31-100.29V4215.21c0-.58,0-1.18,0-1.78,0-1.26-.11-2.5-.23-3.75a73.91,73.91,0,0,0-1.3-8.5c-.69-3.29-1.53-6.52-2.52-9.72a144,144,0,0,0-5.14-14.05c-2.14-5.05-4.49-9.95-7.07-14.78a198.36,198.36,0,0,0-17.81-27.64,164.76,164.76,0,0,0-13.34-15.33c-2.12-2.13-4.3-4.19-6.57-6.15s-4.41-3.67-6.75-5.36a65.21,65.21,0,0,0-6.74-4.24,41.11,41.11,0,0,0-6.45-2.9,24.71,24.71,0,0,0-5.9-1.31,15.32,15.32,0,0,0-5.14.34c-4.25,1.06-7,4.07-8.56,7.95a26.48,26.48,0,0,0-1.65,6.95c-.14,1.32-.2,2.63-.22,4,0,.36,0,.72,0,1.09v168.35L1531.22,4188V4019.5c0-.6,0-1.2,0-1.78,0-1.26-.12-2.51-.23-3.75a80.7,80.7,0,0,0-1.3-8.5c-.69-3.29-1.54-6.52-2.52-9.73a142.91,142.91,0,0,0-5.15-14c-2.13-5-4.49-10-7.06-14.78a199.61,199.61,0,0,0-17.81-27.64,160.93,160.93,0,0,0-13.36-15.34c-2.11-2.13-4.28-4.18-6.55-6.14s-4.42-3.69-6.76-5.36a67,67,0,0,0-6.73-4.26,41.86,41.86,0,0,0-6.45-2.88,25.19,25.19,0,0,0-5.91-1.32,15.36,15.36,0,0,0-5.14.35c-4.24,1.06-7,4.07-8.55,7.94a25.78,25.78,0,0,0-1.65,7c-.14,1.31-.22,2.63-.23,4v169.44l-116.37-116.37v-335.6l49.85-49.84v-51.76L728.36,2898.13,702.48,2924l-56.18,56.18V3032l32.19,32.19v271.17l-22-22V3144.8c0-.6,0-1.19,0-1.79,0-1.25-.11-2.49-.23-3.74a76.16,76.16,0,0,0-1.3-8.5c-.67-3.28-1.53-6.52-2.52-9.72a141.59,141.59,0,0,0-5.14-14.06c-2.13-5-4.49-9.94-7.07-14.77a198.2,198.2,0,0,0-17.81-27.65,163.48,163.48,0,0,0-13.34-15.33c-2.12-2.13-4.3-4.19-6.57-6.15s-4.41-3.67-6.75-5.35a63.73,63.73,0,0,0-6.74-4.26,43.8,43.8,0,0,0-6.44-2.89,25.4,25.4,0,0,0-5.91-1.31,15.25,15.25,0,0,0-5.13.34c-4.26,1.06-7,4.07-8.56,8a26.11,26.11,0,0,0-1.66,6.95c-.14,1.32-.2,2.63-.22,4,0,.36,0,.72,0,1.09v168.36L460.8,3117.62V2949.09c0-.6,0-1.2,0-1.79,0-1.25-.12-2.49-.23-3.74a75.81,75.81,0,0,0-1.3-8.5c-.69-3.29-1.53-6.52-2.52-9.72a145.82,145.82,0,0,0-5.14-14.06q-3.19-7.56-7.07-14.79a200.11,200.11,0,0,0-17.81-27.63,162.25,162.25,0,0,0-13.35-15.34c-2.12-2.13-4.29-4.18-6.56-6.14s-4.42-3.69-6.77-5.36a62.37,62.37,0,0,0-6.72-4.25,40.57,40.57,0,0,0-6.45-2.89,24.9,24.9,0,0,0-5.91-1.31,15.35,15.35,0,0,0-5.14.33c-4.24,1.07-7,4.08-8.55,8a26.09,26.09,0,0,0-1.65,6.95c-.14,1.32-.22,2.63-.23,4V3022.2l-100.3-100.29V2753.36c0-.58,0-1.18,0-1.78,0-1.25-.1-2.5-.22-3.75a78.72,78.72,0,0,0-1.29-8.49c-.69-3.28-1.54-6.51-2.52-9.72a144.8,144.8,0,0,0-5.16-14c-2.12-5.05-4.49-10-7.06-14.79a199.65,199.65,0,0,0-17.8-27.65,164.59,164.59,0,0,0-13.36-15.33c-2.12-2.12-4.3-4.18-6.56-6.15s-4.41-3.67-6.76-5.35a69.09,69.09,0,0,0-6.72-4.25,41.76,41.76,0,0,0-6.45-2.88,25.43,25.43,0,0,0-5.91-1.33,15.36,15.36,0,0,0-5.14.35c-4.24,1.07-7,4.08-8.55,7.95a25.26,25.26,0,0,0-1.65,7c-.14,1.31-.22,2.64-.24,4v169.44l-43.88-43.88L57.22,2714H56.8V1870.41L2034.89,3848.5l-.63.62Zm-93.35-615.51v-235L1809,3708.63v235Zm-33.5,187.35V4146.05l-27.34-27.33-10.25-10.26h0l-27.34-27.34V4198ZM1745.2,3879.85v-235l-131.93-131.93v235Zm-33.5,187.36V3950.34L1684.36,3923l-10.25-10.25-27.35-27.35v116.87Zm-162.17-383v-235L1417.6,3317.24v235ZM1516,3871.5V3754.63l-27.35-27.35L1478.4,3717l-27.35-27.35v116.87Zm-210.77-431.64v-235l-131.94-131.94v235l105.8,105.79Zm-192.11-192.1v-235l-131.94-132v235L1087,3221.62Zm-195.5-195.51v-235L785.67,2685.31v235l105.8,105.79ZM674.78,2809.44v-235L542.85,2442.49v235Zm-33.5,187.35V2879.92l-27.34-27.34-10.25-10.25h0L576.35,2815v116.87ZM479.07,2613.71v-235L347.12,2246.78v235h0Zm-33.51,187.37V2684.21l-27.33-27.34L408,2646.62l-27.34-27.35v116.87ZM283.35,2418V2183L151.41,2051.05v235Zm-33.5,187.37V2488.49l-27.35-27.35-10.24-10.24-27.35-27.35v116.88Z"/><polygon class="cls-2" points="2034.89 3848.5 56.8 1870.41 831.9 1671.48 2011.2 2850.78 2035.51 3848.49 2034.89 3848.5"/><polygon class="cls-2" points="702.48 2924.01 728.36 2898.13 1369.29 3539.05 1287.23 3621.11 646.3 2980.19 702.48 2924.01"/><polygon class="cls-2" points="2035.52 3849.12 2786.29 3098.36 2786.29 3972.16 2035.52 4722.94 2034.26 4724.19 2034.26 4691.08 2034.26 3849.12 2034.89 3848.5 2035.51 3848.49 2035.52 3849.12"/><polygon class="cls-2" points="641.28 2879.92 641.28 2996.79 576.35 2931.85 576.35 2814.98 603.69 2842.32 603.69 2842.33 613.94 2852.58 641.28 2879.92"/><path class="cls-2" d="M265.09,2793.42v128.49l-95.42-95.42V2657.05c0-1.32.1-2.65.24-4a25.26,25.26,0,0,1,1.65-7c1.58-3.87,4.31-6.88,8.55-7.95a15.36,15.36,0,0,1,5.14-.35,25.43,25.43,0,0,1,5.91,1.33,41.76,41.76,0,0,1,6.45,2.88,69.09,69.09,0,0,1,6.72,4.25c2.35,1.68,4.58,3.47,6.76,5.35s4.44,4,6.56,6.15A164.59,164.59,0,0,1,231,2673.13a199.65,199.65,0,0,1,17.8,27.65c2.57,4.83,4.94,9.74,7.06,14.79a144.8,144.8,0,0,1,5.16,14c1,3.21,1.83,6.44,2.52,9.72a78.72,78.72,0,0,1,1.29,8.49c.12,1.25.2,2.5.22,3.75,0,.6,0,1.2,0,1.78v40.06Z"/><path class="cls-2" d="M460.8,2989.13v128.49l-95.41-95.4V2852.76c0-1.32.09-2.63.23-4a26.09,26.09,0,0,1,1.65-6.95c1.58-3.88,4.31-6.89,8.55-8a15.35,15.35,0,0,1,5.14-.33,24.9,24.9,0,0,1,5.91,1.31,40.57,40.57,0,0,1,6.45,2.89A62.37,62.37,0,0,1,400,2842c2.35,1.67,4.59,3.46,6.77,5.36s4.44,4,6.56,6.14a162.25,162.25,0,0,1,13.35,15.34,200.11,200.11,0,0,1,17.81,27.63q3.87,7.25,7.07,14.79a145.82,145.82,0,0,1,5.14,14.06c1,3.2,1.83,6.43,2.52,9.72a75.81,75.81,0,0,1,1.3,8.5c.11,1.25.19,2.49.23,3.74,0,.59,0,1.19,0,1.79v40Z"/><polygon class="cls-2" points="445.56 2684.21 445.56 2801.08 380.63 2736.14 380.63 2619.27 407.97 2646.62 418.23 2656.87 445.56 2684.21"/><polygon class="cls-2" points="678.49 3335.31 678.49 3375.68 56.8 2753.99 56.8 2714.03 57.22 2714.03 125.79 2782.61 169.68 2826.49 265.09 2921.91 365.39 3022.2 365.39 3022.22 460.8 3117.62 561.11 3217.93 656.51 3313.33 678.49 3335.31"/><polygon class="cls-2" points="712.73 3546.75 712.73 3569.56 643.51 3500.34 643.51 3477.53 712.73 3546.75"/><path class="cls-2" d="M794.78,3464.71l-82,82-69.22-69.22,35-35v36a33.23,33.23,0,1,0,66.45,0v-63.68Z"/><polygon class="cls-2" points="794.78 3484.72 794.78 3487.51 712.73 3569.56 712.73 3546.75 794.78 3464.71 794.78 3484.72"/><polygon class="cls-2" points="787.91 3443.74 867.23 3523.06 867.23 3557.18 794.78 3484.72 794.78 3464.71 744.93 3414.86 744.93 3400.77 787.91 3443.74"/><path class="cls-2" d="M867.23,3310v87.39L827.79,3358l-19.72-19.72-2.89-2.89-.72-.72-.36-.36-.09-.09a.12.12,0,0,1,0,0l0,0h0v-42.82c0-.82,0-1.64.1-2.47a32.46,32.46,0,0,1,.63-4.59,19.91,19.91,0,0,1,2.54-6.53,12,12,0,0,1,4.5-4.23,13,13,0,0,1,6.35-1.43,24,24,0,0,1,7.83,1.56,42.05,42.05,0,0,1,5.57,2.49,64.59,64.59,0,0,1,5.8,3.54,98.33,98.33,0,0,1,11.59,9.45c3.18,3,6.18,6.13,9.06,9.39C861.18,3302.18,864.27,3306,867.23,3310Z"/><polygon class="cls-2" points="1178.4 3868.33 1178.4 3871.12 1096.34 3953.18 1096.34 3930.38 1178.4 3848.32 1178.4 3868.33"/><polygon class="cls-2" points="1096.34 3930.38 1096.34 3953.18 1027.13 3883.96 1027.13 3861.15 1096.34 3930.38"/><path class="cls-2" d="M1253,3783.17v126.65l-76-76V3665.48c0-.8,0-1.61,0-2.41s.07-1.65.12-2.48a38.26,38.26,0,0,1,1.83-9.53,20.93,20.93,0,0,1,4.09-7.3,15.14,15.14,0,0,1,6.4-4.33,19.74,19.74,0,0,1,8.52-.88,32.75,32.75,0,0,1,7,1.52,49.07,49.07,0,0,1,7.59,3.18,79.91,79.91,0,0,1,8,4.67c2.77,1.85,5.45,3.84,8,5.93a156.23,156.23,0,0,1,12.23,11.06c4.28,4.28,8.33,8.76,12.23,13.42v16.43c-2.94-3.71-6-7.28-9.2-10.72-2.87-3-5.83-6-9-8.71a87,87,0,0,0-11.62-8.66,53,53,0,0,0-5.69-3,34.45,34.45,0,0,0-5.36-1.9,19.47,19.47,0,0,0-7.17-.57,11.77,11.77,0,0,0-5.66,2.21,13.14,13.14,0,0,0-3.87,4.73,22.84,22.84,0,0,0-2,6.74,35.67,35.67,0,0,0-.42,4.74c0,.75,0,1.52,0,2.27v41.25h0l0,0,0,0,.09.09.18.18.35.35,2.82,2.82,18.83,18.83Z"/><path class="cls-2" d="M1178.4,3848.32l-82.06,82.06-69.21-69.23,35-35v36a33.23,33.23,0,1,0,66.45,0v-63.7Z"/><path class="cls-2" d="M1253,3694.76v88.41l-37.67-37.67-18.83-18.83-2.82-2.82-.35-.35-.18-.18-.09-.09,0,0,0,0h0V3681.9c0-.75,0-1.52,0-2.27a35.67,35.67,0,0,1,.42-4.74,22.84,22.84,0,0,1,2-6.74,13.14,13.14,0,0,1,3.87-4.73,11.77,11.77,0,0,1,5.66-2.21,19.47,19.47,0,0,1,7.17.57,34.45,34.45,0,0,1,5.36,1.9,53,53,0,0,1,5.69,3,87,87,0,0,1,11.62,8.66c3.14,2.75,6.1,5.67,9,8.71C1247,3687.48,1250.06,3691.05,1253,3694.76Z"/><polygon class="cls-2" points="1253 3909.82 1253 3942.93 1178.4 3868.33 1178.4 3848.32 1128.56 3798.47 1128.56 3785.39 1176.97 3833.79 1253 3909.82"/><path class="cls-2" d="M983.52,3653.45l-82,82-1.07-1.07-68.15-68.15,35-35v36a33.23,33.23,0,1,0,66.46,0V3603.6l48.75,48.77Z"/><polygon class="cls-2" points="901.47 3735.49 901.47 3757.96 901.3 3758.13 832.25 3689.08 832.25 3666.27 900.4 3734.42 901.47 3735.49"/><polygon class="cls-2" points="983.52 3653.45 983.52 3676.25 901.81 3757.96 901.47 3757.96 901.47 3735.49 983.52 3653.45"/><path class="cls-2" d="M998.46,3550.88v140.3l-14.94-14.93v-22.8l-1.08-1.08V3534.86Z"/><path class="cls-2" d="M1062.11,3592.29v22.24l-15.95-16-47.7-47.7-16-16v-22.24l16,16v0l0,0,.18.18.35.37c.25.23.49.48.73.71,1,1,1.93,1.93,2.89,2.91q9.92,9.9,19.82,19.81Z"/><polygon class="cls-2" points="1062.11 3720.8 1062.11 3754.84 1046.16 3738.88 1046.16 3598.58 1062.11 3614.53 1062.11 3622.67 1056.69 3617.25 1056.69 3715.38 1062.11 3720.8"/><polygon class="cls-2" points="1062.11 3622.67 1062.11 3720.8 1056.69 3715.38 1056.69 3617.25 1062.11 3622.67"/><path class="cls-2" d="M1046.16,3598.58v140.3l-47.7-47.7v-140.3Zm-9.71,96.56V3597L1009,3569.55v98.12Z"/><polygon class="cls-2" points="1036.45 3597.01 1036.45 3695.14 1008.99 3667.67 1008.99 3569.55 1036.45 3597.01"/><path class="cls-2" d="M1531.22,4059.55V4188l-95.41-95.41V3923.19c0-1.33.09-2.65.23-4a25.78,25.78,0,0,1,1.65-7c1.58-3.87,4.31-6.88,8.55-7.94a15.36,15.36,0,0,1,5.14-.35,25.19,25.19,0,0,1,5.91,1.32,41.86,41.86,0,0,1,6.45,2.88,67,67,0,0,1,6.73,4.26c2.34,1.67,4.58,3.46,6.76,5.36s4.44,4,6.55,6.14a160.93,160.93,0,0,1,13.36,15.34,199.61,199.61,0,0,1,17.81,27.64c2.57,4.82,4.93,9.73,7.06,14.78a142.91,142.91,0,0,1,5.15,14c1,3.21,1.83,6.44,2.52,9.73a80.7,80.7,0,0,1,1.3,8.5c.11,1.24.19,2.49.23,3.75,0,.58,0,1.18,0,1.78v40.05Z"/><polygon class="cls-2" points="1287.23 3621.11 1287.23 3672.88 1253 3638.65 1128.56 3514.21 1062.11 3447.77 933.69 3319.34 867.23 3252.9 744.93 3130.6 678.49 3064.14 646.3 3031.95 646.3 3009.02 646.3 3001.81 646.3 2980.19 1287.23 3621.11"/><polygon class="cls-2" points="1907.41 4146.05 1907.41 4262.92 1842.48 4197.98 1842.48 4081.11 1869.82 4108.45 1869.82 4108.46 1880.08 4118.72 1907.41 4146.05"/><path class="cls-2" d="M1922.65,4451v128.49l-95.4-95.41V4314.61a37.69,37.69,0,0,1,.22-4,25.57,25.57,0,0,1,1.66-6.94c1.58-3.88,4.29-6.88,8.55-8a15.54,15.54,0,0,1,5.13-.34,24.64,24.64,0,0,1,5.92,1.33,41.34,41.34,0,0,1,6.45,2.88,61.89,61.89,0,0,1,6.72,4.26c2.34,1.67,4.58,3.46,6.75,5.34s4.45,4,6.57,6.16a160.61,160.61,0,0,1,13.34,15.33,197.68,197.68,0,0,1,17.81,27.63q3.89,7.24,7.08,14.78a148.54,148.54,0,0,1,5.14,14.06c1,3.21,1.84,6.44,2.51,9.72a74.08,74.08,0,0,1,1.3,8.51c.12,1.24.2,2.49.24,3.73,0,.6,0,1.2,0,1.79v40Z"/><path class="cls-2" d="M1286.2,4120.23,1218,4052l35-35v36a33.22,33.22,0,0,0,66.44,0v-63.68l49.85,49.84-82.06,82.06Z"/><polygon class="cls-2" points="1286.2 4120.23 1286.2 4141.35 1285.36 4142.2 1218 4074.84 1218 4052.04 1286.2 4120.23"/><path class="cls-2" d="M1726.94,4255.27v128.48l-95.42-95.4h0V4120c0-.37,0-.73,0-1.09,0-1.33.08-2.64.22-4a26.48,26.48,0,0,1,1.65-6.95c1.59-3.88,4.31-6.89,8.56-7.95a15.32,15.32,0,0,1,5.14-.34,24.71,24.71,0,0,1,5.9,1.31,41.11,41.11,0,0,1,6.45,2.9,65.21,65.21,0,0,1,6.74,4.24c2.34,1.69,4.57,3.48,6.75,5.36s4.45,4,6.57,6.15a164.76,164.76,0,0,1,13.34,15.33,198.36,198.36,0,0,1,17.81,27.64c2.58,4.83,4.93,9.73,7.07,14.78a144,144,0,0,1,5.14,14.05c1,3.2,1.83,6.43,2.52,9.72a73.91,73.91,0,0,1,1.3,8.5c.12,1.25.19,2.49.23,3.75,0,.6,0,1.2,0,1.78v40.06Z"/><polygon class="cls-2" points="1515.99 3754.63 1515.99 3871.5 1451.05 3806.56 1451.05 3689.69 1478.4 3717.04 1488.64 3727.28 1515.99 3754.63"/><polygon class="cls-2" points="1369.29 4062.01 1287.23 4144.07 1285.36 4142.2 1286.2 4141.35 1286.2 4120.23 1287.23 4121.26 1369.29 4039.2 1369.29 4059.22 1369.29 4062.01"/><polygon class="cls-2" points="1369.29 3539.05 1369.29 3590.82 1319.44 3640.66 1287.23 3672.88 1287.23 3621.11 1369.29 3539.05"/><path class="cls-2" d="M998.46,3528.63l-16-16v-42.76c0-.84,0-1.69.08-2.53.08-1.62.23-3.23.47-4.84a30.77,30.77,0,0,1,2.69-9,17.74,17.74,0,0,1,5.08-6.36,15.92,15.92,0,0,1,7.47-3,25.3,25.3,0,0,1,9.49.65,43.49,43.49,0,0,1,7.13,2.45,67.72,67.72,0,0,1,7.56,3.93,110.47,110.47,0,0,1,15.5,11.44c2.06,1.79,4.06,3.64,6,5.54s4,4,5.92,6c4.3,4.54,8.36,9.26,12.25,14.16V3505c-3-4-6.06-7.88-9.34-11.63-2.9-3.29-5.89-6.45-9.06-9.46a99.1,99.1,0,0,0-11.61-9.54,64.31,64.31,0,0,0-5.8-3.6,45.5,45.5,0,0,0-5.59-2.56,24.5,24.5,0,0,0-7.89-1.66,13.51,13.51,0,0,0-6.43,1.34,12.08,12.08,0,0,0-4.57,4.18,19.55,19.55,0,0,0-2.59,6.49,32.42,32.42,0,0,0-.67,4.58c0,.82-.09,1.64-.1,2.45v43Z"/><polygon class="cls-2" points="1113.11 3012.76 1113.11 3247.76 1086.97 3221.62 981.17 3115.83 981.17 2880.81 1113.11 3012.76"/><path class="cls-2" d="M867.23,3252.9v40.42c-3.88-4.88-7.94-9.58-12.25-14.11-1.92-2-3.89-4-5.92-6s-4-3.74-6.06-5.52a109,109,0,0,0-15.54-11.37,62.58,62.58,0,0,0-7.57-3.85,41.06,41.06,0,0,0-7.12-2.38,24.58,24.58,0,0,0-9.4-.5,15.78,15.78,0,0,0-7.37,3.15,18.24,18.24,0,0,0-5,6.47,31.23,31.23,0,0,0-2.59,9.06c-.24,1.61-.38,3.23-.46,4.85,0,.86-.05,1.7-.05,2.54v168l-43-43V3130.6Z"/><polygon class="cls-2" points="249.85 2488.49 249.85 2605.36 184.91 2540.43 184.91 2423.55 212.26 2450.9 222.5 2461.14 249.85 2488.49"/><polygon class="cls-2" points="283.35 2183 283.35 2418 151.41 2286.07 151.41 2051.05 283.35 2183"/><polygon class="cls-2" points="2786.29 3098.36 2035.52 3849.12 2035.51 3848.49 2011.2 2850.78 2786.29 3098.36"/><polygon class="cls-2" points="917.61 2817.25 917.61 3052.25 891.47 3026.11 785.67 2920.32 785.67 2685.31 917.61 2817.25"/><path class="cls-2" d="M656.52,3184.84v128.49l-95.41-95.4V3049.57c0-.37,0-.73,0-1.09,0-1.33.08-2.64.22-4a26.11,26.11,0,0,1,1.66-6.95c1.59-3.88,4.3-6.89,8.56-8a15.25,15.25,0,0,1,5.13-.34,25.4,25.4,0,0,1,5.91,1.31,43.8,43.8,0,0,1,6.44,2.89,63.73,63.73,0,0,1,6.74,4.26c2.34,1.68,4.58,3.47,6.75,5.35s4.45,4,6.57,6.15a163.48,163.48,0,0,1,13.34,15.33,198.2,198.2,0,0,1,17.81,27.65c2.58,4.83,4.94,9.73,7.07,14.77a141.59,141.59,0,0,1,5.14,14.06c1,3.2,1.85,6.44,2.52,9.72a76.16,76.16,0,0,1,1.3,8.5c.12,1.25.19,2.49.23,3.74,0,.6,0,1.19,0,1.79v40Z"/><polygon class="cls-2" points="674.78 2574.42 674.78 2809.44 542.85 2677.49 542.85 2442.49 674.78 2574.42"/><polygon class="cls-2" points="1711.7 3950.34 1711.7 4067.21 1646.76 4002.27 1646.76 3885.4 1674.11 3912.75 1684.36 3923 1711.7 3950.34"/><path class="cls-2" d="M1128.56,3798.47v63.7a33.23,33.23,0,0,1-66.45,0v-414.4l66.45,66.44v284.26Z"/><path class="cls-2" d="M1253,3638.65v39.68c-3.9-4.66-8-9.14-12.23-13.42a156.23,156.23,0,0,0-12.23-11.06c-2.59-2.09-5.27-4.08-8-5.93a79.91,79.91,0,0,0-8-4.67,49.07,49.07,0,0,0-7.59-3.18,32.75,32.75,0,0,0-7-1.52,19.74,19.74,0,0,0-8.52.88,15.14,15.14,0,0,0-6.4,4.33,20.93,20.93,0,0,0-4.09,7.3,38.26,38.26,0,0,0-1.83,9.53c0,.83-.11,1.65-.12,2.48s0,1.61,0,2.41v168.31l-48.41-48.4V3514.21Z"/><path class="cls-2" d="M1319.44,3976.26V4053a33.22,33.22,0,1,1-66.44,0V3638.65l34.23,34.23,32.21-32.22Z"/><path class="cls-2" d="M744.94,3414.86v63.68a33.23,33.23,0,0,1-66.45,0v-414.4l66.45,66.46v284.26Z"/><path class="cls-2" d="M933.69,3603.6v63.68a33.23,33.23,0,0,1-66.46,0V3252.9l66.46,66.44Z"/><path class="cls-2" d="M1062.11,3505v87.28l-39.64-39.64q-9.9-9.92-19.82-19.81c-1-1-1.92-1.94-2.89-2.91-.24-.23-.48-.48-.73-.71l-.35-.37-.18-.18,0,0v0h0v-43c0-.81,0-1.63.1-2.45a32.42,32.42,0,0,1,.67-4.58,19.55,19.55,0,0,1,2.59-6.49,12.08,12.08,0,0,1,4.57-4.18,13.51,13.51,0,0,1,6.43-1.34,24.5,24.5,0,0,1,7.89,1.66,45.5,45.5,0,0,1,5.59,2.56,64.31,64.31,0,0,1,5.8,3.6,99.1,99.1,0,0,1,11.61,9.54c3.17,3,6.16,6.17,9.06,9.46C1056.05,3497.13,1059.15,3501,1062.11,3505Z"/><polygon class="cls-2" points="807.58 1119.64 2786.29 3098.36 2011.2 2850.78 831.9 1671.48 807.58 1119.64"/><polygon class="cls-2" points="807.58 1119.64 831.9 1671.48 56.8 1870.41 807.58 1119.64"/><polygon class="cls-2" points="479.07 2378.71 479.07 2613.71 347.12 2481.78 347.12 2481.77 347.12 2246.78 479.07 2378.71"/><polygon class="cls-2" points="1305.22 3204.86 1305.22 3439.86 1279.08 3413.72 1173.28 3307.93 1173.28 3072.92 1305.22 3204.86"/><polygon class="cls-2" points="1940.91 3840.55 1940.91 4075.57 1808.98 3943.63 1808.98 3708.63 1940.91 3840.55"/><path class="cls-2" d="M1062.11,3447.77v40.51c-3.89-4.9-7.95-9.62-12.25-14.16q-2.88-3.07-5.92-6c-2-1.9-4-3.75-6-5.54a110.47,110.47,0,0,0-15.5-11.44,67.72,67.72,0,0,0-7.56-3.93,43.49,43.49,0,0,0-7.13-2.45,25.3,25.3,0,0,0-9.49-.65,15.92,15.92,0,0,0-7.47,3,17.74,17.74,0,0,0-5.08,6.36,30.77,30.77,0,0,0-2.69,9c-.24,1.61-.39,3.22-.47,4.84,0,.84-.08,1.69-.08,2.53v182.51l-48.75-48.77V3319.34Z"/><polygon class="cls-2" points="1745.2 3644.84 1745.2 3879.84 1613.27 3747.92 1613.27 3512.91 1745.2 3644.84"/><polygon class="cls-2" points="1549.53 3449.17 1549.53 3684.17 1417.6 3552.24 1417.6 3317.24 1549.53 3449.17"/><path class="cls-2" d="M867.23,3397.4v125.66l-79.32-79.32v-168c0-.84,0-1.68.05-2.54.08-1.62.22-3.24.46-4.85a31.23,31.23,0,0,1,2.59-9.06,18.24,18.24,0,0,1,5-6.47,15.78,15.78,0,0,1,7.37-3.15,24.58,24.58,0,0,1,9.4.5,41.06,41.06,0,0,1,7.12,2.38,62.58,62.58,0,0,1,7.57,3.85A109,109,0,0,1,843,3267.73c2.08,1.78,4.09,3.63,6.06,5.52s4,3.93,5.92,6c4.31,4.53,8.37,9.23,12.25,14.11V3310c-3-4-6.05-7.83-9.33-11.55-2.88-3.26-5.88-6.4-9.06-9.39a98.33,98.33,0,0,0-11.59-9.45,64.59,64.59,0,0,0-5.8-3.54,42.05,42.05,0,0,0-5.57-2.49,24,24,0,0,0-7.83-1.56,13,13,0,0,0-6.35,1.43,12,12,0,0,0-4.5,4.23,19.91,19.91,0,0,0-2.54,6.53,32.46,32.46,0,0,0-.63,4.59c-.06.83-.09,1.65-.1,2.47v42.82h0l0,0a.12.12,0,0,0,0,0l.09.09.36.36.72.72,2.89,2.89L827.79,3358Z"/><polygon class="cls-3" points="249.85 2488.49 249.85 2605.36 184.91 2540.43 184.91 2423.55 212.26 2450.9 222.5 2461.14 249.85 2488.49"/><polygon class="cls-3" points="445.56 2684.21 445.56 2801.08 380.63 2736.14 380.63 2619.27 407.97 2646.62 418.23 2656.87 445.56 2684.21"/><polygon class="cls-3" points="641.28 2879.92 641.28 2996.79 576.35 2931.85 576.35 2814.98 603.69 2842.32 603.69 2842.33 613.94 2852.58 641.28 2879.92"/><path class="cls-3" d="M561.11,3217.93V3049.57c0-.37,0-.73,0-1.09,0-1.33.08-2.64.22-4a26.11,26.11,0,0,1,1.66-6.95c1.59-3.88,4.3-6.89,8.56-8a15.25,15.25,0,0,1,5.13-.34,25.4,25.4,0,0,1,5.91,1.31,43.8,43.8,0,0,1,6.44,2.89,63.73,63.73,0,0,1,6.74,4.26c2.34,1.68,4.58,3.47,6.75,5.35s4.45,4,6.57,6.15a163.48,163.48,0,0,1,13.34,15.33,198.2,198.2,0,0,1,17.81,27.65c2.58,4.83,4.94,9.73,7.07,14.77a141.59,141.59,0,0,1,5.14,14.06c1,3.2,1.85,6.44,2.52,9.72a76.16,76.16,0,0,1,1.3,8.5c.12,1.25.19,2.49.23,3.74,0,.6,0,1.19,0,1.79v168.53Z"/><path class="cls-3" d="M365.39,3022.2V2852.76c0-1.32.09-2.63.23-4a26.09,26.09,0,0,1,1.65-6.95c1.58-3.88,4.31-6.89,8.55-8a15.35,15.35,0,0,1,5.14-.33,24.9,24.9,0,0,1,5.91,1.31,40.57,40.57,0,0,1,6.45,2.89A62.37,62.37,0,0,1,400,2842c2.35,1.67,4.59,3.46,6.77,5.36s4.44,4,6.56,6.14a162.25,162.25,0,0,1,13.35,15.34,200.11,200.11,0,0,1,17.81,27.63q3.87,7.25,7.07,14.79a145.82,145.82,0,0,1,5.14,14.06c1,3.2,1.83,6.43,2.52,9.72a75.81,75.81,0,0,1,1.3,8.5c.11,1.25.19,2.49.23,3.74,0,.59,0,1.19,0,1.79v168.53l-95.41-95.4Z"/><path class="cls-3" d="M169.67,2826.49V2657.05c0-1.32.1-2.65.24-4a25.26,25.26,0,0,1,1.65-7c1.58-3.87,4.31-6.88,8.55-7.95a15.36,15.36,0,0,1,5.14-.35,25.43,25.43,0,0,1,5.91,1.33,41.76,41.76,0,0,1,6.45,2.88,69.09,69.09,0,0,1,6.72,4.25c2.35,1.68,4.58,3.47,6.76,5.35s4.44,4,6.56,6.15A164.59,164.59,0,0,1,231,2673.13a199.65,199.65,0,0,1,17.8,27.65c2.57,4.83,4.94,9.74,7.06,14.79a144.8,144.8,0,0,1,5.16,14c1,3.21,1.83,6.44,2.52,9.72a78.72,78.72,0,0,1,1.29,8.49c.12,1.25.2,2.5.22,3.75,0,.6,0,1.2,0,1.78v168.55"/><path class="cls-3" d="M1435.81,4092.63V3923.19c0-1.33.09-2.65.23-4a25.78,25.78,0,0,1,1.65-7c1.58-3.87,4.31-6.88,8.55-7.94a15.36,15.36,0,0,1,5.14-.35,25.19,25.19,0,0,1,5.91,1.32,41.86,41.86,0,0,1,6.45,2.88,67,67,0,0,1,6.73,4.26c2.34,1.67,4.58,3.46,6.76,5.36s4.44,4,6.55,6.14a160.93,160.93,0,0,1,13.36,15.34,199.61,199.61,0,0,1,17.81,27.64c2.57,4.82,4.93,9.73,7.06,14.78a142.91,142.91,0,0,1,5.15,14c1,3.21,1.83,6.44,2.52,9.73a80.7,80.7,0,0,1,1.3,8.5c.11,1.24.19,2.49.23,3.75,0,.58,0,1.18,0,1.78V4188Z"/><path class="cls-3" d="M1631.52,4288.34V4120c0-.37,0-.73,0-1.09,0-1.33.08-2.64.22-4a26.48,26.48,0,0,1,1.65-6.95c1.59-3.88,4.31-6.89,8.56-7.95a15.32,15.32,0,0,1,5.14-.34,24.71,24.71,0,0,1,5.9,1.31,41.11,41.11,0,0,1,6.45,2.9,65.21,65.21,0,0,1,6.74,4.24c2.34,1.69,4.57,3.48,6.75,5.36s4.45,4,6.57,6.15a164.76,164.76,0,0,1,13.34,15.33,198.36,198.36,0,0,1,17.81,27.64c2.58,4.83,4.93,9.73,7.07,14.78a144,144,0,0,1,5.14,14.05c1,3.2,1.83,6.43,2.52,9.72a73.91,73.91,0,0,1,1.3,8.5c.12,1.25.19,2.49.23,3.75,0,.6,0,1.2,0,1.78v168.54l-95.42-95.4Z"/><path class="cls-3" d="M1827.25,4484.06V4314.61a37.69,37.69,0,0,1,.22-4,25.57,25.57,0,0,1,1.66-6.94c1.58-3.88,4.29-6.88,8.55-8a15.54,15.54,0,0,1,5.13-.34,24.64,24.64,0,0,1,5.92,1.33,41.34,41.34,0,0,1,6.45,2.88,61.89,61.89,0,0,1,6.72,4.26c2.34,1.67,4.58,3.46,6.75,5.34s4.45,4,6.57,6.16a160.61,160.61,0,0,1,13.34,15.33,197.68,197.68,0,0,1,17.81,27.63q3.89,7.24,7.08,14.78a148.54,148.54,0,0,1,5.14,14.06c1,3.21,1.84,6.44,2.51,9.72a74.08,74.08,0,0,1,1.3,8.51c.12,1.24.2,2.49.24,3.73,0,.6,0,1.2,0,1.79v168.54"/><polygon class="cls-3" points="1907.41 4146.05 1907.41 4262.92 1842.48 4197.98 1842.48 4081.11 1869.82 4108.45 1869.82 4108.46 1880.08 4118.72 1907.41 4146.05"/><polygon class="cls-3" points="1711.7 3950.34 1711.7 4067.21 1646.76 4002.27 1646.76 3885.4 1674.11 3912.75 1684.36 3923 1711.7 3950.34"/><polygon class="cls-3" points="1515.99 3754.63 1515.99 3871.5 1451.05 3806.56 1451.05 3689.69 1478.4 3717.04 1488.64 3727.28 1515.99 3754.63"/><polygon class="cls-3" points="1940.91 3840.55 1940.91 4075.57 1808.98 3943.63 1808.98 3708.63 1940.91 3840.55"/><polygon class="cls-3" points="1745.2 3644.84 1745.2 3879.84 1613.27 3747.92 1613.27 3512.91 1745.2 3644.84"/><polygon class="cls-3" points="1549.53 3449.17 1549.53 3684.17 1417.6 3552.24 1417.6 3317.24 1549.53 3449.17"/><polygon class="cls-3" points="917.61 2817.25 917.61 3052.25 891.47 3026.11 785.67 2920.32 785.67 2685.31 917.61 2817.25"/><polygon class="cls-3" points="1113.11 3012.76 1113.11 3247.76 1086.97 3221.62 981.17 3115.83 981.17 2880.81 1113.11 3012.76"/><polygon class="cls-3" points="1305.22 3204.86 1305.22 3439.86 1279.08 3413.72 1173.28 3307.93 1173.28 3072.92 1305.22 3204.86"/><polygon class="cls-3" points="674.78 2574.42 674.78 2809.44 542.85 2677.49 542.85 2442.49 674.78 2574.42"/><polygon class="cls-3" points="479.07 2378.71 479.07 2613.71 347.12 2481.78 347.12 2481.77 347.12 2246.78 479.07 2378.71"/><polygon class="cls-3" points="283.35 2183 283.35 2418 151.41 2286.07 151.41 2051.05 283.35 2183"/><polyline class="cls-3" points="2034.26 4724.19 2035.52 4722.94 2786.29 3972.16"/><polyline class="cls-3" points="2035.38 4725.31 2034.26 4724.19 1369.29 4059.22"/><polyline class="cls-3" points="1922.65 4579.47 1827.25 4484.06 1726.94 4383.77"/><polyline class="cls-3" points="365.39 3022.2 265.09 2921.91 169.68 2826.49 125.79 2782.61 57.22 2714.03"/><polyline class="cls-3" points="678.49 3375.68 56.8 2753.99 55.79 2752.97"/><line class="cls-3" x1="2786.29" y1="3972.16" x2="2786.29" y2="3098.36"/><line class="cls-3" x1="807.58" y1="1119.64" x2="56.8" y2="1870.41"/><line class="cls-3" x1="2786.29" y1="3098.36" x2="807.58" y2="1119.64"/><line class="cls-3" x1="2035.52" y1="3849.12" x2="2786.29" y2="3098.36"/><line class="cls-3" x1="831.9" y1="1671.48" x2="807.58" y2="1119.64"/><polyline class="cls-3" points="2011.2 2850.78 2035.51 3848.49 2035.52 3849.12"/><line class="cls-3" x1="831.9" y1="1671.48" x2="2011.2" y2="2850.78"/><line class="cls-3" x1="2786.29" y1="3098.36" x2="2011.2" y2="2850.78"/><line class="cls-3" x1="56.8" y1="1870.41" x2="831.9" y2="1671.48"/><path class="cls-3" d="M1062.11,3505c-3-4-6.06-7.88-9.34-11.63-2.9-3.29-5.89-6.45-9.06-9.46a99.1,99.1,0,0,0-11.61-9.54,64.31,64.31,0,0,0-5.8-3.6,45.5,45.5,0,0,0-5.59-2.56,24.5,24.5,0,0,0-7.89-1.66,13.51,13.51,0,0,0-6.43,1.34,12.08,12.08,0,0,0-4.57,4.18,19.55,19.55,0,0,0-2.59,6.49,32.42,32.42,0,0,0-.67,4.58c0,.82-.09,1.64-.1,2.45v43h0v0l0,0,.18.18.35.37c.25.23.49.48.73.71,1,1,1.93,1.93,2.89,2.91q9.92,9.9,19.82,19.81l39.64,39.64"/><polyline class="cls-3" points="1178.4 3871.12 1178.4 3868.33 1178.4 3848.32"/><polyline class="cls-3" points="1369.29 3590.82 1319.44 3640.66 1287.23 3672.88"/><line class="cls-3" x1="1369.29" y1="3539.06" x2="1369.29" y2="3590.82"/><polyline class="cls-3" points="646.3 2980.19 702.48 2924.01 728.36 2898.13"/><polyline class="cls-3" points="1287.23 3672.88 1253 3638.65 1128.56 3514.21 1062.11 3447.77 933.69 3319.34 867.23 3252.9 744.93 3130.6 678.49 3064.14 646.3 3031.95"/><polyline class="cls-3" points="646.3 2980.19 646.3 3001.81 646.3 3009.02 646.3 3031.95"/><polyline class="cls-3" points="794.78 3487.51 794.78 3484.72 794.78 3464.71"/><line class="cls-3" x1="1369.29" y1="4062.01" x2="1369.29" y2="4068.47"/><polyline class="cls-3" points="983.52 3676.25 998.46 3691.18 1046.16 3738.88 1062.11 3754.84"/><polyline class="cls-3" points="1369.29 4062.01 1369.29 4059.22 1369.29 4039.2"/><polyline class="cls-3" points="982.44 3534.86 998.46 3550.88 1046.16 3598.58 1062.11 3614.53"/><polyline class="cls-3" points="1253 3909.82 1176.97 3833.79 1128.56 3785.39"/><path class="cls-3" d="M1062.11,3488.28c-3.89-4.9-7.95-9.62-12.25-14.16q-2.88-3.07-5.92-6c-2-1.9-4-3.75-6-5.54a110.47,110.47,0,0,0-15.5-11.44,67.72,67.72,0,0,0-7.56-3.93,43.49,43.49,0,0,0-7.13-2.45,25.3,25.3,0,0,0-9.49-.65,15.92,15.92,0,0,0-7.47,3,17.74,17.74,0,0,0-5.08,6.36,30.77,30.77,0,0,0-2.69,9c-.24,1.61-.39,3.22-.47,4.84,0,.84-.08,1.69-.08,2.53v183.59"/><line class="cls-3" x1="982.44" y1="3512.62" x2="998.46" y2="3528.63"/><line class="cls-3" x1="998.46" y1="3550.88" x2="998.46" y2="3691.18"/><line class="cls-3" x1="1046.16" y1="3598.58" x2="1046.16" y2="3738.88"/><polygon class="cls-3" points="1008.99 3667.67 1036.45 3695.14 1036.45 3597.01 1008.99 3569.55 1008.99 3667.67"/><path class="cls-3" d="M1253,3678.33c-3.9-4.66-8-9.14-12.23-13.42a156.23,156.23,0,0,0-12.23-11.06c-2.59-2.09-5.27-4.08-8-5.93a79.91,79.91,0,0,0-8-4.67,49.07,49.07,0,0,0-7.59-3.18,32.75,32.75,0,0,0-7-1.52,19.74,19.74,0,0,0-8.52.88,15.14,15.14,0,0,0-6.4,4.33,20.93,20.93,0,0,0-4.09,7.3,38.26,38.26,0,0,0-1.83,9.53c0,.83-.11,1.65-.12,2.48s0,1.61,0,2.41v168.31"/><line class="cls-3" x1="1253" y1="3942.93" x2="1178.4" y2="3868.33"/><line class="cls-3" x1="1369.29" y1="4039.2" x2="1319.44" y2="3989.36"/><line class="cls-3" x1="794.78" y1="3464.71" x2="744.94" y2="3414.86"/><line class="cls-3" x1="794.78" y1="3487.51" x2="867.23" y2="3559.95"/><line class="cls-3" x1="728.36" y1="2898.13" x2="1369.29" y2="3539.06"/><line class="cls-3" x1="1178.4" y1="3848.32" x2="1128.56" y2="3798.47"/><path class="cls-3" d="M867.23,3310c-3-4-6.05-7.83-9.33-11.55-2.88-3.26-5.88-6.4-9.06-9.39a98.33,98.33,0,0,0-11.59-9.45,64.59,64.59,0,0,0-5.8-3.54,42.05,42.05,0,0,0-5.57-2.49,24,24,0,0,0-7.83-1.56,13,13,0,0,0-6.35,1.43,12,12,0,0,0-4.5,4.23,19.91,19.91,0,0,0-2.54,6.53,32.46,32.46,0,0,0-.63,4.59c-.06.83-.09,1.65-.1,2.47v42.82h0l0,0a.12.12,0,0,0,0,0l.09.09.36.36.72.72,2.89,2.89L827.79,3358l39.44,39.44"/><polyline class="cls-3" points="1062.11 3622.67 1056.69 3617.25 1056.69 3715.38 1062.11 3720.8"/><path class="cls-3" d="M1253,3694.76c-2.94-3.71-6-7.28-9.2-10.72-2.87-3-5.83-6-9-8.71a87,87,0,0,0-11.62-8.66,53,53,0,0,0-5.69-3,34.45,34.45,0,0,0-5.36-1.9,19.47,19.47,0,0,0-7.17-.57,11.77,11.77,0,0,0-5.66,2.21,13.14,13.14,0,0,0-3.87,4.73,22.84,22.84,0,0,0-2,6.74,35.67,35.67,0,0,0-.42,4.74c0,.75,0,1.52,0,2.27v41.25h0l0,0,0,0,.09.09.18.18.35.35,2.82,2.82,18.83,18.83,37.67,37.67"/><line class="cls-3" x1="867.23" y1="3557.18" x2="794.78" y2="3484.72"/><path class="cls-3" d="M867.23,3293.32c-3.88-4.88-7.94-9.58-12.25-14.11-1.92-2-3.89-4-5.92-6s-4-3.74-6.06-5.52a109,109,0,0,0-15.54-11.37,62.58,62.58,0,0,0-7.57-3.85,41.06,41.06,0,0,0-7.12-2.38,24.58,24.58,0,0,0-9.4-.5,15.78,15.78,0,0,0-7.37,3.15,18.24,18.24,0,0,0-5,6.47,31.23,31.23,0,0,0-2.59,9.06c-.24,1.61-.38,3.23-.46,4.85,0,.86-.05,1.7-.05,2.54v169"/><polyline class="cls-3" points="867.23 3523.06 787.91 3443.74 744.93 3400.77"/><line class="cls-3" x1="1287.23" y1="3621.11" x2="646.3" y2="2980.19"/><line class="cls-3" x1="1287.23" y1="3621.11" x2="1287.23" y2="3672.88"/><line class="cls-3" x1="1369.29" y1="3539.06" x2="1287.23" y2="3621.11"/><line class="cls-3" x1="983.52" y1="3676.25" x2="983.52" y2="3653.45"/><polyline class="cls-3" points="983.52 3653.45 982.44 3652.37 933.69 3603.61"/><line class="cls-3" x1="901.47" y1="3735.49" x2="983.52" y2="3653.45"/><line class="cls-3" x1="901.81" y1="3757.96" x2="983.52" y2="3676.25"/><line class="cls-3" x1="1096.34" y1="3930.38" x2="1178.4" y2="3848.32"/><line class="cls-3" x1="1096.34" y1="3953.18" x2="1178.4" y2="3871.12"/><line class="cls-3" x1="712.73" y1="3546.75" x2="794.78" y2="3464.71"/><line class="cls-3" x1="712.73" y1="3569.56" x2="794.78" y2="3487.51"/><line class="cls-3" x1="1287.23" y1="4121.26" x2="1369.29" y2="4039.2"/><line class="cls-3" x1="1287.23" y1="4144.07" x2="1369.29" y2="4062.01"/><polyline class="cls-3" points="867.23 3667.28 867.23 3631.29 867.23 3559.95 867.23 3557.18 867.23 3523.06 867.23 3397.41 867.23 3310.01 867.23 3293.32 867.23 3252.9"/><polyline class="cls-3" points="933.69 3319.34 933.69 3603.61 933.69 3667.28"/><polyline class="cls-3" points="1253 4053.04 1253 4017.04 1253 3942.93 1253 3909.82 1253 3783.17 1253 3694.76 1253 3678.33 1253 3638.65"/><polyline class="cls-3" points="1319.44 3640.66 1319.44 3976.26 1319.44 3989.36 1319.44 4053.04"/><polyline class="cls-3" points="678.49 3478.54 678.49 3442.55 678.49 3375.68 678.49 3335.31 678.49 3064.14"/><polyline class="cls-3" points="744.93 3130.6 744.93 3400.77 744.93 3414.86 744.93 3478.54"/><polyline class="cls-3" points="1062.11 3862.17 1062.11 3826.17 1062.11 3754.84 1062.11 3720.8 1062.11 3622.67 1062.11 3614.53 1062.11 3592.29 1062.11 3505.01 1062.11 3488.28 1062.11 3447.77"/><polyline class="cls-3" points="1128.56 3514.21 1128.56 3785.39 1128.56 3798.47 1128.56 3862.17"/><line class="cls-3" x1="867.23" y1="3631.29" x2="832.25" y2="3666.27"/><path class="cls-3" d="M1128.56,3862.17a33.23,33.23,0,0,1-66.45,0"/><path class="cls-3" d="M735.21,3502a33.24,33.24,0,0,1-56.72-23.5"/><path class="cls-3" d="M1309.71,4076.53A33.22,33.22,0,0,1,1253,4053"/><path class="cls-3" d="M1319.44,4053a33.22,33.22,0,0,1-9.73,23.49"/><path class="cls-3" d="M924,3690.78a33.24,33.24,0,0,1-56.73-23.5"/><path class="cls-3" d="M933.69,3667.28a33.23,33.23,0,0,1-9.73,23.5"/><line class="cls-3" x1="1218" y1="4074.84" x2="1218" y2="4052.04"/><polyline class="cls-3" points="1218 4074.84 1285.36 4142.2 1287.23 4144.07"/><polyline class="cls-3" points="1218 4052.04 1286.2 4120.23 1287.23 4121.26"/><line class="cls-3" x1="643.51" y1="3500.34" x2="643.51" y2="3477.53"/><line class="cls-3" x1="643.51" y1="3500.34" x2="712.73" y2="3569.56"/><line class="cls-3" x1="643.51" y1="3477.53" x2="712.73" y2="3546.75"/><line class="cls-3" x1="1027.13" y1="3883.96" x2="1096.34" y2="3953.18"/><line class="cls-3" x1="1253" y1="4017.04" x2="1218" y2="4052.04"/><line class="cls-3" x1="678.49" y1="3442.55" x2="643.51" y2="3477.53"/><line class="cls-3" x1="1062.11" y1="3826.17" x2="1027.13" y2="3861.15"/><line class="cls-3" x1="1027.13" y1="3861.15" x2="1096.34" y2="3930.38"/><polyline class="cls-3" points="832.25 3689.08 901.3 3758.13 901.47 3758.3"/><line class="cls-3" x1="832.25" y1="3666.27" x2="900.4" y2="3734.42"/><path class="cls-3" d="M744.94,3478.54a33.23,33.23,0,0,1-9.73,23.5"/><line class="cls-3" x1="1027.13" y1="3883.96" x2="1027.13" y2="3861.15"/><polyline class="cls-3" points="1286.2 4117.89 1286.2 4120.23 1286.2 4141.35"/><line class="cls-3" x1="1096.34" y1="3930.38" x2="1096.34" y2="3953.18"/><line class="cls-3" x1="832.25" y1="3666.27" x2="832.25" y2="3689.08"/><line class="cls-3" x1="901.47" y1="3735.49" x2="901.47" y2="3757.96"/><line class="cls-3" x1="712.73" y1="3546.75" x2="712.73" y2="3569.56"/><polyline class="cls-3" points="2034.26 4724.19 2034.26 4691.08 2034.26 3849.12"/><line class="cls-3" x1="56.8" y1="1870.41" x2="2034.89" y2="3848.5"/><polyline class="cls-3" points="56.8 2753.99 56.8 2714.03 56.8 1870.41"/><line class="cls-3" x1="460.8" y1="3117.62" x2="561.11" y2="3217.93"/><line class="cls-3" x1="656.52" y1="3313.33" x2="678.49" y2="3335.31"/><line class="cls-3" x1="1631.52" y1="4288.34" x2="1531.22" y2="4188.04"/><polyline class="cls-3" points="1435.81 4092.63 1319.44 3976.26 1316.61 3973.43"/><polyline class="cls-3" points="1922.65 4579.47 2034.26 4691.08 2035.63 4692.44"/></g></svg>